<?xml version="1.0" encoding="utf-8"?>
<!-- Generator: Adobe Illustrator 23.0.6, SVG Export Plug-In . SVG Version: 6.00 Build 0)  -->
<svg version="1.1" id="Layer_1" xmlns="http://www.w3.org/2000/svg" xmlns:xlink="http://www.w3.org/1999/xlink" x="0px" y="0px"
	 viewBox="0 0 401.4 188.8" style="enable-background:new 0 0 401.4 188.8;" xml:space="preserve">
<style type="text/css">
	.st0{fill:#231F20;}
</style>
<title>ashton-logo-tyt</title>
<g>
	<path class="st0" d="M94.3,158.4c0.1,0.6,0.1,1.3,0.1,1.9c0,3.9-4.3,7.5-9,7.5c-2.8,0-5.6-1.7-5.6-5.1c0-8.3,15.9-9.9,22.4-9.9
		c4.1,0,8.7,0.4,10.4,0.4c1.3,0,1.8,0.5,1.8,1.3s-0.9,1.3-2.7,1.3c-1.8,0-3.2-0.1-4.3-0.1c-4.5,0-7.3,6.7-10.7,12.5
		c-3.4,5.7-7.6,9.4-14.1,9.4c-2.8,0-7.1-1-7.1-4.7c-0.1-1.3,0.9-2.3,2-2.3h0.1c1.1,0,1.8,0.6,1.8,1.5c0,0.8-0.5,1.5-1.3,1.7
		c0.1,2.3,1.5,3.4,4.6,3.4c6,0,9-6.5,11.8-11.5c3.2-5.6,5.3-8.4,11.3-10.2v-0.1c-1.3-0.1-4.5-0.3-6.6-0.3c-8.7,0-19,1.7-19,7.4
		c0,2.5,3.1,3.8,5.5,3.8c3.7,0,8.3-2,8.3-6.4c0-0.5,0-1-0.1-1.5L94.3,158.4z"/>
	<path class="st0" d="M96.1,177.1c2.3-4.1,4.8-8,7.1-12.1l3.9-0.1l-4.6,6.4v0.1c1.8-2.2,3.8-4.2,6.1-5.7c1-1,1.5-1.1,4.2-1.1
		c-1,1.1-1.7,2.7-1.8,4.2c-0.1,0.6,0.4,1.4,1,1.5c0.1,0,0.3,0,0.5,0c1.3,0,2.5-1.3,3.3-2l0.1,0.1c-1.1,1.7-3.1,2.7-5.1,2.7
		c-1.4,0.1-2.8-0.9-2.9-2.3c0-0.1,0-0.4,0-0.5c0-0.6,0.3-1.1,0.5-1.7l-0.1-0.1c-3.9,2.5-6.9,7-8.9,10.8L96.1,177.1z"/>
	<path class="st0" d="M128.5,164.9c-3.6,6-6.2,9.3-6.2,11.2c0,0.5,0.3,0.8,0.6,0.8c1.1,0,3.2-1.7,5-3.3c1.8-1.8,3.4-3.7,5-5.6
		l0.3,0.3c-1.5,2-3.1,3.8-4.8,5.6c-2.3,2.4-4.3,3.8-6.2,3.8c-1.1,0.1-2.2-0.8-2.3-1.9c0-0.1,0-0.1,0-0.3c0-0.6,0.1-1.4,0.4-1.9v-0.1
		c-1.7,1.8-3.8,4.2-6.7,4.2c-1.1,0-2.2-0.9-2.2-2c0-0.1,0-0.1,0-0.3c0-1.8,2-5,5.2-10.3l3.7-0.1c-3.7,5.6-6.1,9-6.1,10.8
		c0,0.5,0.3,0.9,0.8,1l0,0c1.8,0,5.1-3.2,7.3-6.7l2.9-4.8L128.5,164.9z"/>
	<path class="st0" d="M134.5,177.1c4.7-1,7.9-5.1,10.8-9l0.3,0.3c-3.7,4.8-7.1,9.4-13.9,9.4c-2.4,0-5-0.9-5-3.7
		c0-1.4,0.9-3.2,2.5-3.2c0.9-0.1,1.5,0.5,1.7,1.4v0.1c0,0.8-0.5,1.4-1.3,1.5h-0.1c-0.3,0-0.5,0-0.8-0.1c-0.3,0.4-0.4,0.9-0.4,1.4
		c0.1,1.3,1.1,2.3,2.4,2.2c0,0,0,0,0.1,0c1.8,0.1,3.3-1.1,3.6-2.9c-0.1-1.1-0.6-2.3-1.4-3.1c-0.8-0.8-1.3-1.8-1.4-2.9
		c0-2.5,2.7-3.9,5.1-3.9c2.2,0,3.9,1,3.9,2.7c0,1.3-1,2.3-2.2,2.3h-0.1c-0.4,0-0.6-0.1-1-0.1c0.5-0.9,0.6-1.8,0.6-2.7
		c0.1-0.9-0.5-1.7-1.4-1.7c-0.1,0-0.3,0-0.4,0c-1,0-1.9,0.8-2,1.8c0,0.1,0,0.1,0,0.3c0.1,1.1,0.6,2.3,1.4,3.2c0.8,0.9,1.3,2,1.4,3.3
		C137.2,175.1,136,176.5,134.5,177.1L134.5,177.1z"/>
	<path class="st0" d="M143.3,165.7l0.3-0.6h2.7l2.5-4.3l3.7-0.1l-2.8,4.5h4.3l-0.3,0.6h-4.5c-4.2,6.9-5.6,8.9-5.6,10.2
		c0,0.5,0.3,0.9,0.8,1h0.1c1.1,0,3.2-1.3,5.3-3.3c1.8-1.8,3.3-3.6,4.8-5.6l0.3,0.1c-1.4,1.9-2.9,3.7-4.7,5.5
		c-2.2,2.2-4.6,3.9-6.6,3.9c-1.4,0-2.8-0.6-2.8-2.3c0-2.4,2.2-4.8,5-9.7L143.3,165.7z"/>
	<path class="st0" d="M194.9,153.2l-15.9,25.1c-3.6,5.2-8.5,9.5-14.9,9.5c-3.6,0-6.7-1.3-6.7-4.8c0.1-2.2,1.8-3.8,3.9-3.9
		c1.4,0,2.7,0.4,3.9,1v0.3c-0.6-0.3-1.3-0.4-2-0.5c-1.9,0-2.9,1.8-2.9,3.6c-0.1,2,1.4,3.8,3.4,3.9c0.1,0,0.4,0,0.5,0
		c4.6,0,8.3-4.5,12-10.1l4.7-7.3l-0.1-0.1c-2.7,3.3-7.1,7.5-11.7,7.5c-1.1,0.1-2.3-0.8-2.4-1.9c0-0.1,0-0.3,0-0.4
		c0-4.6,10.8-16.3,10.8-20.5c0-1.4-0.6-2-1.8-2c-4.7,0-9.8,4.3-9.8,9c0,1.1,0.6,2.5,1.9,2.5c1.9,0,3.1-1.3,4.2-2.5l0.3,0.1
		c-1.3,1.5-2.9,3.1-5.1,3.1c-1.5,0.3-3.1-0.9-3.2-2.5c0-0.1,0-0.3,0-0.5c0-4.7,6.4-9.7,12.6-9.7c1.8,0,3.9,0.6,3.9,2.8
		c0,4.8-10.8,16.4-10.8,20.2c0,0.8,0.5,1.3,1.1,1.4c0.1,0,0.1,0,0.3,0c2.7,0,7.5-4.2,9.7-7.1c3.3-4.5,9-14,10.2-16.2L194.9,153.2z"
		/>
	<path class="st0" d="M208,168.2c-0.9,1.3-2.2,2.2-3.7,2.3c-1,0-1.9-0.5-2.4-1.3c-1.1,4.7-5.2,8.3-10.1,8.4c-2,0.3-3.9-1.3-4.2-3.4
		c0-0.3,0-0.4,0-0.6c0-5,5.6-9.2,10.2-9.2c2-0.1,3.9,1.4,4.2,3.4c0.1,1.3,1.1,2.3,2.3,2.3c1.3,0,2.3-0.8,3.6-2.2L208,168.2z
		 M199.1,166.7c0-1.1-0.5-1.8-1.5-1.8c-3.4,0-7.1,7.6-7.1,10.6c0,1.1,0.5,1.8,1.5,1.8C195.4,177.4,199.1,169.6,199.1,166.7
		L199.1,166.7z"/>
	<path class="st0" d="M220.2,164.9c-3.6,6-6.2,9.3-6.2,11.2c0,0.5,0.3,0.8,0.6,0.8c1.1,0,3.2-1.7,5-3.3c1.8-1.8,3.4-3.7,5-5.6
		l0.3,0.3c-1.5,2-3.1,3.8-4.8,5.6c-2.3,2.4-4.3,3.8-6.2,3.8c-1.1,0.1-2.2-0.8-2.3-1.9c0-0.1,0-0.1,0-0.3c0-0.6,0.1-1.4,0.4-1.9
		l-0.1-0.1c-1.7,1.8-3.8,4.2-6.7,4.2c-1.1,0-2.2-0.9-2.2-2c0-0.1,0-0.1,0-0.3c0-1.8,2-5,5.2-10.3l3.7-0.1c-3.7,5.6-6.1,9-6.1,10.8
		c0,0.5,0.3,0.9,0.8,1l0,0c1.8,0,5.1-3.2,7.3-6.7l2.9-4.8L220.2,164.9z"/>
	<path class="st0" d="M217.8,177.1c2.3-4.1,4.8-8,7.1-12.1l3.9-0.1l-4.6,6.4l0.1,0.1c1.8-2.2,3.8-4.2,6.1-5.7c1-1,1.5-1.1,4.2-1.1
		c-1,1.1-1.7,2.7-1.8,4.2c0,1,0.5,1.5,1.5,1.5c1.3,0,2.4-1.3,3.3-2l0.1,0.1c-1.1,1.7-3.1,2.7-5.1,2.7c-1.4,0.1-2.8-0.9-2.9-2.3
		c0-0.1,0-0.4,0-0.5c0-0.6,0.1-1.1,0.5-1.7l-0.1-0.1c-3.9,2.5-6.9,7-8.9,10.8L217.8,177.1z"/>
	<path class="st0" d="M263.7,158.4c0.1,0.6,0.1,1.3,0.1,1.9c0,3.9-4.3,7.5-9,7.5c-2.8,0-5.6-1.7-5.6-5.1c0-8.3,15.9-9.9,22.4-9.9
		c4.1,0,8.7,0.4,10.4,0.4c1.3,0,1.8,0.5,1.8,1.3s-0.9,1.3-2.7,1.3s-3.2-0.1-4.3-0.1c-4.5,0-7.3,6.7-10.7,12.5
		c-3.4,5.7-7.6,9.4-14.1,9.4c-2.8,0-7.1-1-7.1-4.7c-0.1-1.3,0.9-2.3,2-2.3h0.1c1.1,0,1.8,0.6,1.8,1.5c0,0.8-0.5,1.5-1.3,1.7
		c0.1,2.3,1.5,3.4,4.6,3.4c6,0,9-6.5,11.8-11.5c3.2-5.6,5.3-8.4,11.3-10.2v-0.1c-1.3-0.1-4.5-0.3-6.6-0.3c-8.7,0-19,1.7-19,7.4
		c0,2.5,3.1,3.8,5.5,3.8c3.7,0,8.3-2,8.3-6.4c0-0.5,0-1-0.1-1.5L263.7,158.4z"/>
	<path class="st0" d="M281.1,165.3l3.6-0.3c-1.3,2.4-6.2,8.5-6.2,10.9c0,0.4,0.3,0.8,0.6,0.9c0.1,0,0.1,0,0.3,0
		c1.1,0,3.2-1.4,5.2-3.6c1.7-1.7,3.2-3.4,4.6-5.3l0.3,0.1c-1.5,2-3.2,3.9-5,5.9c-2.2,2.2-4.3,3.8-6.5,3.8c-1.1,0.1-2.2-0.6-2.3-1.8
		c0-0.1,0-0.1,0-0.3c0-0.3,0-0.6,0.1-0.9l0,0c-1.3,1.7-3.2,2.7-5.3,2.9c-2.3,0-3.1-1.8-3.1-3.8c0-4.5,5.5-9.5,9.8-9.5
		c1.4-0.1,2.7,0.8,3.1,2.2L281.1,165.3z M272.6,176.5c2.9-0.3,6.7-7.1,6.7-9.7c0-1.3-0.4-1.9-1.7-1.9c-3.2,0-6.7,6.4-6.7,9.2
		C270.8,175.4,271.1,176.5,272.6,176.5z"/>
	<path class="st0" d="M291.2,177.1c4.7-1,7.9-5.1,10.8-9l0.3,0.3c-3.7,4.8-7.1,9.4-13.9,9.4c-2.4,0-5-0.9-5-3.7
		c0-1.4,0.9-3.2,2.5-3.2c0.9-0.1,1.5,0.5,1.7,1.4v0.1c0,0.8-0.5,1.4-1.3,1.5h-0.1c-0.3,0-0.5,0-0.8-0.1c-0.3,0.4-0.4,0.9-0.4,1.4
		c0,1.3,1.1,2.3,2.4,2.2l0,0c1.8,0.1,3.3-1.1,3.6-2.9c-0.1-1.1-0.6-2.3-1.4-3.1c-0.8-0.8-1.3-1.8-1.4-2.9c0-2.5,2.7-3.9,5.1-3.9
		c2.2,0,3.9,1,3.9,2.7c0,1.3-1,2.3-2.2,2.3H295c-0.4,0-0.6-0.1-1-0.1c0.5-0.9,0.6-1.8,0.6-2.7c0.1-0.9-0.5-1.7-1.4-1.7
		c-0.1,0-0.1,0-0.3,0c-1,0-1.9,0.8-2,1.8c0,0.1,0,0.1,0,0.3c0.1,1.1,0.6,2.3,1.4,3.2c0.8,0.9,1.3,2,1.4,3.3
		C293.9,175.1,292.9,176.5,291.2,177.1L291.2,177.1z"/>
	<path class="st0" d="M300,165.7l0.3-0.6h2.7l2.5-4.3l3.7-0.1l-2.8,4.5h4.3l-0.3,0.6H306c-4.1,6.9-5.6,8.9-5.6,10.2
		c0,0.5,0.3,0.9,0.8,1h0.1c1.1,0,3.2-1.3,5.3-3.3c1.8-1.8,3.4-3.6,4.8-5.6l0.3,0.1c-1.4,1.9-2.9,3.7-4.7,5.5
		c-2.2,2.2-4.6,3.9-6.6,3.9c-1.4,0-2.8-0.6-2.8-2.3c0-2.4,2.2-4.8,5-9.7L300,165.7z"/>
	<path class="st0" d="M325.9,168.1c-1.5,2.2-3.3,4.1-5.2,5.9c-2.3,2.3-5.5,3.7-8.7,3.8c-2.2,0.1-4.1-1.5-4.2-3.7c0-0.1,0-0.4,0-0.5
		c0-4.5,6-9,10.3-9c1.9,0,3.2,0.8,3.2,2.2c0,3.3-7.5,4.8-9.9,5.3c-0.1,0.4-0.1,0.9-0.1,1.3c-0.1,1.7,1,3.2,2.7,3.3
		c0.1,0,0.3,0,0.4,0c1.9,0,4.3-1.3,6.7-3.3C322.8,171.7,324.4,169.9,325.9,168.1L325.9,168.1z M317.5,164.9c-2.3,0-5.6,4.5-6.2,6.7
		c3.8-0.8,7.1-3.6,7.1-5.9c0-0.5-0.3-0.9-0.8-0.9C317.7,164.9,317.7,164.9,317.5,164.9z"/>
</g>
<path class="st0" d="M173.2,49.2l5.1,8.3c9.7-9.1,14.8-11.5,22.3-11.3s12.6,2.2,22.3,11.3l5.1-8.3c-8.3-8.9-17.8-12.1-27.4-12.1
	S181.6,40.3,173.2,49.2"/>
<path class="st0" d="M212.9,23.5c0-1,0.8-1.9,1.9-1.9l0,0c1,0,1.9,0.8,1.9,1.9c0,1-0.9,1.9-1.9,1.9
	C213.7,25.4,212.9,24.6,212.9,23.5 M184.4,23.3c0-1,0.9-1.9,1.9-1.9s1.9,0.9,1.9,1.9l0,0c0,1-0.9,1.9-1.9,1.9
	C185.3,25.2,184.4,24.3,184.4,23.3 M198.7,20.7c0-1.1,0.8-1.9,1.9-1.9c1.1,0,1.9,0.8,1.9,1.9s-0.8,1.9-1.9,1.9
	C199.6,22.6,198.8,21.8,198.7,20.7L198.7,20.7 M198.7,9.1c0-1.1,0.9-1.9,1.9-1.9s1.9,0.9,1.9,1.9s-0.9,1.9-1.9,1.9
	S198.7,10.2,198.7,9.1 M198.3,4.4c-0.7,2.3-5.5,2.2-1.7,6.8s0.7,5.9-0.8,7.1s-0.2,5.4,1.6,6.3s1.6,5.3-2.6,5.6s-4.9-2.4-3.9-4.3
	s4.1-5.1-1.4-7c-2-0.7-3.2-9-6.4-7.5s-0.2,8.1-1.6,9.7c-3.7,4.5,0.6,5.6,2.4,6.7s2.7,3.8-1.1,5.7s-6.2-1.9-5.1-3.5s0-5.9-1.9-6.2
	c-0.4,0-0.7,0-1.1,0c-1.6,0-3.1,0-3.8-4.8c-0.6-4.1-2.6-4.1-4.4-4c-0.8,0.1-1.6,0-2.3-0.3c-8.5-4.3-3.5,1.9-3.5,3.7
	s-0.3,4.9,2.1,4.9c2.3,0,4.2,1.9,4.2,4.2c0,0.4-0.1,0.8-0.2,1.2l9.1,14.5c9.3-6.2,16.9-7.8,24.5-7.8s15.2,1.4,24.5,7.8l9.1-14.5
	c-0.7-2.2,0.6-4.5,2.8-5.2c0.4-0.1,0.8-0.2,1.2-0.2c2.4,0,2.1-3,2.1-4.9s5-8-3.5-3.8c-0.7,0.3-1.5,0.4-2.3,0.3c-1.9,0-3.9-0.1-4.4,4
	c-0.7,4.9-2.2,4.8-3.8,4.8c-0.3,0-0.7,0-1.1,0c-1.9,0.3-2.9,4.5-1.9,6.2s-1.3,5.4-5.1,3.5s-3-4.6-1.1-5.7s6.2-2.2,2.4-6.7
	c-1.4-1.6,1.5-8.1-1.6-9.7s-4.4,6.8-6.4,7.5c-5.5,1.9-2.4,5.1-1.4,7s0.4,4.6-3.9,4.3s-4.4-4.8-2.6-5.6s3.1-5.1,1.6-6.3
	s-4.6-2.4-0.8-7S203,7,202.5,4.7c-0.6-3.2-1.4-4.7-2.2-4.7S199.1,1.6,198.3,4.4"/>
<path class="st0" d="M205.2,26.9c0,1.1,0.8,1.9,1.9,1.9c1.1,0,1.9-0.8,1.9-1.9s-0.8-1.9-1.9-1.9l0,0C206.1,25,205.2,25.8,205.2,26.9
	L205.2,26.9"/>
<path class="st0" d="M192.6,26.9c0,1.1,0.8,1.9,1.9,1.9c1.1,0,1.9-0.8,1.9-1.9s-0.8-1.9-1.9-1.9l0,0C193.5,25,192.6,25.8,192.6,26.9
	L192.6,26.9"/>
<path class="st0" d="M218,30.6c0,1.1,0.8,1.9,1.9,1.9c1.1,0,1.9-0.8,1.9-1.9c0-1-0.8-1.9-1.8-1.9c-1-0.1-1.9,0.7-2,1.8
	C218,30.5,218,30.6,218,30.6"/>
<path class="st0" d="M179.4,30.6c0,1.1,0.8,1.9,1.9,1.9l0,0c1.1,0,1.9-0.9,1.9-1.9s-0.9-1.9-1.9-1.9
	C180.3,28.7,179.5,29.5,179.4,30.6L179.4,30.6"/>
<path class="st0" d="M33.8,79.1l12.4,30.8H21.5L33.8,79.1z M35.5,63.2l-22.2,55c-2,4.9-5.3,13.1-7.8,15.9c-1.4,1.6-3.4,2.5-5.4,2.4
	v2.1h21.2v-2.1c-2.2,0-7.3,0-7.3-4.7c0-1.5,0.3-2.9,0.9-4.2l4.9-13.1h28l4.4,10.8c0.6,1.6,2,5.3,2,7.1c0,4.1-3.5,4.2-7.5,4.2v2.1H74
	v-2.1c-4.7-0.3-6.2-1.6-9.6-9.7L37.6,63.2H35.5z"/>
<path class="st0" d="M111.3,69.6c-0.2,1.1-0.7,3.5-3.4,3.5c-2.4,0-7.7-3.5-13.6-3.5c-8.8,0-17.6,5.7-17.6,17.4
	c0,10.1,6.2,14.6,15.2,20c14.3,8.8,15.9,12.3,15.9,18.1c0,5.5-3.9,11.3-11.7,11.3c-13.2,0-18.1-13.3-20-18.1h-2.2l2.9,21.7h2.1
	c-0.1-1.7,1.1-3.2,2.8-3.3c0.1,0,0.1,0,0.2,0c2.9,0,7.7,3.5,15.1,3.5c14,0,20.6-9.8,20.6-18.5c0-20.9-32.6-23-32.6-38.3
	c0-6.3,5-9.5,9.8-9.5c10.2,0,16.5,9.2,18.1,17.6h2.4l-2.1-21.8L111.3,69.6L111.3,69.6z"/>
<path class="st0" d="M165.3,71.1V73c7.2,0.6,8.6,1.6,8.6,9.2V102h-29.5V82.2c0-7.2,1.2-8.6,8.6-9.2v-1.9h-27.1V73
	c7.2,0.6,8.6,1.6,8.6,9.2v44.2c0,7.6-0.4,9.9-8.6,10.3v1.9H153v-1.9c-7.6-0.5-8.6-2.4-8.6-9.2v-21h29.5v19.9c0,7.6-0.4,9.9-8.6,10.3
	v1.9h27.1v-1.9c-7.6-0.5-8.6-2.4-8.6-9.2V82.2c0-7.2,1.2-8.6,8.6-9.2v-1.9H165.3z"/>
<path class="st0" d="M199.3,71.1l-0.6,17.4h2.3c2.1-11.1,4.8-13.1,15.5-13.1h5.3v51.1c0,7.6-0.3,9.9-9.2,10.3v1.9h28.5v-1.9
	c-8.2-0.3-9.4-2.2-9.4-9.2V75.4h5.3c10.7,0,13.4,1.8,15.5,13.1h2.3l-0.6-17.4H199.3z"/>
<path class="st0" d="M268.9,104.9c0-23.3,10.8-31.5,20.8-31.5s20.8,8.3,20.8,31.6c0,22.5-9.9,31.6-20.8,31.6
	S268.9,127.3,268.9,104.9 M257.8,105c0,21.8,14.2,35.1,31.9,35.1s31.9-13.4,31.9-35.1c0-23.5-15.9-35.3-31.9-35.3
	S257.8,81.5,257.8,105"/>
<path class="st0" d="M369.6,64.5v2.1c7.3,0.6,10.3,1.4,10.3,14.3v37.4h-0.2l-40.9-53.9h-18.3v2.1c4.3,0,6,0.6,10.4,6.2v49.4
	c0,12.1-2.2,13.8-10.4,14.3v2.1h25.1v-2.1c-7.8-0.3-10-2.8-10-14.3V78.5h0.2l47,61.4h1.8V81c0-13.1,3.4-13.6,10.1-14.3v-2.1
	L369.6,64.5L369.6,64.5z"/>
<path class="st0" d="M401.4,73.8c0.1,3-2.3,5.5-5.3,5.6s-5.5-2.3-5.6-5.3s2.3-5.5,5.3-5.6c0.1,0,0.1,0,0.2,0
	C399,68.5,401.4,70.9,401.4,73.8L401.4,73.8z M391.9,73.8c-0.1,2.3,1.7,4.2,4,4.3h0.1c2.2,0,4-1.9,4-4.1v-0.1
	c0.1-2.3-1.6-4.2-3.9-4.3c-2.3-0.1-4.2,1.6-4.3,3.9C391.8,73.6,391.8,73.8,391.9,73.8L391.9,73.8z M395.1,76.6h-1.2v-5.3
	c0.7-0.1,1.3-0.2,2-0.2c0.6-0.1,1.3,0.1,1.8,0.4c0.6,0.4,0.7,1.3,0.3,1.9c-0.2,0.3-0.5,0.5-0.8,0.5V74c0.5,0.2,0.8,0.6,0.9,1.3
	c0.1,0.5,0.2,0.9,0.4,1.3h-1.3c-0.2-0.4-0.4-0.8-0.4-1.3c-0.1-0.6-0.4-0.8-1.1-0.8h-0.6L395.1,76.6z M395.1,73.6h0.6
	c0.7,0,1.2-0.2,1.2-0.8s-0.4-0.8-1.1-0.8c-0.2,0-0.5,0-0.7,0.1V73.6z"/>
</svg>
