<?xml version="1.0" encoding="utf-8"?>
<!-- Generator: Adobe Illustrator 24.1.1, SVG Export Plug-In . SVG Version: 6.00 Build 0)  -->
<svg version="1.1" id="Layer_1" xmlns="http://www.w3.org/2000/svg" xmlns:xlink="http://www.w3.org/1999/xlink" x="0px" y="0px"
	 viewBox="0 0 680 456" style="enable-background:new 0 0 680 456;" xml:space="preserve">
<style type="text/css">
	.st0{fill:#14817A;}
	.st1{fill:#CEA661;}
	.st2{fill:#13817B;}
	.st3{fill:#14837C;}
	.st4{fill:#CEA761;}
	.st5{fill:#12807A;}
	.st6{fill:#CCA762;}
	.st7{fill:#15827B;}
</style>
<rect x="-15" y="-17" width="711" height="494"/>
<g>
	<g>
		<path class="st0" d="M454.57,220.54c2.46,4.39,5.59,8.34,8.35,12.53c1.74,2.65,3.62,5.21,5.25,7.92c0.88,1.47,1.85,1.77,3.42,1.32
			c4.26-1.22,8.38-2.74,12.11-5.16c1.74-1.13,2.13-0.69,2.12,1.25c-0.07,8.81-0.02,17.62-0.03,26.43c0,2.31,0.38,4.6,0.04,6.94
			c-0.16,1.12-0.4,1.65-1.63,1.64c-5.34-0.04-10.67-0.03-16.01,0.02c-1.01,0.01-1.51-0.47-2.02-1.22
			c-12.63-18.42-25.28-36.82-37.92-55.23c-20.33-29.63-41.26-58.84-62.55-87.79c-0.26-0.35-0.56-0.68-0.9-1.09
			c-0.56,0.84-0.31,1.62-0.31,2.34c-0.02,28.98-0.02,57.96-0.03,86.94c0,1-0.09,2-0.19,3c-0.32,3.08-0.33,3.08-3.04,1.76
			c-4.88-2.36-9.33-5.47-14.08-8.06c-1.3-0.71-1.24-1.77-1.24-2.95c0.01-24.27,0-48.54,0-72.81c0-8.04,0.02-16.08-0.03-24.11
			c-0.01-2.08-0.17-4.17-0.37-6.24c-0.43-4.36-2.8-7.03-7.07-8.06c-3.35-0.81-3.36-0.85-3.06-4.31c0.08-0.91,0.25-1.35,1.34-1.35
			c11.29,0.04,22.58,0.04,33.87-0.03c1.21-0.01,1.6,0.74,2.11,1.48c8.97,12.97,17.94,25.93,26.88,38.91
			c11.4,16.55,22.77,33.11,34.14,49.67c3.8,5.54,7.55,11.12,11.36,16.66c0.51,0.74,0.81,1.47,0.66,2.37
			c-0.79,4.87,2.21,8.07,5.03,11.34C452.7,216.19,453.7,218.33,454.57,220.54z"/>
		<path class="st1" d="M175.34,181.64c-0.37-6.31-0.01-12.35,0.83-18.38c2.29-16.4,8.02-31.4,18.44-44.37
			c14.41-17.93,33.31-27.61,56.15-29.67c18.57-1.68,36.16,1.55,52.57,10.65c1.45,0.8,2.1,1.64,2.08,3.38
			c-0.1,8.5-0.05,17-0.08,25.49c0,0.49,0.25,1.07-0.4,1.6c-2.28-2.25-4.59-4.48-7.1-6.51c-28.02-22.72-80.37-15.82-95.76,28.9
			c-1.59,4.62-2.75,9.33-3.35,14.17c-0.12,1.02-0.41,1.66-1.45,2.07c-7.59,3.02-14.59,7.07-20.97,12.17
			C176.09,181.33,175.8,181.41,175.34,181.64z"/>
		<path class="st2" d="M259.93,272.61c-34.97-1.89-60.8-17.68-75.8-49.96c-3.57-7.68-5.79-15.77-7.31-24.08
			c-0.29-1.59,0.04-2.26,1.74-2.73c6.04-1.66,12.16-2.87,18.36-3.7c1.36-0.18,1.87,0.07,2.05,1.55c2.04,16.9,8.95,31.4,21.8,42.75
			c9.1,8.04,19.81,12.77,31.87,14.26c14.57,1.79,28.3-0.86,41.06-8.17c0.91-0.52,1.51-0.68,2.4,0.15
			c4.35,4.06,8.81,7.99,13.56,11.59c1.12,0.85,0.97,1.26-0.05,1.99c-12.6,8.94-26.44,14.59-41.95,15.85
			C265.12,272.31,262.59,272.51,259.93,272.61z"/>
		<path class="st3" d="M439.72,255.16c-2.56,2.57-5.47,4.68-8.45,6.64c-13.98,9.15-29.21,14.53-46,15.46
			c-10.06,0.56-19.87-0.76-29.55-3.22c-3.47-0.88-6.91-0.48-10.36-0.64c-2.39-0.11-4.79,0-7.19-0.01c-0.58,0-1.26,0.17-1.62-0.57
			c-0.48-0.99,0.38-5.71,1.33-6.72c-8.11-4.42-15.83-9.4-22.99-15.18c-9.68-7.82-18.8-16.29-28.11-24.54
			c-10.42-9.22-20.89-18.37-32.71-25.82c-15.38-9.7-32.08-14.25-50.3-12.88c-1.08,0.08-2.15,0.25-3.22,0.37
			c-0.99,0.11-1.97,0.2-3.18,0.32c0.63-0.95,1.56-0.87,2.26-1.03c21.96-4.9,43.09-2.7,63.41,7.23c14.27,6.97,26.93,16.34,39.5,25.87
			c13.55,10.27,26.95,20.75,41.73,29.25c5.7,3.28,11.51,6.41,17.69,8.6c3.66,1.3,7.63,1.69,11.47,2.47
			c1.05,0.22,2.16,0.22,2.25,1.77c0.05,0.88,1.03,0.84,1.66,0.98c14.42,3.23,28.79,3.38,43.1-0.65
			C427.13,260.99,433.59,258.54,439.72,255.16z"/>
		<path class="st4" d="M421.08,236.41c-5.88,3.73-12.26,6.34-19.09,7.85c-14.96,3.32-29.46,1.52-43.75-3.56
			c-16.63-5.92-31.41-15.13-45.7-25.27c-11.91-8.45-23.44-17.44-36.14-24.72c-16.92-9.7-34.89-15.26-54.61-14.26
			c-13.83,0.7-26.71,4.74-38.99,10.92c-5.25,2.64-10.4,5.45-15.24,8.81c-0.42,0.29-0.88,0.5-1.63,0.35
			c2.48-2.35,4.83-4.86,7.47-7.02c20.17-16.49,43.24-24.49,69.34-23.08c15.25,0.82,29.29,5.94,42.66,13.08
			c14.23,7.6,27.01,17.38,40.25,26.49c14.71,10.13,29.57,20.04,46.4,26.46c13.79,5.26,27.96,7.79,42.73,5.28
			C416.89,237.38,418.98,236.86,421.08,236.41z"/>
		<path class="st5" d="M455.52,181.77c0-2.6,0-5.2,0-7.8c0-20.55-0.01-41.09,0-61.64c0-2.25-0.27-4.45-0.77-6.64
			c-0.83-3.62-3.13-5.73-6.69-6.11c-3.02-0.33-1.61-2.41-1.83-3.8c-0.27-1.76,1.12-1.46,2.16-1.46c12.67-0.02,25.35,0.01,38.02-0.07
			c1.45-0.01,1.56,0.51,1.64,1.71c0.15,2.11-0.22,3.27-2.7,3.79c-4.17,0.86-6.1,3.78-6.25,8.85c-0.25,8.33-0.09,16.67-0.13,25
			c-0.05,9.17,0.45,18.35-0.14,27.52c-0.06,0.99-0.18,1.78-1.14,2.31C469.23,168.14,461.91,174.21,455.52,181.77z"/>
		<path class="st6" d="M514.4,153.99c-0.11-2.89-0.42-5.76-1.19-8.94c-2.88,3.02-5.7,5.61-8.68,8.03
			c-10.16,8.27-22.76,12.76-32.73,21.36c-3.44,2.96-7.27,5.48-10.12,9.05c-7.26,9.1-11.63,19.26-10.91,31.18
			c0.87,2.21,2.37,4.02,3.81,5.87c0.51-5.07-0.84-10.13,1.12-15.29c1.81-4.81,4.34-9.07,7.05-13.32c0.33-0.52,0.54-1.32,1.5-1.35
			c0.2,2.32,0.76,4.55,1.3,6.79c1.14,4.74,1.89,9.54,1.96,14.44c0.01,1.15-0.24,2.06-0.95,2.97c-2,2.56-3.76,5.31-5.91,7.74
			c-1.9,2.15,0.2,2.69,1.16,3.65c1.37,1.35,1.67-0.4,2.13-0.99c2.7-3.38,5.3-6.84,7.94-10.27c0.62-0.81,1.26-1.36,2.43-1.48
			c6.68-0.68,13.37,0.19,20.07-0.57c-6.25,12.42-17.17,16.2-30.07,16.4c0.77,2.16,1.84,3.03,3.9,2.88c2.46-0.17,4.95,0.09,7.42-0.01
			c1.06-0.05,1.95,0.6,3.14,0.17c12.53-4.55,20.71-13.63,26.49-25.24c0.2-0.4,0.62-1.07,0.21-1.24c-1.99-0.79-0.49-1.79-0.11-2.48
			c1.88-3.39,3.26-6.99,4.77-10.54c0.83-1.95-0.18-3.86,0.38-5.62C513.92,176.36,514.82,165.25,514.4,153.99z M488.99,170.71
			c0-1.02,0.86-1.41,1.5-1.92c5.09-4,10.52-7.53,15.97-11.04c-4.33,9.86-10.86,18.25-17.47,26.9
			C488.99,180,488.98,175.35,488.99,170.71z M471.85,208.2c0.18-4.82-0.39-8.97-0.82-13.11c-0.36-3.48,0.06-6.94-0.01-10.42
			c-0.02-0.49,0.17-0.89,0.51-1.24c3.25-3.39,6.61-6.67,10.92-9.26c0.48,6.36,0.74,12.5,0.8,18.65c0.01,0.36-0.13,0.78-0.34,1.06
			C479.36,198.51,475.78,203.12,471.85,208.2z M498.07,205.95c-0.34,0.63-0.9,0.71-1.53,0.84c-6.44,1.33-12.96,1.85-19.94,2.2
			c3.3-4.55,6.32-8.72,9.32-12.9c0.36-0.49,0.8-0.68,1.38-0.67c5.37,0.13,10.6-0.78,15.75-2.22c0.19-0.06,0.43,0.07,0.83,0.14
			C502.29,197.76,500.21,201.87,498.07,205.95z M505.6,186.82c-0.3,1.16-1.08,1.32-1.98,1.57c-4.54,1.29-9.21,1.76-14.28,2.3
			c2.35-3.73,4.53-7.19,7.14-10.36c0.3-0.37,0.94-0.49,1.45-0.63c3.32-0.96,6.66-1.87,10.15-3.4
			C507.39,180.15,506.48,183.48,505.6,186.82z M508.85,171.81c-0.07,0.95-0.89,1.17-1.57,1.5c-2.57,1.27-5.34,1.93-8.66,2.89
			c3.65-6.27,7.04-12.09,10.7-18.37C509.49,162.83,509.18,167.32,508.85,171.81z"/>
		<path class="st7" d="M364.44,254.24c-4.38-1.56-8.57-3.81-12.78-6.02c-1.64-0.86-3.24-1.79-4.88-2.65
			c-0.74-0.39-1.13-0.87-1.2-1.77c-0.28-3.5-0.07-3.75,3.07-2.34c4.52,2.02,9.17,3.67,13.99,4.77c1.42,0.32,1.88,1.03,1.82,2.41
			C364.37,250.46,364.44,252.3,364.44,254.24z"/>
	</g>
	<g>
		<path class="st1" d="M173.08,316.39c0-7.86,5.94-13.22,13.42-13.22c5.83,0,9.08,3.07,10.89,6.25l-4.68,2.3
			c-1.07-2.07-3.37-3.72-6.21-3.72c-4.45,0-7.82,3.56-7.82,8.39c0,4.83,3.37,8.39,7.82,8.39c2.84,0,5.14-1.61,6.21-3.72l4.68,2.26
			c-1.84,3.18-5.06,6.29-10.89,6.29C179.02,329.61,173.08,324.25,173.08,316.39z"/>
		<path class="st1" d="M209.15,303.59h5.44v25.57h-5.44V303.59z"/>
		<path class="st1" d="M240.54,303.16c5.29,0,8.62,2.57,10.58,5.6l-4.52,2.45c-1.19-1.8-3.37-3.22-6.06-3.22
			c-4.64,0-8.01,3.56-8.01,8.39c0,4.83,3.37,8.39,8.01,8.39c2.34,0,4.41-0.96,5.52-1.96v-3.11h-6.82v-4.68h12.19v9.77
			c-2.61,2.91-6.25,4.83-10.89,4.83c-7.47,0-13.61-5.21-13.61-13.26C226.93,308.3,233.06,303.16,240.54,303.16z"/>
		<path class="st1" d="M280.29,324.74h-11.42l-1.61,4.41h-5.98l9.89-25.57h6.82l9.85,25.57h-5.94L280.29,324.74z M270.32,320.03
			h8.47l-4.22-11.73L270.32,320.03z"/>
		<path class="st1" d="M308.15,319.99h-3.99v9.16h-5.44v-25.57h11.96c5.33,0,8.59,3.49,8.59,8.24c0,4.52-2.84,6.94-5.6,7.59
			l5.75,9.74h-6.25L308.15,319.99z M309.87,308.26h-5.71v7.05h5.71c2.19,0,3.83-1.38,3.83-3.53S312.06,308.26,309.87,308.26z"/>
		<path class="st1" d="M355.64,311.98v17.17h-5.44v-25.57h5.6l11.84,16.56v-16.56h5.44v25.57h-5.25L355.64,311.98z"/>
		<path class="st1" d="M386.65,303.59h18.09v4.68h-12.65v5.56h12.38v4.68h-12.38v5.94h12.65v4.71h-18.09V303.59z"/>
		<path class="st1" d="M427.77,319.8l-6.44,9.35h-6.48l9.28-13.11l-8.7-12.46h6.48l5.86,8.74l5.79-8.74h6.55l-8.7,12.42l9.28,13.15
			h-6.52L427.77,319.8z"/>
		<path class="st1" d="M451.61,303.59h5.52v15.18c0,3.57,1.96,6.02,5.94,6.02c3.91,0,5.86-2.45,5.86-6.02v-15.18h5.52v15.33
			c0,6.36-3.64,10.69-11.38,10.69c-7.82,0-11.46-4.37-11.46-10.66V303.59z"/>
		<path class="st1" d="M489.25,321.41c1.8,1.88,4.6,3.45,8.13,3.45c2.99,0,4.45-1.42,4.45-2.88c0-1.92-2.22-2.57-5.17-3.26
			c-4.18-0.96-9.54-2.11-9.54-7.82c0-4.25,3.68-7.7,9.7-7.7c4.06,0,7.44,1.23,9.97,3.56l-3.03,3.99c-2.07-1.92-4.83-2.8-7.32-2.8
			c-2.45,0-3.76,1.07-3.76,2.61c0,1.72,2.15,2.26,5.1,2.95c4.22,0.96,9.58,2.22,9.58,7.9c0,4.68-3.33,8.2-10.23,8.2
			c-4.91,0-8.43-1.65-10.85-4.06L489.25,321.41z"/>
	</g>
	<g>
		<path class="st1" d="M276.26,345.81h9.86v1.94h-7.66v4.29h7.5v1.94h-7.5v4.58h7.66v1.94h-9.86V345.81z"/>
		<path class="st1" d="M294.1,356.72c0.99,1.1,2.57,2.07,4.62,2.07c2.38,0,3.21-1.21,3.21-2.27c0-1.54-1.67-1.98-3.54-2.46
			c-2.35-0.62-5.08-1.3-5.08-4.29c0-2.42,2.13-4.18,5.19-4.18c2.27,0,4.05,0.73,5.35,2.05l-1.28,1.63
			c-1.12-1.19-2.66-1.72-4.25-1.72c-1.63,0-2.75,0.84-2.75,2.07c0,1.32,1.58,1.74,3.41,2.2c2.4,0.64,5.19,1.39,5.19,4.51
			c0,2.29-1.58,4.42-5.54,4.42c-2.62,0-4.53-0.95-5.79-2.33L294.1,356.72z"/>
		<path class="st1" d="M315.02,347.74h-4.55v-1.94h11.29v1.94h-4.53v12.74h-2.2V347.74z"/>
		<path class="st1" d="M339,358.74c5.5-4.22,8.03-6.42,8.03-8.74c0-1.72-1.43-2.46-2.86-2.46c-1.74,0-3.08,0.73-3.98,1.8l-1.3-1.43
			c1.21-1.52,3.21-2.33,5.26-2.33c2.64,0,5.13,1.5,5.13,4.42c0,2.86-2.75,5.43-6.78,8.54h6.84v1.94H339V358.74z"/>
		<path class="st1" d="M362.5,345.59c4.07,0,5.74,3.94,5.74,7.57s-1.67,7.59-5.74,7.59c-4.07,0-5.74-3.96-5.74-7.59
			S358.43,345.59,362.5,345.59z M362.5,347.54c-2.6,0-3.5,2.75-3.5,5.61s0.9,5.63,3.5,5.63c2.6,0,3.5-2.77,3.5-5.63
			S365.1,347.54,362.5,347.54z"/>
		<path class="st1" d="M375.28,358.74c5.5-4.22,8.03-6.42,8.03-8.74c0-1.72-1.43-2.46-2.86-2.46c-1.74,0-3.08,0.73-3.98,1.8
			l-1.3-1.43c1.21-1.52,3.21-2.33,5.26-2.33c2.64,0,5.13,1.5,5.13,4.42c0,2.86-2.75,5.43-6.78,8.54h6.84v1.94h-10.34V358.74z"/>
		<path class="st1" d="M399.26,345.59c1.85,0,3.19,0.68,4.14,1.69l-1.08,1.67c-0.75-0.86-1.61-1.41-3.06-1.41c-2.66,0-4,2.57-4,5.3
			c0,0.18,0,0.33,0.02,0.48c0.64-0.99,2.22-2.16,4.03-2.16c2.64,0,4.86,1.58,4.86,4.71c0,2.64-2.05,4.86-5.28,4.86
			c-4.2,0-5.85-3.54-5.85-7.57C393.03,349.06,395.06,345.59,399.26,345.59z M398.75,353.07c-1.36,0-2.68,0.79-3.45,1.96
			c0.18,1.72,1.08,3.76,3.48,3.76c2.11,0,3.17-1.54,3.17-2.84C401.94,353.99,400.49,353.07,398.75,353.07z"/>
	</g>
</g>
</svg>
