<?xml version="1.0" encoding="UTF-8"?><svg id="b" xmlns="http://www.w3.org/2000/svg" width="236.41" height="37.51" xmlns:xlink="http://www.w3.org/1999/xlink" viewBox="0 0 236.41 37.51"><defs><style>.r{fill:url(#k);}.s{fill:url(#j);}.t{fill:url(#i);}.u{fill:url(#h);}.v{fill:url(#p);}.w{fill:url(#m);}.x{fill:url(#n);}.y{fill:url(#l);}.z{fill:url(#g);}.aa{fill:url(#f);}.ab{fill:url(#e);}.ac{fill:url(#q);}.ad{fill:url(#o);}.ae{fill:#ffecba;}.af{fill:#c2a36e;stroke:#c2a36e;}.af,.ag{stroke-linejoin:round;stroke-width:2.3px;}.ag{fill:#70392d;stroke:#70392d;}</style><linearGradient id="e" x1="9.27" y1="13.42" x2="9.77" y2="34.39" gradientUnits="userSpaceOnUse"><stop offset=".28" stop-color="#ffecba"/><stop offset=".39" stop-color="#fee3ad"/><stop offset=".59" stop-color="#fdcc8e"/><stop offset=".71" stop-color="#fcbc78"/><stop offset=".79" stop-color="#fbb571"/><stop offset=".89" stop-color="#f9a360"/><stop offset="1" stop-color="#f68b49"/></linearGradient><linearGradient id="f" x1="26.31" y1="9.48" x2="26.82" y2="31.19" xlink:href="#e"/><linearGradient id="g" x1="50.15" y1="5.62" x2="50.66" y2="26.84" xlink:href="#e"/><linearGradient id="h" x1="120.92" y1="1.74" x2="121.41" y2="22.36" xlink:href="#e"/><linearGradient id="i" x1="223.59" y1="12.88" x2="224.11" y2="34.77" xlink:href="#e"/><linearGradient id="j" x1="67.45" y1="4.32" x2="67.95" y2="25.08" xlink:href="#e"/><linearGradient id="k" x1="83.41" y1="2.73" x2="83.91" y2="23.58" xlink:href="#e"/><linearGradient id="l" x1="102.11" y1="1.93" x2="102.6" y2="22.48" xlink:href="#e"/><linearGradient id="m" x1="195.52" y1="6.58" x2="196.04" y2="28.26" xlink:href="#e"/><linearGradient id="n" x1="179.22" y1="4.76" x2="179.73" y2="26.12" xlink:href="#e"/><linearGradient id="o" x1="209.72" y1="9.12" x2="210.23" y2="30.47" xlink:href="#e"/><linearGradient id="p" x1="157.05" y1="7.91" x2="157.43" y2="24" xlink:href="#e"/><linearGradient id="q" x1="143.37" y1="6.8" x2="143.76" y2="22.87" xlink:href="#e"/></defs><g id="c"><g id="d"><path class="ag" d="M7.34,14.1l-5.04,1.07s1.08.02,1.45,1.11c.37,1.09,3.58,16.02,3.58,16.02,0,0,.19,1.18-.02,2.16-.22.98-.85,1.75-.85,1.75l12.56-2.58s-1.22-.47-1.39-1.75c-.17-1.28-.54-4.78-.8-6.07-.29-1.41-1.11-2.97-2.69-3.11-1.84-.16-2.78,1.12-2.9,2-.12.88.55,1.98,1.33,2,.79.02,1.08-.31,1.27-.66.15-.29.09-.81-.15-1.09-.18-.21-.99.08-1.07-.71-.05-.5.52-1.07,1.4-.85.88.22,1.44.67,1.89,2.55.45,1.88.58,3.85-.2,5.65-.49,1.13-1.29,1.55-3,2.1-.76.24-1.8.18-2.21.02-.59-.22-.62-.87-.89-1.96-.27-1.09-3.11-15.32-3.19-15.91-.17-1.18.92-1.75.92-1.75Z"/><path class="ag" d="M27.24,17.4c1.51,2.69,2.91,6.56,2.91,6.56l-8,1.4s-.14-2.37.13-6.1c.28-3.73,1.51-5.97,1.51-5.97.59.11,2.29,2.04,3.45,4.11ZM26.42,10.1l-5.24,1.16s1.07.62,1.06,1.11c-.02.69-.99,4.9-1.14,6.96-.14,2.06-.22,5.51.03,7.58.25,2.07.49,3.03.41,3.55-.23,1.67-.54,2.35-.65,2.64,0,0,.79-.18,1.48-.36.69-.18,1.78-.26,1.78-.26,0,0,.19.2-.67-.9-.86-1.1-1.13-2.48-1.2-3.67-.04-.59.13-1.57.13-1.57l8-1.49s.1-.1.37,1.09c.27,1.19.62,2.97.41,3.85-.22.88-.52,1.47-.52,1.47,0,0,.99-.18,1.98-.35,1.07-.19,2.37-.44,2.37-.44,0,0-.82-.42-.96-1.2-.17-.99-.46-2.95-1.54-5.84-1.67-4.47-3.1-6.66-4.33-8.76-.46-.78-1.73-2.01-2.09-3.29-.14-.48.32-1.27.32-1.27Z"/><path class="ag" d="M52.17,13.56c1.31,2.8,2.41,6.76,2.41,6.76l-8.08.8s.03-2.37.59-6.07c.56-3.7,1.95-5.84,1.95-5.84.58.15,2.13,2.2,3.13,4.36ZM51.89,6.22l-5.31.77s1.02.69.97,1.18c-.07.68-1.36,4.81-1.66,6.86-.3,2.05-.63,5.47-.54,7.56.09,2.08.26,3.06.15,3.57-.36,1.65-.72,2.3-.84,2.59,0,0,.8-.12,1.51-.25.7-.13,1.79-.12,1.79-.12,0,0,.18.21-.6-.95-.78-1.16-.94-2.56-.92-3.75,0-.59.25-1.56.25-1.56l8.09-.89s.11-.09.29,1.11c.18,1.2.4,3,.12,3.87-.28.86-.63,1.42-.63,1.42,0,0,1-.1,1.99-.2,1.08-.11,2.4-.26,2.4-.26,0,0-.78-.48-.86-1.27-.1-1-.24-2.98-1.1-5.94-1.33-4.58-2.59-6.87-3.67-9.05-.4-.81-1.57-2.13-1.84-3.44-.1-.49.42-1.24.42-1.24Z"/><path class="ag" d="M124.53,9.62c.99,2.92,1.64,6.99,1.64,6.99l-8.13-.11s.3-2.35,1.26-5.97c.97-3.61,2.59-5.59,2.59-5.59.56.22,1.86,2.43,2.63,4.68ZM125.08,2.3l-5.37.17s.94.8.83,1.28c-.14.67-1.89,4.63-2.41,6.63-.52,2-1.24,5.37-1.38,7.45-.14,2.08-.08,3.07-.25,3.57-.54,1.6-.97,2.21-1.13,2.48,0,0,.81-.03,1.53-.08.71-.05,1.79.08,1.79.08,0,0,.15.23-.49-1.01-.64-1.24-.64-2.65-.5-3.83.07-.59.42-1.52.42-1.52l8.14.02s.12-.08.16,1.14c.04,1.21.06,3.03-.31,3.86-.38.83-.79,1.34-.79,1.34,0,0,1.01.01,2.01.02,1.09.01,2.41,0,2.41,0,0,0-.73-.57-.72-1.36.01-1,.1-2.98-.43-6.03-.81-4.7-1.81-7.12-2.63-9.41-.31-.85-1.33-2.29-1.45-3.63-.04-.5.56-1.19.56-1.19Z"/><path class="ag" d="M229.57,21.36c.44,3.06.33,7.17.33,7.17l-7.96-1.6s.72-2.26,2.34-5.63c1.61-3.38,3.57-5.02,3.57-5.02.51.32,1.39,2.73,1.73,5.08ZM231.45,14.26l-5.31-.82s.77.96.59,1.42c-.27.63-2.7,4.2-3.58,6.07-.88,1.87-2.2,5.05-2.72,7.07-.52,2.02-.64,3-.9,3.46-.82,1.47-1.36,1.99-1.56,2.23,0,0,.8.12,1.52.2.71.08,1.75.41,1.75.41,0,0,.11.26-.3-1.08-.4-1.34-.15-2.72.21-3.85.18-.56.69-1.42.69-1.42l8,1.51s.13-.05-.05,1.15c-.18,1.2-.5,2.99-1.02,3.73-.52.74-1.02,1.18-1.02,1.18,0,0,.99.19,1.97.39,1.06.21,2.37.45,2.37.45,0,0-.61-.69-.46-1.47.2-.99.64-2.92.68-6,.06-4.77-.47-7.33-.86-9.73-.15-.89-.88-2.5-.75-3.83.05-.5.76-1.07.76-1.07Z"/><path class="ag" d="M73.11,26.09s.21-.49.22-.98c.01-.49-.15-1.02-.63-2.67-.46-1.58-2.09-3.59-2.96-4.3-.87-.71-1.65-.92-3.03-.95-1.37-.03-1.09.57-1.09.57,0,0,.55,6.31.92,7.21.37.89,1.25,1.47,1.25,1.47l-4.94.52s.39-.51.72-1.46c.33-.95.15-2.38.15-2.38,0,0-1.44-15.2-1.68-16.33-.24-1.13-1.31-1.28-1.31-1.28l2.99-.38s1.58-.12,2.86-.13c2.95-.03,6.67.93,7.16,5.67.43,4.23-3.87,5.82-4.17,6.01-.3.19,2.45.65,3.78,2.54,1.01,1.43,1.52,2.59,1.79,3.48.37,1.19.57,1.76.74,1.98.38.5,1.06,1.11,1.06,1.11l-3.84.31ZM68.91,15.86c1.09-.47,1.91-1.63,1.6-5.47-.29-3.55-2.15-4.48-3.84-4.52-1.38-.03-2.17.25-2.17.25l1.05,10.35s1.98-.02,3.36-.61Z"/><path class="ag" d="M91.83,13.69c-.22-3.47-1.31-5.55-2.28-6.92-1.07-1.5-2.31-2.17-3.79-2.3-1.18-.11-3.26.74-3.78,2.92-.39,1.64-.27,3.11.52,4.17.67.9,1.45,1.14,2.11,1.1.77-.04,1.2-.21,1.45-.49.29-.24.49-.61.5-1.04,0-.37-.12-.71-.34-.96-.04-.05-.09-.1-.15-.15,0,0,0,0,0,0-.02-.02-.05-.03-.07-.05-.17-.12-.37-.19-.58-.19-.65-.01-1.19.56-1.21,1.29h0c-.36,0-1.26-.17-1.39-1.51-.16-1.68.26-2.85.86-3.52.61-.67,1.32-.86,2.18-.74,1.27.17,3.43,2.78,3.53,8.32.08,4.54-.14,6.12-.64,7.69-.34,1.05-1.34,2.73-3.31,2.78-1.97.06-2.93-.85-3.59-2.15-.66-1.29-1.43-4.59-1.54-8.23-.1-3.35.2-5.75,1.2-7.72.6-1.17,1.65-1.9,2.71-2.2.64-.18.81-.03.82-.37,0-.15-.99-.09-1.63.11-1.56.48-2.39,1.05-3.45,2.36-1.4,1.73-2.3,4.87-2.24,7.92.08,4.21,1.78,7.75,3.41,9.45,1.51,1.58,2.91,2.06,4.38,2.02.98-.03,3.29-.66,4.88-3.51,1.46-2.62,1.6-5.43,1.43-8.09Z"/><path class="ag" d="M96,2.87s1.09.54.99,1.5c-.07.66-.74,4.79-1.08,7.43-.19,1.47-.42,4.64-.19,7.52.09,1.19.3,2.81.13,3.47-.16.66-.93,1.6-.93,1.6l4.29-.19s-.87-.46-1.38-1.14c-.5-.68-1.1-3.06-1.11-5.42-.03-5.76.4-7.3.59-8.55.18-1.18.73-2.42.73-2.42,0,0,3.45,6.58,3.8,7.4.35.82.7,1.42.92,1.43.22,0,.3-.29.69-1.09.39-.8,3.08-7.82,3.08-7.82,0,0,1.21,1.73,1.97,6.7.52,3.39.42,6.5.32,7.76-.07.89-.27,1.84-.43,2.2-.16.37-.61.8-.61.8,0,0,4.73-.17,4.8-.17.07,0-.51-.24-.87-.76-.08-.12-.29-.26-.34-1.11-.07-1.25.19-2.58.05-4.87-.26-4.21-.66-5.55-1-7.04-.53-2.3-1.04-3.92-1.15-4.24-.34-1.04-.47-1.71-.24-2.22.23-.51.99-1.15.99-1.15l-4.65.1s.36.3.64.83c.34.64.26,1.41.1,1.92-.16.51-2.37,5.99-2.37,5.99,0,0-.3.29-.52-.09-.14-.26-2.95-5.61-2.95-5.61,0,0-.46-.92-.41-1.41.1-.88.56-1.61.56-1.61l-4.43.26Z"/><path class="ag" d="M194.51,7.89l-3.73-.58s.54.48.85,1.49c.28.89-.51,5.01-.51,5.01,0,0-1.17,8.54-1.19,9.22,0,.2-.8.26-.8.57,0,.39.29.5.57.8.29.3.73,2.74,1.71,3.93.79.95,1.66,1.44,3.14,1.62,1.96.24,2.98-.08,4.38-.94,1.05-.64,1.66-1.41,1.81-1.73.31-.66.76-1.24.76-1.24l.59-.14s.28-.24.09-.64c-.19-.4-.71-.11-.65-.7.09-.81,1-9.6,1.12-10.68.12-1.08.48-2.78.74-3.36.31-.68,1.21-1.15,1.21-1.15l-5-.8s.39.59.57.9c.47.8.14,2.76.01,3.93-.13,1.19-1.33,10.9-1.33,10.9,0,0-.61,4.66-4.13,4.24-3.04-.36-3.18-3.02-3.36-3.71-.11-.43-.16-1.87.08-3.74.42-3.26,1.57-11.4,1.84-11.97.41-.88,1.21-1.25,1.21-1.25Z"/><path class="ag" d="M187.91,7.08c-.22-.32-.77-.28-1.03-.1l-.96.62c-.73-.93-1.86-1.81-3.22-2.12-1.47-.33-2.89-.09-4.3.64-2.84,1.49-4.99,5.5-5.31,9.63-.33,4.34.33,7.77,2.65,10.32,1.37,1.51,2.77,1.71,3.8,1.79,1.62.11,2.88-.31,4.09-1.24,1.13-.86,1.74-2.1,1.63-3.58-.08-.97-.43-1.69-1.21-1.95-.73-.24-1.33-.03-1.26.19.07.22.43.53.43.53,0,0,.72.9.39,2.37-.22,1-1.02,2.78-3.89,2.57-2.06-.15-2.7-1.32-2.99-1.84-1.35-2.47-.96-6.74-.68-9.39.28-2.65,1.11-6.77,2.47-8.21.62-.66,1.95-1.21,3.35-1.11,1.4.1,2.26.55,3.13,1.84.72,1.05.75,1.92.6,2.82-.17,1.03-.76,1.64-1,1.82-.38.29-1.12.64-1.85.33-.2-.09-.44-.22-.61-.39.33-.22.56-.59.56-1.02.02-.69-.53-1.26-1.22-1.28-.7-.02-1.22.49-1.29,1.37-.1,1.33.69,2.23,1.86,2.7.78.31,2.14.12,2.89-.45.75-.58,1.41-1.4,1.76-2.69.24-.88.18-1.4-.02-2.22-.02-.06-.05-.13-.07-.19l1.12-.82c.26-.18.39-.63.17-.96Z"/><path class="ag" d="M215.27,11.31c1.31.62,3.27,2.21,2.6,5.96-.68,3.75-3.62,3.61-3.4,3.62.22,0,3.58,2.17,3.11,6.12-.37,3.09-2.69,4.52-3.58,4.87-1.14.44-2.81.38-4.8.11-1.78-.24-4.85-.84-4.85-.84,0,0,.5-.58.91-1.01.68-.72.85-1.9.85-1.9l2.33-15.23s.24-1.1-.1-2.07c-.26-.72-.64-1.12-.64-1.12,0,0,6.2.85,7.57,1.5ZM209.89,20.93l-1.69,9.78s-.15.14,1.02.39c1.18.25,2.35.35,3.4-.22,1.25-.68,1.58-1.51,2.01-3.94.38-2.19.66-3.51-.85-4.96-.94-.91-3.89-1.05-3.89-1.05ZM211.25,11.42l-1.05,8.22s-.09,0,.89.21c.98.2,1.91.19,2.51-.24.96-.69,1.2-1.45,1.55-3.43.32-1.79.22-3.39-.8-4-1.02-.61-3.12-.75-3.12-.75Z"/><path class="ag" d="M153.7,8.76s.8.75.93,1.35c.14.59-.65,12.75-.65,12.75,0,0-.17.81-.47,1.1-.3.29-.76.79-.76.79l10.1.74s.08-.51.32-1.18c.22-.62.47-1.17.47-1.17,0,0-.74.13-1.49.56-.75.43-1.78.63-2.52.61-1.18-.03-2.65-.21-2.65-.21,0,0-.58-.15-.64-1.27-.05-1.03.37-6.63.37-6.63,0,0,.43-.12.96-.05.74.09,1.1.17,1.68.77.44.46.78,1.27.78,1.27l.4-4.49s-.38.65-.98,1.01c-.6.36-.89.35-1.63.41-.74.06-1.1-.17-1.1-.17l.33-4.79s.08-.37,1.12-.34c1.77.04,2.07.05,3.09.29.4.09.95.46,1.53.92.7.55,1.22,1.58,1.22,1.58l-.15-3.32-10.25-.52Z"/><path class="ag" d="M142.25,9.17s1.28-.93,2.09-.99c1.25-.08,1.81.12,2.72.51,1.1.47,4.29,2.9,4.18,7.77-.13,5.83-3.93,7.37-4.75,7.64-.82.28-2.59.46-3.11.37-.51-.09-5.01-.33-5.01-.33,0,0,.45-.36.83-.94.43-.66.47-1.32.47-1.32,0,0,.26-11.8-.01-12.77-.27-.97-1.08-1.43-1.08-1.43l3.84.09-.18,1.4ZM148.56,14.18c-.17-2.14-.88-3.64-1.89-4.62-.84-.81-2.34-.79-2.94-.43-.6.36-1.1.75-1.22,1.82-.09.81.2,1.28.56,1.56.29.23.71.27.88.24.05-.61.21-1.1.69-1.09.51.01.88.32.88.9,0,1.18-.8,1.42-.94,1.46-.59.13-1.03-.02-1.54-.48-.43-.39-.79-.83-.79-.83v10.04s.13.67,1.38.77c1.25.1,3.23-.18,4.35-3.22.79-2.12.74-4.11.58-6.11Z"/><path class="af" d="M6.19,12.96l-5.04,1.07s1.08.02,1.45,1.11c.37,1.09,3.58,16.02,3.58,16.02,0,0,.19,1.19-.03,2.16-.22.98-.85,1.75-.85,1.75l12.56-2.57s-1.22-.47-1.39-1.75c-.17-1.28-.54-4.78-.8-6.07-.29-1.41-1.11-2.97-2.69-3.11-1.84-.16-2.78,1.12-2.9,2-.12.88.55,1.98,1.33,2,.79.02,1.08-.31,1.27-.66.15-.29.09-.81-.15-1.09-.18-.21-.99.08-1.07-.71-.05-.5.52-1.07,1.4-.86.88.22,1.44.67,1.89,2.55.45,1.88.58,3.85-.2,5.65-.49,1.13-1.29,1.55-3,2.1-.76.25-1.8.18-2.22.03-.59-.22-.62-.88-.89-1.97-.27-1.09-3.11-15.32-3.19-15.91-.17-1.18.92-1.75.92-1.75Z"/><path class="af" d="M26.1,16.25c1.51,2.69,2.9,6.56,2.9,6.56l-8,1.4s-.14-2.37.14-6.1c.28-3.73,1.51-5.97,1.51-5.97.59.11,2.28,2.04,3.45,4.11ZM25.27,8.95l-5.24,1.16s1.07.62,1.06,1.11c-.02.69-.99,4.9-1.14,6.96-.14,2.06-.22,5.51.03,7.58.25,2.07.49,3.03.41,3.55-.23,1.67-.54,2.35-.65,2.64,0,0,.79-.18,1.48-.36.7-.18,1.78-.26,1.78-.26,0,0,.19.2-.67-.9-.86-1.1-1.13-2.48-1.2-3.67-.04-.59.13-1.57.13-1.57l8.01-1.49s.1-.1.37,1.09c.27,1.19.62,2.97.41,3.85-.22.88-.52,1.46-.52,1.46,0,0,.99-.17,1.98-.35,1.07-.19,2.37-.44,2.37-.44,0,0-.82-.42-.96-1.2-.17-.99-.46-2.95-1.54-5.84-1.67-4.47-3.1-6.66-4.33-8.76-.46-.78-1.73-2.01-2.09-3.29-.14-.48.32-1.27.32-1.27Z"/><path class="af" d="M51.02,12.41c1.31,2.8,2.41,6.76,2.41,6.76l-8.08.8s.03-2.37.59-6.07c.56-3.7,1.95-5.84,1.95-5.84.58.15,2.13,2.2,3.13,4.36ZM50.74,5.07l-5.31.77s1.02.69.97,1.18c-.07.68-1.36,4.81-1.65,6.86-.3,2.05-.63,5.47-.54,7.56.1,2.09.26,3.06.15,3.57-.36,1.65-.72,2.3-.85,2.59,0,0,.8-.12,1.51-.25.7-.13,1.79-.12,1.79-.12,0,0,.18.22-.6-.95-.78-1.16-.94-2.56-.92-3.75,0-.59.25-1.56.25-1.56l8.09-.89s.11-.09.29,1.11c.18,1.2.4,3,.12,3.86-.28.86-.63,1.42-.63,1.42,0,0,1-.1,2-.2,1.08-.11,2.4-.26,2.4-.26,0,0-.79-.48-.86-1.27-.1-1-.24-2.97-1.1-5.94-1.33-4.58-2.59-6.88-3.67-9.06-.4-.81-1.57-2.13-1.84-3.44-.1-.49.42-1.25.42-1.25Z"/><path class="af" d="M123.39,8.47c.99,2.92,1.64,6.98,1.64,6.98l-8.12-.11s.3-2.35,1.27-5.97c.97-3.62,2.59-5.59,2.59-5.59.56.22,1.86,2.43,2.63,4.68ZM123.93,1.15l-5.37.17s.94.8.84,1.28c-.15.67-1.89,4.63-2.41,6.63-.53,2-1.24,5.37-1.38,7.45-.14,2.08-.08,3.06-.26,3.57-.54,1.59-.97,2.21-1.13,2.48,0,0,.81-.03,1.53-.08.71-.05,1.79.08,1.79.08,0,0,.15.23-.49-1.01-.64-1.24-.65-2.65-.5-3.83.07-.59.42-1.52.42-1.52l8.14.02s.12-.08.16,1.14c.04,1.22.06,3.03-.31,3.86-.38.83-.79,1.34-.79,1.34,0,0,1,.01,2.01.03,1.09.01,2.41,0,2.41,0,0,0-.73-.57-.72-1.36,0-1,.09-2.98-.43-6.02-.82-4.7-1.81-7.12-2.63-9.41-.31-.85-1.33-2.29-1.45-3.63-.04-.5.55-1.19.55-1.19Z"/><path class="af" d="M228.42,20.21c.44,3.06.33,7.17.33,7.17l-7.97-1.6s.72-2.26,2.34-5.63c1.61-3.38,3.57-5.02,3.57-5.02.51.32,1.39,2.73,1.73,5.08ZM230.3,13.11l-5.31-.82s.77.96.59,1.41c-.27.64-2.71,4.2-3.59,6.07-.89,1.87-2.21,5.05-2.72,7.07-.52,2.02-.64,3-.9,3.46-.83,1.47-1.36,1.99-1.56,2.23,0,0,.8.12,1.51.2.71.08,1.75.41,1.75.41,0,0,.11.26-.3-1.08-.4-1.34-.15-2.73.21-3.85.18-.56.69-1.42.69-1.42l8,1.51s.13-.05-.05,1.15c-.18,1.2-.5,2.99-1.02,3.73-.52.74-1.02,1.17-1.02,1.17,0,0,.98.2,1.97.39,1.06.21,2.37.45,2.37.45,0,0-.61-.69-.46-1.47.2-.98.64-2.91.68-6,.06-4.77-.47-7.33-.86-9.73-.15-.9-.88-2.5-.76-3.83.05-.5.77-1.07.77-1.07Z"/><path class="af" d="M71.96,24.95s.21-.49.22-.98c.01-.49-.15-1.02-.63-2.67-.46-1.59-2.09-3.59-2.96-4.3-.87-.71-1.65-.92-3.03-.95-1.38-.03-1.1.57-1.1.57,0,0,.55,6.31.92,7.2.37.89,1.25,1.47,1.25,1.47l-4.94.51s.39-.51.72-1.46c.33-.95.15-2.38.15-2.38,0,0-1.44-15.21-1.68-16.33-.24-1.13-1.31-1.28-1.31-1.28l2.99-.37s1.58-.12,2.86-.13c2.95-.03,6.67.93,7.16,5.67.43,4.23-3.87,5.82-4.17,6.01-.3.19,2.45.64,3.78,2.54,1.01,1.43,1.52,2.59,1.79,3.48.37,1.19.57,1.76.74,1.98.38.5,1.05,1.11,1.05,1.11l-3.84.31ZM67.76,14.72c1.09-.47,1.91-1.63,1.6-5.48-.28-3.55-2.15-4.48-3.84-4.51-1.38-.03-2.17.25-2.17.25l1.05,10.36s1.98-.02,3.36-.61Z"/><path class="af" d="M90.68,12.54c-.22-3.47-1.3-5.55-2.28-6.91-1.07-1.5-2.31-2.17-3.79-2.3-1.18-.1-3.26.74-3.78,2.92-.39,1.64-.27,3.1.52,4.17.67.9,1.45,1.14,2.11,1.11.77-.04,1.2-.21,1.46-.49.29-.24.49-.61.5-1.04,0-.37-.12-.71-.34-.95-.04-.05-.09-.1-.15-.15,0,0,0,0,0,0-.02-.02-.05-.03-.07-.04-.17-.12-.37-.19-.58-.19-.65-.01-1.19.56-1.21,1.29h0c-.36,0-1.27-.17-1.4-1.51-.16-1.68.26-2.85.87-3.52.61-.67,1.32-.86,2.18-.74,1.27.17,3.43,2.78,3.53,8.32.08,4.54-.13,6.12-.64,7.68-.33,1.05-1.34,2.73-3.31,2.78-1.97.05-2.93-.85-3.59-2.15-.66-1.29-1.43-4.59-1.54-8.23-.1-3.35.2-5.75,1.2-7.72.6-1.18,1.65-1.91,2.71-2.21.64-.18.81-.03.82-.37,0-.15-.99-.09-1.63.11-1.56.48-2.39,1.05-3.45,2.36-1.4,1.73-2.3,4.87-2.24,7.92.08,4.21,1.78,7.75,3.41,9.45,1.51,1.58,2.9,2.06,4.38,2.02.98-.03,3.29-.66,4.88-3.51,1.46-2.62,1.6-5.43,1.43-8.09Z"/><path class="af" d="M94.85,1.72s1.09.55,1,1.5c-.07.66-.74,4.79-1.08,7.43-.19,1.47-.42,4.64-.19,7.52.09,1.19.3,2.81.13,3.47-.16.66-.93,1.6-.93,1.6l4.29-.19s-.87-.47-1.37-1.14c-.5-.68-1.1-3.06-1.12-5.42-.03-5.75.4-7.3.59-8.55.18-1.18.73-2.42.73-2.42,0,0,3.45,6.58,3.8,7.4.35.82.7,1.42.92,1.43.22,0,.3-.29.69-1.09.39-.8,3.08-7.82,3.08-7.82,0,0,1.21,1.73,1.97,6.69.52,3.39.42,6.51.32,7.76-.07.88-.27,1.84-.42,2.2-.16.37-.61.79-.61.79,0,0,4.73-.17,4.8-.17.07,0-.51-.23-.87-.76-.08-.13-.29-.26-.34-1.12-.07-1.25.19-2.58.05-4.87-.26-4.21-.66-5.55-1-7.04-.53-2.3-1.04-3.92-1.15-4.24-.34-1.04-.47-1.71-.24-2.22.23-.51.99-1.16.99-1.16l-4.65.1s.36.3.64.83c.34.64.26,1.41.1,1.92-.16.51-2.37,5.99-2.37,5.99,0,0-.3.29-.51-.08-.15-.26-2.96-5.61-2.96-5.61,0,0-.46-.92-.41-1.41.09-.88.56-1.61.56-1.61l-4.43.25Z"/><path class="af" d="M193.36,6.74l-3.73-.57s.54.49.85,1.49c.28.89-.5,5.01-.5,5.01,0,0-1.17,8.53-1.19,9.22,0,.2-.79.26-.8.57,0,.39.28.5.57.8.29.3.73,2.74,1.71,3.93.79.95,1.66,1.44,3.14,1.62,1.96.24,2.98-.08,4.37-.94,1.05-.64,1.66-1.41,1.81-1.73.31-.66.76-1.24.76-1.24l.59-.13s.28-.24.09-.64c-.19-.4-.71-.11-.65-.7.09-.81,1-9.6,1.12-10.67.12-1.08.48-2.78.74-3.35.31-.68,1.21-1.16,1.21-1.16l-5-.8s.39.59.57.9c.48.8.14,2.76.01,3.93-.13,1.19-1.33,10.9-1.33,10.9,0,0-.61,4.66-4.13,4.24-3.04-.36-3.18-3.02-3.36-3.71-.11-.43-.16-1.87.08-3.74.42-3.26,1.57-11.4,1.84-11.96.41-.88,1.21-1.25,1.21-1.25Z"/><path class="af" d="M186.76,5.93c-.22-.32-.76-.28-1.03-.1l-.95.62c-.73-.93-1.87-1.81-3.22-2.12-1.47-.33-2.89-.09-4.29.64-2.84,1.49-4.99,5.5-5.31,9.63-.33,4.34.33,7.77,2.65,10.32,1.37,1.51,2.77,1.71,3.8,1.78,1.62.11,2.88-.32,4.09-1.24,1.12-.86,1.74-2.1,1.63-3.58-.07-.97-.43-1.69-1.21-1.95-.73-.24-1.33-.03-1.26.19.07.22.43.53.43.53,0,0,.72.9.39,2.37-.22,1-1.02,2.78-3.89,2.57-2.06-.15-2.7-1.32-2.98-1.84-1.35-2.47-.96-6.74-.68-9.39.28-2.65,1.11-6.76,2.47-8.21.62-.66,1.95-1.21,3.35-1.11,1.4.1,2.26.55,3.13,1.84.72,1.05.75,1.92.6,2.82-.17,1.03-.76,1.64-1,1.82-.37.29-1.12.64-1.85.33-.2-.09-.44-.22-.61-.39.33-.22.56-.59.57-1.02.02-.69-.53-1.27-1.23-1.28-.69-.02-1.22.49-1.29,1.37-.1,1.33.69,2.23,1.86,2.7.78.31,2.14.12,2.89-.45.75-.57,1.41-1.4,1.76-2.69.24-.88.18-1.4-.03-2.21-.02-.06-.05-.13-.07-.19l1.12-.82c.26-.19.39-.63.17-.96Z"/><path class="af" d="M214.13,10.16c1.31.62,3.27,2.21,2.6,5.96-.67,3.75-3.62,3.61-3.4,3.61.22,0,3.58,2.17,3.11,6.12-.37,3.09-2.69,4.52-3.58,4.87-1.14.45-2.82.38-4.8.11-1.78-.24-4.85-.85-4.85-.85,0,0,.5-.58.91-1.01.68-.72.85-1.9.85-1.9l2.33-15.22s.25-1.1-.1-2.07c-.26-.72-.64-1.12-.64-1.12,0,0,6.2.85,7.57,1.5ZM208.75,19.78l-1.69,9.78s-.15.15,1.02.39c1.17.25,2.35.35,3.4-.22,1.25-.68,1.58-1.51,2.01-3.94.38-2.19.66-3.51-.85-4.96-.94-.91-3.89-1.04-3.89-1.04ZM210.1,10.27l-1.05,8.22s-.09,0,.89.21c.98.2,1.91.19,2.52-.24.96-.69,1.2-1.45,1.55-3.43.32-1.79.22-3.39-.8-4-1.02-.61-3.12-.75-3.12-.75Z"/><path class="af" d="M152.56,7.61s.79.76.93,1.35c.13.59-.65,12.75-.65,12.75,0,0-.17.81-.47,1.1-.3.29-.76.79-.76.79l10.1.74s.08-.52.32-1.17c.22-.62.47-1.17.47-1.17,0,0-.74.13-1.49.56-.75.43-1.78.62-2.52.61-1.18-.03-2.65-.21-2.65-.21,0,0-.58-.15-.64-1.27-.05-1.04.37-6.64.37-6.64,0,0,.43-.12.96-.05.74.09,1.1.17,1.68.77.44.46.78,1.27.78,1.27l.4-4.49s-.38.66-.98,1.01c-.6.36-.89.35-1.63.41-.74.06-1.1-.17-1.1-.17l.33-4.79s.08-.37,1.12-.34c1.77.04,2.06.04,3.09.29.4.09.95.46,1.53.92.7.55,1.22,1.58,1.22,1.58l-.15-3.32-10.25-.52Z"/><path class="af" d="M141.11,8.02s1.27-.93,2.09-.99c1.25-.09,1.81.12,2.72.5,1.1.47,4.29,2.9,4.18,7.77-.13,5.83-3.93,7.37-4.74,7.64-.82.28-2.59.46-3.11.37-.51-.09-5.01-.33-5.01-.33,0,0,.45-.36.83-.94.43-.65.47-1.32.47-1.32,0,0,.26-11.8-.01-12.77-.27-.97-1.08-1.43-1.08-1.43l3.84.09-.18,1.4ZM147.41,13.03c-.17-2.14-.88-3.64-1.89-4.62-.84-.81-2.34-.79-2.94-.43-.6.36-1.1.75-1.22,1.82-.09.81.2,1.28.55,1.56.29.23.71.27.88.24.05-.61.21-1.1.69-1.09.5.01.88.32.88.91.01,1.18-.8,1.42-.94,1.45-.59.14-1.03-.02-1.54-.48-.43-.39-.79-.83-.79-.83v10.04s.13.67,1.38.77c1.25.1,3.23-.18,4.35-3.22.79-2.12.74-4.11.58-6.11Z"/><path class="ab" d="M16.48,30.75c-.17-1.28-.54-4.78-.8-6.07-.29-1.41-1.11-2.97-2.69-3.11-1.84-.16-2.78,1.12-2.9,2-.12.88.54,1.98,1.33,2,.79.02,1.08-.31,1.27-.66.15-.29.09-.81-.15-1.09-.18-.21-.99.08-1.07-.71-.05-.5.52-1.07,1.4-.86.88.22,1.44.67,1.89,2.55.45,1.88.58,3.85-.2,5.65-.49,1.13-1.29,1.55-3,2.1-.76.25-1.8.18-2.22.03-.59-.22-.62-.88-.89-1.97-.27-1.09-3.11-15.32-3.19-15.91-.17-1.18.92-1.75.92-1.75l-5.04,1.07s1.08.02,1.45,1.11c.37,1.09,3.58,16.02,3.58,16.02,0,0,.19,1.19-.03,2.16-.22.98-.85,1.75-.85,1.75l12.56-2.57s-1.22-.47-1.39-1.75Z"/><path class="aa" d="M32.92,28.12c-.17-.99-.46-2.95-1.54-5.84-1.67-4.47-3.1-6.66-4.33-8.76-.46-.78-1.73-2.01-2.09-3.29-.14-.48.32-1.27.32-1.27l-5.24,1.16s1.07.62,1.06,1.11c-.02.69-.99,4.9-1.14,6.96-.14,2.06-.22,5.51.03,7.58.25,2.07.49,3.03.41,3.55-.23,1.67-.54,2.35-.65,2.64,0,0,.79-.18,1.48-.36.7-.18,1.78-.26,1.78-.26,0,0,.19.2-.67-.9-.86-1.1-1.13-2.48-1.2-3.67-.04-.59.13-1.57.13-1.57l8.01-1.49s.1-.1.37,1.09c.27,1.19.62,2.97.41,3.85-.22.88-.52,1.46-.52,1.46,0,0,.99-.17,1.98-.35,1.07-.19,2.37-.44,2.37-.44,0,0-.82-.42-.96-1.2ZM21,24.21s-.14-2.37.14-6.1c.28-3.73,1.51-5.97,1.51-5.97.59.11,2.28,2.04,3.45,4.11,1.51,2.69,2.9,6.56,2.9,6.56l-8,1.4Z"/><path class="z" d="M56.93,24.75c-.1-1-.24-2.97-1.1-5.94-1.33-4.58-2.59-6.88-3.67-9.06-.4-.81-1.57-2.13-1.84-3.44-.1-.49.42-1.25.42-1.25l-5.31.77s1.02.69.97,1.18c-.07.68-1.36,4.81-1.65,6.86-.3,2.05-.63,5.47-.54,7.56.1,2.09.26,3.06.15,3.57-.36,1.65-.72,2.3-.85,2.59,0,0,.8-.12,1.51-.25.7-.13,1.79-.12,1.79-.12,0,0,.18.22-.6-.95-.78-1.16-.94-2.56-.92-3.75,0-.59.25-1.56.25-1.56l8.09-.89s.11-.09.29,1.11c.18,1.2.4,3,.12,3.86-.28.86-.63,1.42-.63,1.42,0,0,1-.1,2-.2,1.08-.11,2.4-.26,2.4-.26,0,0-.79-.48-.86-1.27ZM45.34,19.96s.03-2.37.59-6.07c.56-3.7,1.95-5.84,1.95-5.84.58.15,2.13,2.2,3.13,4.36,1.31,2.8,2.41,6.76,2.41,6.76l-8.08.8Z"/><path class="u" d="M127.89,21.4c0-1,.09-2.98-.43-6.02-.82-4.7-1.81-7.12-2.63-9.41-.31-.85-1.33-2.29-1.45-3.63-.04-.5.55-1.19.55-1.19l-5.37.17s.94.8.84,1.28c-.15.67-1.89,4.63-2.41,6.63-.53,2-1.24,5.37-1.38,7.45-.14,2.08-.08,3.06-.26,3.57-.54,1.59-.97,2.21-1.13,2.48,0,0,.81-.03,1.53-.08.71-.05,1.79.08,1.79.08,0,0,.15.23-.49-1.01-.64-1.24-.65-2.65-.5-3.83.07-.59.42-1.52.42-1.52l8.14.02s.12-.08.16,1.14c.04,1.22.06,3.03-.31,3.86-.38.83-.79,1.34-.79,1.34,0,0,1,.01,2.01.03,1.09.01,2.41,0,2.41,0,0,0-.73-.57-.72-1.36ZM116.9,15.35s.3-2.35,1.27-5.97c.97-3.62,2.59-5.59,2.59-5.59.56.22,1.86,2.43,2.63,4.68.99,2.92,1.64,6.98,1.64,6.98l-8.12-.11Z"/><path class="t" d="M230.48,33.74c.2-.98.64-2.91.68-6,.06-4.77-.47-7.33-.86-9.73-.15-.9-.88-2.5-.76-3.83.05-.5.77-1.07.77-1.07l-5.31-.82s.77.96.59,1.41c-.27.64-2.71,4.2-3.59,6.07-.89,1.87-2.21,5.05-2.72,7.07-.52,2.02-.64,3-.9,3.46-.83,1.47-1.36,1.99-1.56,2.23,0,0,.8.12,1.51.2.71.08,1.75.41,1.75.41,0,0,.11.26-.3-1.08-.4-1.34-.15-2.73.21-3.85.18-.56.69-1.42.69-1.42l8,1.51s.13-.05-.05,1.15c-.18,1.2-.5,2.99-1.02,3.73-.52.74-1.02,1.17-1.02,1.17,0,0,.98.2,1.97.39,1.06.21,2.37.45,2.37.45,0,0-.61-.69-.46-1.47ZM228.75,27.38l-7.97-1.6s.72-2.26,2.34-5.63c1.61-3.38,3.57-5.02,3.57-5.02.51.32,1.39,2.73,1.73,5.08.44,3.06.33,7.17.33,7.17Z"/><path class="s" d="M74.75,23.53c-.17-.22-.38-.79-.74-1.98-.28-.89-.79-2.05-1.79-3.48-1.33-1.9-4.08-2.35-3.78-2.54.3-.19,4.6-1.78,4.17-6.01-.49-4.73-4.2-5.7-7.16-5.67-1.28.01-2.86.13-2.86.13l-2.99.37s1.07.15,1.31,1.28c.24,1.13,1.68,16.33,1.68,16.33,0,0,.18,1.44-.15,2.38-.33.95-.72,1.46-.72,1.46l4.94-.51s-.88-.58-1.25-1.47c-.37-.89-.92-7.2-.92-7.2,0,0-.28-.6,1.1-.57,1.38.03,2.16.25,3.03.95.87.71,2.5,2.71,2.96,4.3.48,1.65.64,2.18.63,2.67-.01.49-.22.98-.22.98l3.84-.31s-.67-.61-1.05-1.11ZM64.4,15.33l-1.05-10.36s.79-.28,2.17-.25c1.68.04,3.55.96,3.84,4.51.31,3.84-.5,5.01-1.6,5.48-1.38.59-3.36.61-3.36.61Z"/><path class="r" d="M88.4,5.63c-1.07-1.5-2.31-2.17-3.79-2.3-1.18-.1-3.26.74-3.78,2.92-.39,1.64-.27,3.1.52,4.17.67.9,1.45,1.14,2.11,1.11.77-.04,1.2-.21,1.46-.49.29-.24.49-.61.5-1.04,0-.37-.12-.71-.34-.95-.04-.05-.09-.1-.15-.15,0,0,0,0,0,0-.02-.02-.05-.03-.07-.04-.17-.12-.37-.19-.58-.19-.65-.01-1.19.56-1.21,1.29h0c-.36,0-1.27-.17-1.4-1.51-.16-1.68.26-2.85.87-3.52.61-.67,1.32-.86,2.18-.74,1.27.17,3.43,2.78,3.53,8.32.08,4.54-.13,6.12-.64,7.68-.33,1.05-1.34,2.73-3.31,2.78-1.97.05-2.93-.85-3.59-2.15-.66-1.29-1.43-4.59-1.54-8.23-.1-3.35.2-5.75,1.2-7.72.6-1.18,1.65-1.91,2.71-2.21.64-.18.81-.03.82-.37,0-.15-.99-.09-1.63.11-1.56.48-2.39,1.05-3.45,2.36-1.4,1.73-2.3,4.87-2.24,7.92.08,4.21,1.78,7.75,3.41,9.45,1.51,1.58,2.9,2.06,4.38,2.02.98-.03,3.29-.66,4.88-3.51,1.46-2.62,1.6-5.43,1.43-8.09-.22-3.47-1.3-5.55-2.28-6.91Z"/><path class="y" d="M110.57,21.99c-.08-.13-.29-.26-.34-1.12-.07-1.25.19-2.58.05-4.87-.26-4.21-.66-5.55-1-7.04-.53-2.3-1.04-3.92-1.15-4.24-.34-1.04-.47-1.71-.24-2.22.23-.51.99-1.16.99-1.16l-4.65.1s.36.3.64.83c.34.64.26,1.41.1,1.92-.16.51-2.37,5.99-2.37,5.99,0,0-.3.29-.51-.08-.15-.26-2.96-5.61-2.96-5.61,0,0-.46-.92-.41-1.41.09-.88.56-1.61.56-1.61l-4.43.25s1.09.55,1,1.5c-.07.66-.74,4.79-1.08,7.43-.19,1.47-.42,4.64-.19,7.52.09,1.19.3,2.81.13,3.47-.16.66-.93,1.6-.93,1.6l4.29-.19s-.87-.47-1.37-1.14c-.5-.68-1.1-3.06-1.12-5.42-.03-5.75.4-7.3.59-8.55.18-1.18.73-2.42.73-2.42,0,0,3.45,6.58,3.8,7.4.35.82.7,1.42.92,1.42.22,0,.3-.29.69-1.09.39-.8,3.08-7.82,3.08-7.82,0,0,1.21,1.73,1.97,6.69.52,3.39.42,6.51.32,7.76-.07.88-.27,1.84-.42,2.2-.16.37-.61.79-.61.79,0,0,4.73-.17,4.8-.17.07,0-.51-.23-.87-.76Z"/><path class="w" d="M198.47,7.45s.39.59.57.9c.48.8.14,2.76.01,3.93-.13,1.19-1.33,10.9-1.33,10.9,0,0-.61,4.66-4.13,4.24-3.04-.36-3.18-3.02-3.36-3.71-.11-.43-.16-1.87.08-3.74.42-3.26,1.57-11.4,1.84-11.96.41-.88,1.21-1.25,1.21-1.25l-3.73-.57s.54.49.85,1.49c.28.89-.5,5.01-.5,5.01,0,0-1.17,8.53-1.19,9.22,0,.2-.79.26-.8.57,0,.39.28.5.57.8.29.3.73,2.74,1.71,3.93.79.95,1.66,1.44,3.14,1.62,1.96.24,2.98-.08,4.37-.94,1.05-.64,1.66-1.41,1.81-1.73.31-.66.76-1.24.76-1.24l.59-.13s.28-.24.09-.64c-.19-.4-.71-.11-.65-.7.09-.81,1-9.6,1.12-10.67.12-1.08.48-2.78.74-3.35.31-.68,1.21-1.16,1.21-1.16l-5-.8Z"/><path class="x" d="M185.73,5.83l-.95.62c-.73-.93-1.87-1.81-3.22-2.12-1.47-.33-2.89-.09-4.29.64-2.84,1.49-4.99,5.5-5.31,9.63-.33,4.34.33,7.77,2.65,10.32,1.37,1.51,2.77,1.71,3.8,1.78,1.62.11,2.88-.32,4.09-1.24,1.12-.86,1.74-2.1,1.63-3.58-.07-.97-.43-1.69-1.21-1.95-.73-.24-1.33-.03-1.26.19.07.22.43.53.43.53,0,0,.72.9.39,2.37-.22,1-1.02,2.78-3.89,2.57-2.06-.15-2.7-1.32-2.98-1.84-1.35-2.47-.96-6.74-.68-9.39.28-2.65,1.11-6.76,2.47-8.21.62-.66,1.95-1.21,3.35-1.11,1.4.1,2.26.55,3.13,1.84.72,1.05.75,1.92.6,2.82-.17,1.03-.76,1.64-1,1.82-.37.29-1.12.64-1.85.33-.2-.09-.44-.22-.61-.39.33-.22.56-.59.57-1.02.02-.69-.53-1.27-1.23-1.28-.69-.02-1.22.49-1.29,1.37-.1,1.33.69,2.23,1.86,2.7.78.31,2.14.12,2.89-.45.75-.57,1.41-1.4,1.76-2.69.24-.88.18-1.4-.03-2.21-.02-.06-.05-.13-.07-.19l1.12-.82c.26-.19.39-.63.17-.96-.22-.32-.76-.28-1.03-.1Z"/><path class="ad" d="M216.73,16.12c.67-3.75-1.29-5.35-2.6-5.96-1.37-.65-7.57-1.5-7.57-1.5,0,0,.38.41.64,1.12.35.97.1,2.07.1,2.07l-2.33,15.22s-.17,1.18-.85,1.9c-.41.43-.91,1.01-.91,1.01,0,0,3.07.61,4.85.85,1.98.27,3.66.33,4.8-.11.89-.35,3.21-1.77,3.58-4.87.46-3.95-2.89-6.12-3.11-6.12-.22,0,2.73.14,3.4-3.61ZM213.48,25.79c-.42,2.43-.76,3.26-2.01,3.94-1.04.57-2.22.47-3.4.22-1.18-.25-1.02-.39-1.02-.39l1.69-9.78s2.95.14,3.89,1.04c1.51,1.46,1.23,2.77.85,4.96ZM214.02,15.02c-.35,1.98-.59,2.75-1.55,3.43-.6.43-1.53.44-2.52.24-.98-.2-.89-.21-.89-.21l1.05-8.22s2.1.14,3.12.75c1.02.61,1.11,2.21.8,4Z"/><path class="v" d="M157.11,8.67c1.77.04,2.06.04,3.09.29.4.09.95.46,1.53.92.7.55,1.22,1.58,1.22,1.58l-.15-3.32-10.25-.52s.79.76.93,1.35c.13.59-.65,12.75-.65,12.75,0,0-.17.81-.47,1.1-.3.29-.76.79-.76.79l10.1.74s.08-.52.32-1.17c.22-.62.47-1.17.47-1.17,0,0-.74.13-1.49.56-.75.43-1.78.62-2.52.61-1.18-.03-2.65-.21-2.65-.21,0,0-.58-.15-.64-1.27-.05-1.04.37-6.64.37-6.64,0,0,.43-.12.96-.05.74.09,1.1.17,1.68.77.44.46.78,1.27.78,1.27l.4-4.49s-.38.66-.98,1.01c-.6.36-.89.35-1.63.41-.74.06-1.1-.17-1.1-.17l.33-4.79s.08-.37,1.12-.34Z"/><path class="ac" d="M145.91,7.53c-.91-.39-1.47-.59-2.72-.5-.81.05-2.09.99-2.09.99l.18-1.4-3.84-.09s.8.46,1.08,1.43c.27.96.01,12.77.01,12.77,0,0-.04.66-.47,1.32-.38.58-.83.94-.83.94,0,0,4.5.25,5.01.33.51.08,2.29-.1,3.11-.37.82-.28,4.62-1.82,4.74-7.64.11-4.87-3.08-7.3-4.18-7.77ZM146.84,19.14c-1.12,3.04-3.1,3.32-4.35,3.22-1.25-.1-1.38-.77-1.38-.77v-10.04s.36.44.8.83c.51.45.95.61,1.54.48.14-.03.95-.27.94-1.45,0-.59-.38-.89-.88-.91-.48-.01-.64.48-.69,1.09-.17.03-.59-.01-.88-.24-.35-.28-.65-.75-.55-1.56.12-1.07.62-1.46,1.22-1.82.6-.35,2.11-.38,2.94.43,1.01.98,1.72,2.48,1.89,4.62.17,2.01.21,3.99-.58,6.11Z"/><path class="ae" d="M236.41,15.79c0,.62-.5,1.11-1.13,1.11s-1.14-.49-1.14-1.11.5-1.1,1.14-1.1,1.12.48,1.12,1.1ZM234.43,15.79c0,.49.37.88.86.88.48,0,.84-.39.84-.87s-.36-.89-.85-.89-.85.4-.85.88ZM235.1,16.36h-.26v-1.1c.1-.01.24-.03.42-.03.21,0,.3.03.38.09.07.05.11.13.11.24,0,.13-.1.22-.23.26h0c.11.05.16.13.19.28.03.17.06.23.08.27h-.27s-.05-.13-.09-.27c-.02-.11-.09-.17-.23-.17h-.12v.44ZM235.11,15.75h.12c.14,0,.26-.05.26-.16,0-.1-.07-.17-.24-.17-.07,0-.11,0-.14.01v.32Z"/></g></g></svg>