<svg height="328.6" width="602" data-sanitized-aria-label="La Aurora Since 1903" aria-label="La Aurora Since 1903" class="navbar_logo__Xd8kg navbar_svg__5wX33" viewBox="0 0 602 328.6" xmlns="http://www.w3.org/2000/svg" xmlns:xlink="http://www.w3.org/1999/xlink"><path fill="#36332B" d="M271.5 317.6l5 7.7-.6.3c-.1-.3-.3-.4-.7-.4-.2 0-.9.2-2.2.7-1.5.6-3 1-4.3 1.3-2.1.5-4.2.7-6.4.7-4.3 0-7.9-1.1-11-3.3-3.4-2.5-5.1-5.8-5.1-9.9 0-4.1 1.7-7.4 5.1-9.9 3.1-2.2 6.7-3.3 11-3.3 3.3 0 6.2.3 8.7 1 2.2.6 3.3.9 3.4.9.3 0 .5-.1.7-.4l.5.1-4.4 8.1-.2-.2v-.7c0-.5-.8-1-2.4-1.5-1.7-.5-3.5-.7-5.5-.7-2.3 0-4.4.5-6 1.5-2.1 1.2-3.1 3-3.1 5.2 0 2.3 1 4 3.1 5.2 1.7 1 3.7 1.5 6 1.5 1.1 0 2.7-.3 4.7-.8 2.3-.7 3.5-1.3 3.5-1.9 0 0-.1-.2-.3-.7l.5-.5zm-42.4-15.2c.7.1 1 .4 1 .9v13.1c-7.9-8.7-11.9-13.1-11.9-13.3 0-.4.5-.6 1.4-.6v-.6h-11.8v.6c.9.1 1.4.4 1.4.9v22.8c0 .5-.5.8-1.4.9v.6h9.3v-.7c-.9-.1-1.4-.4-1.4-.9v-15.4c4.4 4.9 8.4 9.3 11.9 13 1.5 1.6 2.2 2.5 2.2 2.7 0 .4-.4.5-1.1.5v.6h9.3v-.5c-.9-.1-1.4-.4-1.4-.9v-22.8c0-.5.5-.8 1.4-.9v-.6h-9v.6zm-41.2 0c.9.1 1.4.4 1.4.9v22.8c0 .5-.5.8-1.4.9v.6H198v-.6c-.9-.1-1.4-.4-1.4-.9v-22.8c0-.5.5-.8 1.4-.9v-.6h-10.1v.6zm-52 15.4v-6.4l-80.1 3.2 80.1 3.2zm38.4-5.5c-1.6-.5-4.8-1-9.8-1.5-3.5-.3-5.2-1-5.2-2.1 0-1.5 1.9-2.3 5.7-2.3 2.3 0 4.6.3 6.8.8 2.2.6 3.3 1.1 3.3 1.8v.5l.6.3 3.4-6.8-.5-.2c-.4.5-.9.7-1.3.7 0 0-1.5-.3-4.4-1-2.9-.7-5.8-1-8.4-1-3.6 0-6.5.8-8.6 2.3-2.2 1.5-3.3 3.5-3.3 6 0 2.7 1.7 4.6 5.2 5.7 1.6.5 4.8 1 9.7 1.5 3.5.3 5.2.9 5.2 1.9 0 2.2-2.4 3.3-7.1 3.3-2.4 0-4.7-.4-7-1.2-2.2-.8-3.4-1.6-3.4-2.3v-1l-.4-.2-3.6 8.7.6.1c.4-.4.8-.6 1-.6.2 0 .9.2 2.1.6 1.4.5 2.8.8 4.1 1.1 2.1.4 4.3.6 6.8.6 4.9 0 8.5-.9 10.9-2.8 2-1.6 2.9-3.6 2.9-6 0-3.5-1.8-5.7-5.3-6.9zm272.1 1.6v-.2c2-1.2 2.9-2.8 2.9-4.7 0-2.5-1.2-4.4-3.5-5.7-2-1.1-4.5-1.7-7.6-1.7-2.1 0-4.1.3-6 .8-1.2.4-2.6.9-4 1.6-1.2.6-1.8.8-2 .8-.3 0-.5-.1-.7-.3l-.5.2 4.2 6.6.4-.4c-.1-.3-.1-.6-.1-.7 0-.5.8-1.2 2.5-2.1 2-1 4-1.5 6.2-1.4 2.8 0 4.3.9 4.3 2.6 0 1.4-.9 2.2-2.7 2.2h-3.3c-.6 0-.9-.4-.9-1.1h-.6v7.4h.6c0-.9.3-1.3 1-1.3h3c2.7 0 4.1 1 4.1 2.9s-1.8 2.9-5.3 2.9c-2.3 0-4.6-.5-6.8-1.4-2.2-.9-3.3-1.8-3.3-2.8v-.8l-.5-.2-3.3 8.4.6.1c.2-.4.5-.5.9-.5.1 0 .5.1 1.3.4 1 .4 2 .7 2.8 1 3 .9 6.1 1.4 9.1 1.4s5.6-.7 7.8-2c2.4-1.5 3.7-3.5 3.7-6-.1-2.7-1.5-4.7-4.3-6zm-106.2-11.5c.7.1 1 .4 1 .9v1.6c-.1 0-.7.2-1.6.6-.9.4-1.5.6-1.6.6-.4 0-.5-.4-.5-1.2h-.6v7.9h.6c0-.7.2-1.1.6-1.3.3-.2 1.3-.5 3.1-.9v15.6c0 .5-.4.8-1.2.9v.6h9.7v-.7c-.8-.1-1.2-.4-1.2-.9v-22.8c0-.5.4-.8 1.3-.9v-.6h-9.6v.6zm76.3 2.9c2.6 2.5 3.9 5.6 3.9 9.4 0 3.7-1.3 6.8-3.9 9.4-2.6 2.5-5.7 3.8-9.4 3.8s-6.8-1.3-9.4-3.8c-2.6-2.5-3.9-5.7-3.9-9.4s1.3-6.8 3.9-9.4c2.6-2.5 5.7-3.8 9.4-3.8 3.6 0 6.7 1.3 9.4 3.8zm-3.4 9.4c0-2-.5-3.7-1.4-5-1.1-1.6-2.7-2.3-4.6-2.3-2 0-3.5.8-4.6 2.3-.9 1.3-1.4 3-1.4 5s.5 3.7 1.4 5c1.1 1.6 2.7 2.3 4.6 2.3 2 0 3.5-.8 4.6-2.3 1-1.3 1.4-3 1.4-5zm55.4 3.1l80.1-3.2-80.1-3.2v6.4zm-159.8-16h-24.4v.6c.9.1 1.4.4 1.4.9v22.8c0 .5-.5.8-1.4.9v.6h24.4c.5 0 .8.4.9 1.1h.6v-8.5h-.6c-.1 1-.4 1.5-.9 1.5H293V317h9.1c.8 0 1.3.4 1.5 1.1h.6v-7.6h-.6c-.2.8-.7 1.1-1.5 1.1H293v-4.1h15.7c.5 0 .8.5.9 1.4h.6v-8.5h-.6c-.2 1-.5 1.4-.9 1.4zm76.1 2.9c2.5 2.2 3.7 5.4 3.7 9.6 0 4.1-1.5 7.5-4.5 10-2.8 2.4-6.3 3.6-10.5 3.6-1.3 0-3-.3-5.2-.8-2.2-.6-3.4-.8-3.7-.8-.4 0-.8.2-1.1.5l-.6-.2 3.9-6.6.5.2v.4c0 .8.7 1.4 2 1.9 1.1.4 2.6.6 4.4.6 2.2 0 4.1-.6 5.6-1.7 1.7-1.2 2.6-3 2.8-5.2-3.4 1.7-6.4 2.5-9.2 2.5-2.6 0-4.8-.8-6.7-2.3-1.9-1.6-2.9-3.7-2.9-6.3 0-2.9 1.3-5.1 3.9-6.7 2.2-1.3 4.8-2 7.8-2 4.1.1 7.4 1.2 9.8 3.3zm-4.5 5.4c0-1.3-.7-2.2-2-2.9-1-.5-2.1-.7-3.4-.7-1.3 0-2.4.2-3.4.7-1.3.7-2 1.6-2 2.9 0 1.3.7 2.2 2 2.9 1 .5 2.1.7 3.4.7 1.3 0 2.4-.2 3.4-.7 1.3-.6 2-1.6 2-2.9zm73.1-79.8c0 22.1-16.8 38.7-39 38.7-22 0-38.6-16.2-38.6-37.8 0-23.1 15.8-39.3 38.5-39.3 22.3.1 39.1 16.6 39.1 38.4zm-16 0c0-14.8-9.6-25.2-23.4-25.2-13.4 0-22.3 10.1-22.3 25.2 0 15.7 9 25.8 22.9 25.8 13.4.1 22.8-10.5 22.8-25.8zm138.4 34.9c1.4-1.4 1.6-1.9 1.6-2.7 0-.3-.1-1.3-1-3.6l-4.4-10.4h-27.5l-4.9 11.5c-.4.9-.6 1.9-.6 2.8 0 .7.1 1.2 1.4 2.3l3.1 2.7h-12.6c-1.8-2-3.8-4.6-6.2-8l-.1-.2 24.5-57.2c.7-1.7 1.1-3.3 1.1-4.3 0-.6-.1-1.2-1.2-2.2l-2.9-2.6h19.1l27.6 64.1c1.2 2.7 1.2 2.8 2 4 .9 1.4 1.3 1.9 3.7 3.8l3.4 2.7h-28.7l2.6-2.7zm-9.4-29.8l-8.2-19.6-8.3 19.6h16.5zM58.8 249.5c-2.2 1.8-4.3 2.8-7 3.6-2.9.8-5.4 1-8.5 1.2-1.3.1-2.7.1-4 .1H21.1v-52c0-3.6.3-5.9 3.5-7.9l2-1.3H.1l2 1.3c3.2 2 3.5 4.2 3.5 7.9v56.4c0 3.5-.3 5.9-3.5 7.7L0 267.8h54.6l6.1-19.9-1.9 1.6zm492.7 29.6c-16.2 4.2-28.7 8.4-40.7-7.3l-19.7-27.9c-3.7-5.2-7.6-5.6-12.4-5.7v19.9c0 4.3.9 5.6 3 6.9l4.6 2.8h-31l4.6-2.8c2.1-1.3 3-2.5 3-6.9V203c0-4.3-.8-5.6-3-7l-4.4-2.8h24.8c1.2 0 3 .1 5.3.1 8.8.1 13.8.6 16.8 1.5 8.1 2.5 13.5 10.2 13.5 19.2 0 14.2-8.5 19.5-13.1 21.4.7.6 1.4 1.4 2.1 2.4l16.6 24.3c10.7 14.7 14.6 16.1 30 17zM498.9 215c0-2 0-8.1-10.2-8.7-4.4-.2-8.1-.1-10-.1V225c1.2.1 2 .1 3 .1h.8c4 0 8.3-.2 9.8-.6 4-.9 6.6-4.7 6.6-9.5zm-262.2 50.1l3.4 2.7h-28.7l2.5-2.6c1.4-1.4 1.6-1.9 1.6-2.7 0-.3-.1-1.3-1-3.6l-4.4-10.4h-27.5l-4.9 11.5c-.4.9-.6 1.9-.6 2.8 0 .7.1 1.2 1.4 2.3l3.1 2.7h-27.4l4.3-2.8c.6-.4.9-.6 1.3-1l.3-.3c1-1 1.3-1.4 2.2-3.4l24.9-58c.7-1.7 1.1-3.3 1.1-4.3 0-.6-.1-1.2-1.2-2.2l-2.8-2.6h19.1l27.6 64.1c1.1 2.6 1.2 2.8 2 4 .9 1.4 1.3 1.9 3.7 3.8zm-32.1-29.7l-8.2-19.6-8.3 19.6h16.5zm-65.9 29.7l3.4 2.7h-28.7l2.5-2.6c1.4-1.4 1.6-1.9 1.6-2.7 0-.3-.1-1.3-1-3.6l-4.4-10.4H84.5L79.7 260c-.4.9-.6 1.9-.6 2.8 0 .7.1 1.2 1.4 2.3l3.1 2.7H56.1l4.3-2.8c.6-.4.9-.6 1.3-1l.3-.3c1-1 1.3-1.4 2.2-3.4l24.9-58c.7-1.7 1.1-3.3 1.1-4.3 0-.6-.1-1.2-1.2-2.2l-2.8-2.6h19.1l27.6 64.1c1.1 2.6 1.2 2.8 2 4 1 1.4 1.4 1.9 3.8 3.8zm-32.2-29.7l-8.2-19.6-8.3 19.6h16.5zm189.8 17.1c1.6-4.1 2.2-7.8 2.2-14.8V203c0-4.3.8-5.6 2.9-7l4.3-2.8h-30l4.3 2.8c2.2 1.4 2.9 2.7 2.9 7v34.7c0 6.7-.2 9.4-3 13.2-2.7 3.7-6.4 5.4-11.6 5.4-5.8 0-10.1-2.1-13-6.3-1.9-2.9-2.4-5.6-2.4-12.9V203c0-4.3.8-5.6 2.9-7l4.3-2.8H230l4.3 2.8c2.2 1.4 2.9 2.7 2.9 7v34c0 6.9.7 12.4 2.2 15.8.9 2.3 2.5 4.6 4.8 7 6 6.2 13.9 9.2 24.1 9.2 13.4.1 23.9-6.1 28-16.5zm66.4 19.3L343 243.9c-3.7-5.2-7.6-5.6-12.4-5.7v19.9c0 4.4.9 5.6 3 6.9l4.6 2.8h-31l4.7-2.8c2.1-1.3 3-2.5 3-6.9V203c0-4.3-.8-5.6-3-7l-4.4-2.8h24.8c1.2 0 3 .1 5.3.1 8.8.1 13.8.6 16.8 1.5 8.1 2.5 13.5 10.2 13.5 19.2 0 14.2-8.5 19.5-13.1 21.4.7.6 1.4 1.4 2.1 2.4l16.6 24.3c10.5 14.8 14.5 16.2 29.8 17.2-15.9 3.9-28.6 8.2-40.6-7.5zM350.8 215v-.4c0-2.3-.6-7.7-10.2-8.2-4.4-.2-8.1-.1-9.9-.1V225c1.2.1 2 .1 2.9.1h.8c4 0 8.3-.2 9.8-.6 4-.9 6.6-4.7 6.6-9.5zm51.9-93.7c2.8 0 5 2.3 5 5 0 2.8-2.3 5-5 5-2.8 0-5-2.3-5-5-.1-2.8 2.2-5 5-5zm0 .7c-2.3 0-4.3 1.9-4.3 4.3 0 2.3 1.9 4.3 4.3 4.3 2.3 0 4.3-1.9 4.3-4.3-.1-2.4-2-4.3-4.3-4.3zm-2.2 4.3c0 1.7 1.1 2.6 2.3 2.6 1.1 0 1.8-.6 2-1.5l-.8-.2c-.3.6-.6 1-1.3 1-.9 0-1.5-.6-1.5-1.8 0-1.2.7-1.8 1.5-1.8.7 0 1 .3 1.3 1l.8-.2c-.3-1-1-1.5-2-1.5-1.2-.2-2.3.7-2.3 2.4zm-60.6-52.2c3.2 1.3 2.8 6.6-.2 8.6-2.9 1.9-5.6 2.4-5.6 2.4-.2 0-.3.2-.3.4s.2.3.3.3c2.3.2 4.1.2 5.9-.5 3-1.2 4.1-1.5 7-.3.4.2.9.4 1.4.5 1.6.4 3.4.4 5.2.3.2 0 .3-.1.3-.3 0-.2-.1-.4-.3-.4 0 0-2.6-.5-5.6-2.4-2.6-1.7-3.7-7.1-.2-8.6 2.2-.8 3.5-1.8 4.4-4 .2-.6.4-1.2.4-1.8 0-.4-.5-.6-.6-.2-.2.4-.6.8-1.2 1.1-.5.2-1 .4-1.7.4-3.4-.2-7.2-.2-10.7 0-1.1.1-2.4-.5-2.9-1.5-.1-.2-.3-.2-.4-.2-.1.1-.2.2-.2.4.1.6.2 1.2.4 1.8 1.1 2.2 2.4 3.2 4.6 4zm12.8-12.2c.2.1.4 0 .4-.2 1.9-5.7 2.9-5.8 4.5-5.9 2.3-.1 3.4-.7 5-2.4 1.8-1.9 2.8-4.3 1.7-3.8-1.2.6-8 .6-9.1 1-1.5.5-1.9 1.1-2.2 2.7-.6 2.5-.5 6.8-.5 8.4l.2.2zM167 158c1.6-.1 3.2-.1 4.8-.2-1.8-2.4-4.4-8.3-5.9-11.4-.2-.2-.5-.3-.7-.5-29.1-18.5-33.1-45-12.9-63.7C165.5 70.1 183 66.9 198 57.7c12.4-7.6 6.1-18.1 0-13.1-13.5 10.9-36.1 6-41.6-9.9-1.3-3.8.3-3.6 5.6-2.5 7.5 1.7 10.1-1.9 16.7-4.6 5.9-2.4 11.7-2.7 18 .1 7.6 3.4 14.6 9.6 15.8 17.8.3 1.9.2 4-.2 6.1-3.1 15.5-29.3 24-43.3 33.4-10.6 7.1-14.4 21.5-3.2 26.4 11.6-18.4 37.5-27.6 59.8-24.6 29.8-1.8 54.9-1.3 67.9-15.9-.4-2.1-.6-4.3-.7-6.5-.1-4.5.8-7.6 1.4-11.9-.8.8-1.6 1.7-2.4 2.5 1.5-6 8.7-21.4 4.9-25.6-.6-.7-2.1-5.2-1.5-5 2.2.7 6.2.1 6.6-1.5-.8-.1-2.3-.6-2.6-1.3 3.6-1.7 3.7-1.5 7.1-4 4.9-3.7 14.4-11 20.2-12.9 2-.7 3.3-1.1 3.3-1.1-.6-.5-1.2-.9-1.7-1.4 7.9 0 19.9-1.4 27.9-.4-.5-.6-.9-1.1-1.4-1.7 5.2 2.1 9.5 5.5 14.8 6.4-.7.2-1.4.5-2.1.7 4.4 2.9 11.1 4.6 16.1 5.5 6.7 1.3 9.6 6.8 9.6 6.8-1.2.4-2.3.8-3.4 1.2h1.1c1.1 0 3 1.2 3 1.2-3.4 3.7-3 5.7-3.7 11.5-2.6 19.9 31.5 55.8-1.5 94.6 9.6 6.4 17.4 15 29.4 17 7 1.2 15.5 2 18.4 13 44.9 2.3 75.3 5.6 81.1 9.4-51.8-3-129.6-4.9-216.4-4.9-86.9 0-164.6 1.9-216.5 4.9 8.6-5.7 65.8-8.7 82.5-9.4zm13.5-1.1c7.1-.3 15.4-.2 23.4-.4.8 0 1.5 0 2.3-.1-1.5-3.2-4.3-8.9-5-12.1-.8-3.6 4.9-13.3 6.7-15.2 1.8-1.9-5.4 10.9-4.1 14.8 1.2 3.5 5.2 9 9 12.3 18.4-.5 38.1-.9 58.7-1-1.7-2.2-4.7-4.2-8-4.7 5.1-.5 9.6 2 11.6 4.7h6.5c-3.8-6.9-10.2-10.8-19.4-9.9-5 .5-20.3.7-23.1-5.8-5.4-12.7 15.4-13.1 14.9-33 3.8 20.1-12.3 23-10 30.2 1.7 5.4 10.8 5.3 14.3 5.1 13.8-.8 22.2 1 27.8 13.4h18.3c-3.6-4.9-6.1-13-4.3-17.8.2-.6.5-.8.7-.6 0 0 .8 5.3 2.4 8.4 2.1 3.9 6 7.9 10.8 9.8.1.1.3.1.4.2 7.8 0 15.5.1 23 .2 6.5-1 13-1.3 21.9.3 12.3.2 24.1.5 35.4.8-.2-2.1-.8-3.4-2.8-4.7 2.7.8 4.1 2.1 4.6 4.8 1.3 0 2.6.1 3.9.1-.4-2.7-1.1-4.4-3.5-6 2.7.9 4.4 3 5.3 6.1h.9c1.4 0 2.8.1 4.2.1-2.8-9.4-8.1-10.5-16.7-11.9-9.2-1.4-18.9-2.4-27.2-2 2.4-1.1 7.4-.9 11.5-1.1-10.5-2.6-24.8-3-35.2-6.7-8.9-3.2-19.8-3.9-21.9-10.3-2 4.3-5 9.5-9 12 6.8-9.1 1.1-24 5-36.7-.9 11.7 3.7 18.6 8.2 22.5 0 0 .4-9.3 2.1-9.3 5.4 11.9 12.6 18.1 22.2 18.5-6.1-2.2-4.8-10.6-4.1-13.8 2.9 8.8 15.5 10.7 17.9 18 1-4.7.7-7.9 2.4-12.8 2.1-6.4 6-13 13-18.2-.9 4.2-3.5 9.9-5.1 13.7 6.9-3.9 11.6-12.3 13.8-20.2.7 4.6-1.1 11.8-3.8 19.8 15.4-17.6 18.8-47.3-1.1-70.2 5.8 7.9 8 24 7.2 29.5-.4-3.4-2.4-6.9-4-8.6 1.1 5.8.5 10-.9 16.2-.4-7-3.8-15.2-7.1-19 3.1 29.4-15.6 29-16 54.1-3.9-5.9-11.2-7.2-13.6-17.5.7 6.5.9 11.5 7.6 17.3-9.1-4.6-14.6-11.2-16.4-17.5-2.4 2.3-1.9 6.4-1.8 8.6-1.7-1.4-2.5-3.8-3.2-6.9-.8-3.8-3.5-10.8-3.6-13.8 0 0-1.1 1.8-.5 8.8-2-5.2-2.6-8.8-2.7-11.6-.5-9.7-.6-9-4-16.8-.8-1.9-1.4-4-1-6.3 1 3.7 2.4 5.7 3.9 7.4 4.2 4.7 3.9 7.5 5.8 13.4.9 2.7 1.8 5.2 3.6 7.5 2.5 3.3 6.7 3.4 9.5 1.8 1.7-1 2.5-1.1 4.6.1 1.3.9 4.6 1.2 6.9 0 2.2-1.2 4.3-4.9 5.2-8.7.9-3.8.5-8.1 4.7-12.5 1.3-1.4 2.4-2.9 3.1-4.1 5.5-9.1 6-16.3-.1-25.3-1.8-2.6-3.9-5-5.9-7-5.7-5.7-10.7-8.1-15.6.2-1.8-3.9-7-7.1-11.1-4.9-7.5 4.4-16.1 10-16.4 26.1-.6-3.8-1.5-8.4-.3-13.6-.3-1-.6-2.3-.8-4.2-.7-4.1.1-8.5 2-8.4 1.2.1 2.8 1.1 3.9 1.9.4-.5.7-1 1.1-1.4-1.6-2.1-5.6-4.8-7.6-4.2-2.5.8-3.4 8.6-2.4 12.1-1.7-2.4-2.2-7.5-1-11.9 2-7.5 10.5-3.9 14.9-.2 4.9-4.6 9.7-6.9 10.1-6.1 0 0 .7.1 2.8 1.1 4.9 1.9 3.1-1 13.8-2.9 0 0-2.1 1.6-2.4 3 2.3 1.9 4.5 3 6.5 4-2.3-2.6-3.8-4.3-3.8-4.3 2.1-2.9 9-6.6 14.8-6.8-11.3-5.8-20.9-5.5-30.9-3.9-.9-2 24.7-6.8 3.8-5.5-3.9.2-9.8-1.9-10.2-2.6-.2 1.1 1.4 2.2 4 3.2-11.6 1.1-21.6 7.7-30.6 14.3h2.2c-1.6 3.9-5.9 4.7-7.8 4.4 0 1.8 2.6 3.5 4.4 3.7 0 0-2.2 5.6-3.8 9.7-1.6 4.1-3.4 8.3-3.4 8.3l3.9-1.2s-2 3.8-2.6 4.7c-.5.9 2.3.2 2.3.2-10 22.7 12.7 33.6-1.5 53.3 4.1-11.8.8-16-2.1-23.6-1-2.6-1.9-5.2-2.5-7.8-12.2 14.3-35.9 16.1-52.4 17.5 2.6 1.3 5.1 2.8 7.3 4.6 1 1.1 1.4 1.7.4 1.1-19.1-11.1-54.4-7.4-72.5 8.7-5.2 4.6-10.1 11.6-10.1 18.8 0 2.4 0 4.1.1 5.3.1 2.6.2 3.3-.9 0-.8-2.2-1.5-5.6-1.9-8.9-1.8-.8-3.2-1.6-4.7-2.8-10.6-9.2-8.7-27.4 7.1-37.2 11.7-7.2 30.9-12.7 39.5-22.7 2-2.3 3.4-4.8 4.1-7.6.5-2.1.5-4.3-.1-6.3-1.5-6-6.4-10.5-13.9-13.6-13.4-5.5-23.8 6.6-32.4 5.7-2.9-.3 9.2 13.4 24.8 7.2 6.4-2.5 11.9-6.1 16-3.1 4.3 4 5.7 11.3-4.9 18.8-14.5 10.2-31.4 12-46.1 25.2-18.4 16.5-13.3 38.3 15.1 55.6h.1c1.9 5.1 5.4 12.6 11.6 16.6zM329.7 55.8c1.6.1 2.6.2 4.6 5.9.1.2.3.3.4.2.1 0 .2-.2.2-.3 0-1.6-.1-5.8-.7-8.4-.4-1.6-.7-2.2-2.3-2.7-1.1-.4-7.9-.4-9.1-1-1.1-.5 0 1.9 1.8 3.8 1.7 1.8 2.8 2.4 5.1 2.5z"></path></svg>