<?xml version="1.0" encoding="UTF-8"?><svg xmlns="http://www.w3.org/2000/svg" xmlns:xlink="http://www.w3.org/1999/xlink" viewBox="0 0 686.56 425.52"><defs><style>.cls-1{stroke-width:1.49px;}.cls-1,.cls-2,.cls-3{fill:none;}.cls-1,.cls-4{stroke:#7f282b;}.cls-1,.cls-4,.cls-3{stroke-miterlimit:10;}.cls-5{clip-path:url(#clippath);}.cls-2,.cls-6,.cls-7,.cls-8,.cls-9,.cls-10,.cls-11,.cls-12,.cls-13,.cls-14,.cls-15,.cls-16,.cls-17,.cls-18{stroke-width:0px;}.cls-4{fill:#d12028;}.cls-6{fill:url(#radial-gradient);}.cls-7{fill:#927e42;}.cls-19{mix-blend-mode:multiply;}.cls-8{fill:url(#radial-gradient-2);}.cls-9{fill:url(#radial-gradient-3);}.cls-10{fill:url(#radial-gradient-4);}.cls-11{fill:url(#radial-gradient-6);}.cls-12{fill:url(#radial-gradient-8);}.cls-13{fill:url(#radial-gradient-5);}.cls-14{fill:url(#radial-gradient-7);}.cls-15{fill:#d11f26;}.cls-20{isolation:isolate;}.cls-16{fill:#c1d82f;}.cls-3{stroke:#937e41;}.cls-17{fill:#fff;}.cls-18{fill:#87754e;}</style><radialGradient id="radial-gradient" cx="335.09" cy="345.57" fx="335.09" fy="345.57" r="274.67" gradientUnits="userSpaceOnUse"><stop offset="0" stop-color="#86733b"/><stop offset=".55" stop-color="#84713a"/><stop offset=".74" stop-color="#7d6b36"/><stop offset=".88" stop-color="#716230"/><stop offset="1" stop-color="#605427"/><stop offset="1" stop-color="#605427"/></radialGradient><radialGradient id="radial-gradient-2" cx="335.09" cy="345.57" fx="335.09" fy="345.57" r="274.67" xlink:href="#radial-gradient"/><radialGradient id="radial-gradient-3" cx="335.09" cy="345.57" fx="335.09" fy="345.57" r="274.67" xlink:href="#radial-gradient"/><radialGradient id="radial-gradient-4" cx="335.09" cy="345.57" fx="335.09" fy="345.57" r="274.67" xlink:href="#radial-gradient"/><radialGradient id="radial-gradient-5" cx="335.09" fx="335.09" r="274.67" xlink:href="#radial-gradient"/><radialGradient id="radial-gradient-6" cx="335.09" cy="345.57" fx="335.09" fy="345.57" r="274.67" xlink:href="#radial-gradient"/><radialGradient id="radial-gradient-7" cx="335.09" fx="335.09" r="274.67" xlink:href="#radial-gradient"/><radialGradient id="radial-gradient-8" cx="335.09" cy="345.57" fx="335.09" fy="345.57" r="274.67" xlink:href="#radial-gradient"/><clipPath id="clippath"><path class="cls-2" d="M227.76,89.07h.02l.03-2.86v-4.77h.35c.82-.03,1.64-.04,2.45-.04,16.05,0,27.17,5.22,30.19,6.82l81.61,46.94,81.06-46.56c.12-.07,12.92-7.54,28.98-7.54,1.48,0,2.95.06,4.37.19l.33.03v7.81l.05.34,1,183.39-.67-1c-7.53-11.34-17.75-15.47-23.17-16.92l-.28-.08,8.28-164.34-99.81,71.09-.12-.1-.14.11-99.71-71.1,8.14,164.45-.27.08c-5.36,1.65-15.48,6.11-23.04,17.38l-.67.99,1-184.31Z"/></clipPath></defs><g class="cls-20"><g id="Layer_2"><g id="Layer_1-2"><polygon class="cls-6" points="51.08 349.09 32.53 316.62 0 316.62 .49 324.13 6.69 324.13 9.71 327.79 9.71 367.93 4.54 371.89 .27 371.89 .27 378.6 28.94 378.6 28.94 371.89 24.72 371.89 18.86 367.8 18.87 340.53 41.25 378.6 45.95 378.6 68.68 334.88 68.68 367.74 62.31 371.89 58.43 371.89 58.43 378.6 101.9 378.6 101.9 371.89 98.01 371.89 91.64 367.74 91.64 327.48 98.09 323.35 101.9 323.35 101.9 316.62 67.61 316.62 51.08 349.09"/><path class="cls-8" d="M328.49,367.66l-31.39-51.77h-4.72l-23.5,42.91-4.96,8.53-5.94,4.56h-3.46v6.71h28.79v-6.71h-3.8l-5.47-3.56,3.52-6.51h20.7l4.32,7.06-3.26,3.01h-3.54v6.71h40.99v-6.71h-3.3l-4.96-4.22ZM282.45,352.75l5.07-9.72,5.49,9.75-10.55-.02Z"/><path class="cls-9" d="M178.71,367.66l-31.39-51.77h-4.72l-23.5,42.91-4.96,8.53-5.94,4.56h-3.46v6.71h28.79v-6.71h-3.8l-5.47-3.56,3.52-6.51h20.68l4.33,7.06-3.26,3.01h-3.54v6.71h40.99v-6.71h-3.3l-4.97-4.22ZM132.67,352.75l5.06-9.72,5.49,9.75-10.55-.02Z"/><path class="cls-10" d="M258.08,352.98l-8.7-1.31-1.38,3.23c-.52,1.21-.69,1.62-1.24,2.54-.74,1.25-2.19,3.21-2.9,4.08-1.51,1.82-2.78,3.13-4.79,4.44-1.96,1.27-4.1,2.24-6.53,2.95-2.31.68-4.62,1.02-6.89,1.02-2.55,0-4.33-.11-5.91-.66-1.93-.68-3.4-1.25-4.67-2.33-1.62-1.37-2.61-2.37-3.55-4l-.24-.41c-.63-1.13-1.13-2.02-1.58-3.49-.55-1.82-1-3.86-1.32-6.08-.32-2.23-.48-4.36-.48-6.34,0-8.34,1.76-13.82,5.87-18.32,1.05-1.14,2.3-2,3.79-2.64,1.49-.62,3.06-.94,4.67-.94,3.76,0,7.27.85,11.05,2.66,4.53,2.19,7.25,3.76,10.43,6.79,1.77,1.68,3.69,3.95,5.84,6.94l.85,1.19h5.34l-1.22-26.58h-4.47l-1.82,1.31c-.08.07-.26.22-.52.42-2.04,1.57-3.69,2.7-4.92,3.35-.88.48-1.62.53-2.15.53-.37,0-1.23-.13-2.79-1.06-3.01-1.66-5.87-2.86-8.52-3.57-2.66-.7-5.64-1.06-8.87-1.06-9.88,0-18.53,3.02-25.69,8.99-8.13,6.71-12.26,14.51-12.26,23.14,0,6.83,2.45,12.87,7.3,17.97,4.01,4.22,9.02,7.57,14.91,9.95,5.84,2.35,11.94,3.54,18.12,3.54,11.49,0,20.75-3.87,27.51-11.52,1.35-1.54,2.54-3.24,3.65-5.22,1.1-1.98,2.04-4.02,2.86-6.23l1.23-3.3Z"/><polygon class="cls-13" points="394.7 323.31 398.87 323.31 403.83 327.18 403.83 345.97 368.36 316.62 335.82 316.62 335.82 323.31 339.98 323.31 347.55 329.55 347.55 367.77 341.99 371.89 337.91 371.89 337.68 378.6 366.57 378.6 366.57 371.92 362.22 371.92 356.63 367.84 356.63 336.96 406.98 378.6 412.78 378.6 412.78 327.37 418.93 323.31 423.15 323.31 423.42 316.62 394.7 316.62 394.7 323.31"/><path class="cls-11" d="M483.77,323.35h4.23l4.8,3.85v26.07c0,2.51-.49,4.91-1.47,7.13-.97,2.21-2.35,4.15-4.11,5.77-1.68,1.54-3.63,2.45-6.24,3.43-2.13.79-4.95,1.1-8.18.99-4.84-.16-6.79-.99-8.7-2.46-2.26-1.73-3.27-4.36-3.27-8.53v-32.19l6.29-4.05h4.04v-6.73h-43.7v6.73h3.82l6.44,4.13v24.25c0,3.61.49,6.87,1.47,9.68,1.01,2.89,2.62,5.54,4.8,7.85,3.06,3.32,7.02,5.91,11.74,7.68,4.61,1.72,9.83,2.59,15.49,2.59,6.18,0,11.59-1.04,16.09-3.1,4.65-2.12,8.28-5.26,10.77-9.34,2.48-4.04,3.74-8.81,3.74-14.18v-25.47l6.29-4.09h4.27v-6.73h-28.6v6.73Z"/><path class="cls-14" d="M588.57,325.37c-3.32-2.81-7.24-5-11.65-6.5-4.36-1.49-9.14-2.25-14.18-2.25h-46.4v6.73h4.05l6.51,4.14v40.33l-6.35,4.07h-3.91v6.71h44.37c5.37,0,10.43-.71,15.03-2.11,4.67-1.43,8.76-3.5,12.19-6.16,3.46-2.7,6.19-6.01,8.12-9.84,1.9-3.85,2.87-8.04,2.87-12.47s-.94-8.76-2.8-12.61c-1.86-3.83-4.5-7.21-7.85-10.04ZM573.02,362.82c-1.18,3.19-2.49,3.97-3.78,4.72-2.17,1.28-5.51,2.01-9.15,2.01h-10.15v-43.95h9.12c2.9,0,5.17.28,6.75.83,1.73.61,3.19,1.53,4.16,2.63,1.63,1.83,2.59,3.86,3.44,7.25.78,3.16,1.27,6.3,1.27,12.2,0,6.52-.56,11.34-1.66,14.3Z"/><path class="cls-12" d="M684.42,337.09c-1.41-3.25-3.45-6.27-6.02-8.95-3.91-4.13-8.76-7.34-14.41-9.51-5.58-2.14-11.74-3.23-18.32-3.23-5.09,0-10.06.84-14.77,2.49-4.7,1.66-8.97,4-12.65,6.96-3.72,2.99-6.69,6.47-8.81,10.34-2.17,3.97-3.27,8.15-3.27,12.43,0,5.69,1.9,11.07,5.65,16,3.65,4.79,8.62,8.63,14.76,11.44,6.08,2.78,12.7,4.19,19.67,4.19s13.79-1.41,19.89-4.19c6.18-2.8,11.15-6.68,14.79-11.51,3.74-4.95,5.63-10.45,5.63-16.36,0-3.41-.73-6.81-2.15-10.1ZM661.06,351.93l-.12,1.67c-.18,2.7-.32,3.37-.65,4.94-.33,1.45-1.09,4.86-1.79,6.04-1.08,1.89-2.5,3.24-4.32,4.14-1.93.96-4.42,1.44-7.39,1.44-4.74,0-8.22-1-10.42-3.02-1.85-1.59-3.15-4.04-3.84-7.2-.26-1.35-.46-2.66-.62-5.03l-.12-1.55c-.1-1.27-.17-2.12-.17-3.43,0-3.3.1-6.5.32-9.53.21-3.06.39-4.4.79-5.99.44-1.83.94-2.81,1.8-4.43,1.07-1.86,2.48-3.17,4.31-4.02,1.95-.91,4.68-1.38,8.1-1.38,3.73,0,6.64.67,8.63,1.98,1.91,1.24,3.33,3.39,4.23,6.41.98,3.27,1.55,6.38,1.55,12.58,0,2.56-.12,4.25-.28,6.39Z"/><path class="cls-7" d="M125.62,423.61h2.78l3.14-3.79v-16.08c0-.81,0-1.82-1.57-1.82h-4.35v-.81h13.7l6.62,14.51h.35l5.97-14.51h13.05v.81h-3.14l-2.33,2.07v17.55l2.02,2.07h3.44v.81h-17.75v-.81h3.79l2.17-2.07v-17.29c0-.91-.1-1.31-.51-1.31s-.76.51-1.01,1.11l-8.14,20.38h-.51l-9.66-20.93c-.1-.25-.3-.41-.61-.41-.25,0-.51.2-.51.66v16.08l3.34,3.79h2.88v.81h-13.2v-.81ZM203.55,412.78c0,7.38-7.74,12.24-16.43,12.24s-16.43-4.85-16.43-12.24,7.74-12.29,16.43-12.29,16.43,4.85,16.43,12.29ZM177.46,412.78c0,5.71.96,11.43,9.66,11.43s9.66-5.71,9.66-11.43-.96-11.48-9.66-11.48-9.66,5.71-9.66,11.48ZM208.01,423.61h2.83l3.69-4.5v-14.77c0-.76,0-2.43-2.12-2.43h-4.4v-.81h12.9l15.73,18.41v-13.1l-3.19-4.5h-3.24v-.81h14.01v.81h-2.53l-4,4.5v18h-5.21l-16.64-19.42h-.25v14.11l3.84,4.5h3.03v.81h-14.46v-.81ZM260.76,401.91h-4.96l-5.01,7.03h-.61v-7.84h27.71v7.84h-.61l-5.01-7.03h-4.96v19.32l2.28,2.38h3.64v.81h-18.41v-.81h3.64l2.28-2.38v-19.32ZM289.59,403.99l-2.33-2.07h-3.39v-.81h28.22l.35,8.8h-.81l-5.87-7.99h-7.99l-1.87,1.92v7.53h3.69l4.55-5.26h.61v11.33h-.61l-4.6-5.11h-3.64v9.41l1.67,1.87h7.69l6.68-8.09h.61v8.9h-28.67v-.81h3.69l2.02-2.07v-17.55ZM349.64,400.5v9.71h-.61c-2.02-3.44-5.21-8.9-12.34-8.9-8.8,0-9.15,8.34-9.15,12.39,0,5.56.71,10.52,9.05,10.52,2.22,0,6.37-.76,6.88-2.73v-5.66l-1.77-1.87h-3.69v-.81h17.24v.81h-3.19l-2.28,1.92v5.41c0,.46.15.96.41,1.57l-.3.3c-.25-.25-.71-.4-1.42-.4-2.73,0-7.13,2.28-12.79,2.28-9.91,0-14.92-6.12-14.92-11.63,0-8.55,8.04-12.9,15.68-12.9,4,0,7.48,1.82,9.56,1.82,1.77,0,2.58-1.11,3.08-1.82h.56ZM394.88,412.78c0,7.38-7.74,12.24-16.43,12.24s-16.43-4.85-16.43-12.24,7.74-12.29,16.43-12.29,16.43,4.85,16.43,12.29ZM368.78,412.78c0,5.71.96,11.43,9.66,11.43s9.66-5.71,9.66-11.43-.96-11.48-9.66-11.48-9.66,5.71-9.66,11.48ZM430.32,415.16l-6.73-11.28-2.12-1.97h-3.54v-.81h15.68v.81h-1.37l-1.42,1.77,4.96,8.9c.05.15.15.25.25.25.15,0,.3-.1.41-.25l4.65-7.13-3.19-3.54h-1.72v-.81h13.45v.81h-2.63l-5.21,4.35-4.9,7.28v7.99l2.02,2.07h3.94v.81h-18.36v-.81h3.79l2.02-2.07v-6.37ZM497.87,400.6h.61v10.32h-.61c-.4-1.82-2.68-9.61-10.27-9.61-5.87,0-7.48,4.6-7.48,10.57,0,5.26,0,12.34,7.79,12.34,5.36,0,9.76-3.89,10.11-9.46h.81c0,2.68-1.87,10.26-11.68,10.26-7.18,0-13.8-4.8-13.8-12.39,0-6.98,6.73-12.14,13.35-12.14,4.45,0,6.57,1.57,7.79,2.43l3.39-2.33ZM511.81,403.99l-2.33-2.07h-3.24v-.81h17.7v.81h-3.24l-2.33,2.07v17.55l2.02,2.07h3.54v.81h-17.7v-.81h3.54l2.02-2.07v-17.55ZM550.68,422.09l-1.97-4.85h-11.18l-1.42,2.48,1.87,3.89h1.87v.81h-9.96v-.81c1.67-.46,3.29-1.42,4.35-3.29l11.33-19.82h2.48l8.85,20.73c1.01,2.38,3.94,2.38,4.91,2.38v.81h-15.88v-.81h3.59l1.16-1.52ZM548.15,416.12l-4.04-9.41c-.05-.05-.15-.15-.3-.15s-.25.05-.4.25l-5.26,9.3h10.01Z"/><path class="cls-3" d="M125.62,423.61h2.78l3.14-3.79v-16.08c0-.81,0-1.82-1.57-1.82h-4.35v-.81h13.7l6.62,14.51h.35l5.97-14.51h13.05v.81h-3.14l-2.33,2.07v17.55l2.02,2.07h3.44v.81h-17.75v-.81h3.79l2.17-2.07v-17.29c0-.91-.1-1.31-.51-1.31s-.76.51-1.01,1.11l-8.14,20.38h-.51l-9.66-20.93c-.1-.25-.3-.41-.61-.41-.25,0-.51.2-.51.66v16.08l3.34,3.79h2.88v.81h-13.2v-.81ZM203.55,412.78c0,7.38-7.74,12.24-16.43,12.24s-16.43-4.85-16.43-12.24,7.74-12.29,16.43-12.29,16.43,4.85,16.43,12.29ZM177.46,412.78c0,5.71.96,11.43,9.66,11.43s9.66-5.71,9.66-11.43-.96-11.48-9.66-11.48-9.66,5.71-9.66,11.48ZM208.01,423.61h2.83l3.69-4.5v-14.77c0-.76,0-2.43-2.12-2.43h-4.4v-.81h12.9l15.73,18.41v-13.1l-3.19-4.5h-3.24v-.81h14.01v.81h-2.53l-4,4.5v18h-5.21l-16.64-19.42h-.25v14.11l3.84,4.5h3.03v.81h-14.46v-.81ZM260.76,401.91h-4.96l-5.01,7.03h-.61v-7.84h27.71v7.84h-.61l-5.01-7.03h-4.96v19.32l2.28,2.38h3.64v.81h-18.41v-.81h3.64l2.28-2.38v-19.32ZM289.59,403.99l-2.33-2.07h-3.39v-.81h28.22l.35,8.8h-.81l-5.87-7.99h-7.99l-1.87,1.92v7.53h3.69l4.55-5.26h.61v11.33h-.61l-4.6-5.11h-3.64v9.41l1.67,1.87h7.69l6.68-8.09h.61v8.9h-28.67v-.81h3.69l2.02-2.07v-17.55ZM349.64,400.5v9.71h-.61c-2.02-3.44-5.21-8.9-12.34-8.9-8.8,0-9.15,8.34-9.15,12.39,0,5.56.71,10.52,9.05,10.52,2.22,0,6.37-.76,6.88-2.73v-5.66l-1.77-1.87h-3.69v-.81h17.24v.81h-3.19l-2.28,1.92v5.41c0,.46.15.96.41,1.57l-.3.3c-.25-.25-.71-.4-1.42-.4-2.73,0-7.13,2.28-12.79,2.28-9.91,0-14.92-6.12-14.92-11.63,0-8.55,8.04-12.9,15.68-12.9,4,0,7.48,1.82,9.56,1.82,1.77,0,2.58-1.11,3.08-1.82h.56ZM394.88,412.78c0,7.38-7.74,12.24-16.43,12.24s-16.43-4.85-16.43-12.24,7.74-12.29,16.43-12.29,16.43,4.85,16.43,12.29ZM368.78,412.78c0,5.71.96,11.43,9.66,11.43s9.66-5.71,9.66-11.43-.96-11.48-9.66-11.48-9.66,5.71-9.66,11.48ZM430.32,415.16l-6.73-11.28-2.12-1.97h-3.54v-.81h15.68v.81h-1.37l-1.42,1.77,4.96,8.9c.05.15.15.25.25.25.15,0,.3-.1.41-.25l4.65-7.13-3.19-3.54h-1.72v-.81h13.45v.81h-2.63l-5.21,4.35-4.9,7.28v7.99l2.02,2.07h3.94v.81h-18.36v-.81h3.79l2.02-2.07v-6.37ZM497.87,400.6h.61v10.32h-.61c-.4-1.82-2.68-9.61-10.27-9.61-5.87,0-7.48,4.6-7.48,10.57,0,5.26,0,12.34,7.79,12.34,5.36,0,9.76-3.89,10.11-9.46h.81c0,2.68-1.87,10.26-11.68,10.26-7.18,0-13.8-4.8-13.8-12.39,0-6.98,6.73-12.14,13.35-12.14,4.45,0,6.57,1.57,7.79,2.43l3.39-2.33ZM511.81,403.99l-2.33-2.07h-3.24v-.81h17.7v.81h-3.24l-2.33,2.07v17.55l2.02,2.07h3.54v.81h-17.7v-.81h3.54l2.02-2.07v-17.55ZM550.68,422.09l-1.97-4.85h-11.18l-1.42,2.48,1.87,3.89h1.87v.81h-9.96v-.81c1.67-.46,3.29-1.42,4.35-3.29l11.33-19.82h2.48l8.85,20.73c1.01,2.38,3.94,2.38,4.91,2.38v.81h-15.88v-.81h3.59l1.16-1.52ZM548.15,416.12l-4.04-9.41c-.05-.05-.15-.15-.3-.15s-.25.05-.4.25l-5.26,9.3h10.01Z"/><path class="cls-15" d="M227.76,89.07h.02l.03-2.86v-4.77h.35c.82-.03,1.64-.04,2.45-.04,16.05,0,27.17,5.22,30.19,6.82l81.61,46.94,81.06-46.56c.12-.07,12.92-7.54,28.98-7.54,1.48,0,2.95.06,4.37.19l.33.03v7.81l.05.34,1,183.39-.67-1c-7.53-11.34-17.75-15.47-23.17-16.92l-.28-.08,8.28-164.34-99.81,71.09-.12-.1-.14.11-99.71-71.1,8.14,164.45-.27.08c-5.36,1.65-15.48,6.11-23.04,17.38l-.67.99,1-184.31Z"/><g class="cls-5"><g class="cls-19"><line class="cls-1" x1="223.51" y1="242.6" x2="463.53" y2="242.6"/><line class="cls-1" x1="223.51" y1="247.68" x2="463.53" y2="247.68"/><line class="cls-1" x1="223.51" y1="252.76" x2="463.53" y2="252.76"/><g class="cls-19"><line class="cls-1" x1="223.51" y1="90.15" x2="463.53" y2="90.15"/><line class="cls-1" x1="223.51" y1="95.22" x2="463.53" y2="95.22"/><line class="cls-1" x1="223.51" y1="79.62" x2="463.53" y2="79.62"/><line class="cls-1" x1="223.51" y1="84.7" x2="463.53" y2="84.7"/><line class="cls-1" x1="223.51" y1="100.31" x2="463.53" y2="100.31"/><line class="cls-1" x1="223.51" y1="105.39" x2="463.53" y2="105.39"/><line class="cls-1" x1="223.51" y1="110.47" x2="463.53" y2="110.47"/><line class="cls-1" x1="223.51" y1="115.56" x2="463.53" y2="115.56"/><line class="cls-1" x1="223.51" y1="120.64" x2="463.53" y2="120.64"/><line class="cls-1" x1="223.51" y1="125.72" x2="463.53" y2="125.72"/><line class="cls-1" x1="223.51" y1="130.8" x2="463.53" y2="130.8"/><line class="cls-1" x1="223.51" y1="135.89" x2="463.53" y2="135.89"/><line class="cls-1" x1="223.51" y1="140.97" x2="463.53" y2="140.97"/><line class="cls-1" x1="223.51" y1="146.05" x2="463.53" y2="146.05"/><line class="cls-1" x1="223.51" y1="151.13" x2="463.53" y2="151.13"/><line class="cls-1" x1="223.51" y1="156.21" x2="463.53" y2="156.21"/><line class="cls-1" x1="223.51" y1="161.3" x2="463.53" y2="161.3"/><line class="cls-1" x1="223.51" y1="166.37" x2="463.53" y2="166.37"/><line class="cls-1" x1="223.51" y1="171.46" x2="463.53" y2="171.46"/><line class="cls-1" x1="223.51" y1="176.54" x2="463.53" y2="176.54"/><line class="cls-1" x1="223.51" y1="181.62" x2="463.53" y2="181.62"/><line class="cls-1" x1="223.51" y1="186.71" x2="463.53" y2="186.71"/><line class="cls-1" x1="223.51" y1="191.79" x2="463.53" y2="191.79"/><line class="cls-1" x1="223.51" y1="196.87" x2="463.53" y2="196.87"/><line class="cls-1" x1="223.51" y1="207.03" x2="463.53" y2="207.03"/><line class="cls-1" x1="223.51" y1="212.12" x2="463.53" y2="212.12"/><line class="cls-1" x1="223.51" y1="217.19" x2="463.53" y2="217.19"/><line class="cls-1" x1="223.51" y1="222.27" x2="463.53" y2="222.27"/><line class="cls-1" x1="223.51" y1="227.36" x2="463.53" y2="227.36"/><line class="cls-1" x1="223.51" y1="232.44" x2="463.53" y2="232.44"/><line class="cls-1" x1="223.51" y1="237.52" x2="463.53" y2="237.52"/><line class="cls-1" x1="223.51" y1="257.85" x2="463.53" y2="257.85"/><line class="cls-1" x1="223.51" y1="262.93" x2="463.53" y2="262.93"/><line class="cls-1" x1="223.51" y1="268.01" x2="463.53" y2="268.01"/><line class="cls-1" x1="223.51" y1="273.1" x2="463.53" y2="273.1"/><line class="cls-1" x1="223.51" y1="278.18" x2="463.53" y2="278.18"/><line class="cls-1" x1="223.51" y1="201.95" x2="463.53" y2="201.95"/></g></g></g><path class="cls-16" d="M341.6,292.43c-33.28,0-60.27-26.99-60.27-60.27s26.98-60.25,60.27-60.25,60.27,26.98,60.27,60.25-26.98,60.27-60.27,60.27Z"/><path class="cls-17" d="M341.6,272.5c-22.28,0-40.34-18.06-40.34-40.34s18.06-40.33,40.34-40.33,40.34,18.06,40.34,40.33-18.06,40.34-40.34,40.34Z"/><path class="cls-4" d="M341.6,262.07c-16.52,0-29.91-13.39-29.91-29.91s13.39-29.9,29.91-29.9,29.91,13.39,29.91,29.9-13.39,29.91-29.91,29.91Z"/><path class="cls-18" d="M341.6,191.01c-22.69,0-41.15,18.46-41.15,41.15s18.46,41.16,41.15,41.16,41.15-18.46,41.15-41.16-18.46-41.15-41.15-41.15ZM341.6,271.57c-21.76,0-39.41-17.65-39.41-39.41s17.64-39.4,39.41-39.4,39.41,17.64,39.41,39.4-17.64,39.41-39.41,39.41Z"/><path class="cls-18" d="M341.6,171.15c-33.7,0-61.02,27.32-61.02,61.02s27.32,61.02,61.02,61.02,61.02-27.32,61.02-61.02-27.32-61.02-61.02-61.02ZM341.6,291.43c-32.68,0-59.27-26.58-59.27-59.27s26.59-59.26,59.27-59.26,59.27,26.59,59.27,59.26-26.59,59.27-59.27,59.27Z"/><path class="cls-18" d="M341.21,225.71c0,5.84-3.5,10.41-9.64,10.41h-2.21v10.81h-5.12v-28.86c0-.99-.3-1.85-1.12-2.08v-.49h7.7c3.9,0,10.39.58,10.39,10.21ZM336.08,225.75c0-3.02-1.08-5.92-4.44-5.92h-2.37v11.85h2.47c2.48,0,4.34-2.04,4.34-5.93Z"/><path class="cls-18" d="M338.83,245c0,1.2-.98,2.18-2.18,2.18s-2.18-.98-2.18-2.18.97-2.19,2.18-2.19,2.18.98,2.18,2.19Z"/><path class="cls-18" d="M362.85,225.71c0,5.84-3.49,10.41-9.63,10.41h-2.2v10.81h-5.13v-28.86c0-.99-.3-1.85-1.12-2.08v-.49h7.7c3.9,0,10.38.58,10.38,10.21ZM357.73,225.75c0-3.02-1.09-5.92-4.44-5.92h-2.38v11.85h2.47c2.47,0,4.35-2.04,4.35-5.93Z"/><path class="cls-18" d="M360.47,245c0,1.2-.98,2.18-2.18,2.18s-2.18-.98-2.18-2.18.98-2.19,2.18-2.19,2.18.98,2.18,2.19Z"/><polygon class="cls-18" points="296.8 243.36 296.89 243.7 296.56 244.8 294.08 245.48 293.85 244.67 294.58 243.2 295.01 243.08 294.91 242.71 291.53 243.63 291.64 244 292.03 243.89 293.44 244.79 293.66 245.59 290.9 246.34 290.3 244.22 291.82 241.65 292.06 241.58 291.96 241.22 289.22 242.05 291.49 250.17 291.87 250.07 291.78 249.73 292.12 248.59 297.23 247.2 298.08 247.97 298.18 248.33 298.57 248.22 297.18 243.25 296.8 243.36"/><path class="cls-18" d="M295.7,239.2l.02.26.4-.02-.2-2.97-.4.02.02.28-1.63.78-.09-.05-.21-3.14,1.16-.83.6.59.02.31.4-.02-.31-4.78-.4.02.02.28-.56.76-6.16,4.38.02.33,5.45,2.61,1.85,1.19ZM293.17,234.67l.17,2.61-2.29-1.09,2.12-1.52Z"/><path class="cls-18" d="M288.76,226.99l.77-.86,5.26.86.43,1.03-.06.33.39.06.99-5.89c.07-.43.09-.88.06-1.36-.04-.47-.12-.88-.24-1.19-.26-.68-.68-1.08-1.27-1.17-.32-.06-.61,0-.86.16-.19.11-.38.27-.56.49-.17.2-.31.41-.42.63l-.28.69-.02-.56c0-.18-.06-.4-.16-.67-.09-.26-.21-.48-.34-.64-.17-.24-.41-.38-.7-.43-.29-.04-.57.01-.85.17-.27.16-.52.39-.75.71-.22.31-.42.68-.59,1.11-.17.44-.3.92-.37,1.42l-.9,5.36.39.07.05-.33ZM296.04,222.83l-.3,1.79-3.08-.5.26-1.55c.08-.47.25-.79.52-.95.26-.17.69-.22,1.26-.15.27.03.52.1.73.2.2.09.36.21.47.35.15.19.2.47.14.81ZM289.83,221.52c.08-.18.19-.3.34-.41.11-.09.26-.14.46-.17.21-.03.43-.02.67.01.49.08.84.23,1.04.45.2.22.26.51.19.91l-.29,1.73-2.83-.46.23-1.35c.05-.28.12-.53.21-.71Z"/><path class="cls-18" d="M301.32,207.91l-1.02.7-2.52.28-.3.66c-.07.18-.17.36-.29.57-.05.09-.12.19-.19.3.11-.33.21-.63.28-.91.13-.5.19-.94.17-1.32,0-.39-.09-.72-.23-.98-.15-.27-.38-.47-.66-.59-.26-.12-.56-.15-.87-.09-.3.05-.6.19-.88.39-.27.2-.57.51-.86.92-.29.4-.55.84-.75,1.32l-2.41,5.47.36.16.13-.29.96-.66,4.86,2.08.18,1.15-.14.31.37.16,2.08-4.71-.37-.16-.12.29-.97.67-2.1-.89.53-1.21,3.79-.43,1.48-3.36-.37-.15-.15.34ZM295.62,212.53l-2.88-1.23.59-1.35c.5-1.15,1.21-1.5,2.19-1.08.33.14.58.31.74.52.16.2.24.45.24.72s-.09.61-.25.99l-.63,1.43Z"/><polygon class="cls-18" points="305.44 202.26 304.38 202.7 300.03 199.66 300.1 198.51 300.29 198.25 299.97 198.03 296.97 202.19 297.3 202.42 297.49 202.14 298.58 201.7 302.91 204.72 302.85 205.87 302.65 206.14 302.98 206.37 305.96 202.21 305.63 201.99 305.44 202.26"/><path class="cls-18" d="M312.04,192.38l-.05-.13-.42.19.05.12c.11.29.2.53.25.72.04.19.06.41.06.66,0,.31-.03.64-.12.96-.08.32-.21.64-.38.91-.17.28-.38.54-.6.75-.23.21-.46.38-.71.49-.24.11-.5.18-.76.2-.26.02-.54-.01-.82-.09-.18-.05-.38-.14-.6-.26-.21-.12-.44-.26-.68-.45-.23-.18-.44-.36-.62-.54-.82-.85-1.23-1.66-1.24-2.42,0-.23.05-.46.15-.67.1-.23.24-.41.41-.58.35-.33.82-.6,1.4-.79.58-.19,1.17-.28,1.74-.25.34.02.75.06,1.19.14h.07s.23-.21.23-.21l-2.1-1.97-.21.19-.04.19s0,.04-.02.09c-.06.33-.12.59-.18.77-.07.21-.15.3-.19.35-.05.05-.17.12-.49.2-.41.11-.77.25-1.06.41-.29.16-.59.38-.88.65-.88.83-1.41,1.83-1.56,2.94-.17,1.25.09,2.26.8,2.98.55.57,1.26.88,2.09.9.05,0,.1,0,.15,0,.66,0,1.34-.14,2.01-.42.73-.3,1.38-.71,1.94-1.24,1.03-.97,1.54-2.08,1.51-3.29,0-.27-.04-.52-.08-.74-.06-.21-.15-.47-.28-.78Z"/><path class="cls-18" d="M323.02,188.4l-.95-.15-6.65-3.45-.07-.04-.29.17.07,5.97-.26,2.16-.23.13.2.34,2.61-1.5-.2-.34-.24.14-1.43-1.09v-.1l2.76-1.59,1.27.65-.27.79-.28.15.2.34,4.21-2.4-.2-.34-.24.14ZM315.57,190.13l-.04-2.5,2.33,1.19-2.29,1.32Z"/><path class="cls-18" d="M338.42,179.87c-.3-.4-.68-.74-1.14-1-.46-.26-.98-.43-1.55-.53-.56-.09-1.17-.08-1.79.03l-5.58.91-.14.02.06.39.36-.06,1.1.45.86,5.17-.88.76-.34.06.07.39,5.46-.89c.66-.11,1.27-.29,1.82-.55.54-.25,1-.58,1.37-.96s.63-.81.79-1.29c.16-.48.2-.98.11-1.48-.09-.52-.29-1-.58-1.4ZM333.19,185.36l-1.05-6.26,1.4-.23c.4-.07.72-.08.97-.04.23.04.45.14.65.3.29.22.53.54.71.95.19.41.34.98.46,1.69.12.71.14,1.31.06,1.78-.08.45-.24.81-.51,1.06-.27.25-.66.42-1.15.5l-1.54.25Z"/><polygon class="cls-18" points="350.61 181.11 350.84 178.3 342.34 177.59 342.21 177.59 342.17 177.98 342.52 178 343.48 178.7 343.04 183.92 342.01 184.44 341.66 184.41 341.62 184.8 350.07 185.5 350.2 185.51 350.61 182.42 350.26 182.4 350.2 182.7 347.86 184.88 345.5 184.68 345.76 181.59 346.72 181.67 347.87 182.78 347.81 183.39 348.2 183.42 348.53 179.58 348.14 179.55 348.1 180.02 346.73 181.22 345.8 181.15 346.04 178.35 348.39 178.55 350.25 180.82 350.23 181.08 350.61 181.11"/><polygon class="cls-18" points="366.17 187.11 366.52 187.27 367.94 184.19 359.98 180.63 358.57 183.7 358.93 183.86 359.07 183.55 362.13 182.08 362.63 182.3 360.21 187.57 359.02 187.72 358.67 187.57 358.5 187.93 363.35 190.09 363.51 189.74 363.13 189.56 362.5 188.62 364.93 183.33 365.43 183.55 366.3 186.81 366.17 187.11"/><path class="cls-18" d="M368.52,190.58l-2.12.6-.21-.16-.24.31,2.4,1.8.24-.31-.22-.17.47-1.73.1-.03,2.53,1.9-.12,1.4-.85.06-.25-.19-.24.31,3.87,2.9.24-.31-.23-.17-.22-.92.69-7.38v-.08s-.26-.2-.26-.2l-5.57,2.34ZM371.75,189.7l-.22,2.58-2.11-1.59,2.33-.99Z"/><path class="cls-18" d="M382.79,203.43c.04-.23.04-.46,0-.73-.04-.26-.11-.51-.21-.73l-.35-.67.44.36c.15.12.35.23.62.33.27.1.5.15.72.17.29.03.55-.05.78-.23.23-.18.37-.43.43-.74.05-.3.04-.65-.05-1.03-.09-.36-.24-.76-.46-1.17-.22-.42-.5-.82-.82-1.21l-3.48-4.21-.31.25.22.26.13,1.14-4.12,3.32-1.08-.36-.21-.26-.31.25,3.83,4.64c.27.33.6.64.98.93.38.29.74.49,1.07.61.28.11.55.16.79.16.35,0,.67-.11.93-.32.25-.21.4-.46.44-.74ZM383.68,199.45c-.12.17-.27.34-.45.49-.39.31-.73.47-1.04.48-.29,0-.56-.16-.81-.47l-1.13-1.36,2.23-1.79.87,1.06c.19.23.33.44.41.63.08.18.11.35.09.52,0,.14-.07.29-.18.45ZM379.91,198.86l1.01,1.21c.3.37.43.71.38,1.02-.05.31-.29.66-.72,1.03-.21.18-.41.32-.63.41-.21.09-.38.14-.58.11-.25-.02-.5-.16-.72-.44l-1.16-1.4,2.41-1.94Z"/><path class="cls-18" d="M390.34,207.72l-.15-.3-6.04-.38-2.17-.41-.11-.23-.36.16,1.32,2.68.35-.17-.12-.25,1.21-1.33h.1s1.4,2.83,1.4,2.83l-.75,1.2-.79-.32-.13-.28-.36.16,2.12,4.31.36-.17-.12-.25.22-.92,4.03-6.35ZM387.44,207.68l-1.37,2.2-1.16-2.35,2.53.15Z"/><path class="cls-18" d="M388.03,217.48c-.39.59-.64,1.28-.76,2.05-.12.76-.09,1.53.08,2.27.31,1.37,1.01,2.37,2.08,2.98.24.13.47.24.68.31.22.06.5.12.83.17l.14.02.06-.44-.13-.02c-.31-.05-.57-.1-.76-.16-.19-.07-.39-.16-.6-.29-.27-.16-.53-.35-.77-.6-.24-.23-.45-.51-.6-.79-.16-.29-.27-.59-.34-.9-.07-.29-.09-.57-.06-.84.03-.27.1-.52.22-.75.12-.23.28-.44.5-.64.13-.13.31-.25.53-.38.22-.12.47-.24.74-.35.27-.1.54-.19.79-.24,1.16-.25,2.09-.18,2.74.2.2.12.37.28.5.47.14.2.24.42.29.65.1.46.09,1-.04,1.59-.13.6-.35,1.14-.67,1.6-.19.29-.45.6-.74.94l-.04.06.07.31,2.79-.76-.05-.27-.14-.12s-.04-.03-.08-.07c-.26-.23-.45-.41-.58-.55-.11-.14-.19-.25-.21-.35-.02-.06-.01-.21.08-.51.12-.4.18-.77.19-1.11,0-.33-.03-.69-.12-1.08-.27-1.17-.85-2.13-1.75-2.83-1-.79-2.01-1.09-3-.87-.78.18-1.41.61-1.86,1.3Z"/><path class="cls-18" d="M395.66,230.83c-.19-.59-.46-1.12-.8-1.57-.35-.46-.76-.83-1.21-1.1-.45-.28-.94-.41-1.45-.42h-.05c-.65,0-1.26.21-1.83.64-.58.43-1.06,1.03-1.41,1.78-.35.74-.54,1.55-.56,2.41-.01.88.13,1.7.45,2.47.32.76.77,1.38,1.33,1.84.57.46,1.22.7,1.91.72h.06c.38,0,.76-.08,1.13-.23.39-.16.75-.4,1.08-.71.5-.47.9-1.05,1.18-1.74.28-.69.42-1.45.44-2.26.02-.62-.07-1.24-.26-1.82ZM394.16,234.65c-.45.13-1.08.2-1.85.17-.42,0-.82-.03-1.18-.06-.37-.03-.65-.07-.85-.12-.27-.07-.51-.16-.68-.27-.27-.16-.47-.39-.59-.67-.13-.28-.19-.63-.19-1.06.02-.67.17-1.16.47-1.47.24-.27.59-.46,1.05-.55.2-.04.44-.06.72-.07.22-.02.42-.02.6-.02.07,0,.13,0,.19,0,.42,0,.83.03,1.21.06.38.04.68.09.9.13.25.06.49.15.7.27.27.16.46.38.58.67.13.28.18.67.17,1.15-.01.52-.12.93-.31,1.22-.19.29-.51.5-.95.62Z"/><path class="cls-18" d="M393.9,241.48c-.3-.36-.67-.59-1.11-.7-.3-.08-.6-.08-.89,0-.3.07-.59.21-.85.42-.19.14-.36.32-.52.53-.17.21-.33.48-.48.79-.16.31-.32.72-.53,1.24l-.07.18c-.04.08-.06.14-.08.2-.15.41-.28.75-.42,1.05-.13.28-.24.49-.31.6-.14.19-.29.34-.44.42-.18.11-.36.14-.58.08-.29-.07-.48-.26-.6-.57-.11-.33-.11-.74.02-1.2.09-.35.23-.7.42-1.04.19-.34.43-.68.7-1,.28-.32.6-.62.95-.9.32-.26.76-.53,1.31-.8l.06-.03.09-.33-2.77-.72-.08.31.19.47c.14.35.24.61.28.76.05.17.05.26.03.31-.02.06-.09.22-.4.58-.23.26-.42.52-.58.76-.16.23-.29.47-.4.7-.11.24-.2.5-.27.77-.13.49-.18.95-.14,1.36.04.42.15.8.36,1.12.16.26.36.5.63.68.26.19.55.32.85.4.7.18,1.35.03,1.95-.43.3-.23.56-.52.79-.87.22-.34.46-.87.73-1.52l.15-.36s.02-.05.03-.09l.05-.12s.03-.08.04-.12c.13-.34.26-.64.39-.91.12-.27.22-.45.29-.55.12-.18.25-.31.38-.38.16-.1.31-.13.45-.09.15.04.26.13.36.28.1.15.16.36.17.6.01.25-.01.53-.09.82-.08.31-.21.64-.38.95-.17.31-.39.61-.64.9-.25.28-.53.56-.86.81-.14.12-.3.23-.47.34-.17.1-.38.23-.67.38l-.05.03-.07.28,2.47.63.08-.29-.11-.25c-.33-.71-.35-1.03-.32-1.16,0-.05.07-.17.31-.45.58-.66.97-1.36,1.15-2.06.14-.52.16-1.04.06-1.55-.09-.5-.29-.94-.59-1.29Z"/><polygon class="cls-18" points="312.13 267.29 315.44 266.36 313.9 269.42 316.36 271.81 312.94 272.02 312.1 275.34 310.21 272.48 306.91 273.41 308.45 270.34 305.99 267.96 309.41 267.75 310.25 264.43 312.13 267.29"/><polygon class="cls-18" points="343.65 280.01 346.91 279.09 345.4 282.12 347.82 284.47 344.45 284.68 343.62 287.95 341.75 285.13 338.49 286.05 340.01 283.02 337.58 280.67 340.96 280.46 341.79 277.18 343.65 280.01"/><polygon class="cls-18" points="373.27 266.61 369.98 265.67 371.51 268.74 369.05 271.13 372.47 271.33 373.31 274.66 375.2 271.8 378.5 272.73 376.97 269.66 379.42 267.28 376 267.07 375.16 263.75 373.27 266.61"/><path class="cls-18" d="M303.67,81.9h2.62c0-3.41,2.77-6.17,6.18-6.17s6.17,2.76,6.18,6.17h7.65c0-3.41,2.77-6.17,6.18-6.17s6.17,2.76,6.18,6.17h7.65c0-3.41,2.76-6.17,6.18-6.17s6.17,2.76,6.18,6.17h7.65c0-3.41,2.77-6.17,6.18-6.17s6.18,2.76,6.18,6.17h2.16l11.98-14.78h-102.3l13.16,14.78Z"/><path class="cls-18" d="M338.55,19.13c-1.28,35.73-6.06,44.13-6.06,44.13h18.27s-4.87-7.19-6.06-44.13h-6.15ZM341.52,20.59c.41,0,.74.33.74.75s-.33.75-.74.75-.75-.33-.75-.75.33-.75.75-.75ZM341.52,24.75c.41,0,.74.33.74.75s-.33.75-.74.75-.75-.34-.75-.75.33-.75.75-.75ZM341.52,29.61c.53,0,.97.43.97.97s-.44.97-.97.97-.97-.43-.97-.97.44-.97.97-.97ZM341.52,35.3c.89,0,1.61.72,1.61,1.61s-.72,1.6-1.61,1.6-1.61-.72-1.61-1.6.72-1.61,1.61-1.61ZM341.52,41.93c.89,0,1.61.72,1.61,1.61s-.72,1.6-1.61,1.6-1.61-.72-1.61-1.6.72-1.61,1.61-1.61ZM341.52,60.67c-1.23,0-2.22-1-2.22-2.23s.99-2.22,2.22-2.22,2.23,1,2.23,2.22-1,2.23-2.23,2.23ZM341.52,52.92c-1.23,0-2.22-.99-2.22-2.22s.99-2.22,2.22-2.22,2.23.99,2.23,2.22-1,2.22-2.23,2.22Z"/><path class="cls-18" d="M313.06,63.26h13.79c-14.94-23.58-1.25-38.92,7.09-44.34l-3.03-1.6c-19.71,5.79-37.46,23.57-17.85,45.94ZM328.9,19.08c.41,0,.75.33.75.75s-.34.75-.75.75-.75-.34-.75-.75.33-.75.75-.75ZM310.2,41.2c0-1.04.84-1.88,1.88-1.88s1.88.83,1.88,1.88-.84,1.88-1.88,1.88-1.88-.84-1.88-1.88ZM313.01,51.97c-1.23,0-2.23-1-2.23-2.23s1-2.22,2.23-2.22,2.23,1,2.23,2.22-1,2.23-2.23,2.23ZM324.06,22.05c.54,0,.97.43.97.97s-.43.97-.97.97-.97-.43-.97-.97.44-.97.97-.97ZM319.54,25.5c.69,0,1.24.56,1.24,1.24s-.55,1.25-1.24,1.25-1.24-.55-1.24-1.25.56-1.24,1.24-1.24ZM319.05,58.04c0,1.3-1.04,2.33-2.33,2.33s-2.34-1.04-2.34-2.33,1.04-2.33,2.34-2.33,2.33,1.04,2.33,2.33ZM314.62,31.13c.88,0,1.6.72,1.6,1.61s-.72,1.61-1.6,1.61-1.61-.73-1.61-1.61.72-1.61,1.61-1.61Z"/><path class="cls-18" d="M316.06,21.72l5.96-3.71c-22.47-5.07-62.93,8.58-32.69,45.25h15.32c-26.39-28.23-.68-42.72,11.41-41.54ZM313.7,18.45c.38,0,.69.31.69.69s-.31.7-.69.7-.69-.32-.69-.7.31-.69.69-.69ZM308.23,18.79c.41,0,.75.34.75.75s-.34.75-.75.75-.75-.33-.75-.75.34-.75.75-.75ZM302.61,19.83c.53,0,.97.44.97.97s-.44.97-.97.97-.98-.44-.98-.97.44-.97.98-.97ZM297.05,21.77c.69,0,1.24.56,1.24,1.25s-.55,1.24-1.24,1.24-1.25-.56-1.25-1.24.57-1.25,1.25-1.25ZM286.48,30.59c1.03,0,1.88.84,1.88,1.88s-.85,1.88-1.88,1.88-1.89-.84-1.89-1.88.84-1.88,1.89-1.88ZM282.71,41.65c0-1.03.84-1.88,1.88-1.88s1.89.85,1.89,1.88-.85,1.89-1.89,1.89-1.88-.84-1.88-1.89ZM287.58,52.92c-1.23,0-2.23-.99-2.23-2.22s.99-2.22,2.23-2.22,2.22.99,2.22,2.22-.99,2.22-2.22,2.22ZM291.41,24.71c.89,0,1.6.72,1.6,1.6s-.72,1.61-1.6,1.61-1.61-.72-1.61-1.61.72-1.6,1.61-1.6ZM292.38,60.78c-1.29,0-2.33-1.04-2.33-2.33s1.04-2.33,2.33-2.33,2.33,1.05,2.33,2.33-1.04,2.33-2.33,2.33Z"/><path class="cls-18" d="M347.77,16.18s1.01-7.04-6.41-7.04-6.41,7.04-6.41,7.04h12.82Z"/><polygon class="cls-18" points="345.24 3.88 341.36 0 337.49 3.88 341.36 7.76 345.24 3.88"/><path class="cls-18" d="M356.83,63.26h13.79c18.74-22.89,1.87-40.15-17.85-45.94l-3.03,1.6c8.34,5.41,22.19,19.37,7.09,44.34ZM370.68,51.97c-1.23,0-2.23-1-2.23-2.23s.99-2.22,2.23-2.22,2.22,1,2.22,2.22-1,2.23-2.22,2.23ZM373.48,41.2c0,1.04-.85,1.88-1.88,1.88s-1.88-.84-1.88-1.88.84-1.88,1.88-1.88,1.88.83,1.88,1.88ZM369.07,31.13c.9,0,1.62.72,1.62,1.61s-.72,1.61-1.62,1.61-1.6-.73-1.6-1.61.72-1.61,1.6-1.61ZM369.3,58.04c0,1.3-1.04,2.33-2.33,2.33s-2.33-1.04-2.33-2.33,1.04-2.33,2.33-2.33,2.33,1.04,2.33,2.33ZM364.15,25.5c.68,0,1.25.56,1.25,1.24s-.56,1.25-1.25,1.25-1.25-.55-1.25-1.25.56-1.24,1.25-1.24ZM359.62,22.05c.54,0,.98.43.98.97s-.44.97-.98.97-.97-.43-.97-.97.43-.97.97-.97ZM354.79,20.59c-.41,0-.74-.34-.74-.75s.33-.75.74-.75.75.33.75.75-.34.75-.75.75Z"/><path class="cls-18" d="M361.67,18.01l5.96,3.71c12.93-1.18,37.95,13.3,11.41,41.54h15.32c30.24-36.67-10.23-50.32-32.68-45.25ZM369.99,19.83c-.38,0-.69-.32-.69-.7s.31-.69.69-.69.69.31.69.69-.31.7-.69.7ZM397.21,30.59c1.04,0,1.88.84,1.88,1.88s-.84,1.88-1.88,1.88-1.88-.84-1.88-1.88.84-1.88,1.88-1.88ZM375.46,20.29c-.41,0-.75-.33-.75-.75s.33-.75.75-.75.75.34.75.75-.33.75-.75.75ZM381.08,21.77c-.54,0-.98-.44-.98-.97s.43-.97.98-.97.97.44.97.97-.43.97-.97.97ZM386.63,24.26c-.68,0-1.24-.56-1.24-1.24s.56-1.25,1.24-1.25,1.25.56,1.25,1.25-.56,1.24-1.25,1.24ZM392.27,27.92c-.89,0-1.61-.72-1.61-1.61s.72-1.6,1.61-1.6,1.61.72,1.61,1.6-.72,1.61-1.61,1.61ZM391.3,60.78c-1.29,0-2.33-1.04-2.33-2.33s1.04-2.33,2.33-2.33,2.34,1.05,2.34,2.33-1.05,2.33-2.34,2.33ZM396.11,52.92c-1.23,0-2.23-.99-2.23-2.22s1-2.22,2.23-2.22,2.22.99,2.22,2.22-1,2.22-2.22,2.22ZM399.09,43.54c-1.04,0-1.88-.84-1.88-1.89s.84-1.88,1.88-1.88,1.88.85,1.88,1.88-.84,1.89-1.88,1.89Z"/><polygon class="cls-18" points="290.08 87.17 317.72 87.17 342.49 109.1 369.05 87.17 395.94 87.17 342.49 123.1 290.08 87.17"/><path class="cls-18" d="M269.51,214.01c2.64-10.5,7.51-20.1,14.07-28.29.03-.04.05-.07.08-.12l-24.2-64.04,36.89,51.65c5.45-4.19,11.5-7.64,18.01-10.2l-61.38-53.02.19.37,16.03,104.71c.1-.35.21-.71.31-1.06Z"/><path class="cls-18" d="M415.87,214.01c-2.63-10.5-7.51-20.1-14.07-28.29-.03-.04-.05-.07-.07-.12l24.2-64.04-36.9,51.65c-5.45-4.19-11.5-7.64-18-10.2l61.37-53.02-.19.37-16.03,104.71c-.1-.35-.21-.71-.31-1.06Z"/><path class="cls-18" d="M341.6,191.01c-22.69,0-41.15,18.46-41.15,41.15s18.46,41.16,41.15,41.16,41.15-18.46,41.15-41.16-18.46-41.15-41.15-41.15ZM341.6,271.57c-21.76,0-39.41-17.65-39.41-39.41s17.64-39.4,39.41-39.4,39.41,17.64,39.41,39.4-17.64,39.41-39.41,39.41Z"/><path class="cls-18" d="M341.6,171.15c-33.7,0-61.02,27.32-61.02,61.02s27.32,61.02,61.02,61.02,61.02-27.32,61.02-61.02-27.32-61.02-61.02-61.02ZM341.6,291.43c-32.68,0-59.27-26.58-59.27-59.27s26.59-59.26,59.27-59.26,59.27,26.59,59.27,59.26-26.59,59.27-59.27,59.27Z"/><path class="cls-18" d="M461.12,285.42l-1.09-199.21h-.03v-7.48c-20.51-2.98-37.96,7.38-37.96,7.38l-79.64,45.74-79.52-45.74h0,.02s-14.99-9.07-37.96-7.39v7.48h-.03l-1.13,199.31.07,1.7c7.73-26.43,29.85-30.11,29.85-30.11l-7.94-160.86,96.6,68.89v.09l.05-.04.05.04v-.09l96.73-68.89-8.1,160.86s22.88,2.96,30.24,30.33l-.21-2.02ZM434.45,254.54l8.31-164.8-100.19,71.36-.14-.11-.15.12-100.09-71.37,8.17,164.91c-4.96,1.53-15.48,5.97-23.23,17.52l.99-182.75h.02l.03-3.22v-4.43c.82-.02,1.63-.03,2.44-.03,16.13,0,27.33,5.36,30.02,6.78l81.78,47.04,81.24-46.66c.16-.09,12.88-7.49,28.8-7.49,1.46,0,2.91.06,4.34.19v7.82h.05l.99,182.18c-7.7-11.6-18.28-15.7-23.38-17.06Z"/><path class="cls-18" d="M521.82,168.5c17.79-7.41,28.12-26.88,23.49-46.2-4.61-19.2-22.2-32.05-41.85-30.55-2.12.16-4.24.5-6.32.99-10.38,2.49-19.18,8.87-24.75,17.97-5.58,9.1-7.29,19.83-4.8,30.21,2.85,11.92,10.72,21.38,20.97,26.49-12.74,6.23-21.08,19.77-19.94,34.76.76,9.93,5.54,18.6,12.61,24.55-10.54,4.05-17.65,14.66-16.75,26.48,1.1,14.43,13.73,25.27,28.16,24.17,14.43-1.1,25.27-13.73,24.17-28.16-.43-5.63-2.62-10.7-5.98-14.75,17.59-3.33,30.27-19.47,28.88-37.73-.93-12.24-7.97-22.58-17.9-28.25ZM478.18,138.39c-3.74-15.61,5.89-31.31,21.49-35.04,15.61-3.75,31.31,5.88,35.05,21.49,3.74,15.61-5.88,31.3-21.5,35.04-15.61,3.75-31.3-5.88-35.04-21.49ZM491.99,268.83c-9.72.75-18.2-6.54-18.95-16.27-.74-9.73,6.55-18.21,16.27-18.95,9.73-.74,18.22,6.55,18.96,16.26.74,9.73-6.55,18.22-16.27,18.96ZM506.11,224.93c-14.06,1.07-26.34-9.46-27.41-23.52-1.07-14.06,9.46-26.34,23.52-27.41,14.06-1.07,26.34,9.47,27.41,23.53,1.07,14.07-9.46,26.34-23.52,27.41Z"/><path class="cls-18" d="M499.28,200.64l.08-.16c.53-2.2,1.01-4.49,1.42-6.81.06-.14.08-.29.1-.42,0-.02,0-.04.01-.06h0c.52.8.9,1.63,1.32,2.5.28.59.56,1.17.88,1.76l.1.16c.09.15.28.47.76.47h.3s.13-.27.13-.27c.52-1.02.8-2.1,1.08-3.14.19-.73.38-1.42.63-2.09.18.3.3.63.43.98l.06.16c.89,2.27,1.57,3.89,2.63,5.9l.12.14c.33.28.85.3,1.33.2.07-.02.14-.03.2-.03l.16-.05c.1-.05.39-.19.5-.51.1-.31-.04-.55-.13-.71-.04-.06-.07-.13-.11-.25-.83-2.08-1.76-4.16-2.65-6.18-.75-1.69-1.5-3.39-2.21-5.11l-.09-.15c-.1-.1-.32-.35-.66-.33-.23.01-.41.15-.54.42-.35.99-.65,2-.93,2.99-.24.82-.49,1.67-.78,2.51-.35-.6-.63-1.23-.92-1.84-.27-.6-.55-1.19-.88-1.76-.13-.23-.22-.44-.31-.64-.16-.35-.3-.68-.59-1.02l-.11-.13-.38-.05c-.22.01-.44.13-.59.31l-.09.19c-.72,2.71-1.43,5.62-1.91,8.5-.1.54-.21,1.01-.31,1.45-.15.65-.29,1.27-.35,1.99-.12.33-.26.99.17,1.47l.14.16h.39c.15,0,.33,0,.49,0,.19,0,.77-.06,1.12-.57Z"/><path class="cls-18" d="M512.01,209.38l-1.43-3.34c-1.06-2.47-2.13-4.95-3.15-7.42l-.06-.12c-.08-.15-.3-.53-.88-.51l-.25.05-.1.22c-.45.93-.7,1.91-.94,2.87-.21.83-.41,1.62-.7,2.32-.63-1.19-1.21-2.43-1.78-3.62l-.38-.78s-.29-.8-.88-.76c-.14.01-.47.08-.61.6-.14.62-.26,1.23-.38,1.85l-.58,2.8c-.46,2.18-.9,4.36-1.37,6.59,0,.08-.03.17-.06.27-.09.35-.23.95.27,1.4l.16.15.21-.02c.08,0,.18,0,.27,0,.13,0,.26,0,.39,0,.15,0,.61-.05.88-.45l.07-.13c.29-.91.45-1.78.6-2.61.1-.55.2-1.11.35-1.7.16-.69.25-1.19.32-1.6.07-.42.12-.73.23-1.05.32.59.62,1.2.92,1.8.33.66.66,1.32,1.02,1.96l.07.14.08.06c.09.13.31.48.8.44l.29-.02.12-.27c.39-.87.65-1.76.89-2.64.09-.27.17-.54.24-.81.12-.42.23-.83.39-1.2.06.16.13.31.21.56l.2.55c.35.8.58,1.38.8,1.91.23.57.44,1.1.74,1.77.33.8.72,1.62,1.27,2.06l.28.14.23-.05h.2c.32-.01.73,0,1.07-.38l.14-.27-.03-.22c0-.16-.02-.41-.11-.53Z"/><path class="cls-18" d="M523.83,198.33l-.14-.25c-.24-.43-.56-.99-1.01-1.29-.24-2.25-1.06-4.26-1.8-5.69.03,0,.06.01.1.02.25.06.5.12.76.22.12.06.24.08.34.07l.27-.04.13-.17c.17-.21.13-.49.12-.49,0-.25-.08-.48-.14-.64-.18-.65-.4-1.34-.79-2.02-.66-1.1-2.16-1.6-3.33-1.13-1.81-1.74-3.67-3.14-5.56-4.19.41-.08.82-.19,1.25-.3l.27-.15s.13-.1.14-.1l-.06-.99c-.1,0-.36-.18-.5-.28-.13-.1-.25-.18-.36-.24-1.62-.92-3.4-1.05-4.84-.37-.21.09-.49.31-.69.54-1.48-.34-2.58-.36-3.08-.34-1.35-.05-2.85.14-3.84.36.11-.13.22-.27.33-.41l.25-.32c.37-.62.41-1.22.12-1.52l-.18-.18-.4.07c-.36.06-.7.12-1.06.2-1.8.49-3.37,1.1-4.28,3.43l-.03.17c0,.27-.29.45-.9.75-.25.13-.51.26-.71.4-1.37.83-2.17,1.5-3.29,2.62.04-.48.04-.97-.05-1.43l-.04-.23-.2-.11c-.08-.05-.22-.18-.44-.19h-.2s-.16.13-.16.13c-.57.53-1.09,1.09-1.64,1.73-.85,1.17-1.76,2.96-1.26,4.83.02.32-.12.61-.3.95-.14.28-.31.61-.35.89-1.12,2.78-1.51,5.67-1.15,8.66.09.34.13.7.18,1.06.03.25.06.49.11.71.03.21.06.41.12.61l-.02.22.02.09c.27.96.69,2,1.24,3.1-.21-.13-.44-.23-.66-.3l-.19-.07-.18.08c-.57.25-.37.99-.27,1.39l.48-.12-.45.26c.25,1.01.63,1.65,1.17,2.35.39.5.82.85,1.28,1.05.33.14,1.37.38,1.91.13,1.52,1.6,3.14,2.91,4.87,3.92-.65.05-1.21.15-1.79.33-.15.06-.4.14-.47.43-.06.29.13.48.28.62.82.87,2.39,1.53,3.59,1.85.5.14,1.08.2,1.58.16,1.06-.08,1.78-.55,2.06-1.33,1.86.4,3.79.5,5.75.32-.25.26-.51.57-.77.91l-.1.21c-.04.21,0,.51.37.77l.12.08h.14c.39.02.79.02,1.18,0,2.02-.15,3.7-.97,4.65-2.28.25-.44.36-.84.31-1.17.03-.02.07-.04.1-.05.19-.08.37-.18.66-.33,1.56-.81,2.96-1.76,4.19-2.81-.08.46-.12.9-.14,1.3v.13s.05.11.05.11c.12.26.35.4.71.42h.15s.13-.07.13-.07c2.12-1.29,3.46-3.26,3.5-5.19-.01-.17-.05-.43-.14-.68-.11-.31-.27-.5-.43-.61,1.08-1.87,1.81-3.93,2.18-6.13.27.3.59.6.95.88l.18.1h.31c.39-.03.57-.3.6-.49.12-.53.15-1.36.11-1.75-.13-1.21-.33-2.21-.91-3.17ZM499.07,217.1s0,0-.01,0h.01ZM500.89,214.63h0s0,0,0,0h0ZM520.91,201.72c-1,.03-2.1,1.36-2.3,1.61-.74.92-1.03,1.72-1.28,2.79-.1.42-.15,1.25-.12,1.75.02.17.12.56.76.59h.16s.13-.07.13-.07c.18-.11.35-.22.52-.33-.82,1.39-1.75,2.76-2.92,3.71-.3.2-.47.14-.81.01-.54-.2-1.5-.41-2.72.09-1.44.59-2.31,1.47-3.16,2.32l-.23.22-.07.41.16.19c.2.23.77.31,1.32.32-1.29.53-2.8.91-4.53,1.14-.21-.05-.27-.13-.46-.45-.16-.26-.38-.64-.82-1-.72-.63-1.64-.76-2.51-.85-.34-.03-.7-.05-1.04-.05h-.15c-.18.02-1.11.11-1.45.45-.14.1-.43.31-.39.68.02.15.1.35.37.5.08.08.17.16.25.23-1.15-.27-2.2-.81-3.32-1.37l-.53-.27c-.16-.08-.14-.42-.09-.87.04-.34.08-.7,0-1.01-.28-.99-.97-1.87-2.04-2.63-.43-.31-1.07-.57-1.53-.74-.03,0-.55-.16-.85-.13l-.31.04-.27.42.06.22c.08.26.17.53.26.78-.89-1.06-1.57-2.18-2.12-3.16-.05-.18.19-.51.4-.79.25-.33.5-.68.56-1.08.6-1.52-.88-4.57-1.1-4.85l-.13-.12c-.07-.07-.25-.27-.55-.24l-.15.02-.27.2c-.22.32-.37.71-.46,1.08-.19-1.49-.16-3.08.08-4.63.04-.14.13-.22.38-.39.16-.11.35-.24.52-.42,1.29-.07,2.54-1.38,2.64-2.85l.02-.21c.06-.58.12-1.3-.08-2.15l-.11-.46-.47.09c-.26.05-.47.17-.65.31.04-.07.08-.14.12-.21.18-.32.37-.63.51-.91.6-.82,1.32-1.75,2.02-2.41.19-.12.59-.05.95.04l.21.05c.57.12,1.05.15,1.64.07,1.01-.15,2.05-.62,3.02-1.34.28-.21.52-.53.72-.81.08-.1.15-.21.22-.29l.1-.2c.04-.21.03-.49-.28-.69l-.14-.21h-.27c-.36,0-.85.04-1.36.08.18-.09.36-.17.51-.24,1.09-.45,1.38-.56,2.5-.91.43-.13.65-.19.78-.24.97-.26,1.83.32,2.63.9.28.21.55.4.78.53.45.31.62.39.87.5l.08.04c.37.27,1.1.28,1.3.27.74.08,1.13-.15,1.55-.4l.17-.15c.16-.12.39-.3.41-.61l-.03-.29-.17-.15c-.19-.17-.37-.34-.57-.47.05,0,.1.01.15.02,1.24.23,2.22.73,3.26,1.25.29.15.58.29.8.39.11.08.16.59.19.8.01.14.03.27.04.34.06.96.47,2.71,2.57,3.66l.04.04.02-.02s.02.01.03.01l.1-.14-.07.15c.38.15.74.27,1.06.33.19.08.38.11.58.1h.18s.14-.13.14-.13c.53-.48.16-1.08.01-1.34-.03-.05-.06-.1-.09-.15-.02-.03-.03-.06-.05-.09,1.05,1.19,1.85,2.53,2.54,3.78,0,.04-.06.15-.1.23-.05.09-.11.2-.15.32-.47.69-.75,1.64-.81,2.11-.11,1.18.07,2,.43,3.03.15.43.57,1.15.84,1.52l.27.28.28-.02c.19-.01.35-.12.43-.17l.17-.2c.17-.19.25-.42.25-.5.03-.08.07-.17.1-.25,0,.06.01.11.02.16.09,1.22.04,2.41-.15,3.47Z"/><path class="cls-18" d="M504.02,249.08c-.28-.54,0-1.13-.2-1.7-.07-.56-.41-.96-.68-1.4-.28-.79-.56-1.6-1.19-2.22-.26-.84-.94-1.58-1.73-2.07-.3-.67-1-1.05-1.58-1.5-.11,0-.18-.08-.27-.09-.62-.59-1.36-.81-2.04-1.17-.65-.17-1.21-.66-1.87-.77-.99,0-1.81-.54-2.78-.54-.26-.06-.5.09-.73.04-1.04-.21-2.22.06-3.15.42-1.17-.09-2.03.48-2.88,1.03-.74.18-1.3.7-1.95,1.1-1.04.51-1.92,1.42-2.71,2.41-.53.88-1.29,1.68-1.6,2.62-.09.61-.55,1.07-.73,1.65-.18.49-.14,1.05-.38,1.51-.32.88-.1,1.85-.01,2.83-.28.63-.09,1.42.11,2.06,0,.76.04,1.64.39,2.3.48.44.53,1.06.8,1.6.22.57.7,1.01.98,1.54.31,1.09,1.59,1.48,2.08,2.44.49.36.96.76,1.48.97.63.55,1.32.93,2.09,1.06.93.6,1.91,1.07,3.01,1.13.31.23.7.32,1.14.28.6.1,1.16-.04,1.79-.06.8.24,1.57-.17,2.3-.33.57-.03.87-.57,1.54-.44.57-.21,1.12-.41,1.6-.8,1.13-.33,2.11-.97,2.83-2.02.7-.3,1.3-1.05,1.7-1.73.79-.83,1.35-1.79,1.63-2.79.44-.71.74-1.44.82-2.28.39-.88.45-1.95.21-2.97.17-.66.21-1.47-.01-2.15ZM503.25,250.58c-.02.26-.22.51-.56.65l-.12.04-.59-.09c-.59-.09-1.19-.18-1.77-.3-1.02-.14-2.14-.28-3.24-.2-.16.06-.39.16-.63.25-.47.18-.96.37-1.49.48-.2.09-.46.12-.73.11-.08,0-.15,0-.23,0-.15,0-.16.03-.17.07,0-.01.02.12.03.24v.03c.08-.09.16-.14.22-.16l.16-.09.19.04c.36.11.89.07,1.48.01.66-.08,1.25-.11,1.72,0,1.69.08,3.27.78,4.58,1.45l.11.08s.08.07.13.09c.15.11.39.27.49.56.08.4.03.79-.13,1.21-.22.33-.43.4-.58.41-.24.02-.43-.09-.57-.17-.04-.02-.08-.04-.11-.05-1.8-1.08-3.16-1.76-4.51-2.25-.16-.02-.31-.06-.43-.09-.1-.03-.19-.06-.27-.06-.16-.01-.29,0-.42,0l-.59.05c-.47.04-1.01.03-1.44-.37l-.15-.14c-.07.09-.14.18-.2.26l.25.13c.16.09.32.16.49.23.19.09.38.17.57.27.25.16.53.19.85.22.36.04.77.08,1.15.31.95.54,1.7,1.32,2.43,2.09.24.24.47.49.7.72l.09.12c.03.08.12.18.22.28.25.29.66.78.32,1.41-.07.13-.34.67-.81.98-.11.07-.22.1-.32.11-.22.02-.4-.07-.52-.13l-.23-.16c-.24-.32-.44-.64-.65-.97-.24-.39-.46-.75-.74-1.1-.21-.24-.41-.52-.62-.79-.44-.59-.85-1.15-1.45-1.52-.17-.1-.36-.18-.55-.27-.53-.24-1.13-.51-1.5-1.13l-.11-.17s-.04.07-.08.1c-.04.13-.12.27-.3.37.03.07.05.14.07.2.19.24.44.51.69.77.79.83,1.6,1.68,2.07,2.72.59,1.09.91,2.34,1.21,3.54l.07.29c.04.56-.14.91-.47,1.06-.14.1-.35.16-.53.21-.14.05-.27.08-.36.15l-.19.08-.12.02c-.2.02-.39-.03-.59-.15l-.15-.14c-.06-.07-.1-.13-.14-.23l-.02-.06v-.07c-.07-1.15-.19-2.21-.38-3.16l-.12-.35c-.12-.35-.23-.71-.36-1.07-.13-.46-.4-.83-.68-1.23-.37-.52-.8-1.12-.88-1.89l-.02-.04c-.07-.17-.11-.27-.19-.34-.14-.02-.32-.01-.49,0v.05c0,.16,0,.31,0,.45-.02.3-.03.57.03.84.81,1.29.7,2.91.48,4.33-.15,1.14-.33,2.26-.77,3.32l-.11.17c-.11.09-.32.28-.63.3h-.2c-.14-.04-.26-.05-.37-.06-.39-.05-.88-.12-1.21-.52l-.12-.14.02-.18c.03-.37.2-.69.35-.97.1-.19.2-.35.24-.51.57-1.55,1.1-2.97.52-4.54-.18-1.02.15-1.87.44-2.64-.17-.05-.33-.15-.48-.28l-.17.28c-.5.62-1.01,1.24-1.04,1.94-.32,1.92-1.15,4.36-3.28,5.37l-.08.03h-.08c-.8.05-1.45-.52-1.73-1.11l-.1-.21.11-.2c.22-.4.57-.66.88-.89.11-.09.23-.17.33-.26.15-.15.33-.34.52-.53.94-.96,2.02-2.05,2.32-3.25l.08-.17c.4-.5.88-.98,1.37-1.39l.11-.08h.09c-.16-.16-.3-.34-.42-.53l-.16.07c-.7.22-1.21.86-1.76,1.55-.51.64-1.05,1.31-1.78,1.67-1.09.94-2.22,1.61-3.35,1.99l-.11.04-.11-.02c-.59-.11-.86-.59-1.06-.95-.06-.11-.12-.22-.19-.31-.16-.26-.17-.51-.07-.74.11-.23.33-.41.59-.46.16-.04.33-.09.51-.14.42-.11.85-.23,1.34-.27.61-.2,1.28-.49,2.06-.86l.13-.04c.52-.07.92-.49,1.35-.93.41-.43.84-.87,1.42-1.09.07-.02.15-.07.23-.12.16-.09.35-.21.59-.23h.05c-.02-.08-.05-.16-.06-.25-.02-.04-.03-.08-.05-.11l-.09.02c-.39.08-.77.16-1.04.36-.33.17-.58.31-.82.45-.55.31-1.11.64-1.8.77-.51.23-1.06.29-1.48.33-.19.02-.4.02-.6.04-.32.01-.64.03-.95.06-.25,0-.41,0-.57,0-.56,0-1.26.02-1.76-.58-.27-.41-.28-.87-.25-1.32l.06-.21c.3-.48.94-.5,1.43-.38.14.03.29.07.39.06l.64.08c1.2.17,2.42.35,3.67.27.21-.07.5-.19.78-.33.49-.21.98-.44,1.58-.51.15-.06.31-.08.47-.09h.18c.14-.02.2-.04.23-.05,0-.04,0-.08,0-.12,0-.11,0-.26.02-.41-.19.07-.38.08-.52.06l-.1.05-.2-.03c-.31,0-.63.05-.95.11-.26.05-.53.1-.78.11-.37.03-.68,0-.96-.09-1.56-.32-3.06-.97-4.31-1.58-.49-.37-.69-.8-.66-1.27l.05-.17c.03-.06.05-.17.08-.28.07-.35.22-.98.92-1.03h.16s.56.38.56.38c1.01.74,2.06,1.5,3.13,2.05.73.34,1.54.48,2.4.41h.23c.44.11.82.25,1.14.42l.25.14c.06-.1.14-.2.22-.31l-.19-.17c-.58-.66-1.27-.97-2-1.31-.88-.4-1.78-.82-2.57-1.83-.85-.85-1.54-1.67-1.97-2.41l-.1-.18.06-.19c.14-.43.64-.79,1.17-1.15l.38-.27.25.17c.29.19.41.47.52.7.03.08.07.16.11.22.26.44.52.93.73,1.38.65.8,1.51,1.48,2.41,2.19.4.32.81.64,1.2.98l.16.22c.21.32.42.65.55,1.03.09-.15.15-.23.23-.31l.15-.1s0-.02,0-.04c-.39-1.13-.89-2.42-2.03-3.35l-.09-.1c-.63-.97-1.2-2.09-1.8-3.54-.14-.36-.11-.75.1-1.08l.14-.14.16-.12c.36-.23.77-.5,1.32-.54.65.05.86.41.94.61.2,1.47.4,2.57.64,3.54.06.1.12.3.17.48.07.22.12.41.23.53.86.85,1.33,2.03,1.46,3.72.15,0,.33-.02.5-.01l-.12-.33-.05-.4c-.13-1.01-.25-1.98-.68-2.78l-.05-.19c-.08-.98.06-1.95.2-2.88.06-.35.11-.71.14-1.05l.03-.11c.02-.06.04-.12.06-.19.1-.33.28-.93.94-.99h.12s.16.04.16.04c.1.05.25.06.41.08.35.04.82.08,1.14.53l.07.16c.1.42-.1.77-.23,1.03-.04.08-.09.15-.12.23-.09.24-.2.49-.31.76-.52,1.27-1.06,2.59-.61,3.89.09.77.09,1.54-.25,2.17l-.06.12-.26.1c.16.07.3.15.44.24l.16-.28c.31-.34.45-.72.6-1.13.1-.29.21-.57.35-.83.06-.21.13-.52.21-.82.23-.9.46-1.84,1.16-2.56l.23-.27c.52-.6,1.11-1.28,1.93-1.53l.11-.03.11.02c.71.14,1.3.55,1.6,1.12l.17.31-.26.23c-.4.36-.82.67-1.23.97-.54.39-1.05.76-1.5,1.24-.51.43-.74,1-.97,1.6-.32.8-.68,1.71-1.68,2.26-.22.14-.32.16-.39.16.2.18.36.37.51.58.3-.29.65-.54.98-.77.45-.31.87-.6,1.16-1,.15-.16.26-.3.37-.42.4-.45.84-.97,1.46-1.26.9-.72,2.04-1.28,3.31-1.62l.19-.05.16.1c.51.32.95,1,.83,1.66l-.04.25-.82.28c-1.34.45-2.72.91-3.98,1.65-.27.15-.48.39-.7.64-.35.39-.74.82-1.37.98l-.17.08c-.31.13-.65.28-1.01.3h0c.03.11.07.2.09.31v.08s.02.06.03.08c.7-.05,1.27-.39,1.88-.74.39-.22.79-.45,1.24-.62,1.65-.58,3.59-.74,5.33-.46.33.06.73.31.87.69.14.29.19.73.12,1.13Z"/><path class="cls-18" d="M505.21,110.59c.27.24.52.49.76.67.31.26.58.51.84.76.45.42.88.81,1.48,1.2.76.52,1.58,1,2.5,1.45.53.26,1.12.36,1.7.47.43.07.83.15,1.18.28.41.15.76.31,1.08.5.06.04.15.06.23.05.08,0,.16-.04.23-.1.13-.12.16-.3.09-.46-.17-.36-.33-.71-.48-1.09l-.09-.22c-.35-.85-.74-1.81-1.4-2.52-.73-.77-1.61-1.4-2.62-1.9-1.08-.51-2.32-.84-3.75-.99-.52-.05-1.06-.04-1.59-.02-.51.01-.98.02-1.43-.02-.19-.03-.35.09-.41.27-.05.18.03.37.19.45.48.25.99.73,1.48,1.19Z"/><path class="cls-18" d="M527.8,132.02c-.67.77-1.39,1.6-2.08,2.49-.62.67-1.23,1.35-1.81,2.06-.09-1.67-.8-3.29-2.05-4.56-.79-.76-1.66-1.31-2.58-1.63-.15-.05-.31,0-.41.1-.1.12-.14.28-.07.42.19.44.34.94.43,1.47.06.36.1.71.11,1.06l.03.67c.03.75.06,1.52.2,2.28.13.81.36,1.59.67,2.31.27.67.64,1.29,1.09,1.85-.02.03-.03.05-.05.08-.08.12-.16.26-.26.39-.1.12-.11.3-.02.43.08.12.21.19.35.18,0,0,.03,0,.04,0,.25-.05.5-.06.76-.08.01,0,.03.02.05.02h.04c.07,0,.14-.03.19-.07v.02s.21-.01.21-.01c.6-.05,1.21-.22,1.81-.45.12-.04.23-.09.34-.14.07-.02.14-.05.21-.08.04-.02.06-.05.09-.06.24-.11.48-.2.7-.33.9-.54,1.7-1.3,2.39-2.24.81-1.1,1.4-2.4,1.87-4.11l.14-.53c.1-.38.19-.76.29-1.22.01-.07.03-.13.04-.2.1-.35.21-.71.31-1.06l.12-.39c.03-.1,0-.21-.06-.29.04-.17.08-.34.11-.51.04-.16-.04-.32-.17-.4-.14-.09-.32-.08-.45.03-.96.76-1.76,1.63-2.59,2.54Z"/><path class="cls-18" d="M519.46,124.44c-.63-.02-1.27.04-1.84.18-.15.04-.27.16-.29.32-.03.16.04.31.19.39.26.17.51.34.74.51.45.35.87.76,1.26,1.21l.25.29c.52.61,1.06,1.23,1.68,1.77.59.52,1.23.96,1.9,1.31.81.42,1.53.63,2.26.69.25.02.49.03.75.01h.01s.01,0,.02,0c.13,0,.22-.09.28-.19.14-.08.29-.16.43-.25.72-.49,1.28-1.19,1.67-2.09.38-.87.57-1.85.57-2.89,0-1.24-.31-2.55-.93-4-.32-.75-.68-1.52-1.13-2.43l-.58-1.23c-.07-.14-.22-.23-.38-.21-.16.01-.3.12-.34.27-.19.62-.31,1.24-.4,1.98-.23,1.84-.51,4.54-.27,7.16-1.29-1.67-3.47-2.74-5.84-2.8Z"/><path class="cls-18" d="M514.07,117.48c-.71.05-1.41.2-2.06.43-.16.05-.25.2-.26.36,0,.16.1.31.25.36.75.29,1.48.71,2.24,1.3l.21.17c.66.51,1.35,1.04,2.11,1.48.75.43,1.45.73,2.13.94.07.02.15.05.22.07l.11.03c.6.16,1.24.26,1.88.3h.17c.2.02.41.04.63.02h0s.02.03.04.03c.04,0,.08.01.12,0,.08,0,.16-.04.23-.1.28-.25.43-.53.63-.86.34-.58.57-1.24.68-1.95.02-.14.04-.26.04-.39.07-.91-.06-1.84-.37-2.77-.36-1.08-.98-2.11-1.93-3.26-.45-.55-.92-1.07-1.38-1.61-.33-.38-.67-.77-.99-1.15-.1-.13-.27-.17-.43-.11-.15.05-.26.19-.26.36-.03,2.65.59,5.51,1.64,7.98-1.5-1.17-3.59-1.8-5.66-1.65Z"/><path class="cls-18" d="M491.9,119.82c.03.41.05.8.05,1.19,0,.17.12.32.28.37.05.01.09.02.14.01.12,0,.23-.08.3-.17.23-.35.51-.67.74-.94.26-.27.59-.52.93-.78.47-.35.94-.72,1.3-1.18.61-.83,1.13-1.63,1.57-2.42.34-.61.54-1.14.75-1.7.12-.35.26-.71.44-1.11.12-.27.23-.59.34-.92.23-.61.48-1.31.8-1.76.1-.15.09-.35-.04-.49-.12-.14-.33-.16-.49-.06-.37.24-.81.44-1.26.66-.47.22-.96.45-1.39.74-1.24.81-2.19,1.66-2.91,2.59-.68.9-1.17,1.87-1.47,2.88-.27.95-.18,2.01-.1,2.94l.02.16Z"/><path class="cls-18" d="M506.76,151.06c.5.1,1.01.2,1.51.3.41.08.8.16,1.17.26-.56.67-1.04,1.37-1.37,2.12-.02.04-.03.07-.04.11-.05.43.06.83.33,1.16.31.37.82.62,1.38.66.02,0,.04,0,.06,0,.17-.01.31-.13.35-.3.25-1.05.72-2.02,1.5-2.99,1.13.51,1.99,1.15,2.69,1.98.08.1.2.15.32.14.06,0,.11-.03.17-.05.5-.3.83-.72.94-1.21.09-.41,0-.82-.24-1.19-.02-.03-.04-.06-.07-.08-.64-.52-1.38-.93-2.18-1.27.29-.26.59-.51.92-.77.42-.35.85-.68,1.27-1.01.18-.14.36-.3.55-.44.13.04.25.09.38.12.65.16,1.36.21,2.09.16,1.12-.09,2.28-.43,3.43-1.02,1.34-.66,2.61-1.65,3.92-3.05.36-.39.7-.77,1.04-1.15.72-.82,1.41-1.65,2.1-2.48.11-.13.12-.31.03-.46-.09-.15-.25-.22-.42-.17-1.45.36-2.85.93-4.1,1.44-1.84.77-3.92,1.69-5.88,2.82.83-1.94.8-4.14-.13-6.07-.54-1.1-1.32-2.01-2.25-2.63-.12-.08-.28-.09-.41,0-.13.08-.2.23-.18.38.08.55.06,1.16-.04,1.85-.04.3-.1.6-.17.91l-.12.49c-.21.84-.42,1.72-.54,2.61-.11.89-.13,1.75-.07,2.55.05.59.15,1.16.3,1.71.02.08.05.16.08.23-.33.26-.67.52-.99.76l-.25.2c-.71.54-1.43,1.11-2.14,1.71,0-.07,0-.13,0-.19l-.39-.06.41-.07c.05-.4.31-.82.57-1.24.17-.27.35-.56.48-.86,1-2.39-.11-5.48-1.71-6.97-.59-.55-1.54-1.13-2.11-1.48-.19-.12-.34-.2-.41-.25-.02-.03-.04-.05-.07-.07-.16-.13-.4-.11-.54.06-.64.78-1.52,1.94-1.82,3.08-.56,2.41-.03,4.85,1.47,6.68.53.64,1.32,1.12,2.09,1.58-.72-.16-1.44-.3-2.15-.43l-.29-.05c-.38-.07-.8-.15-1.22-.23-.01-.08-.02-.17-.04-.25-.11-.56-.28-1.11-.51-1.64-.31-.77-.72-1.52-1.22-2.24-.55-.81-1.2-1.56-1.83-2.29l-.16-.18c-.2-.24-.39-.48-.57-.73-.4-.58-.68-1.12-.86-1.63-.05-.15-.18-.25-.33-.26-.16-.02-.3.06-.37.19-.55.96-.83,2.13-.81,3.38.05,2.14,1.02,4.11,2.64,5.46-2.19-.12-4.42-.01-6.53.15-1.34.11-2.86.24-4.31.58-.16.03-.28.17-.29.34-.02.17.08.33.23.4,1,.44,1.99.86,3,1.26l1.46.56c1.84.65,3.39.95,4.88.93.28,0,.56,0,.84-.03.96-.07,1.87-.28,2.67-.62.67-.28,1.28-.64,1.82-1.09.1-.08.18-.18.27-.27.25.05.52.12.77.17Z"/><path class="cls-18" d="M494.61,148.12c.57-.04,1.11-.15,1.63-.34,0,0,.09-.03.1-.04.22-.09.47-.15.72-.22.03.01.07.03.1.03.05,0,.11-.02.16-.05.11-.06.18-.18.2-.32,0-.01,0-.02.01-.03,0-.01,0-.03,0-.03,0-.25.02-.5.08-.75,0-.04.03-.08.03-.11.14-.71.19-1.45.15-2.2-.05-.77-.2-1.57-.45-2.36-.25-.81-.6-1.58-.94-2.32l-.2-.41c-.14-.33-.27-.65-.38-1-.16-.52-.25-1.02-.28-1.5-.01-.16-.11-.29-.26-.34-.14-.05-.31-.02-.41.1-.68.72-1.21,1.6-1.57,2.63-.57,1.86-.41,3.78.43,5.4-1.86-1.1-3.9-1.98-5.72-2.72-1.08-.4-2.24-.83-3.44-1.08-.16-.04-.32.04-.41.18-.09.14-.08.31.02.44.54.68,1.07,1.34,1.63,2.01.37.45.74.88,1.13,1.33,1.17,1.29,2.29,2.18,3.51,2.8,1.05.53,2.11.84,3.15.9.34.03.68.03,1.01,0Z"/><path class="cls-18" d="M486.44,128.09l.2.32c.4.62.89,1.11,1.44,1.46l.09.06c.24.17.51.36.85.46.05.01.1.02.15.01.08,0,.15-.03.21-.08.03-.02.04-.05.06-.07.18-.08.34-.16.49-.24l.16-.09c.56-.29,1.1-.65,1.6-1.08.08-.07.15-.14.25-.22.52-.47,1.04-1.06,1.52-1.76.55-.78.98-1.63,1.42-2.48.42-.84.9-1.53,1.46-2.11.11-.12.14-.29.07-.44-.07-.14-.19-.21-.39-.22-2.74.27-5.28,2.06-6.47,4.38-.09-2.69-.74-5.55-1.9-7.91-.07-.15-.23-.2-.39-.22-.16.02-.29.14-.34.29-.13.47-.26.94-.4,1.41-.2.69-.4,1.39-.58,2.09-.37,1.44-.49,2.65-.36,3.76.09.97.38,1.89.83,2.68Z"/><path class="cls-18" d="M485.57,138.94c.77.62,1.6,1,2.44,1.1.16.03.34.03.51.03,0,0,0,.02.01.02.07.03.14.05.21.03.05,0,.09-.01.14-.03.22-.1.46-.22.65-.35.64-.39,1.21-.92,1.73-1.64.43-.61.78-1.27,1.09-2.02.32-.79.53-1.62.72-2.4l.08-.32c.14-.57.33-1.13.57-1.64.13-.27.28-.53.44-.8.08-.13.08-.3-.02-.43-.09-.12-.25-.18-.41-.15-.59.15-1.17.37-1.73.68-2.09,1.13-3.55,3.09-3.94,5.18-.97-2.45-2.44-4.75-3.48-6.29-.37-.52-.78-1.08-1.25-1.58-.11-.12-.28-.15-.43-.09-.15.07-.25.21-.24.38l.03,1.35c.02.93.05,1.83.1,2.69.11,1.58.43,2.87.98,3.98.45.92,1.05,1.7,1.81,2.33Z"/><path class="cls-18" d="M498.61,130.46c.87,3.66,4.22,6.1,7.95,5.81.4-.03.81-.09,1.2-.18,4.07-.97,6.59-5.09,5.62-9.16-.87-3.65-4.22-6.09-7.96-5.8-.4.03-.81.1-1.21.19-4.07.98-6.59,5.09-5.61,9.15ZM505.02,124.63c.22-.05.44-.09.66-.1,2.06-.16,3.9,1.19,4.38,3.19.54,2.25-.85,4.52-3.09,5.05-2.31.56-4.52-.87-5.06-3.09-.54-2.25.86-4.51,3.11-5.05Z"/><path class="cls-18" d="M154.95,127.44c1.16-.49,2.24-1.16,3.16-1.74,1.98-1.3,3.61-2.47,5.07-3.77-.51,1.75-.29,3.67.65,5.38.54.93,1.22,1.69,2.05,2.26.05.04.12.06.18.07,0,0,0,0,.02,0,.21.02.4-.13.43-.34,0-.07,0-.15-.04-.21-.05-.46-.05-.94,0-1.42.04-.36.1-.7.17-1.04l.09-.39c.19-.82.4-1.66.48-2.53.09-.82.09-1.63-.02-2.4-.1-.72-.29-1.43-.57-2.11-.01-.02-.02-.04-.04-.07,0-.02,0-.03-.02-.05-.11-.23-.18-.48-.23-.72v-.03s-.01-.02-.02-.02c-.03-.13-.12-.24-.25-.28-.09-.03-.19-.02-.28.03-.25-.01-.49-.03-.74-.07,0,0-.12-.01-.12-.01l-.23-.03c-.77-.09-1.61-.02-2.41.21-1,.27-1.98.78-2.92,1.5-1.09.87-2.03,1.99-2.9,3.45-.3.51-.57,1.01-.84,1.52-.42.76-.82,1.52-1.21,2.28-.07.15-.05.33.07.45.06.07.15.11.24.12.07.01.14,0,.2-.03Z"/><path class="cls-18" d="M159.59,117.36s.02,0,.03,0c1.51.03,3.08-.14,4.34-.29,2.07-.26,4.27-.58,6.43-1.14-1.33,1.65-1.89,3.77-1.52,5.88.22,1.21.72,2.3,1.45,3.14.07.08.16.12.25.13.05,0,.1,0,.15-.01.15-.04.25-.17.27-.32.09-.57.26-1.15.53-1.78.12-.28.26-.55.4-.81l.1-.17c.49-.85.99-1.73,1.37-2.65.36-.81.61-1.63.77-2.44.11-.57.16-1.15.16-1.72,0-.08,0-.17,0-.25.36-.15.74-.3,1.17-.46l.33-.14c.64-.25,1.3-.53,1.95-.82-.67.6-1.34,1.22-1.74,1.96-1.1,2.08-1.15,4.56-.12,6.84.52,1.05,1.61,2.02,2.39,2.66.06.05.13.07.2.08,0,0,.01,0,.02,0,.16-.01.35-.08.41-.24.07-.07.17-.16.3-.28.49-.45,1.31-1.21,1.79-1.89,1.28-1.77,1.76-5.01.31-7.17-.18-.27-.41-.51-.64-.75-.35-.36-.67-.72-.8-1.1-.01-.04-.02-.08-.05-.12-.02-.06-.02-.12-.04-.18.8.45,1.62.86,2.41,1.24l.31.16c.33.16.71.35,1.11.54,0,.09-.03.18-.04.27-.03.56-.01,1.13.05,1.71.1.83.3,1.66.57,2.49.28.83.65,1.64,1.02,2.42l.23.5c.13.28.25.55.35.85.23.65.36,1.24.41,1.81.01.15.11.28.25.33.03.01.06.02.09.02.12.01.24-.03.32-.11.78-.8,1.36-1.85,1.68-3.03.52-2.07.13-4.23-1.07-5.97,2.07.7,4.25,1.2,6.33,1.62,1.1.21,2.09.4,3.12.52.39.04.78.07,1.18.09.17.01.32-.09.38-.25.07-.16.01-.34-.12-.44-.84-.69-1.68-1.36-2.55-2.02-.4-.31-.82-.62-1.25-.93-1.53-1.11-2.99-1.83-4.43-2.21-1.25-.35-2.46-.46-3.57-.32-.73.1-1.41.28-2.02.56-.12.05-.23.13-.35.19-.24-.12-.48-.26-.72-.38-.45-.23-.9-.46-1.36-.69-.37-.19-.72-.38-1.04-.56.71-.49,1.36-1.03,1.88-1.68.02-.03.04-.05.06-.09.17-.4.17-.82,0-1.21-.2-.45-.62-.81-1.17-1-.17-.07-.37.01-.47.18-.52.95-1.25,1.75-2.25,2.47-.94-.79-1.61-1.64-2.05-2.63-.08-.18-.28-.27-.46-.22-.56.16-1,.49-1.22.92-.2.37-.23.79-.09,1.2,0,.04.03.07.05.1.47.68,1.08,1.26,1.75,1.81-.34.16-.7.33-1.09.49-.5.22-1,.42-1.5.64-.21.09-.42.18-.64.27-.11-.07-.22-.15-.33-.21-.6-.33-1.27-.57-1.99-.71-1.14-.22-2.33-.2-3.56.06-1.47.27-2.93.87-4.61,1.87l-1.32.84c-.91.59-1.79,1.2-2.68,1.82-.14.1-.2.28-.15.43.04.15.18.25.33.27Z"/><path class="cls-18" d="M174.45,152.43c-.19-.31-.38-.61-.55-.86-.25-.35-.45-.67-.65-.99-.31-.51-.61-1-1.07-1.52-.58-.68-1.24-1.36-2.02-2.07-.44-.39-.98-.66-1.51-.91-.39-.19-.76-.37-1.06-.58-.38-.29-.67-.53-.91-.78-.12-.11-.31-.15-.46-.08-.15.08-.23.25-.2.42.07.38.13.78.17,1.18l.03.2c.1.92.22,1.97.67,2.83.48.93,1.16,1.78,2.01,2.53.87.78,1.97,1.42,3.36,1.98.47.2,1,.32,1.5.45.49.12.96.24,1.37.4.04.01.07.02.1.02.14.02.29-.05.37-.17.1-.16.07-.36-.06-.49-.39-.37-.75-.97-1.1-1.55Z"/><path class="cls-18" d="M164.09,135.23c.45.14.91.24,1.35.29.15.02.31.03.47.04.16,0,.3-.08.37-.22.07-.14.04-.31-.06-.43-.21-.23-.41-.46-.59-.69-.32-.45-.62-.96-.89-1.5l-.13-.28c-.34-.75-.7-1.52-1.18-2.24-.45-.68-.93-1.26-1.46-1.77-.65-.61-1.31-1.03-2-1.28-.23-.08-.47-.16-.72-.22-.12-.03-.24,0-.33.07-.01,0,0,.02-.01.02-.17.04-.34.08-.49.13-.81.27-1.54.8-2.19,1.57-.61.76-1.06,1.64-1.32,2.63-.32,1.19-.38,2.52-.18,4.1.12.89.27,1.77.43,2.65l.24,1.33c.03.16.15.29.31.32.01,0,.02,0,.04,0,.14.02.29-.05.37-.18.38-.59.66-1.21.92-1.8,1.15-2.73,1.83-4.86,2.19-6.84.78,1.97,2.6,3.58,4.88,4.28Z"/><path class="cls-18" d="M168.2,143.65c.57.07,1.14.07,1.7.01.16-.01.3-.13.34-.29.04-.16-.02-.32-.15-.42-.66-.46-1.27-1.04-1.87-1.8-.57-.72-1.17-1.46-1.86-2.13-.65-.61-1.25-1.08-1.86-1.44l-.29-.15c-.56-.31-1.15-.56-1.76-.74l-.2-.06c-.17-.06-.36-.11-.56-.14-.02-.02-.02-.05-.04-.06-.11-.05-.24-.05-.35,0-.32.16-.55.4-.73.61l-.08.08c-.48.47-.87,1.05-1.15,1.74l-.12.36c-.29.86-.39,1.8-.29,2.77.1,1.12.43,2.27,1.09,3.61.31.66.64,1.3.98,1.94.22.43.45.87.66,1.3.06.12.18.2.31.21.03,0,.06,0,.08,0,.17-.02.29-.13.33-.29.67-2.54.76-5.46.32-8.11,1.26,1.61,3.28,2.73,5.5,2.98Z"/><path class="cls-18" d="M197.04,139.8c-.25-.68-.61-1.28-1.08-1.8-.2-.23-.43-.5-.76-.7-.1-.07-.24-.07-.35-.02-.02.01-.04.03-.06.05-.2.02-.4.08-.59.12l-.16.05c-.63.16-1.24.38-1.8.67l-.09.05c-.07.03-.14.07-.19.1-.67.35-1.29.8-1.91,1.35-.7.6-1.28,1.28-1.85,1.94l-.1.13c-.65.72-1.28,1.28-1.95,1.71-.14.09-.21.25-.17.41.04.15.17.28.33.3l.21.02c2.7.3,5.47-.81,7.12-2.74-.55,2.63-.59,5.56-.04,8.14.04.16.16.28.32.31h.02c.15.01.3-.06.38-.2.26-.47.52-.93.78-1.39.34-.59.68-1.19,1-1.78.71-1.31,1.11-2.45,1.25-3.57.13-.98.07-1.92-.17-2.79-.03-.1-.06-.19-.12-.37Z"/><path class="cls-18" d="M200.63,130.4c-.57-.81-1.26-1.39-2.06-1.73-.16-.06-.32-.11-.48-.17,0,0,0-.01,0-.01-.09-.08-.2-.11-.33-.1-.25.04-.5.09-.72.16-.71.2-1.39.55-2.1,1.13-.57.45-1.09,1-1.59,1.64-.49.63-.88,1.31-1.25,1.97l-.25.44c-.28.51-.62,1-.99,1.43-.19.22-.4.43-.63.65-.11.11-.15.27-.1.42.05.14.18.23.32.25,0,0,.02,0,.03,0,.57.03,1.17-.03,1.84-.17,2.31-.53,4.24-2.01,5.19-3.92.28,2.63,1.07,5.23,1.66,7,.21.61.45,1.24.78,1.86.06.11.17.19.3.2.03,0,.06,0,.09,0,.15-.02.29-.13.33-.29l.33-1.31c.26-.96.47-1.81.63-2.62.31-1.53.36-2.87.12-4.1-.2-1.03-.58-1.94-1.12-2.71Z"/><path class="cls-18" d="M195.38,119.39c-.26-.09-.52-.14-.77-.19-.03,0-.06-.02-.09-.03-.05-.02-.11-.02-.17-.03-.15-.03-.31-.06-.46-.08-.68-.12-1.37-.17-2.01-.07-.02,0-.1,0-.12.01-.04,0-.09-.02-.14,0-.01,0-.03.02-.05.02-.25.04-.51.07-.75.08-.16,0-.31.1-.36.25-.05.15-.02.32.1.43.14.13.27.26.4.4,0,0,0,0,0,0-.33.64-.56,1.32-.7,2.02-.17.78-.24,1.59-.2,2.39.01.79.13,1.56.25,2.31l.09.64c.06.34.09.68.1,1.05.01.56-.03,1.06-.13,1.52-.03.15.03.31.15.39.06.04.12.06.19.07.08.01.16,0,.24-.05.85-.5,1.59-1.21,2.22-2.12.97-1.5,1.35-3.23,1.1-4.88.72.6,1.45,1.15,2.19,1.68.85.73,1.72,1.41,2.53,2.03,1.02.75,1.96,1.42,3.02,1.97.04.02.09.04.14.04,0,0,0,0,0,0,.17.04.41-.12.44-.34.01-.11-.02-.22-.09-.3l-.14-.34s.03-.07.04-.11c.01-.12-.03-.23-.11-.31h0c-.22-.43-.44-.85-.65-1.26l-.11-.24c-.14-.33-.29-.65-.45-.97l-.29-.62c-.79-1.56-1.63-2.72-2.64-3.64-.86-.8-1.8-1.37-2.79-1.73Z"/><path class="cls-18" d="M185.86,135.05c.16-4.15-3.12-7.75-7.31-7.88-2.03-.07-3.97.65-5.45,2.02-1.49,1.38-2.35,3.26-2.42,5.28-.15,3.95,2.81,7.39,6.74,7.84.18.02.37.04.57.05,4.19.15,7.72-3.13,7.88-7.31ZM178.11,138.95c-2.34-.1-4.13-2.06-4.04-4.34.04-1.12.52-2.16,1.34-2.92.82-.76,1.89-1.16,3.01-1.11.11,0,.22.01.32.03,2.16.24,3.78,2.13,3.71,4.31-.09,2.31-2.04,4.11-4.34,4.03Z"/><path class="cls-18" d="M189.37,145.56c-.27.23-.59.47-.96.7-.33.19-.71.34-1.11.51-.55.22-1.11.43-1.57.79-.81.63-1.52,1.25-2.18,1.91-.51.51-.85.97-1.21,1.47-.21.29-.43.59-.69.91-.19.22-.39.51-.6.8-.38.53-.81,1.13-1.23,1.47-.14.12-.18.32-.1.49.06.12.17.19.3.2.05,0,.11,0,.16-.01.42-.13.89-.21,1.39-.29.52-.09,1.06-.17,1.55-.33,1.38-.44,2.52-1,3.49-1.72.89-.68,1.63-1.48,2.19-2.37.51-.82.7-1.84.88-2.74l.05-.24c.08-.44.16-.8.26-1.14.04-.16-.02-.34-.17-.43-.15-.1-.34-.08-.46.04Z"/><path class="cls-18" d="M186.49,213.84c-.75-.22-1.25-.88-2-1.1-.16-.02-.22.19-.29.32.39.74,1.49.51,1.97,1.2.03.96-.58,1.72-.81,2.62.1.2.07.53.36.56.23.12.57.16.78,0,.58-.92,1.16-1.88,1.67-2.84-.26-.58-1.08-.57-1.68-.77Z"/><path class="cls-18" d="M183.51,217.23c.24.26.52-.08.71-.25.25-.78.64-1.49.77-2.36-.22-.41-.64-.49-.97-.71-.68-.23-1.44-.36-2.1-.65-2.55-.45-5.14-.67-7.5-.06-.37.23-.99.21-.9.92.24.82.06,1.89.72,2.48.84-.2,1.64-.47,2.48-.48,2.3-.56,4.73.33,6.78,1.1Z"/><path class="cls-18" d="M178.23,209.78c1.1.16,3.08.76,3.96-.03.41-1.76.3-3.58.68-5.34.48-.45.88-.41,1.5-.53.94-.19,1.78-.53,2.69-.78.52-.04.8.51,1.05.89.46.67,1.37,2.73,1.49,3.04.34.77.89,2.05.76,2.13.64-.44,1.03-.76,1.52-1.25-.13-.02-.25-.14-.36-.26-.96-1.76-1.68-3.55-2.47-5.34-.05-.55.67-.79.97-1.19.32-.53-.26-.96-.57-1.4-.37-.13-.62.06-.92.18-.3.24-.64-.03-.76-.31-1.57-3.02-2.87-6.14-4.28-9.2-.16-.26.07-.53.25-.63,1.41-.34,2.82-.51,4.07-1.16.28-.28.33-.72.34-1.16-.04-.89-1-1.1-1.64-1.4-2.53-1.84-6.02-1.07-9.17-1.59-.29.02-.61-.01-.83.29-.41,1.24-.3,2.65-.45,3.97.03.19.17.32.31.44l2.03.23c.25.12.61.22.63.57-1.83,3.01-3.99,5.61-6.02,8.65-1.8,2.39-2.43,3.39-4.08,5.61-.37.38-.86,1.36-1,1.25.29.38.75.79,1.38,1.44.88-1.61,1.03-1.63,1.61-2.65.73-.85,1.23-1.97,2.18-2.62,1.17.31,1.73,1.01,3.16,1.49.65.41,1.36.23,1.62,1.12,0,1.64-.33,3.41-.24,5.03.05.18.43.39.57.5ZM183.16,195.45q.1-.11.2-.16c.55.34.87,1.2,1.19,1.87.65,1.18,1.39,2.42,1.82,3.62-.5.77-1.58.71-2.36,1.03-.34.06-.72.13-1.01.06-.17-.15-.15-.36-.26-.5.08-1.66.09-4.23.42-5.92ZM174.52,199.76c-.31-.55.34-.85.5-1.26.63-.69,1.1-1.43,1.72-2.14.46-.76,1.22-1.38,1.75-2.13.16-.05.39-.13.46.1.02,2.23-.35,4.64-.49,6.86-.13.17-.28.29-.52.33-1.28-.36-2.4-.93-3.43-1.75Z"/><path class="cls-18" d="M189.43,213.24c-1.24-.44-2.19-1.51-3.62-1.65-.46.08-.33.55-.14.81.53.51,1.16.93,1.88,1.09.59.31,1.46.14,1.86.63-.16,1.08-1.09,1.75-1.41,2.77.09.17.33.31.57.21,1.36-.6,2.75-1.16,3.97-2.15.12-.17.4-.36.23-.56-1.2-.23-2.32-.62-3.34-1.14Z"/><path class="cls-18" d="M163.78,196.78c1.07-9.42,9.56-16.2,18.98-15.13,9.42,1.06,16.19,9.56,15.13,18.99-.53,4.73-2.95,8.79-6.41,11.54l2.66,1.05c3.39-3.1,5.73-7.39,6.29-12.31,1.22-10.81-6.56-20.58-17.37-21.8-10.82-1.22-20.58,6.56-21.81,17.38-.59,5.19.92,10.14,3.83,14.01l2.8-.58c-3.03-3.5-4.66-8.19-4.1-13.15Z"/><path class="cls-18" d="M189.47,206.78c.14.29.17.34.13.25-.26-.56-.41-.86-.13-.25Z"/><path class="cls-18" d="M172.38,213.11c.57-.43,1.29-.44,1.93-.65.05-.15.26-.31.06-.46-.88-.2-1.58.71-2.46.69-.52.09-1.25-.06-1.51.5.46,1.01.6,2.23,1.39,3.09.28.17.58.06.82-.15.29-1.06-.42-1.93-.21-3.02Z"/><path class="cls-18" d="M171.26,212.07c.71-.27,1.8-.48,2.01-1.26-.11-.18-.32-.38-.61-.33-2.03.44-3.92,1.37-6.03,1.61-.37.11-.98-.2-1.19.23.88,1.09,2.03,1.95,3.19,2.66.41.24.86.62,1.33.46.04-.59-.31-1.08-.47-1.65-.09-.44-.53-.8-.45-1.34.61-.5,1.53-.09,2.21-.4Z"/><path class="cls-18" d="M201.2,227.37c7.6-5.58,12.94-14.19,14.08-24.27,1.7-15-6.39-28.88-19.16-35.27,3.38-1.69,6.55-3.87,9.4-6.52,7.88-7.31,12.44-17.26,12.84-28,.78-20.91-14.88-39.14-35.65-41.49-1.01-.11-2.04-.19-3.06-.23-10.74-.4-21,3.4-28.88,10.71-7.88,7.31-12.44,17.25-12.84,28-.64,17.08,9.69,32.37,24.82,38.68-9.16,5.4-15.78,14.88-17.06,26.24-2.13,18.81,11.13,35.86,29.72,38.57-4.24,4.11-7.13,9.66-7.85,15.97-1.64,14.49,8.81,27.6,23.3,29.24,14.49,1.64,27.6-8.81,29.24-23.3,1.47-12.96-6.76-24.83-18.89-28.35ZM149.09,130.72c.6-16.04,14.1-28.56,30.14-27.96,16.04.6,28.56,14.1,27.97,30.14-.61,16.04-14.1,28.56-30.14,27.96-16.04-.61-28.56-14.1-27.96-30.14ZM156.29,196.43c1.51-13.35,13.57-22.96,26.92-21.45,13.36,1.51,22.96,13.58,21.45,26.92-1.51,13.36-13.56,22.96-26.93,21.45-13.34-1.5-22.96-13.56-21.45-26.92ZM211.37,254.74c-1.09,9.69-9.84,16.66-19.53,15.56-9.69-1.1-16.66-9.84-15.56-19.53,1.1-9.69,9.84-16.67,19.53-15.57,9.69,1.09,16.66,9.84,15.57,19.54Z"/><path class="cls-18" d="M200.08,251.96c-.11-.07-.17.1-.24.12,0,.59,0,1.18,0,1.76-.11.18-.3.19-.48.26-.78.61-1.74.65-2.55,1.27-.55.26-1.16.03-1.59-.38-.53-.25-1.01.07-1.55-.12-.52-.27-.43-.91-.34-1.45-.13-.39-.5-.51-.82-.63-.72-.41-.05-1.21-.2-1.81-.22-.54-.7-.08-1.1-.28-.57-.11-.29-.78-.44-1.17-.1-.3-.36-.39-.65-.38-1.02.38-1.22,1.45-1.78,2.21-.14.2-.42.33-.48,0,.21-2.99,1.38-5.55,3.12-7.75.24-.44.81-.71.9-1.25-.05-.26-.31-.13-.47-.19-1.45.32-2.81.91-4.11,1.77-.45.4-1.09.65-1.35,1.2-.8,3-.33,5.96,1.03,8.47.21.24.37.59.64.69.27-.34.06-.79.1-1.18.03-.28-.06-.71.2-.92,1.44-.06.67,1.7,1.75,2.14.77.08.99.96,1.65,1.26.67.12,1.09.67,1.76.81.36-.27.76-.38,1.24-.31.74-.59,1.01.66,1.68.71.66-.27,1.35-.52,1.98-.87.68.07,1.05-.76,1.67-.75-.32,2.87-1.34,5.43-3.16,7.51-.24.4-.7.66-.82,1.14.07.22.29.12.45.17,1.4-.22,2.69-.87,3.95-1.63.5-.39,1.14-.64,1.48-1.18.45-1.68.54-3.44.27-5.05-.28-1.48-.81-2.93-1.76-4.19Z"/><path class="cls-18" d="M197.06,247.04c-.4,0-.8-.09-1.12.21-.1.15.05.23.11.33,2.44,1.07,4.62,2.77,6.19,5.26.92,1.23,1.33,2.6,1.96,3.91.12.05.2-.04.27-.12.43-.95.49-2.15.59-3.26-.04-1.31.32-2.85-.91-3.73-1.89-1.76-4.36-2.56-7.09-2.6Z"/><path class="cls-18" d="M190.11,248.59c3.3-2.31,6.96-3.52,11.05-2.94.33.03.79.21,1.07,0,0-.07.01-.15-.04-.2-1.2-1.41-2.67-2.43-4.33-3.08-.23-.16-.57-.11-.83-.16-1.63.41-3.21,1.24-4.59,2.48-1.07,1.12-2.1,2.28-2.55,3.77.05.1.08.16.22.13Z"/><path class="cls-18" d="M201.73,239.87c-4.93-3.15-12.16-2.99-16.82.65-4.96,3.6-7.44,9.76-6.04,15.84.87,4.75,5.05,9.41,9.49,10.89,6.22,2.2,12.82.6,17.19-4.58,3.26-3.62,4.34-9.81,2.76-14.46-1.09-3.23-3.64-6.65-6.58-8.34ZM206.1,258.95c-1.67,3.66-5.7,6.75-9.57,7.42-2.93.68-6.5.17-9.1-1.24-3.2-1.53-6.13-5.1-6.93-8.63-.09-.55-.28-1.08-.31-1.64-.24-1.35-.18-2.83.06-4.29.11-.63.29-1.24.48-1.86,1.19-3.9,4.66-7.5,8.63-8.75,3.03-1.2,7.14-.96,10.14.49,1.76.91,3.43,2.03,4.79,3.68,3.39,4.14,4.18,9.96,1.81,14.83Z"/><path class="cls-18" d="M197.68,257.76c-.06-.07-.07-.14-.22-.11-1.02.67-2.03,1.34-3.12,1.81-1.09.44-2.19.85-3.32.98-1.75.27-3.58.41-5.46,0-.09.02-.26.09-.24.2.58.73,1.25,1.36,1.98,1.86.97.57,1.89,1.26,3.08,1.42,2.46-.42,5-2.31,6.49-4.45.3-.54.68-1.06.81-1.71Z"/><path class="cls-18" d="M191.59,258.99c.1-.17-.08-.23-.13-.33-3.54-1.45-6.7-5.07-7.91-8.83-.02-.21-.39-.48-.49-.16-.38,1.05-.48,2.32-.57,3.5.12,1.12-.22,2.4.74,3.24,1.76,1.68,3.98,2.56,6.51,2.73.63,0,1.31.21,1.84-.15Z"/></g></g></g></svg>