<svg width="308" height="113" viewBox="0 0 308 113" fill="none" xmlns="http://www.w3.org/2000/svg">
<g clip-path="url(#clip0_215_10599)">
<mask id="mask0_215_10599" style="mask-type:luminance" maskUnits="userSpaceOnUse" x="0" y="0" width="308" height="113">
<path d="M307.952 0H0.0493164V113H307.952V0Z" fill="white"/>
</mask>
<g mask="url(#mask0_215_10599)">
<path d="M13.2366 77.7388C21.0291 77.7388 26.4239 83.3487 26.4239 91.1625C26.4239 98.9764 21.0291 104.586 13.2366 104.586C5.44411 104.586 0.0493164 98.9764 0.0493164 91.1625C0.0493164 83.5491 5.44411 77.7388 13.2366 77.7388ZM13.2366 102.583C20.0301 102.583 24.0262 97.5739 24.0262 91.1625C24.0262 84.7512 19.8302 79.7423 13.2366 79.7423C6.44315 79.7423 2.447 84.7512 2.447 91.1625C2.447 97.7742 6.64296 102.583 13.2366 102.583Z" fill="#C59949"/>
</g>
<mask id="mask1_215_10599" style="mask-type:luminance" maskUnits="userSpaceOnUse" x="0" y="0" width="308" height="113">
<path d="M307.952 0H0.0493164V113H307.952V0Z" fill="white"/>
</mask>
<g mask="url(#mask1_215_10599)">
<path d="M46.405 100.978C44.6068 103.583 42.2091 104.584 39.212 104.584C34.017 104.584 30.8201 100.978 30.8201 95.7687C30.8201 90.7599 34.2168 86.9531 39.212 86.9531C44.407 86.9531 47.0045 90.9602 47.0045 94.767V96.3698H33.018C33.018 98.173 34.2168 102.781 39.4118 102.781C41.6097 102.781 44.0074 101.579 45.0064 99.7758L46.405 100.978ZM44.6068 94.3662C44.6068 91.3609 42.0093 88.9567 38.8124 88.9567C34.017 88.9567 32.8181 93.5648 32.8181 94.3662H44.6068Z" fill="#C59949"/>
</g>
<mask id="mask2_215_10599" style="mask-type:luminance" maskUnits="userSpaceOnUse" x="0" y="0" width="308" height="113">
<path d="M307.952 0H0.0493164V113H307.952V0Z" fill="white"/>
</mask>
<g mask="url(#mask2_215_10599)">
<path d="M59.9907 89.3589H55.1953V100.378C55.1953 101.781 55.9945 102.783 57.593 102.783C58.3922 102.783 59.3912 102.582 59.9907 102.182L60.1905 104.185C59.3912 104.386 58.1924 104.786 57.3932 104.786C54.1963 104.786 52.9974 102.783 52.9974 100.378V89.3589H49.4009V87.3554H52.9974V82.5469H55.1953V87.3554H59.9907V89.3589Z" fill="#C59949"/>
</g>
<mask id="mask3_215_10599" style="mask-type:luminance" maskUnits="userSpaceOnUse" x="0" y="0" width="308" height="113">
<path d="M307.952 0H0.0493164V113H307.952V0Z" fill="white"/>
</mask>
<g mask="url(#mask3_215_10599)">
<path d="M73.5779 89.3589H68.7826V100.378C68.7826 101.781 69.5818 102.783 71.1803 102.783C71.9795 102.783 72.9785 102.582 73.5779 102.182L73.7778 104.185C72.9785 104.386 71.7797 104.786 70.9805 104.786C67.7835 104.786 66.5847 102.783 66.5847 100.378V89.3589H62.9882V87.3554H66.5847V82.5469H68.7826V87.3554H73.5779V89.3589Z" fill="#C59949"/>
</g>
<mask id="mask4_215_10599" style="mask-type:luminance" maskUnits="userSpaceOnUse" x="0" y="0" width="308" height="113">
<path d="M307.952 0H0.0493164V113H307.952V0Z" fill="white"/>
</mask>
<g mask="url(#mask4_215_10599)">
<path d="M79.1736 79.1418C80.1726 79.1418 80.7721 79.9433 80.7721 80.7447C80.7721 81.7465 79.9728 82.3475 79.1736 82.3475C78.1746 82.3475 77.5751 81.5461 77.5751 80.7447C77.3753 79.9433 78.1746 79.1418 79.1736 79.1418ZM77.9748 87.3564H80.1726V104.186H77.9748V87.3564Z" fill="#C59949"/>
</g>
<mask id="mask5_215_10599" style="mask-type:luminance" maskUnits="userSpaceOnUse" x="0" y="0" width="308" height="113">
<path d="M307.952 0H0.0493164V113H307.952V0Z" fill="white"/>
</mask>
<g mask="url(#mask5_215_10599)">
<path d="M86.3653 92.1623C86.3653 90.9602 86.1655 88.3556 86.1655 87.3538H88.3634C88.3634 88.556 88.3634 89.9584 88.5632 90.3591H88.763C89.5623 88.556 91.7601 86.9531 94.5574 86.9531C99.7524 86.9531 100.951 90.5595 100.951 94.1659V104.184H98.7534V94.3662C98.7534 91.5613 97.9542 88.9567 94.5574 88.9567C91.3605 88.9567 88.763 91.1606 88.763 95.7687V104.184H86.5651V92.1623H86.3653Z" fill="#C59949"/>
</g>
<mask id="mask6_215_10599" style="mask-type:luminance" maskUnits="userSpaceOnUse" x="0" y="0" width="308" height="113">
<path d="M307.952 0H0.0493164V113H307.952V0Z" fill="white"/>
</mask>
<g mask="url(#mask6_215_10599)">
<path d="M123.33 103.182C123.33 111.597 117.735 112.999 114.338 112.999C110.942 112.999 107.745 111.597 105.946 109.393L107.745 107.79C109.343 109.994 111.741 110.996 114.338 110.996C120.932 110.996 121.132 105.185 121.132 103.382V100.978C119.933 102.981 117.735 104.184 114.738 104.184C109.743 104.184 105.747 100.377 105.747 95.5684C105.747 90.7599 109.743 86.9531 114.738 86.9531C117.535 86.9531 119.733 88.1552 121.132 90.1588V87.3538H123.33V103.182ZM114.538 88.9567C110.942 88.9567 107.944 91.962 107.944 95.5684C107.944 99.1748 110.942 102.18 114.538 102.18C118.135 102.18 121.132 99.1748 121.132 95.5684C121.132 91.962 118.334 88.9567 114.538 88.9567Z" fill="#C59949"/>
</g>
<mask id="mask7_215_10599" style="mask-type:luminance" maskUnits="userSpaceOnUse" x="0" y="0" width="308" height="113">
<path d="M307.952 0H0.0493164V113H307.952V0Z" fill="white"/>
</mask>
<g mask="url(#mask7_215_10599)">
<path d="M143.912 100.978C142.113 103.583 139.716 104.584 136.718 104.584C131.523 104.584 128.327 100.978 128.327 95.7687C128.327 90.7599 131.723 86.9531 136.718 86.9531C141.913 86.9531 144.511 90.9602 144.511 94.767V96.3698H130.524C130.524 98.173 131.723 102.781 136.918 102.781C139.116 102.781 141.514 101.579 142.513 99.7758L143.912 100.978ZM142.313 94.3662C142.313 91.3609 139.716 88.9567 136.519 88.9567C131.723 88.9567 130.524 93.5648 130.524 94.3662H142.313Z" fill="#C59949"/>
</g>
<mask id="mask8_215_10599" style="mask-type:luminance" maskUnits="userSpaceOnUse" x="0" y="0" width="308" height="113">
<path d="M307.952 0H0.0493164V113H307.952V0Z" fill="white"/>
</mask>
<g mask="url(#mask8_215_10599)">
<path d="M149.505 92.1623C149.505 90.9602 149.305 88.3556 149.305 87.3538H151.503C151.503 88.556 151.503 89.9584 151.703 90.3591C152.702 88.3556 154.5 86.9531 157.097 86.9531C157.497 86.9531 157.897 86.9531 158.296 87.1535L158.096 89.3574C157.697 89.157 157.497 89.157 157.297 89.157C153.501 89.157 151.902 91.7616 151.902 94.9673V104.184H149.704V92.1623H149.505Z" fill="#C59949"/>
</g>
<mask id="mask9_215_10599" style="mask-type:luminance" maskUnits="userSpaceOnUse" x="0" y="0" width="308" height="113">
<path d="M307.952 0H0.0493164V113H307.952V0Z" fill="white"/>
</mask>
<g mask="url(#mask9_215_10599)">
<path d="M172.083 78.5391H180.076C193.463 78.5391 193.863 89.5586 193.863 91.3618C193.863 93.1649 193.263 104.184 180.076 104.184H172.083V78.5391ZM174.481 101.981H179.476C186.27 101.981 191.665 98.7749 191.665 91.3618C191.665 83.9486 186.47 80.743 179.476 80.743H174.481V101.981Z" fill="#C59949"/>
</g>
<mask id="mask10_215_10599" style="mask-type:luminance" maskUnits="userSpaceOnUse" x="0" y="0" width="308" height="113">
<path d="M307.952 0H0.0493164V113H307.952V0Z" fill="white"/>
</mask>
<g mask="url(#mask10_215_10599)">
<path d="M211.446 97.1712C211.446 100.377 211.446 102.38 211.845 104.184H209.847C209.647 103.382 209.647 102.38 209.647 101.379C208.448 103.583 206.65 104.584 203.853 104.584C201.056 104.584 197.859 103.182 197.859 99.5755C197.859 94.3662 203.853 93.9655 207.05 93.9655H209.647V92.9638C209.647 90.1588 207.649 88.9567 204.852 88.9567C202.854 88.9567 201.255 89.5577 199.657 90.7599L198.458 89.3574C200.057 87.7545 202.654 86.9531 204.852 86.9531C208.848 86.9531 211.446 88.7563 211.446 92.9638V97.1712ZM207.05 95.7687C203.453 95.7687 199.857 96.7705 199.857 99.5755C199.857 101.579 201.855 102.781 203.653 102.781C208.249 102.781 209.447 99.7758 209.447 96.9709V95.7687H207.05Z" fill="#C59949"/>
</g>
<mask id="mask11_215_10599" style="mask-type:luminance" maskUnits="userSpaceOnUse" x="0" y="0" width="308" height="113">
<path d="M307.952 0H0.0493164V113H307.952V0Z" fill="white"/>
</mask>
<g mask="url(#mask11_215_10599)">
<path d="M214.643 87.355H217.241L222.835 101.781L228.23 87.355H230.428L223.834 104.185H221.636L214.643 87.355Z" fill="#C59949"/>
</g>
<mask id="mask12_215_10599" style="mask-type:luminance" maskUnits="userSpaceOnUse" x="0" y="0" width="308" height="113">
<path d="M307.952 0H0.0493164V113H307.952V0Z" fill="white"/>
</mask>
<g mask="url(#mask12_215_10599)">
<path d="M235.622 79.1418C236.621 79.1418 237.221 79.9433 237.221 80.7447C237.221 81.7465 236.421 82.3475 235.622 82.3475C234.823 82.3475 234.024 81.5461 234.024 80.7447C234.024 79.9433 234.823 79.1418 235.622 79.1418ZM234.623 87.3564H236.821V104.186H234.623V87.3564Z" fill="#C59949"/>
</g>
<mask id="mask13_215_10599" style="mask-type:luminance" maskUnits="userSpaceOnUse" x="0" y="0" width="308" height="113">
<path d="M307.952 0H0.0493164V113H307.952V0Z" fill="white"/>
</mask>
<g mask="url(#mask13_215_10599)">
<path d="M257.401 101.181C256.002 103.585 253.205 104.587 250.607 104.587C245.412 104.587 241.816 100.981 241.816 95.7715C241.816 90.5623 245.412 86.9559 250.607 86.9559C253.205 86.9559 256.002 87.9577 257.401 90.3619V76.7378H259.599V104.186H257.401V101.181ZM250.807 88.9594C246.811 88.9594 244.213 91.9647 244.213 95.7715C244.213 99.5782 246.811 102.584 250.807 102.584C254.803 102.584 257.8 99.5782 257.8 95.7715C257.8 91.9647 254.603 88.9594 250.807 88.9594Z" fill="#C59949"/>
</g>
<mask id="mask14_215_10599" style="mask-type:luminance" maskUnits="userSpaceOnUse" x="0" y="0" width="308" height="113">
<path d="M307.952 0H0.0493164V113H307.952V0Z" fill="white"/>
</mask>
<g mask="url(#mask14_215_10599)">
<path d="M273.385 86.9531C278.58 86.9531 282.177 90.5595 282.177 95.7687C282.177 100.978 278.58 104.584 273.385 104.584C268.19 104.584 264.594 100.978 264.594 95.7687C264.394 90.7599 268.19 86.9531 273.385 86.9531ZM273.385 102.581C277.382 102.581 279.979 99.5755 279.979 95.7687C279.979 91.962 277.382 88.9567 273.385 88.9567C269.389 88.9567 266.792 91.962 266.792 95.7687C266.592 99.5755 269.189 102.581 273.385 102.581Z" fill="#C59949"/>
</g>
<mask id="mask15_215_10599" style="mask-type:luminance" maskUnits="userSpaceOnUse" x="0" y="0" width="308" height="113">
<path d="M307.952 0H0.0493164V113H307.952V0Z" fill="white"/>
</mask>
<g mask="url(#mask15_215_10599)">
<path d="M287.971 89.3587H284.574V87.3552H287.971V81.9456C287.971 77.5378 290.768 76.3357 292.966 76.3357C293.965 76.3357 294.764 76.536 295.564 76.7364L295.164 78.5396C294.565 78.3392 293.965 78.1389 293.166 78.1389C291.168 78.1389 290.169 79.5414 290.169 82.5467V87.1548H294.165V89.1584H290.169V104.185H287.971V89.3587Z" fill="#C59949"/>
</g>
<mask id="mask16_215_10599" style="mask-type:luminance" maskUnits="userSpaceOnUse" x="0" y="0" width="308" height="113">
<path d="M307.952 0H0.0493164V113H307.952V0Z" fill="white"/>
</mask>
<g mask="url(#mask16_215_10599)">
<path d="M300.359 89.3587H296.963V87.3552H300.359V81.9456C300.359 77.5378 303.157 76.3357 305.355 76.3357C306.354 76.3357 307.153 76.536 307.952 76.7364L307.552 78.5396C306.953 78.3392 306.354 78.1389 305.554 78.1389C303.556 78.1389 302.557 79.5414 302.557 82.5467V87.1548H306.553V89.1584H302.557V104.185H300.359V89.3587Z" fill="#C59949"/>
</g>
<mask id="mask17_215_10599" style="mask-type:luminance" maskUnits="userSpaceOnUse" x="0" y="0" width="308" height="113">
<path d="M307.952 0H0.0493164V113H307.952V0Z" fill="white"/>
</mask>
<g mask="url(#mask17_215_10599)">
<path d="M133.122 34.0599C133.122 29.8524 140.914 21.8382 150.505 21.8382C154.302 21.8382 158.098 23.0404 158.098 26.8471C158.098 32.6574 145.11 43.4765 131.923 43.4765C126.528 43.4765 120.734 40.4712 120.734 34.6609C120.734 26.246 133.322 11.0191 155.9 11.0191C169.487 11.0191 175.481 16.629 177.879 19.2336C176.68 20.6361 161.495 38.067 156.499 42.8755C154.102 45.4801 151.904 46.6822 149.906 48.0847C147.908 49.2868 143.112 50.8897 135.919 50.489V51.2904C136.718 51.2904 140.914 52.0918 149.306 52.2921C154.901 52.4925 165.091 51.4907 172.484 46.8826C180.676 41.8737 185.871 35.0616 185.871 27.8489C185.871 25.645 185.272 22.239 183.074 19.0333C194.063 6.01023 204.253 5.40917 209.249 5.60952V5.20881C208.649 5.00846 207.65 4.80811 204.453 4.80811C198.459 4.80811 190.467 6.81165 180.476 16.4287C179.078 15.0262 172.084 8.61484 156.699 8.61484C138.317 8.61484 118.536 22.4393 118.536 36.4641C118.536 43.4765 124.93 46.6822 132.323 46.6822C146.709 46.6822 159.497 35.6627 159.497 27.4482C159.497 23.2407 155.9 20.8365 150.505 20.8365C141.913 20.8365 131.723 28.2496 131.723 34.2602C131.723 37.0652 133.921 37.4659 135.52 37.4659C137.118 37.4659 138.916 36.2638 139.716 35.8631C140.515 35.262 141.913 34.0599 141.913 32.8577C141.913 32.0563 141.514 31.2549 140.315 31.2549C138.517 31.2549 137.318 32.457 136.519 33.0581C135.719 33.6592 134.321 35.8631 135.32 36.8648C134.121 36.6645 133.122 35.8631 133.122 34.0599ZM178.878 37.2656C172.884 46.2815 161.295 51.8914 145.11 51.2904V51.09C152.503 49.6875 159.696 45.4801 164.492 40.6716C166.29 38.8684 175.881 27.8489 180.077 23.0404C181.675 26.246 181.675 33.0581 178.878 37.2656Z" fill="#C59949"/>
</g>
<mask id="mask18_215_10599" style="mask-type:luminance" maskUnits="userSpaceOnUse" x="0" y="0" width="308" height="113">
<path d="M307.952 0H0.0493164V113H307.952V0Z" fill="white"/>
</mask>
<g mask="url(#mask18_215_10599)">
<path d="M153.901 1.20213C128.126 1.20213 107.146 14.2252 107.146 30.2535C107.146 46.2819 128.126 59.305 153.901 59.305C179.676 59.305 200.656 46.2819 200.656 30.2535C200.656 14.2252 179.676 1.20213 153.901 1.20213ZM153.901 60.5071C127.526 60.5071 106.147 46.883 106.147 30.2535C106.147 13.6241 127.526 0 153.901 0C180.276 0 201.855 13.6241 201.855 30.2535C201.855 46.883 180.276 60.5071 153.901 60.5071Z" fill="#C59949"/>
</g>
</g>
<defs>
<clipPath id="clip0_215_10599">
<rect width="307.903" height="113" fill="white" transform="translate(0.0493164)"/>
</clipPath>
</defs>
</svg>
