<?xml version="1.0" encoding="UTF-8"?>
<svg id="Layer_1" data-name="Layer 1" xmlns="http://www.w3.org/2000/svg" baseProfile="tiny" version="1.2" viewBox="0 0 766 630.95">
  <line x1="399.62" y1="508.72" x2="398.33" y2="508.36" fill="#000" stroke-width="0"/>
  <path d="M399.62,508.72" fill="#000" stroke-width="0"/>
  <line x1="399.62" y1="508.72" x2="399.62" y2="508.72" fill="#000" stroke-width="0"/>
  <g>
    <path d="M383.99,187.37c2.62-7.22,4.89-13.57,7.22-19.9,2.29-6.22,4.63-12.41,7.11-19.07,47.98,17.41,95.51,34.65,143.63,52.12-2.46,7.1-4.76,13.76-7.29,21.08h29.23c-1.5,5.01-2.8,9.34-4.25,14.17h28.23c-1.35-4.46-2.66-8.79-4.2-13.86h28.07v-13.66c9.64,6.02,18.3,11.44,27.87,17.42-9.29,5.84-17.99,11.32-27.61,17.37v-12.96h-17.12c1.39,4.57,2.7,8.89,4.14,13.65h-50.59c1.43-4.57,2.8-8.92,4.37-13.93-6.91,0-13.2-.08-19.48.09-.86.02-2.13,1.06-2.47,1.92-2.01,5.08-3.79,10.24-5.79,15.75,14.57,5.41,28.71,10.66,43.57,16.18-3.1,4.05-5.88,7.66-9.13,11.92,9.03,3.3,17.53,6.4,26.77,9.77.32-5.05.61-9.58.94-14.92,8.9,3.15,17.44,6.18,26.49,9.38,1.53-3.91,3.01-7.7,4.79-12.28,6.73,8.66,13.01,16.74,19.87,25.57-10.82,2.34-20.78,4.5-31.62,6.85,1.51-4.55,2.73-8.25,4.13-12.49-5.28-1.95-10.32-3.81-15.94-5.88-.33,5.17-.6,9.6-.95,15.02-15.97-5.77-31.49-11.38-47.69-17.23,3.12-4.11,5.87-7.75,9.11-12.02-11.09-4.12-21.73-8.08-33.05-12.29-1.82,4.86-3.74,9.25-4.97,13.82-.3,1.1,1.41,3.13,2.65,4.2,10.08,8.71,20.28,17.29,30.43,25.92,1.24,1.05,2.4,2.2,4.03,3.7-4.28,2.69-8.17,5.13-12.67,7.96,7.42,6.21,14.4,12.05,21.93,18.35,1.95-4.62,3.73-8.82,5.85-13.83,7.39,6.08,14.49,11.91,21.83,17.95,2.82-3.24,5.39-6.2,8.63-9.92,3.39,10.48,6.49,20.05,9.96,30.76-10.93-1.46-21.01-2.8-32.15-4.28,2.98-3.73,5.48-6.87,8.26-10.34-4.35-3.66-8.4-7.06-13.03-10.95-2.01,4.69-3.81,8.88-5.99,13.97-12.91-10.97-25.48-21.66-38.52-32.74,4.57-2.84,8.48-5.27,12.94-8.04-9.39-7.85-18.27-15.27-27.58-23.05-.89,2.13-1.58,3.59-2.13,5.1-4.65,12.67-9.83,25.17-13.76,38.06-5.87,19.24-18.72,31.56-37.2,37.34-15.02,4.7-30.72,7.24-46.13,10.69-5.79,1.3-11.61,2.49-17.26,3.69-4.16-5.44-8.55-11.18-13.5-17.64-4.9,6.38-9.2,11.98-13.63,17.75-18.2-3.79-37.15-7.17-55.77-11.87-8.07-2.04-15.79-6.21-23.09-10.43-9.51-5.5-15.87-14.01-19.59-24.46-5.04-14.12-10.22-28.18-15.37-42.26-.67-1.82-1.49-3.59-2.49-5.98-9.32,7.79-18.2,15.22-27.56,23.04,4.42,2.78,8.32,5.23,12.82,8.06-12.84,10.95-25.33,21.6-38.42,32.76-2.02-4.76-3.79-8.95-5.94-14.01-4.5,3.74-8.61,7.16-13.16,10.94,2.72,3.4,5.24,6.55,8.28,10.34-11.04,1.49-21.15,2.86-32.08,4.34,3.42-10.63,6.54-20.34,9.91-30.82,3.27,3.74,5.86,6.71,8.69,9.95,7.29-6.03,14.29-11.81,21.79-18.01,2.01,4.9,3.75,9.14,5.74,13.99,7.43-6.25,14.36-12.07,21.83-18.36-4.51-2.96-8.21-5.4-12.38-8.14,4.84-4.3,9.32-8.42,13.95-12.37,6.97-5.95,14.14-11.67,20.97-17.76,1.2-1.07,1.91-3.72,1.52-5.31-.98-3.98-2.72-7.77-4.34-12.12-11.17,4.14-21.86,8.11-33.22,12.32,3.2,4.12,6,7.74,9.29,11.97-16.2,5.87-31.74,11.49-47.73,17.29-.34-5.29-.63-9.87-.96-15-5.57,2.02-10.53,3.82-16.07,5.84,1.43,4.03,2.73,7.71,4.44,12.51-10.89-2.35-20.93-4.51-31.82-6.86,6.87-8.81,13.15-16.88,19.93-25.58,1.74,4.55,3.14,8.23,4.69,12.31,8.91-3.17,17.45-6.21,26.99-9.6v15.3c9.57-3.49,18.09-6.59,27.32-9.95-3.14-4.03-5.94-7.63-9.24-11.87,14.69-5.47,28.81-10.72,43.69-16.25-2.04-5.52-3.94-10.94-6.1-16.25-.31-.76-1.82-1.42-2.79-1.44-5.97-.13-11.95-.07-18.74-.07,1.44,4.84,2.72,9.17,4.14,13.96h-50.6c1.46-4.56,2.85-8.91,4.37-13.7h-17.01v13.16c-9.64-6.05-18.28-11.47-27.81-17.45,9.25-5.85,17.85-11.28,27.27-17.23v12.97h28.68c-1.53,5.16-2.82,9.49-4.25,14.3h28.17c-1.35-4.54-2.65-8.88-4.17-14h29.37c-2.71-7.54-5.1-14.19-7.62-21.19,48-17.42,95.56-34.68,143.85-52.2,4.69,12.82,9.27,25.36,14.25,39ZM403.25,158.71c-.65,1.47-1.09,2.34-1.42,3.26-14.08,38.99-28.16,77.98-42.2,116.98-2.61,7.26-3.23,14.85-.82,22.1,2.45,7.36,5.13,14.97,9.41,21.32,7.41,11.01,16.62,20.8,24.14,31.74,5.65,8.22,11.79,10.1,21.52,7.96,15.74-3.47,31.94-4.89,47.01-11.21,14.04-5.89,23.93-15.33,29.09-30.24,10.35-29.89,21.57-59.48,32.41-89.19,3.12-8.55,6.2-17.11,9.44-26.06-43.05-15.62-85.58-31.05-128.59-46.65ZM247.19,210.5c7.15,19.55,14.08,38.53,21.15,57.88,13.25-4.82,25.96-9.43,38.98-14.17-7.19-19.65-14.12-38.59-21.16-57.83-13.21,4.78-25.68,9.3-38.97,14.11ZM341.92,241.58c4.2-1.48,7.55-3.2,11.1-3.8,12.16-2.07,18.76-9.38,20.74-21.18.47-2.78.84-5.95-.02-8.52-3.81-11.36-8.08-22.56-12.21-33.81-.54-1.48-1.26-2.9-1.98-4.53-13.17,4.8-25.76,9.38-38.72,14.1,7.13,19.5,14.01,38.36,21.1,57.74ZM342.48,350.51c-7.59-20.76-14.98-41-22.57-61.76-13.24,4.81-25.95,9.43-38.58,14.02,7.16,30.69,29.85,48.46,61.15,47.74ZM236.28,205.31c.76,2.3,1.32,4.16,1.99,5.99,13.6,37.23,27.31,74.43,40.74,111.72,3.62,10.05,9.72,17.87,18.9,23.01,5.63,3.16,11.56,6.34,17.76,7.79,16.36,3.82,32.93,6.72,49.44,9.87.92.18,2.36-.34,3-1.04,3.25-3.57,6.42-7.23,9.33-11.07.56-.74-.13-2.43-.25-3.67-.52-.1-1.05-.2-1.57-.3-.56.82-1.19,1.6-1.68,2.47-4.99,8.79-11.99,10.02-21.64,7.89-14.94-3.3-30.28-4.76-44.52-10.91-12.52-5.41-21.32-13.92-26.02-27.23-12.63-35.81-25.9-71.39-38.91-107.07-.6-1.64-1.09-3.32-1.72-5.23,40.76-14.78,80.94-29.36,121.56-44.09,5.06,13.75,9.92,26.98,14.78,40.2.61-.14,1.22-.28,1.83-.43-.13-2.16.2-4.47-.46-6.45-2.38-7.11-5.09-14.1-7.67-21.13-2.05-5.58-4.09-11.16-6.23-17.01-43.12,15.65-85.65,31.08-128.66,46.69Z" fill="#000" stroke-width="0"/>
    <path d="M211.47,519.24c-.91-2.27-1.96-4.49-2.71-6.81-3.32-10.37,2.08-20.83,12.23-23.84,8.56-2.54,16.73,1.85,19.39,10.36,1.05,3.38-.29,6.12-3.39,6.5-1.94.23-5.33-1.52-6.05-3.23-1.53-3.62-1.97-7.54-7.21-7.31-4.6.2-8.9,3.72-10.37,8.79-1.55,5.36-.58,10.7,3,14.6,5.22,5.69,10.61,11.87,17.21,15.52,23.89,13.22,50.26,19.17,76.88,24.16,16.52,3.1,33.03,6.35,49.41,10.14,9.15,2.12,17.43,6.51,23.96,13.94,13.9-14.11,32.38-16.27,50.26-20.07,23.11-4.91,46.32-9.47,69.21-15.28,10.38-2.64,20.25-7.59,30.07-12.1,8.34-3.83,14.89-10.12,19.46-18.11,3.29-5.74,4.01-12.07-.78-17.19-2.2-2.34-6.17-3.78-9.49-4.12-3.65-.37-4.3,3.34-5.05,6.34-.85,3.41-3.1,5.31-6.66,4.04-3.76-1.34-4.25-4.22-2.77-7.72,3.07-7.24,9.34-10.98,16.69-9.81,8.22,1.3,14.92,7.93,15.14,16.2.12,4.79-1.38,9.63-2.23,14.89,2.08-1.57,4.35-3.04,6.35-4.82,8.35-7.4,16.29-15.31,24.98-22.27,12.57-10.06,26.54-17.24,43.24-17.3,8.62-.03,16.47,2.27,23.27,7.67,8.77,6.95,12.05,17.86,8.46,27.71-3.27,8.96-14.44,16.62-24.4,16.07-2.18-.12-5.11-2.08-6.07-4-.84-1.69-.17-5.35,1.22-6.63,1.56-1.44,5.16-2.28,7.03-1.47,5.25,2.28,10.08,2.92,14.35-1.25,4.48-4.38,5.12-10.11,3.41-15.82-3.16-10.5-11.33-15.35-21.44-17.06-14.9-2.53-27.91,2.95-40.04,10.81-5.29,3.43-10.55,7.18-14.94,11.65-30.69,31.23-68.46,48.36-110.84,56.6-18.31,3.56-36.66,6.98-54.82,11.22-7.35,1.71-14.47,4.97-21.24,8.41-3.54,1.79-6.49,5.19-9.02,8.41-2.38,3.03-3.77,3.82-6.13.14-4.86-7.56-12.35-11.86-20.65-14.03-14.64-3.83-29.43-7.21-44.29-10.08-27.7-5.34-55.21-11.17-80.72-23.84-18.08-8.97-33.93-21.01-48.38-35.01-9.05-8.77-19.15-16.06-30.89-20.83-8.81-3.58-17.92-5.22-27.39-3.29-7.28,1.49-13.43,4.93-17.66,11.24-3.46,5.17-4.32,10.77-2.17,16.67,2.55,7.02,9,9.82,15.67,6.56,3.42-1.67,6.77-2.14,8.93,1.02,1.26,1.83,1.62,5.2.83,7.3-1.38,3.68-4.98,3.74-8.53,3.12-17.9-3.1-27.8-17.81-21.45-32.72,5-11.74,14.93-17.09,27.15-18.35,14.27-1.47,27.06,3.22,38.69,10.89,6.91,4.56,13.23,10.07,19.55,15.47,7.07,6.04,13.82,12.45,20.71,18.69.35-.26.71-.52,1.06-.78Z" fill="#000" stroke-width="0"/>
    <path d="M266.77,432.43c2.08-4.02,3.32-6.87,5.01-9.43.49-.75,2.25-.86,3.44-.9,3.65-.13,7.5.6,10.9-.34,2.18-.6,4.61-3.32,5.17-5.53.3-1.17-3.05-4.61-4.93-4.76-7.23-.57-14.53-.23-22.49-.23.92,12.91-2.04,25.54,2.59,38.2h-15.65c2.13-15.8,2.19-31.56.25-47.17,12.87,0,26.31-.59,39.66.23,7.61.46,11.99,6.23,12.33,12.88.38,7.52-3.26,12.79-10.72,15.54-.73.27-1.45.58-2.99,1.19,8.57,9.06,12.14,23,28.34,22.34-2.52,5.42-6.95,6.38-11.68,6.11-6.73-.38-11.94-3.87-15.94-9.14-2.81-3.71-5.59-7.47-8.11-11.39-3.31-5.15-6.56-10.16-15.18-7.59Z" fill="#000" stroke-width="0"/>
    <path d="M501.37,431.81c-5.89.49-11.9,1-18.68,1.56,2.05-3.31,3.71-6.14,5.55-8.85.5-.73,1.54-1.53,2.34-1.54,7.44-.12,14.89-.07,21.4-.07.44,6.36.95,12.07,1.13,17.8.03,1.12-.93,2.78-1.92,3.33-12.36,6.96-25.42,8.73-38.97,4.23-9.06-3.01-14.3-9.51-15.13-19.14-.9-10.3,2.23-19.01,11.79-23.95,12.83-6.63,26.06-5.63,39.12-.42,2.09.79,1.93,2.57,1.77,3.77-.39,2.92-1.44,5.75-2.03,7.9-3.54-1.48-5.58-4.72-15.44-5.95-7.32-.95-11.33-.06-17.15,3.18-5.24,2.92-7.59,7.69-7.13,13.69.44,5.68,3.44,9.68,8.72,11.73,7.48,2.89,15,2.4,22.46-.25,2.62-.95,3.51-3.49,2.19-7.02Z" fill="#000" stroke-width="0"/>
    <path d="M607.59,444.57c1.7-3.55,3.19-6.64,5.04-10.5,7.14,6.19,15.29,7.66,23.95,6.94,1.97-.16,4.23-.24,5.77-1.25,1.72-1.13,3.61-3.17,3.83-5.01.13-1.1-2.62-3.3-4.38-3.71-3.52-.82-7.27-.65-10.9-1.06-4.78-.54-9.62-.89-14.28-1.98-4.39-1.03-7.97-3.64-8.75-8.55-.86-5.43.27-10.3,4.87-13.85,1.05-.81,2.17-1.62,3.39-2.08,13.2-5.02,26.04-2.75,39.48,1.68-1.74,3.7-3.2,6.78-4.37,9.26-6.4-1.49-12.21-3.24-18.15-4.07-3.35-.47-7.05.1-10.31,1.11-1.77.55-2.94,3.01-4.38,4.61,1.57,1.25,3.02,3.33,4.74,3.59,5.25.79,10.62.75,15.92,1.27,3.13.31,6.33.71,9.29,1.68,10.01,3.28,12.28,15.38,4.29,22.29-1,.86-2.09,1.73-3.3,2.22-14.16,5.75-27.85,4.42-41.74-2.58Z" fill="#000" stroke-width="0"/>
    <path d="M173.25,449.55c3.86-8.01,7.9-15.59,11.19-23.49,3.25-7.8,8.7-14.94,8.13-24.32h16.75c5.32,16.92,14.08,31.76,21.05,47.75h-14.42c-.07-1.33.09-2.8-.25-4.14-.93-3.58-2.39-6.32-7.1-5.83-4.44.47-8.97.09-13.46.11-5.63.02-7.34,1.79-7.15,7.45.02.77.17,1.54.27,2.46h-15.01ZM201.46,414.5c-2.63,5.73-4.67,10.17-6.9,15.04h14.28c-2.47-5.03-4.64-9.45-7.38-15.04Z" fill="#000" stroke-width="0"/>
    <path d="M567.75,401.75c1.11,3.82,1.63,7.11,2.98,10.02,5.82,12.49,11.88,24.86,18.03,37.62h-14.89c0-.85.1-1.93-.02-2.98-.56-5.19-2.37-6.77-7.67-6.78-4.32,0-8.65-.02-12.97,0-5.79.03-7.52,1.95-7.14,7.88.04.61.11,1.22.19,2.1h-14.34c3.58-7.92,7.39-15.57,10.53-23.49,3.12-7.88,8.84-14.94,8.04-24.38h17.26ZM559.49,414.5c-2.58,5.59-4.68,10.13-6.97,15.08h14.32c-2.49-5.11-4.68-9.61-7.35-15.08Z" fill="#000" stroke-width="0"/>
    <path d="M130.02,430.63c1.1-2.09,1.99-3.48,2.6-5,1.4-3.53,3.46-5.35,7.58-4.17,1.66.48,3.63-.03,5.44-.21,2.96-.29,5.74-1.73,4.97-4.85-.49-1.98-3.17-4.65-5.09-4.84-6.22-.61-12.53-.23-18.63-.23v38.2h-13.95c2.05-15.85,2.25-31.6.21-47.4,12.24,0,25.02-.56,37.73.22,7.21.44,11.13,6.45,11.08,13.75-.05,7.65-4.27,13.42-11.87,14.36-6.34.78-12.86.16-20.07.16Z" fill="#000" stroke-width="0"/>
    <path d="M411.1,414.55c-4.43,11.39-8.85,22.77-13.58,34.93h-13.87c7.6-15.54,16.15-30.42,20.56-47.73h16.22c4.46,15.78,13.26,31.81,20.6,47.6h-13.06c-5.09-11.97-9.98-23.46-14.87-34.96l-2,.15Z" fill="#000" stroke-width="0"/>
    <path d="M355.81,449.55h-13.52v-38.81c-5.86.68-12.14,1.42-19.2,2.24,1.47-3.45,2.93-7.17,4.69-10.73.36-.73,1.88-1.24,2.86-1.25,15.28-.08,30.55-.05,46.88-.05-2.51,4.65-4.65,8.64-6.29,11.66-5.63-.73-10.45-1.35-15.43-2v38.93Z" fill="#000" stroke-width="0"/>
    <path d="M338.73,572.15c-.57.14-1.16.46-1.7.38-27.68-4.09-55.52-7.23-82.43-15.48-25.22-7.74-47.67-20.33-67.79-37.36-6.71-5.68-14.27-10.33-21.33-15.61-1.23-.92-1.88-2.63-2.8-3.98,1.73-.05,3.98-.83,5.12-.04,7.37,5.13,14.96,10.08,21.63,16.04,28.08,25.11,61.34,38.97,97.87,45.82,15.55,2.92,31.2,5.33,46.79,7.98,1.59.27,3.16.65,4.74.97-.04.42-.07.85-.11,1.27Z" fill="#000" stroke-width="0"/>
    <path d="M429.12,570.7c7.48-1.21,15.01-2.19,22.44-3.69,18.6-3.75,37.35-6.99,55.68-11.82,27.53-7.25,51.46-21.47,72.75-40.38,6.43-5.71,13.86-10.32,21-15.19.92-.63,2.84.21,4.3.37-.59,1.2-.87,2.82-1.82,3.55-11.12,8.45-22.35,16.76-33.55,25.11-24.96,18.61-53.24,29.48-83.59,35.1-17.36,3.22-34.87,5.59-52.31,8.33-1.53.24-3.09.36-4.63.54-.09-.64-.17-1.28-.26-1.92Z" fill="#000" stroke-width="0"/>
    <path d="M342.88,517.13c-6.82-6.99-4.95-13.92,4.22-15.85,4.1-.87,8.68-.89,12.79-.04,9.34,1.92,11.28,8.91,4.56,15.93,4.39,2.12,6.8,5.5,5.62,10.42-1.17,4.88-5.14,7.05-9.58,7.48-4.88.48-9.93.42-14.78-.28-4.24-.61-7.83-3.02-8.65-7.83-.78-4.6,1.56-7.6,5.83-9.82ZM353.71,518.97c-2.29.36-4.71.17-6.44,1.17-1.9,1.09-4.13,3.15-4.39,5.04-.21,1.54,2.13,4.79,3.59,4.95,4.92.54,9.99.39,14.9-.28,1.33-.18,3.21-3.22,3.12-4.85-.08-1.63-2.02-3.75-3.68-4.58-2.12-1.05-4.78-1.02-7.11-1.44ZM353.56,504.81c-5.79,0-9.78,2.16-9.22,5.36.91,5.15,5.35,4.8,9.09,4.79,3.87,0,8.56.55,9.43-4.93.51-3.21-3.38-5.22-9.3-5.22Z" fill="#000" stroke-width="0"/>
    <path d="M267.69,488.33c-.92-2.29-2.46-4.52-2.46-6.75,0-1.4,2.06-3.59,3.62-4.07,5.35-1.67,8.69,1.86,11.36,5.12,3.41-1.06,6.56-2.05,9.71-3.03.35.5.69,1,1.04,1.5-6.48,5.97-5.37,13.89-6.06,21.3-1.97,20.97-28.03,34.32-46.21,23.6-.86-.51-1.83-.98-2.43-1.72-.75-.92-1.17-2.11-1.74-3.19,1.28.12,2.9-.22,3.79.44,12.23,9.1,29.22,3.91,37.6-6.43,6.64-8.2,7.69-18.95,2.17-27.93-1.08-1.76-3.26-3.45-5.19-3.83-1.05-.2-2.65,2.44-5.18,4.98Z" fill="#000" stroke-width="0"/>
    <path d="M487.1,483.48c3.44-4.18,6.89-7.86,12.45-5.81,1.49.55,3.33,2.91,3.24,4.32-.15,2.19-1.82,4.27-2.76,6.22-2.21-2.33-3.97-5.11-4.78-4.86-2.09.66-4.41,2.28-5.48,4.17-5.97,10.55-3.95,21.99,5,30.43,9.45,8.92,23.1,10.79,33.2,4.72,1.58-.95,3.64-1.11,5.48-1.64-1.21,1.56-2.11,3.63-3.69,4.61-18.23,11.43-45.01-2.23-46.66-23.71-.19-2.49-.1-5.05-.66-7.46-1.05-4.5-2.47-8.91-3.96-14.13,2.9-2.2,5.82.55,8.62,3.13Z" fill="#000" stroke-width="0"/>
    <path d="M420.62,525.53c4.27,4.86,9.31,6.43,15.1,5.68,4.98-.65,8.29-3.97,7.99-7.95-.3-3.98-4.06-7.1-8.91-6.98-2.28.06-4.57.75-6.8,1.33-3.84,1.01-5.92-.84-5.27-4.81q1.99-12,14.32-12c3.92,0,7.84,0,12.4,0-1.14,2.26-2,3.97-2.75,5.45-3.9-.28-7.46-.7-11.02-.76-6.59-.11-6.59-.02-6.91,6.52,3.26,0,6.54-.27,9.76.06,5.89.6,10.1,4.8,10.64,10.14.58,5.78-2.21,10.21-8.01,12.28-5.85,2.09-11.76,2.05-17.56-.27-4.86-1.94-5.07-2.56-2.98-8.7Z" fill="#000" stroke-width="0"/>
    <path d="M405.75,501.25c-.73.86-.39,15.09-.39,22.84,0,0,3.22.33,7.74-.49l-2.5,5.43s-5.17.25-5.18.25c.2,1.38.44,4.49.64,5.87h-7.14c.12-1.74.23-3.47.4-6.03-5.25,0-18.45.14-18.45.14l-4.03-4.84c5.52-5.56,21.75-23.33,21.75-23.33,0,0,3.55.25,7.17.15ZM399.81,505.74l-16.52,18.96,16.33-.46.19-18.5Z" fill="#000" stroke-width="0"/>
    <path d="M477.94,54.8c5.45,1.2,10.86,2.1,16.1,3.63,5.61,1.64,3.22,10.18.14,11.09,1.98.89,3.73,4.53,1.64,8.06-1.25,2.12-5.7,1.85-8.57,1.55-4.73-.49-9.38-1.88-14.1-2.91,1.61-7.18,3.12-13.94,4.8-21.43ZM482.54,68.89c1.24-2.32,2.48-3,3.42-3.16,1.46-.25,2.42.1,4.26.59,1.64.44,3.01.4,3.27-1.33.61-1.85-1.34-2.38-2.29-2.68-2.8-.87-5.75-1.29-9.13-1.98-.95,4.37-1.82,8.32-2.76,12.66,3.59.76,6.63,1.59,9.72,1.97,1.01.12,2.6.47,3.26-1.44.3-1.9-1.31-2.32-2.27-2.69-2.29-.88-4.77-1.28-7.48-1.94Z" fill="#000" stroke-width="0"/>
    <path d="M289.4,77c-1.27-7.08-2.48-13.88-3.83-21.41,5.2-.8,10.52-2.03,15.89-2.34,5.49-.31,9.62,3.83,10.46,9.4.85,5.72-1.86,10.26-7.49,11.79-3.99,1.08-8.13,1.64-12.21,2.38-.93.17-1.9.13-2.82.18ZM291.56,59.35c.77,4.29,1.5,8.27,2.28,12.61,4.94-1.17,10.4.05,12.55-5.29.75-1.86.11-5.35-1.26-6.8-3.88-4.12-8.56-1.49-13.56-.51Z" fill="#000" stroke-width="0"/>
    <path d="M224.78,95.62c-.02-.07-1.25-4.93-1.27-5.01-1.15-3.4-2.22-6.53-3.37-9.92-.02-.05-2.29-5.55-2.31-5.6,4.03-1.56,8.3-3.13,12.83-4.59,3.56-1.14,7.14-1.77,9.69,1.97,4.19,6.16-1.65,9.5-2.22,9.62,2.84,1.85,5.67,3.71,8.79,5.74-3.18,2.87-7.88,1.33-8.99.18-1.51-1.28-2.08-1.7-5.05-4.06-1.47-1.34-4.42-.85-4.44-.7s-.09-2.14-.09-2.14c0,0,2.98-.91,4.96-1.94,1.25-.49,3.74-1.8,2.89-3.56-.74-1.61-2.93-1.08-4.23-.81-2.55.54-4.98,1.66-8.12,2.77,1.89,5.45,3.66,10.57,5.64,16.31-1.48.54-3.21,1.17-4.71,1.72Z" fill="#000" stroke-width="0"/>
    <path d="M619.11,114.59c-.08,6.2-4.96,10.83-11.36,10.78-7.93-.07-15.76-7.16-15.51-14.04.22-6.13,5.3-10.68,11.69-10.5,7.93.23,15.27,6.88,15.18,13.76ZM614,113.96c.12-4.23-4.46-8.5-9.24-8.61-4.04-.1-7.42,3.14-7.4,7.09.02,4,4.5,8.14,9.05,8.36,4.09.2,7.48-2.85,7.59-6.84Z" fill="#000" stroke-width="0"/>
    <path d="M631.78,133.43c3.63,5.96,6.34,10.57,11.88,11.29.43-.49.86-.98,1.29-1.47-1.33-1.52-2.62-3.07-3.99-4.56-1.67-1.83-4.01-3.35-4.91-5.49-.81-1.93-.9-5.19.24-6.61,1.2-1.48,4.49-2.4,6.45-1.91,5.86,1.47,9.86,5.69,13.38,10.91-1.6.84-2.86,1.5-4.08,2.14-3.5-3.6-5.86-8.32-12.38-7.62,1.16,1.57,2.21,3.23,3.5,4.68,1.76,1.97,4.18,3.52,5.41,5.75.95,1.73,1.4,4.91.42,6.21-1.2,1.61-4.29,2.96-6.25,2.62-6.06-1.05-10.36-5.13-13.2-10.42-.49-.91,1.14-2.96,2.24-5.53Z" fill="#000" stroke-width="0"/>
    <path d="M187.75,110.83c-6.3-.04-11.14-4.83-11.16-11.03-.02-6.83,7.41-13.13,15.59-13.23,6.51-.08,11.68,4.99,11.48,11.26-.22,6.78-7.9,13.05-15.91,13ZM198.42,97.88c-.11-3.97-3.43-6.96-7.59-6.84-4.79.14-9.04,3.96-9.07,8.14-.03,4.15,2.99,7.06,7.29,7.04,4.98-.02,9.48-4.03,9.36-8.35Z" fill="#000" stroke-width="0"/>
    <path d="M352.45,65.12c-.94,2.16-.91,2.22-1.96,4.21,0,0-6.8.33-17.61,1.11q.6-11.11-1.74-21.59l18.1-1.4c.35,1.32.82,1.91,2.08,3.49-6.3.73-8.11.95-14.44,1.5.22,1.66.72,4.83.72,4.83,1.55-.19,11.22-.62,14.22-.94,0,0-.39,1.46-1.16,4.53l-12.4.86.14,4.39c2.75-.03,11.24-.56,14.05-1.01Z" fill="#000" stroke-width="0"/>
    <path d="M455.46,72.82c-1.52,0-2.83-.08-4.54-.15-.13,0-1.37-3.51-2.45-4.35-1.57-.34-8.77-.92-10.28-1.03-1.51,1.42-2.9,3.44-3.06,3.41-1.41-.3-5.55-.52-5.07-1.03,3.2-3.35,11.14-16.21,12.06-19.91,3.14.49,7.15.26,7.15.26-.4,4.45,4.06,18.26,6.19,22.8ZM444.39,54.95c-1.83,3.25-2.97,5.27-4.39,7.79,2.78.22,4.68.37,7.2.56-.95-2.83-1.67-4.97-2.81-8.35Z" fill="#000" stroke-width="0"/>
    <path d="M527.74,67.65c1.87.3,3.33.82,4.38,1.27,1.29.55,1.76.82,1.72,1.01-.54,2.25-.3,12.56,2.62,22.73l-4.51-1.04c-.37-1.55-1.24-3.77-1.31-5.47-2.96-.92-8.25-2.3-10.11-2.88-1.77,2.05-2.82,3.15-3.49,3.78-1.67-.58-3.34-1.16-5.01-1.74,5.36-6.03,15.27-13.86,15.71-17.66ZM522.95,79.97c2.67.8,4.59,1.38,7.33,2.2-.54-3.16-.92-5.41-1.46-8.6-2.31,2.52-3.82,4.17-5.87,6.39Z" fill="#000" stroke-width="0"/>
    <path d="M574.15,101.18c-1.32,4.31-4.13,4.93-7.85,4.18-6.58-1.34-11.81-6.16-12.26-11.51-.39-4.63,2.27-8.97,6.59-10.72,6.15-2.5,13.48.04,19.24,6.97-.94,1.28-1.96,2.67-3.05,4.16-5.4-6.7-10.07-9.29-13.73-6.84-1.95,1.31-4.15,4.85-3.67,6.71,1.94,7.39,8.55,7.02,14.72,7.07Z" fill="#000" stroke-width="0"/>
    <path d="M106.39,137.92c4.26-3.32,8.55-6.97,13.21-10.06,1.12-.74,3.49.39,5.83.75-4.43,3.85-7.98,6.9-11.4,10.09-.1.09,1.21,1.69,2.07,2.87,3.03-2.2,5.8-4.22,8.59-6.26.39.81.95,2.92.74,3.27-.74,1.18-3.47,3.77-6.48,6.86,1.76,2.1,3.53,4.19,5.29,6.29-1.44,1.13-2.92,2.29-4.39,3.45-4.53-5.81-8.88-11.39-13.46-17.27Z" fill="#000" stroke-width="0"/>
    <path d="M320.71,509.41h-4.96q6.43-8.56,10.51-8.09v33.89h-6.83c.42-8.39.83-16.78,1.28-25.8Z" fill="#000" stroke-width="0"/>
    <path d="M403.32,51.02h-8.12c.55-3.59,1.85-5.31,5.61-4.91,5.57.6,11.2.66,17.46.98-.92,1.86-1.61,3.26-2.33,4.74-2.32-.28-4.38-.53-7.22-.87v17.27h-6.31c.3-5.66.59-11.06.92-17.21Z" fill="#000" stroke-width="0"/>
    <path d="M139.53,113.81c1.69-.96,3.24-1.84,4.61-2.62,3.03,5.02,5.91,9.79,9.09,15.06,4.38-2.95,8.3-5.59,12.23-8.23.39,1.27.57,2.76.83,4.24-1.53,1.2-7.55,5.52-15.47,10.03-3.76-6.16-7.52-12.32-11.28-18.49Z" fill="#000" stroke-width="0"/>
    <path d="M385.67,488.51c-3.78-3.37-7.55-6.74-11.92-10.65v9.31c-.37.36-.74.71-1.11,1.07-1-.93-2.8-1.8-2.87-2.8-.32-4.43-.14-8.9-.14-13.24,3.69-2.24,4.84.82,6.63,2.51,1.88,1.77,3.86,3.44,6.76,6.01,0-3.07-.18-5,.08-6.86.12-.87,1.07-1.62,1.64-2.43.65.87,1.83,1.72,1.87,2.61.19,4.45.09,8.91.09,13.37-.34.37-.69.73-1.03,1.1Z" fill="#000" stroke-width="0"/>
    <path d="M330.78,482.15c-2.32-.39-4.82-.37-6.9-1.3-2.16-.97-5.15-2.58-5.55-4.4-.75-3.38,2.41-4.89,5.41-5.04,3.24-.16,5.01.2,8.32.67.21.03.62.11.82.42.37.59.12,2.04-.59,2.71-.19.18-.7.14-.86.12-2.39-.25-6.77-1.27-9.12-.42-.75.27-1.24.86-.02,1.75,1.6,1.24,2.83,1.2,4.37,1.56,2.01.28,3.91.19,5.72.91,3.22,1.27,3.63,4.95,1,7.21-2.54,2.18-12.08,1.73-14.36-.54-.29-.22-.45-.45-.48-.72-.04-.33.12-.73.51-1.26.08-.15.58-.67,1.01-.95.38-.25.8-.02.87,0,2.79,1.32,6.69,1.92,9.57,1.56,1.78-.06,1.75-2.08.29-2.29Z" fill="#000" stroke-width="0"/>
    <path d="M433.58,471.83l12.36-.15q.87,1.4,1.76,2.93l-9.85.11-.33,3.28c-.1-.14,8.99.11,8.99.11l-1.58,3.09-7.66-.15s-.05,2.16-.05,3.1l10.96.14-1.83,3.14s-11.74.01-12.78-.06v-15.54Z" fill="#000" stroke-width="0"/>
    <path d="M417.52,476.77c-3.97-2.02-7.85-3.9-11.18-.08-.97,1.11-1.16,4.2-.31,5.36,3.34,4.55,7.65,2.36,11.73.81-.25,4.27-2.67,5.75-8.2,5.08-5.41-.66-8.92-4.69-8.16-9.39.87-5.42,7.03-8.63,13.41-6.91,2.38.64,5.32,1.11,2.72,5.13Z" fill="#000" stroke-width="0"/>
    <path d="M404.86,439.6c2.5-2.4,4.75-4.57,7.38-7.09,2.27,2.16,4.6,4.38,7.26,6.92-2.52,2.37-4.87,4.56-7.47,7-2.31-2.2-4.67-4.44-7.18-6.83Z" fill="#000" stroke-width="0"/>
    <path d="M353.84,487.59h-3.88v-15.72c2.72-.84,4.15-.64,3.94,2.73-.26,4.13-.06,8.28-.06,12.98Z" fill="#000" stroke-width="0"/>
    <path d="M403.25,158.71c43,15.6,85.54,31.03,128.59,46.65-3.24,8.95-6.32,17.51-9.44,26.06-10.85,29.72-22.06,59.31-32.41,89.19-5.16,14.9-15.05,24.34-29.09,30.24-15.07,6.32-31.27,7.74-47.01,11.21-9.72,2.14-15.87.27-21.52-7.96-7.52-10.94-16.73-20.73-24.14-31.74-4.28-6.36-6.96-13.96-9.41-21.32-2.42-7.25-1.8-14.84.82-22.1,14.04-39,28.12-77.99,42.2-116.98.33-.91.78-1.79,1.42-3.26ZM505.1,260.52c-7.56-2.73-14.65-5.29-22.04-7.97-5.17,14.19-10.1,27.72-15.19,41.68,7.51,2.74,14.59,5.32,21.98,8.01,5.14-14.06,10.04-27.46,15.25-41.72ZM406.76,166.59c-5.16,14.16-10.12,27.77-15.21,41.75,7.6,2.75,14.56,5.27,22,7.96,5.11-14.04,10.08-27.68,15.18-41.7-7.45-2.72-14.27-5.21-21.97-8.02ZM501.85,201.09c-5.2,14.29-10.15,27.9-15.18,41.75,6.5,2.36,12.33,4.28,17.99,6.62,3.09,1.27,4.38.52,5.45-2.52,4.09-11.58,8.41-23.08,12.59-34.63.37-1.01.39-2.15.61-3.44-7.11-2.58-13.94-5.05-21.46-7.78ZM445.25,227.81c5.2-14.32,10.15-27.93,15.18-41.78-7.74-2.78-14.69-5.27-22-7.89-5.2,14.25-10.16,27.86-15.21,41.72,7.61,2.75,14.44,5.21,22.04,7.95ZM454.91,231.31c7.48,2.71,14.55,5.27,22.04,7.99,5.16-14.19,10.12-27.81,15.18-41.72-7.69-2.78-14.64-5.29-21.98-7.94-5.15,14.07-10.09,27.59-15.24,41.67ZM394.72,267.74c5.17-14.13,10.16-27.77,15.28-41.76-7.62-2.75-14.6-5.27-22.05-7.96-4.91,14.12-9.64,27.7-14.52,41.73,7.21,2.7,13.99,5.25,21.3,7.99ZM461.63,281.18c4-10.94,7.8-21.33,11.76-32.16-7.52-2.74-14.49-5.28-21.99-8.01-3.98,10.9-7.81,21.42-11.74,32.18,7.49,2.72,14.34,5.21,21.97,7.99ZM441.69,237.48c-7.61-2.76-14.57-5.28-22-7.97-3.99,10.91-7.79,21.31-11.76,32.17,7.4,2.68,14.48,5.25,21.99,7.98,3.99-10.92,7.74-21.17,11.76-32.17ZM452.32,348.26c-3.44-7.38-6.2-13.6-9.3-19.63-.5-.97-2.66-1.78-3.86-1.58-6.07,1.03-12.09,2.37-18.1,3.71-1.04.23-2.55.76-2.86,1.53-2.97,7.62-5.72,15.32-9.03,24.34,15.16-2.95,28.78-5.59,43.14-8.38ZM372.34,319.11c9.19,11.56,17.79,22.39,27.08,34.09,3.23-8.8,6.03-16.09,8.49-23.5.4-1.21-.33-3.21-1.18-4.37-3.56-4.82-7.25-9.56-11.18-14.07-.84-.97-3.22-1.65-4.33-1.17-5.94,2.56-11.7,5.53-18.88,9.01ZM452.22,323.62c2.91,6.21,6.05,12.9,9.29,19.83,14.47-6.1,21.24-17.3,24.38-31.72-7.23-2.61-14.19-5.12-21.49-7.75-1.52,3.98-2.41,7.81-4.36,10.98-1.92,3.11-4.93,5.55-7.82,8.67ZM370.1,269.52c-6.73,13.32-8.97,26.19-1.6,39.99,6.77-3.26,13.3-6.41,20.51-9.88-5.22-7.98.23-14.84,2.04-22.27-7.32-2.73-14.11-5.27-20.95-7.83ZM422.93,318.9l.97,1.68c7.98-2.55,15.99-5,23.9-7.75,1.37-.48,2.82-1.97,3.38-3.34,2.41-5.97,4.49-12.08,6.89-18.66-7.43-2.7-14.5-5.26-21.95-7.97-4.54,12.42-8.86,24.23-13.18,36.04ZM411.48,316.17c.59-.24,1.18-.48,1.77-.72,4.33-11.92,8.66-23.84,13.12-36.13-7.57-2.75-14.52-5.28-21.97-7.98-2.45,6.76-4.8,12.94-6.86,19.21-.41,1.24-.1,3.1.59,4.25,4.34,7.19,8.87,14.26,13.35,21.37Z" fill="#fff" stroke-width="0"/>
    <path d="M247.19,210.5c13.29-4.81,25.76-9.33,38.97-14.11,7.04,19.24,13.97,38.18,21.16,57.83-13.02,4.73-25.73,9.35-38.98,14.17-7.07-19.35-14.01-38.33-21.15-57.88Z" fill="#fff" stroke-width="0"/>
    <path d="M341.92,241.58c-7.08-19.39-13.97-38.24-21.1-57.74,12.96-4.72,25.55-9.3,38.72-14.1.72,1.64,1.44,3.05,1.98,4.53,4.13,11.25,8.4,22.45,12.21,33.81.86,2.56.49,5.73.02,8.52-1.98,11.8-8.58,19.11-20.74,21.18-3.54.6-6.9,2.33-11.1,3.8Z" fill="#fff" stroke-width="0"/>
    <path d="M342.48,350.51c-31.31.72-54-17.05-61.15-47.74,12.64-4.59,25.34-9.21,38.58-14.02,7.59,20.77,14.99,41.01,22.57,61.76Z" fill="#fff" stroke-width="0"/>
    <path d="M236.28,205.31c43.01-15.61,85.54-31.04,128.66-46.69,2.14,5.85,4.18,11.43,6.23,17.01,2.58,7.04,5.3,14.03,7.67,21.13.66,1.98.34,4.29.46,6.45-.61.14-1.22.28-1.83.43-4.86-13.23-9.72-26.45-14.78-40.2-40.62,14.73-80.8,29.3-121.56,44.09.62,1.91,1.12,3.59,1.72,5.23,13.01,35.68,26.28,71.26,38.91,107.07,4.7,13.31,13.5,21.82,26.02,27.23,14.24,6.15,29.58,7.62,44.52,10.91,9.65,2.13,16.64.89,21.64-7.89.49-.86,1.12-1.65,1.68-2.47.52.1,1.05.2,1.57.3.12,1.25.81,2.94.25,3.67-2.92,3.84-6.09,7.5-9.33,11.07-.64.7-2.08,1.22-3,1.04-16.51-3.16-33.08-6.06-49.44-9.87-6.2-1.45-12.13-4.63-17.76-7.79-9.18-5.15-15.28-12.96-18.9-23.01-13.44-37.29-27.15-74.49-40.74-111.72-.67-1.83-1.23-3.69-1.99-5.99Z" fill="#fff" stroke-width="0"/>
    <path d="M201.46,414.5c2.74,5.59,4.91,10.01,7.38,15.04h-14.28c2.23-4.87,4.27-9.31,6.9-15.04Z" fill="#fff" stroke-width="0"/>
    <path d="M559.49,414.5c2.66,5.47,4.86,9.96,7.35,15.08h-14.32c2.29-4.94,4.39-9.49,6.97-15.08Z" fill="#fff" stroke-width="0"/>
    <path d="M353.71,518.97c2.33.42,4.99.39,7.11,1.44,1.66.82,3.59,2.95,3.68,4.58.08,1.64-1.79,4.67-3.12,4.85-4.91.68-9.99.83-14.9.28-1.47-.16-3.8-3.41-3.59-4.95.26-1.89,2.49-3.95,4.39-5.04,1.73-1,4.15-.81,6.44-1.17Z" fill="#fff" stroke-width="0"/>
    <path d="M353.56,504.81c5.93,0,9.81,2,9.3,5.22-.87,5.48-5.57,4.93-9.43,4.93-3.73,0-8.18.36-9.09-4.79-.56-3.2,3.43-5.35,9.22-5.36Z" fill="#fff" stroke-width="0"/>
    <path d="M482.54,68.89c2.71.67,5.19,1.06,7.48,1.94.96.37,1.52,1.76,2.27,2.69-1.09.51-2.24,1.56-3.26,1.44-3.09-.38-6.13-1.2-9.72-1.97.95-4.35,1.81-8.3,2.76-12.66,3.39.7,6.33,1.11,9.13,1.98.95.3,1.54,1.75,2.29,2.68-1.09.47-2.21,1.39-3.27,1.33-2.76-.15-5.9-2.29-7.68,2.57Z" fill="#fff" stroke-width="0"/>
    <path d="M291.56,59.35c5.01-.97,9.68-3.61,13.56.51,1.37,1.46,2.01,4.94,1.26,6.8-2.15,5.34-7.61,4.13-12.55,5.29-.78-4.34-1.5-8.32-2.28-12.61Z" fill="#fff" stroke-width="0"/>
    <path d="M614,113.96c-.11,3.99-3.49,7.04-7.59,6.84-4.55-.22-9.03-4.36-9.05-8.36-.02-3.95,3.36-7.19,7.4-7.09,4.78.12,9.36,4.38,9.24,8.61Z" fill="#fff" stroke-width="0"/>
    <path d="M198.42,97.88c.12,4.32-4.38,8.33-9.36,8.35-4.31.02-7.32-2.89-7.29-7.04.03-4.19,4.27-8,9.07-8.14,4.16-.13,7.48,2.87,7.59,6.84Z" fill="#fff" stroke-width="0"/>
    <path d="M444.39,54.95c1.14,3.39,1.86,5.52,2.81,8.35-2.53-.2-4.43-.35-7.2-.56,1.42-2.52,2.56-4.54,4.39-7.79Z" fill="#fff" stroke-width="0"/>
    <path d="M522.95,79.97c2.04-2.23,3.56-3.88,5.87-6.39.54,3.19.92,5.44,1.46,8.6-2.73-.82-4.65-1.4-7.33-2.2Z" fill="#fff" stroke-width="0"/>
    <path d="M505.1,260.52c-5.21,14.26-10.11,27.66-15.25,41.72-7.39-2.7-14.47-5.27-21.98-8.01,5.09-13.96,10.02-27.49,15.19-41.68,7.4,2.67,14.48,5.24,22.04,7.97Z" fill="#000" stroke-width="0"/>
    <path d="M406.76,166.59c7.7,2.81,14.52,5.3,21.97,8.02-5.1,14.02-10.07,27.66-15.18,41.7-7.43-2.69-14.4-5.21-22-7.96,5.09-13.98,10.05-27.6,15.21-41.75Z" fill="#000" stroke-width="0"/>
    <path d="M501.85,201.09c7.52,2.73,14.35,5.2,21.46,7.78-.22,1.28-.24,2.42-.61,3.44-4.19,11.55-8.51,23.05-12.59,34.63-1.07,3.05-2.36,3.8-5.45,2.52-5.66-2.33-11.5-4.26-17.99-6.62,5.04-13.84,9.99-27.46,15.18-41.75Z" fill="#000" stroke-width="0"/>
    <path d="M445.25,227.81c-7.6-2.74-14.43-5.21-22.04-7.95,5.05-13.86,10.02-27.47,15.21-41.72,7.31,2.62,14.26,5.12,22,7.89-5.03,13.85-9.98,27.46-15.18,41.78Z" fill="#000" stroke-width="0"/>
    <path d="M454.91,231.31c5.15-14.08,10.1-27.6,15.24-41.67,7.33,2.65,14.29,5.16,21.98,7.94-5.06,13.9-10.02,27.53-15.18,41.72-7.49-2.71-14.56-5.28-22.04-7.99Z" fill="#000" stroke-width="0"/>
    <path d="M394.72,267.74c-7.31-2.74-14.09-5.29-21.3-7.99,4.88-14.02,9.61-27.61,14.52-41.73,7.46,2.69,14.44,5.21,22.05,7.96-5.12,13.99-10.11,27.63-15.28,41.76Z" fill="#000" stroke-width="0"/>
    <path d="M461.63,281.18c-7.63-2.78-14.48-5.27-21.97-7.99,3.92-10.76,7.76-21.28,11.74-32.18,7.5,2.73,14.48,5.27,21.99,8.01-3.96,10.84-7.76,21.23-11.76,32.16Z" fill="#000" stroke-width="0"/>
    <path d="M441.69,237.48c-4.02,11-7.77,21.25-11.76,32.17-7.52-2.73-14.6-5.29-21.99-7.98,3.97-10.86,7.77-21.26,11.76-32.17,7.43,2.69,14.39,5.21,22,7.97Z" fill="#000" stroke-width="0"/>
    <path d="M452.32,348.26c-14.36,2.79-27.98,5.43-43.14,8.38,3.31-9.03,6.06-16.73,9.03-24.34.3-.78,1.81-1.3,2.86-1.53,6.01-1.34,12.03-2.69,18.1-3.71,1.21-.2,3.36.61,3.86,1.58,3.1,6.04,5.85,12.25,9.3,19.63Z" fill="#000" stroke-width="0"/>
    <path d="M372.34,319.11c7.18-3.49,12.94-6.46,18.88-9.01,1.11-.48,3.49.2,4.33,1.17,3.93,4.52,7.62,9.25,11.18,14.07.85,1.16,1.58,3.15,1.18,4.37-2.46,7.4-5.26,14.7-8.49,23.5-9.29-11.7-17.89-22.53-27.08-34.09Z" fill="#000" stroke-width="0"/>
    <path d="M452.22,323.62c2.89-3.12,5.9-5.56,7.82-8.67,1.96-3.17,2.84-7,4.36-10.98,7.3,2.63,14.26,5.15,21.49,7.75-3.15,14.42-9.91,25.62-24.38,31.72-3.24-6.93-6.38-13.62-9.29-19.83Z" fill="#000" stroke-width="0"/>
    <path d="M370.1,269.52c6.84,2.56,13.63,5.09,20.95,7.83-1.82,7.43-7.27,14.29-2.04,22.27-7.21,3.47-13.74,6.62-20.51,9.88-7.37-13.79-5.13-26.67,1.6-39.99Z" fill="#000" stroke-width="0"/>
    <path d="M422.93,318.9c4.32-11.81,8.64-23.62,13.18-36.04,7.45,2.71,14.53,5.27,21.95,7.97-2.4,6.59-4.48,12.69-6.89,18.66-.55,1.37-2,2.87-3.38,3.34-7.91,2.74-15.92,5.19-23.9,7.75l-.97-1.68Z" fill="#000" stroke-width="0"/>
    <path d="M411.48,316.17c-4.47-7.11-9.01-14.18-13.35-21.37-.69-1.15-1-3.01-.59-4.25,2.06-6.28,4.41-12.46,6.86-19.21,7.45,2.71,14.4,5.23,21.97,7.98-4.46,12.29-8.79,24.21-13.12,36.13-.59.24-1.18.48-1.77.72Z" fill="#000" stroke-width="0"/>
  </g>
  <g>
    <path d="M263.79,135.42c4.2-1.47,8.57-1.4,12.48-.1-.72-1.6-1.36-3.2-1.9-4.74-.18-.52-.35-1.03-.49-1.53-7.59-.53-12.38,1.59-14.74,4.51-1.25,1.55-1.78,3.46-1.62,5.49,1.8-1.55,3.9-2.8,6.27-3.63h0ZM255.63,126.66l-.02-.06c-.26-.74-1.08-1.14-1.83-.88s-1.14,1.08-.88,1.83c.09.26.25.48.46.65.49-.87,1.35-1.41,2.26-1.53h0ZM283.51,119.99l-2.14,4.46,5.75,2.76c-.1-.33-.21-.65-.33-.98-.76-2.17-1.83-4.42-3.28-6.24h0ZM282.18,118.59c-.12-.11-.26-.22-.38-.33-1.18-.95-2.84-1.75-4.37-1.21s-2.33,2.18-2.65,3.68c-.04.17-.07.33-.09.49l5.08,2.44,2.42-5.07h0ZM274.51,123.15c0,2.32.58,4.75,1.34,6.92.11.32.23.65.36.98l2.76-5.75-4.46-2.14h0ZM277.15,133.22l7.14,3.43,3.43-7.14-7.14-3.43-3.43,7.14h0ZM278.17,135.69c.16.33.31.66.47.99.91,1.88,1.9,3.72,2.99,5.5l1.89-3.92-5.35-2.57h0ZM282.91,143.67l6.85-2.4-4.63-2.22-2.22,4.63h0ZM283.71,145.3c3.65,4.92,6.68,3.86,6.47-2.27l-6.47,2.27h0ZM289.84,139.31c-.27-2.07-.64-4.14-1.1-6.16-.08-.36-.16-.71-.25-1.07l-2.57,5.35,3.92,1.89h0ZM300.45,110.94l-.02-.06c-.26-.74.13-1.57.88-1.83s1.57.13,1.83.88c.09.26.1.53.04.79-.93-.37-1.93-.26-2.73.22h0ZM313.27,125.51c-1.12.3-2.27-.36-2.57-1.48-.3-1.12.36-2.27,1.48-2.57,1.12-.3,2.27.36,2.57,1.48.29,1.11-.36,2.26-1.48,2.57h0ZM314.26,130.13c-1.03.28-2.1-.34-2.38-1.37-.27-1.02.34-2.1,1.37-2.38,1.03-.28,2.1.35,2.38,1.37.28,1.03-.34,2.1-1.37,2.38h0ZM314.27,134.56c-.96.25-1.93-.31-2.18-1.26-.26-.98.31-1.95,1.26-2.2.96-.25,1.93.3,2.19,1.28.24.93-.32,1.92-1.27,2.17h0ZM313.23,138.56c-.87.23-1.76-.29-2-1.17-.24-.88.29-1.76,1.16-1.98.87-.23,1.77.27,1.99,1.14.23.87-.28,1.77-1.15,2.01h0ZM311.57,142.02c-.79.21-1.59-.24-1.81-1.05-.2-.74.26-1.57,1.05-1.79.79-.21,1.6.27,1.8,1.03.23.81-.25,1.59-1.04,1.81h0ZM300.24,112.81c-.4.99.06,2.12,1.04,2.53,1,.42,2.13-.05,2.53-1.04.4-.99-.05-2.13-1.04-2.53-.99-.4-2.12.06-2.53,1.04h0ZM295.84,112.63c-.38.91.05,1.96.96,2.34.91.38,1.96-.05,2.34-.96.38-.91-.06-1.96-.96-2.34-.92-.39-1.96.05-2.34.96h0ZM304.84,114.39c-.4.99.06,2.12,1.04,2.53.98.42,2.13-.05,2.53-1.04.4-.99-.05-2.13-1.04-2.53-.99-.4-2.13.05-2.53,1.04h0ZM310.95,120.78c-1.12.3-2.27-.36-2.57-1.48-.3-1.12.36-2.27,1.48-2.57,1.12-.3,2.27.36,2.57,1.48.3,1.11-.36,2.26-1.48,2.57h0ZM291.79,114.44c-.38.91.05,1.96.96,2.34.91.38,1.96-.05,2.34-.96s-.06-1.96-.96-2.34c-.91-.38-1.96.06-2.34.96h0ZM288.28,116.65c-.34.83.05,1.77.87,2.12.82.34,1.77-.05,2.12-.87.34-.83-.05-1.77-.87-2.12-.83-.35-1.77.04-2.12.87h0ZM329.91,118.96c-1.09.38-2.28-.19-2.67-1.28s.19-2.28,1.28-2.67,2.28.19,2.67,1.28-.19,2.28-1.28,2.67h0ZM331.25,123.5c-1.02.36-2.12-.17-2.48-1.19s.18-2.11,1.2-2.47,2.13.19,2.48,1.18c.34,1.02-.19,2.13-1.19,2.48h0ZM331.59,127.92c-.93.33-1.95-.17-2.28-1.1s.16-1.97,1.09-2.29,1.95.15,2.28,1.11-.17,1.95-1.1,2.28h0ZM330.86,131.99c-.84.3-1.78-.16-2.08-1.01s.16-1.77,1-2.07,1.77.13,2.07.99-.14,1.79-.99,2.09h0ZM329.48,135.56c-.77.27-1.6-.12-1.88-.91-.26-.73.14-1.6.91-1.87s1.62.16,1.87.89c.28.79-.13,1.62-.9,1.89h0ZM316.08,106.99c-.34,1.02.21,2.11,1.24,2.45,1.01.34,2.11-.21,2.45-1.24.34-1.02-.21-2.11-1.24-2.45-1.02-.33-2.12.23-2.45,1.24h0ZM311.71,106.63c-.31.93.2,1.95,1.14,2.25.93.31,1.95-.2,2.25-1.14.31-.93-.2-1.95-1.14-2.25-.93-.3-1.94.2-2.25,1.14h0ZM307.61,107.12c-.29.85.18,1.78,1.03,2.06.85.29,1.78-.18,2.06-1.03.29-.85-.18-1.78-1.03-2.06-.85-.29-1.78.18-2.06,1.03h0ZM303.94,108.46c-.26.77.16,1.6.93,1.86.77.26,1.6-.16,1.86-.93.26-.77-.16-1.62-.93-1.86-.77-.26-1.6.16-1.86.93h0ZM320.66,108.52c-.34,1.02.21,2.11,1.24,2.45,1.01.34,2.11-.21,2.45-1.24.34-1.02-.21-2.11-1.24-2.45-1.01-.33-2.11.22-2.45,1.24h0ZM327.25,114.42c-1.09.38-2.28-.19-2.67-1.28s.19-2.28,1.28-2.67,2.28.19,2.67,1.28c.4,1.09-.19,2.28-1.28,2.67h0ZM285.38,118.97c-.3.7.04,1.52.75,1.81.7.3,1.52-.04,1.81-.75.3-.7-.04-1.52-.75-1.81-.7-.3-1.52.04-1.81.75h0ZM254.72,146.05c1.06-.47,1.55-1.7,1.08-2.76-.47-1.06-1.7-1.55-2.76-1.08-1.06.47-1.55,1.7-1.08,2.76.47,1.05,1.71,1.53,2.76,1.08h0ZM256.84,150.26c.98-.43,1.43-1.57,1-2.55-.42-.97-1.57-1.43-2.55-1-.98.43-1.42,1.59-1,2.55.41.98,1.56,1.43,2.55,1h0ZM259.59,153.73c.9-.4,1.32-1.45.92-2.34-.41-.93-1.46-1.33-2.36-.93-.9.4-1.32,1.44-.91,2.37.39.88,1.46,1.3,2.35.9h0ZM262.9,156.21c.82-.36,1.19-1.32.83-2.16-.36-.83-1.32-1.19-2.14-.82-.82.36-1.21,1.32-.84,2.13.37.82,1.33,1.21,2.15.85h0ZM266.36,157.88c.75-.33,1.09-1.18.75-1.95-.3-.7-1.18-1.06-1.93-.74-.75.33-1.08,1.21-.76,1.93.33.78,1.19,1.09,1.94.77h0ZM256.98,127.99c.94.52,1.29,1.69.77,2.63-.52.95-1.69,1.29-2.64.77-.94-.52-1.28-1.7-.77-2.63.52-.94,1.7-1.28,2.64-.77h0ZM260.28,125.1c.86.48,1.19,1.56.71,2.43-.48.86-1.56,1.19-2.43.71-.86-.48-1.18-1.57-.71-2.43.47-.88,1.56-1.19,2.43-.71h0ZM254.37,132.09c.94.52,1.28,1.7.77,2.63-.51.94-1.69,1.29-2.63.77-.95-.52-1.29-1.69-.77-2.63.51-.93,1.68-1.29,2.63-.77h0ZM253.57,140.9c1.06-.47,1.55-1.7,1.08-2.76-.47-1.06-1.7-1.55-2.76-1.08-1.06.47-1.55,1.7-1.08,2.76.47,1.05,1.7,1.54,2.76,1.08h0ZM264.59,123.98c.86.48,1.19,1.56.71,2.43-.48.86-1.56,1.19-2.43.71-.86-.48-1.18-1.57-.71-2.43.48-.86,1.55-1.17,2.43-.71h0ZM268.7,123.51c.78.44,1.07,1.41.65,2.2-.44.78-1.41,1.07-2.2.65-.78-.44-1.07-1.41-.65-2.2.43-.79,1.41-1.08,2.2-.65h0ZM237.63,151.33c1.09-.38,1.68-1.58,1.29-2.67s-1.59-1.66-2.68-1.28-1.66,1.57-1.28,2.67,1.57,1.66,2.67,1.28h0ZM239.43,155.7c1.02-.36,1.55-1.46,1.19-2.48s-1.46-1.54-2.48-1.18-1.55,1.48-1.2,2.47,1.46,1.55,2.48,1.19h0ZM241.92,159.37c.93-.33,1.42-1.35,1.1-2.28s-1.35-1.43-2.28-1.11-1.43,1.34-1.09,2.29,1.35,1.42,2.28,1.1h0ZM245.03,162.09c.86-.3,1.3-1.23.99-2.09s-1.23-1.28-2.07-.99-1.3,1.21-1,2.07,1.24,1.31,2.08,1.01h0ZM248.34,164.02c.77-.27,1.18-1.1.9-1.89-.26-.73-1.1-1.16-1.87-.89s-1.16,1.13-.91,1.87c.28.79,1.11,1.18,1.88.91h0ZM240.97,133.34c.9.59,1.16,1.78.57,2.69-.58.9-1.78,1.16-2.69.57-.9-.59-1.16-1.78-.57-2.69.58-.89,1.79-1.14,2.69-.57h0ZM244.15,130.33c.83.53,1.07,1.65.52,2.47-.53.83-1.65,1.07-2.48.52-.83-.53-1.07-1.65-.52-2.47.55-.82,1.65-1.05,2.48-.52h0ZM247.65,128.15c.76.49.97,1.5.48,2.26-.49.76-1.5.97-2.26.48-.76-.49-.97-1.5-.48-2.26.5-.76,1.5-.97,2.26-.48h0ZM251.36,126.91c.68.44.88,1.35.44,2.04-.44.68-1.36.88-2.05.44-.68-.44-.88-1.36-.42-2.04.44-.68,1.35-.88,2.04-.44h0ZM238.34,137.4c.9.59,1.16,1.78.57,2.69-.59.9-1.78,1.16-2.69.57-.9-.59-1.16-1.78-.57-2.69.59-.89,1.79-1.14,2.69-.57h0ZM236.88,146.12c1.09-.38,1.66-1.57,1.28-2.67s-1.57-1.66-2.67-1.28-1.68,1.58-1.29,2.67,1.59,1.66,2.68,1.28h0ZM272.41,123.52c.67.36.91,1.21.55,1.88-.36.67-1.21.91-1.9.55-.67-.36-.91-1.21-.55-1.88.38-.68,1.23-.92,1.9-.55h0ZM272.64,103.38h.01s.01,0,.01,0h.01s.01,0,.01,0h.01s0,0,0,0h.02s.01-.01.01-.01h.01s.02-.01.02-.01h0s.02,0,.02,0h.01s0,0,0,0h.01s.04-.02.04-.02h0s.02,0,.02,0h0c.08-.01.16-.03.22-.04-.02-.23-.04-.46-.04-.68-.02-.81.11-2.07-.1-2.82l-.03-.07c-.06-.17-.17-.33-.31-.46-.06-.05-.13-.09-.2-.14-.42-.24-.95-.25-1.4-.09h0l-.09.03c-.37.14-.71.4-.91.75-.17.3-.24.66-.13.98h0c.21.61.76,1.18,1.17,1.67.33.39.67.78.93,1.22.07-.05.14-.09.21-.13h0s.01,0,.01,0h.01s0,0,0,0h.01s.01,0,.01,0h.01s.04-.02.04-.02h.01s.01,0,.01,0h.01s0,0,0,0h.01s.02-.01.02-.01h.01s.01,0,.01,0h.01s.01,0,.01,0h0l.21-.04h0ZM275.5,104.51h0s0,.02,0,.02h0s0,.02,0,.02h0s0,.02,0,.02h0s0,.04,0,.04h0s0,.02,0,.02h0s0,.02,0,.02v.02h.01s0,.02,0,.02h0s0,.02,0,.02h0s0,.02,0,.02h0s0,.02,0,.02h0v.02s.01.01.01.01h0s0,.04,0,.04h0s0,.01,0,.01h0s0,.02,0,.02h0c.01.08.03.16.03.24.23-.02.46-.04.68-.04.79-.01,2.1.1,2.82-.1l.07-.03c.17-.06.33-.17.46-.32.05-.06.09-.13.14-.2.24-.42.25-.95.09-1.4h0l-.03-.09c-.14-.37-.4-.71-.75-.91-.3-.17-.66-.24-.98-.13h0c-.61.21-1.18.76-1.67,1.17-.39.33-.78.67-1.22.93.13.33.18.4.21.47h0ZM274.45,107.74h-.02s0,0,0,0h-.04s0,.01,0,.01h-.01s-.01,0-.01,0h0s-.01,0-.01,0h-.02s-.01.01-.01.01h0s-.01,0-.01,0h0l-.06.02h-.01s-.01,0-.01,0h-.01s-.05.02-.05.02h-.01s0,0,0,0h-.01s-.04.02-.04.02h-.01s-.02.01-.02.01h-.01s-.01,0-.01,0h0c-.08.01-.16.03-.24.03.06.58.05,1.14.03,1.72-.02.59-.06,1.29.14,1.86h0c.12.34.39.56.71.68.37.15.8.14,1.18.02l.06-.02c.46-.16.87-.5,1.06-.96.03-.08.06-.16.07-.23.03-.16.02-.33-.02-.48l-.03-.07c-.24-.67-1.25-1.72-1.71-2.34-.14-.19-.27-.37-.39-.56-.25.12-.35.16-.44.21h0ZM271.33,106.73h0s0-.02,0-.02h0s0-.02,0-.02h0v-.02h0s0-.01,0-.01h0s0-.02,0-.02h0s0-.02,0-.02h0s0-.02,0-.02h0s0-.02,0-.02h0s0-.02,0-.02h0s0-.02,0-.02h0s0-.02,0-.02h0s0-.01,0-.01c-.01-.08-.02-.15-.04-.22-.58.06-1.14.05-1.72.03-.59-.02-1.29-.06-1.86.14h0c-.34.12-.56.39-.68.71-.15.37-.14.8-.02,1.18l.02.06c.16.46.5.87.96,1.06.08.03.16.06.23.07.16.03.33.02.48-.02l.07-.03c.66-.23,1.74-1.25,2.34-1.71.18-.13.37-.27.56-.39-.18-.48-.22-.54-.25-.61h0ZM274.48,103.39c.48-.27.9-.61,1.32-.96.62-.54,1.24-1.11,2.03-1.38h.04c.68-.25,1.4-.14,2.02.21.6.36,1.06.92,1.31,1.58h0l.02.05c.28.81.24,1.71-.18,2.46-.08.14-.17.27-.28.39-.26.3-.57.52-.93.66h0l-.06.02c-1.23.43-2.06.17-3.28.19-.29,0-.57.03-.85.08.14.24.29.48.47.71.72.95,1.44,1.45,1.88,2.62h0l.02.06h0c.1-.09.19-.19.29-.31,2.14-2.48,5.23-.19,4.71,2.63-.47-.81-1.02-.99-1.51-.81-1.33.49-1.43,2.44-2.31,3.4-.11.12-.23.23-.35.35,1.76.13,3.71,1.17,5.51,3.23h0c.46-1.08,1.58-1.68,2.69-1.51.03-.27.09-.55.2-.81.55-1.31,2-1.97,3.32-1.57.04-.21.1-.43.18-.64.62-1.49,2.33-2.18,3.8-1.57.05.02.08.04.13.06.03-.11.06-.22.11-.32.62-1.49,2.33-2.18,3.8-1.57.26.1.49.25.69.41-.32-1.27.37-2.6,1.62-3.04.67-.24,1.36-.17,1.95.11.44-1.35,1.91-2.09,3.28-1.65.15.04.29.12.43.18.53-1.36,2.03-2.08,3.43-1.62.36.12.7.31.96.55.72-1.06,2.06-1.56,3.32-1.14.59.2,1.07.56,1.42,1.03.79-.81,2.01-1.14,3.15-.76.93.31,1.61,1.02,1.93,1.88.76-.5,1.73-.66,2.66-.36,1.37.45,2.2,1.78,2.1,3.15,1.66-.54,3.45.35,4.03,2,.29.82.23,1.68-.1,2.41,1.22.1,2.34.91,2.77,2.15.36,1.03.17,2.11-.42,2.93.76.33,1.37.96,1.66,1.79.41,1.17.07,2.43-.78,3.23.45.34.82.82,1.02,1.39.47,1.33-.09,2.76-1.26,3.47.18.23.32.49.43.78.5,1.41-.2,2.96-1.59,3.49.05.09.08.18.11.28.48,1.37-.21,2.85-1.59,3.33-1.45.51-2.64-.02-4.16.51-.92.32-1.5,1.05-1.83,1.91-6.86,2.41-13.74,4.82-20.6,7.23-16.12,5.65-32.24,11.31-48.35,16.96-.79-.46-1.7-.67-2.62-.35-1.51.53-2.11,1.69-3.56,2.2s-2.84-.23-3.32-1.61c-.03-.1-.06-.2-.09-.29-1.42.44-2.93-.32-3.42-1.73-.1-.29-.15-.59-.16-.88-1.34.19-2.68-.59-3.14-1.92-.2-.58-.22-1.18-.07-1.72-1.17-.11-2.21-.87-2.62-2.03-.29-.83-.19-1.7.18-2.43-.97-.27-1.8-1.01-2.16-2.03-.44-1.24-.07-2.55.82-3.41-.71-.36-1.3-.99-1.58-1.81-.58-1.65.27-3.47,1.9-4.08-.95-1-1.12-2.56-.33-3.77.54-.82,1.4-1.3,2.3-1.38-.3-.86-.2-1.85.33-2.67.66-1.01,1.81-1.51,2.93-1.38-.02-.58.13-1.18.46-1.7.72-1.12,2.1-1.57,3.31-1.19.06-.35.2-.71.4-1.03.81-1.23,2.43-1.61,3.69-.88.06-.15.12-.28.22-.41.78-1.21,2.38-1.55,3.59-.76.28-.59.79-1.07,1.45-1.3,1.25-.44,2.64.16,3.17,1.36.06-.26.15-.51.29-.76.78-1.4,2.53-1.92,3.95-1.15.1.05.19.11.29.18.02-.05.04-.08.06-.13.78-1.4,2.54-1.92,3.95-1.15.19.11.37.23.54.38.78-1.15,2.33-1.54,3.58-.85.26.13.47.31.67.51.77-.83,2.01-1.05,3.05-.5h0c.12-2.73.98-4.75,2.27-5.95-.17,0-.35-.03-.51-.06-1.27-.21-2.56-1.68-3.91-1.21-.5.17-.81.66-.67,1.57-2.15-1.87-1.15-5.59,2.05-5,.15.03.3.05.43.07h0c-.26-.76-.23-1.55-.2-2.33.02-.61.05-1.22-.07-1.82-.24.14-.48.29-.71.47-.95.72-1.45,1.44-2.62,1.88h0l-.06.02c-.38.13-.8.15-1.2.09-.16-.03-.32-.07-.46-.13-.8-.32-1.4-1-1.68-1.81l-.02-.05h0c-.22-.66-.22-1.39.03-2.05.24-.66.74-1.18,1.4-1.42h.04c.74-.27,1.54-.24,2.31-.21.61.02,1.21.04,1.82-.07-.27-.48-.61-.9-.96-1.32-.54-.62-1.11-1.24-1.38-2.03h0v-.04c-.25-.68-.14-1.4.21-2.02.34-.61.92-1.06,1.58-1.31h0l.05-.02c.81-.28,1.71-.24,2.46.18.14.08.27.17.39.28.29.24.52.57.66.93h0l.02.06c.43,1.22.16,2.08.19,3.28.05.25.06.54.12.81h0ZM289.74,130.6c2.24-3.46,5.61-6.25,9.81-7.72,2.37-.83,4.79-1.16,7.16-1.08-1.14-1.7-2.74-2.84-4.69-3.28-3.66-.81-8.74.53-14.32,5.68.19.48.39.98.57,1.5.54,1.55,1.04,3.2,1.47,4.89h0ZM252.15,160.45l-.16-.46c-1.56-4.46-1.39-9.09.16-13.18-.52-.33-.94-.81-1.2-1.4-.51-1.19-.27-2.51.54-3.42l-.02-.05c-.72-.32-1.34-.88-1.67-1.66-.69-1.56-.02-3.38,1.47-4.15.01-.05.02-.09.04-.13-.79-.77-1.11-1.94-.82-3-4.16,2.02-7.49,4.79-8.72,8.6-2.68,8.29,3.29,15.07,10.38,18.86h0ZM315.77,124.5c3.77,2.23,6.79,5.74,8.36,10.2.05.15.11.31.15.46,3.15-7.38,3.58-16.41-3.68-21.22-3.34-2.22-7.68-2.3-12.18-1.27.9.65,1.38,1.75,1.25,2.85.04.03.08.06.11.07,1.65-.33,3.31.68,3.74,2.33.22.82.1,1.65-.27,2.34l.02.05c1.2.21,2.22,1.09,2.56,2.34.17.65.14,1.29-.06,1.86h0Z" fill="#010101" fill-rule="evenodd" stroke-width="0"/>
    <path d="M327.77,151.45c.99-.35,2.08.18,2.43,1.17s-.18,2.08-1.17,2.43-2.08-.18-2.43-1.17c-.36-.99.18-2.08,1.17-2.43h0ZM258.85,175.62c.99-.35,2.08.18,2.43,1.17s-.18,2.08-1.17,2.43-2.08-.18-2.43-1.17.18-2.08,1.17-2.43h0ZM313.98,156.29c.99-.35,2.08.18,2.43,1.17s-.18,2.08-1.17,2.43-2.08-.18-2.43-1.17c-.36-.99.18-2.08,1.17-2.43h0ZM300.2,161.12c.99-.35,2.08.18,2.43,1.17s-.18,2.08-1.17,2.43-2.08-.18-2.43-1.17.18-2.08,1.17-2.43h0ZM286.42,165.96c.99-.35,2.08.18,2.43,1.17s-.18,2.08-1.17,2.43-2.08-.18-2.43-1.17.18-2.08,1.17-2.43h0ZM272.64,170.79c.99-.35,2.08.18,2.43,1.17s-.18,2.08-1.17,2.43-2.08-.18-2.43-1.17.18-2.08,1.17-2.43h0ZM264.41,172.43l1.9-.67c1.08-.38,2.27.19,2.65,1.27l.67,1.9c.38,1.08-.19,2.27-1.27,2.65l-1.9.67c-1.08.38-2.27-.19-2.65-1.27l-.67-1.9c-.38-1.08.19-2.27,1.27-2.65h0ZM278.2,167.6l1.9-.67c1.08-.38,2.27.19,2.65,1.27l.67,1.9c.38,1.08-.19,2.27-1.27,2.65l-1.9.67c-1.08.38-2.27-.19-2.65-1.27l-.67-1.9c-.39-1.08.19-2.27,1.27-2.65h0ZM319.53,153.1l1.9-.67c1.08-.38,2.27.19,2.65,1.27l.67,1.9c.38,1.08-.19,2.27-1.27,2.65l-1.9.67c-1.08.38-2.27-.19-2.65-1.27l-.67-1.9c-.38-1.08.19-2.27,1.27-2.65h0ZM305.75,157.93l1.9-.67c1.08-.38,2.27.19,2.65,1.27l.67,1.9c.38,1.08-.19,2.27-1.27,2.65l-1.9.67c-1.08.38-2.27-.19-2.65-1.27l-.67-1.9c-.38-1.08.19-2.27,1.27-2.65h0ZM291.98,162.77l1.9-.67c1.08-.38,2.27.19,2.65,1.27l.67,1.9c.38,1.08-.19,2.27-1.27,2.65l-1.9.67c-1.08.38-2.27-.19-2.65-1.27l-.67-1.9c-.38-1.08.19-2.27,1.27-2.65h0ZM257.96,174.54c-.13-.21-.24-.4-.31-.6h0c-.22-.62.12-1.3.73-1.51,22.84-8.01,45.67-16.02,68.51-24.03.62-.22,1.3.12,1.51.73h0c.08.24.13.53.15.87,1.29.06,2.47.89,2.92,2.18.48,1.37,0,2.85-1.11,3.68.71.74,1.45,1.39,1.59,1.78h0c.22.62-.33.67-.97.9-23.16,8.12-46.33,16.25-69.49,24.37-.62.22-1.1.52-1.32-.1h0c-.18-.52.04-1.32.15-2.23-1.64.45-3.37-.43-3.94-2.06-.52-1.56.17-3.24,1.57-3.98h0Z" fill="#010101" fill-rule="evenodd" stroke-width="0"/>
    <path d="M320.21,144.03c1.71-.6,3.3-.49,3.56.24s-.92,1.82-2.62,2.41-3.3.49-3.56-.24.92-1.82,2.62-2.41h0Z" fill="#010101" fill-rule="evenodd" stroke-width="0"/>
    <path d="M300.59,150.91c1.71-.6,3.3-.49,3.56.24s-.92,1.82-2.62,2.41-3.3.49-3.56-.24c-.26-.73.91-1.81,2.62-2.41h0Z" fill="#010101" fill-rule="evenodd" stroke-width="0"/>
    <path d="M280.49,157.96c1.71-.6,3.3-.49,3.56.24s-.92,1.82-2.62,2.41-3.3.49-3.56-.24.91-1.81,2.62-2.41h0Z" fill="#010101" fill-rule="evenodd" stroke-width="0"/>
    <path d="M260.87,164.84c1.71-.6,3.3-.49,3.56.24s-.92,1.82-2.62,2.41-3.3.49-3.56-.24.91-1.81,2.62-2.41h0Z" fill="#010101" fill-rule="evenodd" stroke-width="0"/>
    <path d="M306.83,149.63c-.15.32-.01.72.3.87l4.95,2.38c.32.15.72.01.87-.3l2.38-4.95c.15-.32.01-.72-.3-.87l-4.95-2.38c-.32-.15-.72-.01-.87.3l-2.38,4.95h0Z" fill="#010101" fill-rule="evenodd" stroke-width="0"/>
    <path d="M289.72,152.07c-1.99.7-3.05,2.88-2.34,4.88s2.88,3.05,4.88,2.34,3.05-2.88,2.34-4.88c-.71-1.99-2.89-3.04-4.88-2.34h0Z" fill="#010101" fill-rule="evenodd" stroke-width="0"/>
    <path d="M252.95,164.8c-.55.19-.78.91-.86,1.4-.17.98.02,2.08.34,3s.86,1.9,1.61,2.56c.36.32,1,.75,1.55.56s.78-.91.86-1.4c.17-.98-.02-2.08-.34-3s-.86-1.9-1.61-2.56c-.36-.32-1-.75-1.55-.56h0Z" fill="#010101" fill-rule="evenodd" stroke-width="0"/>
    <path d="M266.61,163.73c-.15.32-.01.72.3.87l4.95,2.38c.32.15.72.01.87-.3l2.38-4.95c.15-.32.01-.72-.3-.87l-4.95-2.38c-.32-.15-.72-.01-.87.3l-2.38,4.95h0Z" fill="#010101" fill-rule="evenodd" stroke-width="0"/>
    <path d="M326.37,139.05c-.55.19-.78.91-.86,1.4-.17.98.02,2.08.34,3s.86,1.9,1.61,2.56c.36.32,1,.75,1.55.56s.78-.91.86-1.4c.17-.98-.02-2.08-.34-3s-.86-1.9-1.61-2.56c-.36-.32-1-.75-1.55-.56h0Z" fill="#010101" fill-rule="evenodd" stroke-width="0"/>
  </g>
  <g>
    <path d="M471.68,123.91c4.19,1.5,7.54,4.3,9.77,7.77.45-1.7.96-3.35,1.51-4.88.19-.52.38-1.02.58-1.5-5.56-5.19-10.62-6.55-14.3-5.76-1.95.42-3.56,1.56-4.71,3.25,2.37-.07,4.79.27,7.16,1.12h0ZM470.84,111.97l.02-.06c.27-.74-.12-1.57-.87-1.83s-1.57.12-1.83.87c-.09.26-.11.53-.05.79.93-.37,1.93-.25,2.72.23h0ZM496.71,124.32l-4.47,2.12,2.73,5.77c.13-.32.24-.64.36-.97.77-2.17,1.36-4.58,1.38-6.91h0ZM496.56,122.39c-.03-.16-.06-.33-.09-.49-.32-1.48-1.11-3.15-2.63-3.69s-3.18.23-4.38,1.19c-.14.11-.26.22-.38.32l2.41,5.09,5.07-2.42h0ZM487.73,121.11c-1.47,1.8-2.54,4.05-3.31,6.22-.12.32-.23.64-.34.98l5.77-2.73-2.12-4.47h0ZM483.45,130.6l3.39,7.16,7.16-3.39-3.39-7.16-7.16,3.39h0ZM482.69,133.17c-.09.36-.17.71-.26,1.07-.48,2.04-.86,4.09-1.14,6.16l3.93-1.86-2.54-5.36h0ZM481.35,142.35l6.84,2.44-2.2-4.64-4.64,2.2h0ZM480.94,144.12c-.26,6.12,2.76,7.2,6.45,2.3l-6.45-2.3h0ZM489.48,143.31c1.09-1.77,2.1-3.62,3.02-5.49.16-.33.32-.65.48-.99l-5.36,2.54,1.86,3.93h0ZM515.57,127.94l.02-.06c.27-.74,1.09-1.13,1.83-.87s1.13,1.09.87,1.83c-.09.26-.26.48-.47.64-.48-.87-1.34-1.41-2.26-1.55h0ZM516.37,147.33c-1.06-.48-1.54-1.71-1.06-2.77.48-1.06,1.71-1.54,2.77-1.06,1.06.48,1.54,1.71,1.06,2.77-.47,1.05-1.7,1.53-2.77,1.06h0ZM514.24,151.54c-.98-.43-1.42-1.58-.99-2.56.43-.96,1.58-1.42,2.56-.99.98.43,1.41,1.59.99,2.56-.43.98-1.58,1.42-2.56.99h0ZM511.46,154.99c-.9-.41-1.31-1.46-.91-2.35.41-.93,1.46-1.32,2.37-.91.9.41,1.31,1.45.9,2.37-.4.88-1.45,1.3-2.36.89h0ZM508.13,157.45c-.82-.36-1.19-1.33-.82-2.16.37-.83,1.33-1.19,2.15-.81.82.36,1.2,1.32.83,2.14-.36.82-1.34,1.2-2.16.84h0ZM504.67,159.1c-.75-.34-1.09-1.18-.74-1.95.31-.7,1.19-1.06,1.94-.73.75.34,1.07,1.22.75,1.93-.33.78-1.2,1.08-1.95.76h0ZM514.23,129.26c-.94.52-1.29,1.69-.78,2.63.51.95,1.69,1.3,2.63.78.94-.52,1.3-1.69.78-2.63-.52-.94-1.69-1.29-2.63-.78h0ZM510.93,126.35c-.87.47-1.2,1.56-.73,2.42.47.87,1.56,1.2,2.42.73.87-.47,1.19-1.56.73-2.42-.47-.88-1.56-1.2-2.42-.73h0ZM516.81,133.38c-.94.52-1.29,1.69-.78,2.63.5.95,1.69,1.3,2.63.78.94-.52,1.3-1.69.78-2.63-.52-.94-1.69-1.3-2.63-.78h0ZM517.55,142.19c-1.06-.48-1.54-1.71-1.06-2.77.48-1.06,1.71-1.54,2.77-1.06,1.06.48,1.54,1.71,1.06,2.77-.46,1.05-1.7,1.53-2.77,1.06h0ZM506.64,125.21c-.87.47-1.2,1.56-.73,2.42.47.87,1.56,1.2,2.42.73s1.19-1.56.73-2.42c-.47-.87-1.56-1.19-2.42-.73h0ZM502.52,124.72c-.78.43-1.07,1.4-.66,2.2.42.78,1.4,1.07,2.2.66.78-.43,1.07-1.4.66-2.2-.43-.8-1.4-1.09-2.2-.66h0ZM533.43,152.71c-1.09-.39-1.66-1.58-1.27-2.67s1.58-1.66,2.67-1.27,1.66,1.58,1.27,2.67-1.58,1.66-2.67,1.27h0ZM531.62,157.08c-1.02-.36-1.54-1.47-1.18-2.49s1.47-1.53,2.48-1.17,1.54,1.48,1.18,2.48c-.38,1.01-1.48,1.54-2.49,1.18h0ZM529.1,160.73c-.93-.33-1.41-1.36-1.08-2.29s1.36-1.43,2.29-1.1,1.42,1.34,1.08,2.3-1.36,1.41-2.29,1.08h0ZM525.97,163.43c-.84-.3-1.29-1.24-.98-2.1s1.24-1.28,2.08-.98,1.3,1.22.99,2.07-1.23,1.31-2.09,1h0ZM522.65,165.34c-.77-.27-1.17-1.1-.89-1.9.26-.73,1.11-1.15,1.88-.88s1.16,1.14.9,1.87c-.28.79-1.12,1.18-1.89.9h0ZM530.21,134.7c-.91.58-1.17,1.78-.58,2.68.57.9,1.78,1.17,2.68.58.91-.58,1.17-1.78.58-2.68-.59-.89-1.79-1.16-2.68-.58h0ZM527.03,131.67c-.83.53-1.07,1.64-.53,2.46.53.83,1.64,1.07,2.46.53.83-.53,1.07-1.64.53-2.46-.53-.82-1.63-1.06-2.46-.53h0ZM523.54,129.47c-.76.48-.98,1.49-.5,2.25.48.76,1.49.98,2.25.5.76-.48.98-1.49.5-2.25-.48-.76-1.49-.98-2.25-.5h0ZM519.85,128.21c-.69.44-.89,1.35-.45,2.03.44.69,1.35.89,2.03.45.69-.44.89-1.36.45-2.03-.44-.69-1.35-.89-2.03-.45h0ZM532.81,138.77c-.91.58-1.17,1.78-.58,2.68.57.9,1.78,1.17,2.68.58.91-.58,1.17-1.78.58-2.68-.58-.89-1.78-1.15-2.68-.58h0ZM534.21,147.5c-1.09-.39-1.66-1.58-1.27-2.67s1.58-1.66,2.67-1.27c1.09.39,1.66,1.58,1.27,2.67-.38,1.09-1.58,1.66-2.67,1.27h0ZM498.81,124.7c-.67.36-.92,1.21-.56,1.88.36.67,1.21.92,1.88.56.67-.36.92-1.21.56-1.88-.36-.67-1.21-.92-1.88-.56h0ZM457.94,126.47c1.12.3,2.27-.35,2.58-1.47.3-1.12-.35-2.27-1.47-2.58-1.12-.3-2.27.35-2.58,1.47-.3,1.11.36,2.27,1.47,2.58h0ZM456.94,131.08c1.03.28,2.1-.33,2.38-1.36.28-1.02-.33-2.1-1.36-2.38-1.03-.28-2.1.34-2.38,1.36-.3,1.03.31,2.1,1.36,2.38h0ZM456.89,135.5c.96.26,1.94-.3,2.19-1.24.27-.98-.3-1.95-1.25-2.21-.96-.26-1.93.29-2.2,1.27-.25.93.32,1.93,1.26,2.18h0ZM457.91,139.51c.86.24,1.76-.28,2-1.16.24-.88-.28-1.76-1.15-1.99-.86-.24-1.77.26-2,1.13-.23.87.27,1.77,1.14,2.01h0ZM459.54,142.99c.79.21,1.59-.23,1.81-1.04.21-.74-.25-1.57-1.04-1.79-.79-.21-1.6.27-1.8,1.02-.23.81.24,1.59,1.03,1.82h0ZM471.05,113.84c.4.99-.06,2.13-1.06,2.53-1,.41-2.13-.06-2.54-1.06-.4-.99.07-2.12,1.06-2.53.99-.4,2.12.07,2.54,1.06h0ZM475.44,113.68c.37.91-.06,1.96-.97,2.33-.91.37-1.96-.06-2.33-.97-.37-.91.07-1.96.97-2.33.92-.38,1.96.06,2.33.97h0ZM466.45,115.4c.4.99-.07,2.12-1.06,2.53-.99.42-2.13-.06-2.53-1.06-.41-1,.06-2.13,1.06-2.53.98-.4,2.12.06,2.53,1.06h0ZM460.29,121.74c1.12.3,2.27-.35,2.58-1.47.3-1.12-.35-2.27-1.47-2.58-1.12-.3-2.27.35-2.58,1.47-.3,1.11.35,2.26,1.47,2.58h0ZM479.49,115.52c.37.91-.06,1.96-.97,2.33-.91.37-1.96-.06-2.33-.97-.37-.91.07-1.96.97-2.33.91-.37,1.95.07,2.33.97h0ZM482.99,117.74c.33.83-.06,1.77-.88,2.12-.83.33-1.77-.06-2.12-.88-.33-.83.06-1.77.88-2.12.84-.34,1.77.05,2.12.88h0ZM441.34,119.82c1.09.39,2.3-.17,2.69-1.26s-.19-2.29-1.28-2.68c-1.09-.39-2.28.18-2.67,1.27s.18,2.28,1.27,2.67h0ZM439.98,124.35c1.02.36,2.13-.16,2.49-1.18s-.17-2.11-1.18-2.48-2.13.18-2.48,1.17.16,2.13,1.18,2.49h0ZM439.61,128.77c.93.33,1.95-.15,2.29-1.08s-.15-1.97-1.08-2.3-1.95.14-2.29,1.1.15,1.95,1.08,2.29h0ZM440.32,132.84c.85.31,1.78-.15,2.09-1s-.15-1.77-.99-2.07c-.84-.3-1.77.12-2.08.98s.14,1.8.98,2.1h0ZM441.68,136.42c.77.27,1.6-.11,1.89-.9.26-.73-.13-1.6-.9-1.87s-1.62.15-1.88.88c-.28.79.12,1.62.89,1.9h0ZM455.25,107.93c.33,1.03-.22,2.11-1.25,2.44-1.01.34-2.11-.22-2.44-1.25-.33-1.03.22-2.11,1.25-2.44,1.01-.32,2.11.24,2.44,1.25h0ZM459.61,107.59c.31.93-.21,1.95-1.15,2.24-.93.31-1.95-.21-2.26-1.15-.31-.93.21-1.95,1.15-2.24.94-.29,1.95.22,2.26,1.15h0ZM463.7,108.1c.28.85-.19,1.78-1.04,2.06-.85.28-1.78-.19-2.06-1.04-.28-.85.19-1.78,1.04-2.06.87-.28,1.78.19,2.06,1.04h0ZM467.36,109.47c.25.77-.17,1.6-.94,1.86-.77.25-1.61-.17-1.87-.95-.25-.78.17-1.61.95-1.85.78-.25,1.6.17,1.86.94h0ZM450.65,109.43c.33,1.03-.22,2.11-1.25,2.44-1.03.33-2.11-.22-2.44-1.25-.33-1.03.22-2.11,1.25-2.44,1.02-.32,2.11.24,2.44,1.25h0ZM444.03,115.3c1.09.39,2.28-.18,2.67-1.27s-.18-2.28-1.27-2.67-2.3.17-2.69,1.26.19,2.29,1.28,2.68h0ZM485.86,120.08c.29.71-.05,1.52-.76,1.81-.71.29-1.52-.05-1.82-.76-.29-.71.05-1.52.76-1.81.72-.29,1.53.06,1.82.76h0ZM498.71,104.57h.01s.01,0,.01,0h.01s.01,0,.01,0h.01s0,0,0,0h.02s.01.01.01.01h.01s.02.01.02.01h0s.02,0,.02,0h.01s0,0,0,0h.01s.04.02.04.02h0s.02,0,.02,0h0c.07.04.14.08.2.11.12-.19.26-.38.39-.56.5-.65,1.39-1.54,1.7-2.26l.03-.07c.06-.17.07-.36.05-.56-.02-.08-.04-.15-.07-.23-.17-.45-.58-.79-1.03-.95h0l-.09-.03c-.38-.12-.8-.13-1.18.01-.32.12-.6.36-.72.68h0c-.22.61-.15,1.4-.14,2.03.01.51.02,1.03-.05,1.53.08,0,.16.02.24.03h0s.01,0,.01,0h.01s0,0,0,0h.01s.01,0,.01,0h.01s.04.02.04.02h.01s.01,0,.01,0h.01s0,0,0,0h.01s.02.01.02.01h.01s.01,0,.01,0h.01s.01,0,.01,0h0l.19.1h0ZM500.22,107.25h0s0,.02,0,.02h0s0,.02,0,.02h0s0,.02,0,.02h0s0,.04,0,.04h0s0,.02,0,.02h0s0,.02,0,.02v.02h-.01s0,.02,0,.02h0s0,.02,0,.02h0s0,.02,0,.02h0s0,.02,0,.02h0v.02s-.01.01-.01.01h0s0,.04,0,.04h0s0,.01,0,.01h0s0,.02,0,.02h0c-.04.07-.08.14-.13.21.19.12.38.26.56.39.62.49,1.57,1.4,2.26,1.7l.07.03c.17.06.36.07.56.05.08-.02.15-.04.23-.07.45-.17.79-.58.95-1.03h0l.03-.09c.12-.38.13-.8-.01-1.18-.12-.32-.36-.6-.68-.72h0c-.61-.22-1.4-.15-2.03-.14-.51.01-1.03.02-1.53-.05-.11.34-.11.42-.14.5h0ZM497.37,109.09h-.02s0,0,0,0h-.04s0-.01,0-.01h-.01s-.01,0-.01,0h0s-.01,0-.01,0h-.02s-.01-.01-.01-.01h0s-.01,0-.01,0h0l-.06-.02h-.01s-.01,0-.01,0h-.01s-.05-.02-.05-.02h-.01s0,0,0,0h-.01s-.04-.02-.04-.02h-.01s-.02-.01-.02-.01h-.01s-.01,0-.01,0h0c-.07-.04-.14-.08-.21-.13-.31.49-.68.92-1.06,1.35-.38.45-.86.96-1.06,1.53h0c-.12.33-.05.68.12.98.2.35.54.61.9.76l.06.02c.46.16.99.16,1.42-.08.07-.04.14-.09.2-.14.12-.11.23-.24.29-.38l.03-.07c.24-.67.12-2.12.14-2.9.01-.23.02-.45.05-.68-.27-.07-.37-.09-.48-.11h0ZM495.59,106.35h0s0-.02,0-.02h0s0-.02,0-.02h0v-.02h0s0-.01,0-.01h0s0-.02,0-.02h0s0-.02,0-.02h0s0-.02,0-.02h0s0-.02,0-.02h0s0-.02,0-.02h0s0-.02,0-.02h0s0-.02,0-.02h0s0-.01,0-.01c.04-.07.07-.13.11-.2-.49-.31-.92-.68-1.35-1.06-.45-.38-.96-.86-1.53-1.06h0c-.33-.12-.68-.05-.98.12-.35.2-.61.54-.76.9l-.02.06c-.16.46-.16.99.08,1.42.04.07.09.14.14.2.11.12.24.23.38.29l.07.03c.66.23,2.14.12,2.9.14.22,0,.45.02.68.05.16-.49.17-.55.18-.63h0ZM500.13,105.74c.54.09,1.08.09,1.63.08.82-.03,1.66-.08,2.44.2h.04c.68.26,1.17.8,1.43,1.46.24.66.25,1.39.02,2.05h0l-.02.05c-.29.81-.89,1.48-1.69,1.8-.15.06-.3.1-.46.13-.39.07-.77.05-1.13-.07h0l-.06-.02c-1.23-.44-1.71-1.17-2.67-1.92-.23-.18-.47-.33-.71-.48-.04.28-.07.56-.08.85-.03,1.19.21,2.03-.18,3.22h0l-.02.06h0c.15,0,.28-.03.43-.06,3.22-.58,4.18,3.14,2.01,5.01.15-.92-.17-1.41-.67-1.58-1.35-.45-2.65,1-3.93,1.19-.16.03-.32.04-.49.05,1.28,1.21,2.15,3.24,2.25,5.97h0c1.04-.55,2.29-.31,3.04.51.2-.2.41-.37.67-.5,1.25-.67,2.79-.27,3.57.87.16-.14.35-.27.54-.38,1.42-.76,3.18-.23,3.94,1.17.02.05.04.08.06.13.09-.06.19-.13.29-.18,1.42-.76,3.18-.23,3.94,1.17.14.24.23.5.28.75.55-1.19,1.92-1.79,3.17-1.34.67.24,1.17.72,1.44,1.31,1.2-.77,2.8-.42,3.59.78.09.13.15.28.22.41,1.26-.72,2.89-.34,3.69.9.21.32.34.68.4,1.04,1.22-.37,2.58.08,3.3,1.21.33.52.48,1.11.45,1.7,1.12-.13,2.28.38,2.92,1.39.53.83.61,1.81.32,2.67.91.09,1.76.57,2.3,1.39.78,1.21.59,2.77-.35,3.77,1.63.63,2.46,2.44,1.88,4.09-.29.82-.88,1.45-1.59,1.8.88.85,1.25,2.18.81,3.42-.37,1.03-1.2,1.75-2.17,2.02.38.74.46,1.6.16,2.43-.42,1.16-1.47,1.93-2.63,2.02.14.55.12,1.15-.08,1.72-.47,1.33-1.81,2.09-3.16,1.9,0,.29-.05.58-.16.88-.5,1.41-2.02,2.17-3.43,1.71-.02.1-.05.19-.09.29-.49,1.36-1.96,2.08-3.33,1.59-1.45-.52-2.04-1.68-3.55-2.22-.92-.33-1.83-.12-2.62.34-6.85-2.45-13.71-4.9-20.56-7.34-16.09-5.75-32.18-11.49-48.26-17.23-.32-.86-.9-1.59-1.81-1.92-1.51-.54-2.7-.02-4.15-.53-1.37-.49-2.06-1.97-1.57-3.34.04-.1.08-.19.11-.28-1.38-.55-2.07-2.1-1.57-3.49.1-.28.25-.55.43-.78-1.16-.69-1.71-2.15-1.23-3.47.21-.58.57-1.05,1.02-1.38-.84-.82-1.17-2.07-.76-3.23.3-.83.92-1.44,1.67-1.78-.59-.82-.77-1.92-.4-2.94.44-1.24,1.55-2.03,2.79-2.13-.33-.73-.38-1.59-.09-2.41.59-1.65,2.4-2.52,4.04-1.98-.11-1.38.74-2.7,2.11-3.14.93-.3,1.9-.13,2.66.38.31-.85,1.01-1.57,1.94-1.86,1.15-.37,2.36-.04,3.15.77.35-.46.84-.83,1.43-1.03,1.27-.41,2.62.1,3.32,1.16.27-.24.6-.43.96-.55,1.4-.45,2.9.28,3.42,1.64.14-.08.27-.14.43-.18,1.36-.45,2.83.3,3.27,1.67.59-.28,1.29-.33,1.95-.1,1.25.45,1.95,1.78,1.61,3.05.21-.16.44-.3.7-.41,1.49-.6,3.18.1,3.79,1.59.05.1.08.21.11.32.05-.02.08-.04.13-.06,1.49-.6,3.19.11,3.79,1.59.08.21.15.41.18.64,1.33-.4,2.78.27,3.32,1.59.12.26.17.54.2.81,1.12-.16,2.23.45,2.68,1.53h0c1.81-2.05,3.75-3.07,5.51-3.2-.13-.12-.25-.24-.36-.37-.86-.96-.93-2.92-2.28-3.4-.5-.18-1.05,0-1.51.8-.49-2.8,2.62-5.07,4.74-2.6.1.12.2.22.29.33h0c.27-.76.79-1.35,1.3-1.94.4-.46.8-.91,1.09-1.45-.28-.04-.56-.07-.85-.08-1.19-.03-2.03.21-3.22-.18h0l-.06-.02c-.38-.14-.72-.38-.98-.69-.11-.12-.2-.25-.28-.39-.42-.75-.46-1.66-.17-2.46l.02-.05h0c.25-.65.7-1.22,1.31-1.57.6-.36,1.32-.45,1.98-.23h.04c.74.28,1.34.8,1.92,1.31.46.4.92.79,1.45,1.09.09-.54.09-1.08.08-1.63-.03-.82-.08-1.66.2-2.44h0v-.04c.26-.68.8-1.17,1.46-1.43.65-.26,1.39-.25,2.05-.02h0l.05.02c.81.29,1.48.89,1.8,1.69.06.15.1.3.13.46.08.38.05.77-.07,1.13h0l-.02.06c-.43,1.21-1.18,1.71-1.92,2.67-.12.22-.29.46-.42.7h0ZM494.88,136.49c3.92-1.28,8.29-1.33,12.48.17,2.37.84,4.46,2.11,6.25,3.67.18-2.04-.34-3.93-1.58-5.5-2.33-2.93-7.12-5.09-14.7-4.59-.15.49-.32,1-.5,1.52-.55,1.55-1.21,3.14-1.94,4.73h0ZM446.88,136.05l.16-.46c1.59-4.45,4.64-7.94,8.42-10.15-.2-.59-.22-1.22-.05-1.85.35-1.24,1.37-2.12,2.57-2.32l.02-.05c-.36-.7-.49-1.53-.25-2.34.45-1.64,2.12-2.64,3.76-2.3.04-.03.08-.06.11-.07-.13-1.09.35-2.21,1.25-2.85-4.5-1.05-8.84-.99-12.19,1.21-7.3,4.75-6.92,13.79-3.79,21.19h0ZM518.95,148.11c1.52,4.11,1.67,8.74.08,13.19-.05.15-.11.31-.18.45,7.09-3.75,13.11-10.5,10.49-18.81-1.2-3.82-4.52-6.62-8.67-8.65.29,1.07-.03,2.23-.82,3,.01.05.02.09.04.13,1.49.78,2.14,2.61,1.45,4.16-.35.77-.96,1.35-1.68,1.65l-.02.05c.8.92,1.04,2.24.52,3.43-.28.61-.7,1.09-1.22,1.41h0Z" fill="#010101" fill-rule="evenodd" stroke-width="0"/>
    <path d="M511.33,176.62c.99.35,1.51,1.45,1.15,2.44s-1.45,1.51-2.44,1.15-1.51-1.45-1.15-2.44c.34-1,1.45-1.51,2.44-1.15h0ZM442.55,152.06c.99.35,1.51,1.45,1.15,2.44s-1.45,1.51-2.44,1.15-1.51-1.45-1.15-2.44,1.45-1.51,2.44-1.15h0ZM497.57,171.7c.99.35,1.51,1.45,1.15,2.44s-1.45,1.51-2.44,1.15-1.51-1.45-1.15-2.44c.34-1,1.45-1.51,2.44-1.15h0ZM483.81,166.79c.99.35,1.51,1.45,1.15,2.44-.35.99-1.45,1.51-2.44,1.15s-1.51-1.45-1.15-2.44,1.45-1.51,2.44-1.15h0ZM470.06,161.88c.99.35,1.51,1.45,1.15,2.44-.35.99-1.45,1.51-2.44,1.15s-1.51-1.45-1.15-2.44,1.45-1.51,2.44-1.15h0ZM456.31,156.97c.99.35,1.51,1.45,1.15,2.44s-1.45,1.51-2.44,1.15-1.51-1.45-1.15-2.44,1.45-1.51,2.44-1.15h0ZM448.87,153.07l1.9.68c1.08.38,1.64,1.58,1.26,2.66l-.68,1.9c-.38,1.08-1.58,1.64-2.66,1.26l-1.9-.68c-1.08-.38-1.64-1.58-1.26-2.66l.68-1.9c.38-1.08,1.58-1.64,2.66-1.26h0ZM462.64,157.99l1.9.68c1.08.38,1.64,1.58,1.26,2.66l-.68,1.9c-.38,1.08-1.58,1.64-2.66,1.26l-1.9-.68c-1.08-.38-1.64-1.58-1.26-2.66l.68-1.9c.37-1.08,1.58-1.64,2.66-1.26h0ZM503.88,172.72l1.9.68c1.08.38,1.64,1.58,1.26,2.66l-.68,1.9c-.38,1.08-1.58,1.64-2.66,1.26l-1.9-.68c-1.08-.38-1.64-1.58-1.26-2.66l.68-1.9c.38-1.08,1.58-1.64,2.66-1.26h0ZM490.13,167.81l1.9.68c1.08.38,1.64,1.58,1.26,2.66l-.68,1.9c-.38,1.08-1.58,1.64-2.66,1.26l-1.9-.68c-1.08-.38-1.64-1.58-1.26-2.66l.68-1.9c.38-1.08,1.58-1.64,2.66-1.26h0ZM476.38,162.9l1.9.68c1.08.38,1.64,1.58,1.26,2.66l-.68,1.9c-.38,1.08-1.58,1.64-2.66,1.26l-1.9-.68c-1.08-.38-1.64-1.58-1.26-2.66l.68-1.9c.38-1.08,1.58-1.64,2.66-1.26h0ZM442.53,150.65c.03-.24.07-.46.14-.66h0c.22-.62.91-.93,1.51-.72,22.79,8.14,45.58,16.28,68.37,24.42.62.22.93.91.72,1.51h0c-.08.24-.23.49-.43.77.96.86,1.36,2.25.9,3.53-.49,1.36-1.79,2.21-3.17,2.16.08,1.02.25,1.99.11,2.39h0c-.22.62-.68.31-1.32.09-23.11-8.25-46.24-16.51-69.35-24.77-.62-.22-1.18-.28-.96-.9h0c.19-.52.86-1.01,1.52-1.64-1.56-.68-2.35-2.46-1.77-4.08.58-1.54,2.17-2.41,3.73-2.1h0Z" fill="#010101" fill-rule="evenodd" stroke-width="0"/>
    <path d="M510.12,166.09c1.71.61,2.87,1.7,2.61,2.43s-1.86.83-3.56.22c-1.71-.61-2.87-1.7-2.61-2.43s1.86-.83,3.56-.22h0Z" fill="#010101" fill-rule="evenodd" stroke-width="0"/>
    <path d="M490.53,159.1c1.71.61,2.87,1.7,2.61,2.43s-1.86.83-3.56.22-2.87-1.7-2.61-2.43c.26-.73,1.85-.83,3.56-.22h0Z" fill="#010101" fill-rule="evenodd" stroke-width="0"/>
    <path d="M470.48,151.93c1.71.61,2.87,1.7,2.61,2.43s-1.86.83-3.56.22-2.87-1.7-2.61-2.43,1.85-.83,3.56-.22h0Z" fill="#010101" fill-rule="evenodd" stroke-width="0"/>
    <path d="M450.9,144.94c1.71.61,2.87,1.7,2.61,2.43s-1.86.83-3.56.22-2.87-1.7-2.61-2.43c.26-.73,1.85-.83,3.56-.22h0Z" fill="#010101" fill-rule="evenodd" stroke-width="0"/>
    <path d="M496.19,162.02c-.32.15-.46.55-.31.87l2.35,4.96c.15.32.55.46.87.31l4.96-2.35c.32-.15.46-.55.31-.87l-2.35-4.96c-.15-.32-.55-.46-.87-.31l-4.96,2.35h0Z" fill="#010101" fill-rule="evenodd" stroke-width="0"/>
    <path d="M481.35,153.16c-1.98-.71-4.18.32-4.89,2.32-.71,1.98.32,4.18,2.32,4.89s4.18-.32,4.89-2.32c.7-2-.34-4.18-2.32-4.89h0Z" fill="#010101" fill-rule="evenodd" stroke-width="0"/>
    <path d="M444.77,139.93c-.54-.19-1.18.22-1.55.55-.75.65-1.3,1.63-1.62,2.55s-.53,2.02-.36,3c.08.48.31,1.21.85,1.41s1.18-.22,1.55-.55c.75-.65,1.3-1.63,1.62-2.55s.53-2.02.36-3c-.08-.48-.31-1.21-.85-1.41h0Z" fill="#010101" fill-rule="evenodd" stroke-width="0"/>
    <path d="M456.06,147.69c-.32.15-.46.55-.31.87l2.35,4.96c.15.32.55.46.87.31l4.96-2.35c.32-.15.46-.55.31-.87l-2.35-4.96c-.15-.32-.55-.46-.87-.31l-4.96,2.35h0Z" fill="#010101" fill-rule="evenodd" stroke-width="0"/>
    <path d="M518.03,166.1c-.54-.19-1.18.22-1.55.55-.75.65-1.3,1.63-1.62,2.55-.33.92-.53,2.02-.36,3,.08.48.31,1.21.85,1.41s1.18-.22,1.55-.55c.75-.65,1.3-1.63,1.62-2.55s.53-2.02.36-3c-.08-.48-.31-1.21-.85-1.41h0Z" fill="#010101" fill-rule="evenodd" stroke-width="0"/>
  </g>
</svg>