<?xml version="1.0" encoding="UTF-8"?>
<svg id="Layer_2" xmlns="http://www.w3.org/2000/svg" version="1.1" viewBox="0 0 312.7 79">
  <!-- Generator: Adobe Illustrator 29.5.1, SVG Export Plug-In . SVG Version: 2.1.0 Build 141)  -->
  <g id="Layer_2-2">
    <g>
      <g>
        <path d="M38.4,53.6c-.1-1.3,0-2.8,0-4.2,0-1.8.2-3.7.3-5,0-6.5,3.4-10.3,8.3-16.5.8-1.1,1.3-1.7,2.1-2.5,3.1-3.3,7.5-11.6,11.1-13.1,1.3-.6,2.4.4,3.4,1.1,2.9,2,7.5,3.4,8.4,5.6.6,1.2-.6,2.9-1.7,3.8-.9.8-1.7,1.7-2.4,2.6-5.2,6.2-11.4,11.4-16.1,17.9-1.9,2.2-12.4,20.5-13.7,10.5h0s0,0,0,0Z"/>
        <path d="M73.8,26.4c0,.5,0,1.1,0,1.7,0,4,.2,8.1,0,12.1,0,3.1.8,4.7-2.2,6.6-8.6,5.9-15.6,13.7-22.8,21.1-.6.7-1.2,1.4-1.8,2.2-1.5,1.9-6.3,9.5-8.3,8.8-.3-.1-.5-.9-.5-1.5,0-1.5.3-3,.3-4.4,0-2.6-.9-4.9.7-7.3,7-10.5,16.8-23.2,26.1-32.8,1.5-1.4,7.7-11,8.5-6.7h0Z"/>
        <path d="M34.4,45.9c0,3.2-2.8,2.6-6.3.4C19.1,40.8,4.7,25.4,2.2,20.4c-1.4-3,2.4-4,4.7-5.4s2.2-1.2,3.4-1.9c2-1.2,4.2-3.1,6.1-3.1,1.2,0,2.1,1.1,2.7,2.1,3.1,5.4,5.7,11.2,9.2,16.5.8,1.2,1.9,2.3,2.8,3.5,2.5,3.4,2.4,7.9,3.1,12.1,0,.6.2,1.2.2,1.7h0Z"/>
        <path d="M33.4,58.7c.4,3.8,2.4,17.7-2.6,13.1-7.7-8.5-16.7-15.5-24.1-24.3-1.2-1.5-2.6-2.9-3.8-4.5C.3,39.4-.1,35.5.2,30.7c.1-1.6-.2-3.2,0-4.8.3-2,1.8-.8,2.5.3,4.3,6.1,9.1,12,14.9,16.6,1.1,1,2.2,2,3.5,2.9,1.7,1.2,3.6,2.2,5.4,3.3,4,2.3,7,4.7,6.9,9.7h0s0,0,0,0Z"/>
        <path d="M38.4,28.9c-1.1-4.4.3-9-.2-13.4-.5-3.3.7-6.6.4-9.9-.2-1.8-1-5,1.3-5.6,4-.4,11.4,6.3,14.5,7.8,2,1,2.9,2.4,1.3,4.4-1.2,1.6-2.9,2.9-4.2,4.4-1,1-1.6,2.1-2.5,3.2-2.2,2.7-4.3,5.8-6.7,8.3-1.2,1.2-3.3,3.4-3.9.8h0s0,0,0,0Z"/>
        <path d="M0,56.1c0-.6.1-1.1.2-1.7.3-2.9-.6-8.7.6-9.2.4-.2,1.1.5,1.6,1.1,5.1,7.1,11.3,13.2,17.8,19,1.3,1.1,2,1.9,3.3,3.2,2.1,2.1,5.4,5,7.2,7.4,1.8,2.1,1.9,4-1,2.5-7.4-3.9-14.5-8.3-21.5-12.7C3.8,63-.4,62.4,0,56.2H0Z"/>
        <path d="M74.2,54.6c-.2,9.2-2.3,7.5-9,11.8-4.7,2.9-9.5,5.6-14.3,8.3-.7.4-1.6.9-2.4,1.1-.9.2-1.2-.2-.9-.8,3-4.8,27.4-32.9,26.6-20.5h0s0,0,0,0Z"/>
        <path d="M33.8,3.8c-.3,6.3-1.2,12.6-.7,18.8,1,11.8-5.4-2.3-7.6-5.7-1.1-1.6-1.9-3.4-2.9-5.1-1.8-3.1-2.5-3.9,0-5.8,1.8-1.2,3.5-2.4,5.5-3.3.6-.2,1.2-.5,1.8-.8.8-.4,1.7-1,2.5-1,1.2,0,1.4,1.8,1.5,2.8h0c0,0,0,0,0,0Z"/>
      </g>
      <g>
        <path d="M102.1,45.6h-5.5v18.6h-6.1V14.8h9.7c8.8,0,12.6,4.6,12.6,14.9s-3.7,15.9-10.6,15.9ZM106.3,29.9c0-5.5-1-12-6.4-12h-3.2v24.9h4.2c4.8,0,5.4-7.3,5.4-12.9Z"/>
        <path d="M133.2,61.4v2.8h-15.6V14.8h6.1v46.6h9.4Z"/>
        <path d="M154.3,55.2h-13.8l-2,9h-3.4l11-49.3h5.1l11,49.3h-6.1l-1.9-9h0ZM153.7,52.3l-6.3-29.3-6.3,29.3h12.6,0Z"/>
        <path d="M188.3,51.2v1.8c0,7.5-4.3,11.4-11.4,11.4s-10.4-2.5-11.6-7.9l5.8-3.5c.1,5.4,1.4,8.8,5.5,8.8s5.4-4.5,5.5-8.8v-1.8c0-13.2-16.7-9.3-16.7-23.5v-1.8c0-7.5,3.6-11.4,9.9-11.4s9.3,1.9,10.4,7l-5.9,3.6c-.1-5.4-1-8-4.2-8s-4,4.5-4.2,8.8v1.8c0,8.9,16.7,7.2,16.7,23.5h0Z"/>
        <path d="M213,61.4v2.8h-19.6V14.8h18.9v2.8h-12.8v21.6h10.5v2.8h-10.5v19.5h13.5Z"/>
        <path d="M241.3,64.2h-3.9l-13.5-34.5v34.5h-6.1V14.8h3.9l13.5,35V14.8h6.1v49.4Z"/>
        <path d="M264.4,53l5.8,3.5c-1.2,5.4-5.4,8-11.6,7.9-7.1,0-11.4-3.9-11.4-11.4v-27.1c0-7.5,4.3-11.4,11.4-11.4s10.4,2.5,11.6,7.9l-5.8,3.5c-.1-5.3-.9-8.8-5.5-8.8s-5.4,4.5-5.5,8.8v27.1c.1,4.3-.4,8.8,5.5,8.8s5.4-3.5,5.5-8.8h0Z"/>
        <path d="M275,64.2V14.8h6.1v49.4h-6.1Z"/>
        <path d="M304.8,55.2h-13.8l-2,9h-3.4l11-49.3h5.1l11,49.3h-6.1l-1.9-9h0ZM304.1,52.3l-6.3-29.3-6.3,29.3h12.5,0Z"/>
      </g>
    </g>
  </g>
</svg>