<svg width="160px" height="141px" viewBox="0 0 160 141" version="1.1" xmlns="http://www.w3.org/2000/svg" xmlns:xlink="http://www.w3.org/1999/xlink">
    <!-- Generator: Sketch 46.2 (44496) - http://www.bohemiancoding.com/sketch -->
    <desc>Created with Sketch.</desc>
    <defs>
        <polygon id="path-1" points="0 140.121803 159.742222 140.121803 159.742222 0 0 0"></polygon>
    </defs>
    <g id="Symbols" stroke="none" stroke-width="1" fill="none" fill-rule="evenodd">
        <g id="footer-/-mobile" transform="translate(-100.000000, -60.000000)">
            <g id="footer-content" transform="translate(10.000000, 60.000000)">
                <g id="PLA_stacked-logo" transform="translate(90.000000, 0.000000)">
                    <path d="M0,82.898452 C0,82.6786252 0.208888889,82.5032079 0.467777778,82.5032079 L8.18,82.5032079 C13.83,82.5032079 15.1855556,84.8935465 15.1855556,88.4807197 L15.1855556,96.7508693 C15.1855556,100.486814 13.3011111,102.67731 8.06333333,102.67731 L5.94333333,102.67731 C5.68333333,102.67731 5.47555556,102.856058 5.47555556,103.074775 L5.47555556,116.977153 C5.47555556,117.19698 5.26555556,117.374617 5.00555556,117.374617 L0.467777778,117.374617 C0.208888889,117.374617 0,117.19698 0,116.977153 L0,82.898452 Z M7.82777778,98.3929087 C9.3,98.3929087 9.76888889,97.7967118 9.76888889,96.650948 L9.76888889,88.6805622 C9.76888889,87.4848378 9.24111111,86.9363811 7.77,86.9363811 L5.94333333,86.9363811 C5.68333333,86.9363811 5.47555556,87.1140189 5.47555556,87.3316252 L5.47555556,97.9976646 C5.47555556,98.2174913 5.68333333,98.3929087 5.94333333,98.3929087 L7.82777778,98.3929087 Z" id="Fill-1" fill="#231F20"></path>
                    <path d="M19.8355556,82.5022087 L24.3733333,82.5022087 C24.6311111,82.5022087 24.8411111,82.6798465 24.8411111,82.8974528 L24.8411111,112.594051 C24.8411111,112.811657 25.0511111,112.989295 25.3111111,112.989295 L30.0233333,112.989295 C30.2811111,112.989295 30.4911111,113.168043 30.4911111,113.38565 L30.4911111,116.978374 C30.4911111,117.19598 30.2811111,117.373618 30.0233333,117.373618 L19.8355556,117.373618 C19.5777778,117.373618 19.3677778,117.19598 19.3677778,116.978374 L19.3677778,82.8974528 C19.3677778,82.6798465 19.5777778,82.5022087 19.8355556,82.5022087" id="Fill-3" fill="#231F20"></path>
                    <path d="M51.1143333,117.373285 L46.5421111,117.373285 C46.2998889,117.373285 46.0965556,117.216742 46.0765556,117.011348 L45.2787778,109.233033 C45.2521111,108.968797 44.9321111,108.802261 44.6387778,108.898852 L41.0254444,110.11123 C40.861,110.165631 40.7476667,110.293309 40.731,110.443191 L40.031,117.013569 C40.0076667,117.216742 39.8065556,117.373285 39.5632222,117.373285 L34.991,117.373285 C34.7087778,117.373285 34.491,117.165671 34.5254444,116.929191 L39.5287778,82.8493795 C39.5587778,82.6517575 39.7576667,82.5018756 39.9943333,82.5018756 L46.1121111,82.5018756 C46.3476667,82.5018756 46.5454444,82.6517575 46.5754444,82.8493795 L51.5776667,116.929191 C51.6132222,117.165671 51.3954444,117.373285 51.1143333,117.373285 M42.0398889,105.391616 L44.381,104.535624 C44.5687778,104.465679 44.681,104.301364 44.661,104.128167 C44.1865556,100.204592 43.8221111,96.791726 43.4898889,93.2045528 C43.4443333,92.7204898 42.6098889,92.7160488 42.5576667,93.2023323 C42.151,97.1336787 41.7143333,101.062805 41.3854444,104.998592 C41.3598889,105.295025 41.7176667,105.509301 42.0398889,105.391616" id="Fill-5" fill="#231F20"></path>
                    <path d="M159.274,117.373285 L154.701778,117.373285 C154.459556,117.373285 154.256222,117.216742 154.236222,117.011348 L153.438444,109.233033 C153.411778,108.968797 153.090667,108.802261 152.798444,108.898852 L149.185111,110.11123 C149.021778,110.165631 148.907333,110.293309 148.890667,110.443191 L148.190667,117.013569 C148.168444,117.216742 147.966222,117.373285 147.722889,117.373285 L143.151778,117.373285 C142.868444,117.373285 142.652889,117.165671 142.685111,116.929191 L147.689556,82.8493795 C147.718444,82.6517575 147.917333,82.5018756 148.154,82.5018756 L154.271778,82.5018756 C154.507333,82.5018756 154.707333,82.6517575 154.736222,82.8493795 L159.738444,116.929191 C159.772889,117.165671 159.555111,117.373285 159.274,117.373285 M150.199556,105.391616 L152.540667,104.535624 C152.728444,104.465679 152.841778,104.301364 152.820667,104.128167 C152.346222,100.204592 151.982889,96.791726 151.649556,93.2045528 C151.606222,92.7204898 150.769556,92.7160488 150.719556,93.2023323 C150.311778,97.1336787 149.874,101.062805 149.545111,104.998592 C149.519556,105.295025 149.877333,105.509301 150.199556,105.391616" id="Fill-7" fill="#231F20"></path>
                    <path d="M64.8871111,107.759528 C64.8871111,98.1448819 55.176,101.782016 55.176,91.2702992 L55.176,88.2315827 C55.176,84.6444094 57.0015556,82.0042677 62.7715556,82.0042677 C68.5371111,82.0042677 70.3626667,84.6444094 70.3626667,88.2315827 L70.3626667,92.0696693 C70.3626667,92.2872756 70.1526667,92.4660236 69.8937778,92.4660236 L65.3548889,92.4660236 C65.0971111,92.4660236 64.8871111,92.2872756 64.8871111,92.0696693 L64.8871111,88.2315827 C64.8871111,87.0369685 64.4182222,86.188748 62.7715556,86.188748 C61.1826667,86.188748 60.6515556,87.0369685 60.6515556,88.2315827 L60.6515556,91.1215276 C60.6515556,99.3916772 70.3626667,95.7045827 70.3626667,107.659606 L70.3626667,111.694205 C70.3626667,115.281378 68.5371111,117.871559 62.7715556,117.871559 C57.0015556,117.871559 55.176,115.281378 55.176,111.694205 L55.176,107.309882 C55.176,107.088945 55.386,106.911307 55.646,106.911307 L60.1826667,106.911307 C60.4426667,106.911307 60.6515556,107.088945 60.6515556,107.309882 L60.6515556,111.644244 C60.6515556,112.841079 61.1826667,113.73815 62.7715556,113.73815 C64.4182222,113.73815 64.8871111,112.841079 64.8871111,111.644244 L64.8871111,107.759528 Z" id="Fill-9" fill="#231F20"></path>
                    <path d="M80.8235556,112.989739 L86.948,112.989739 C87.2068889,112.989739 87.4168889,113.167377 87.4168889,113.384983 L87.4168889,116.978818 C87.4168889,117.195314 87.2068889,117.372952 86.948,117.372952 L75.348,117.372952 C75.0902222,117.372952 74.8802222,117.195314 74.8802222,116.978818 L74.8802222,82.8978969 C74.8802222,82.6802906 75.0902222,82.5026528 75.348,82.5026528 L86.948,82.5026528 C87.2068889,82.5026528 87.4168889,82.6802906 87.4168889,82.8978969 L87.4168889,86.5405819 C87.4168889,86.7592984 87.2068889,86.935826 86.948,86.935826 L80.8235556,86.935826 C80.5635556,86.935826 80.3557778,87.1134638 80.3557778,87.3332906 L80.3557778,97.2010701 C80.3557778,97.4186764 80.5635556,97.5963142 80.8235556,97.5963142 L86.0057778,97.5963142 C86.2646667,97.5963142 86.4746667,97.7750622 86.4746667,97.9915583 L86.4746667,101.485472 C86.4746667,101.703078 86.2646667,101.880716 86.0057778,101.880716 L80.8235556,101.880716 C80.5635556,101.880716 80.3557778,102.058354 80.3557778,102.27707 L80.3557778,112.593385 C80.3557778,112.812102 80.5635556,112.989739 80.8235556,112.989739" id="Fill-11" fill="#231F20"></path>
                    <path d="M103.217778,102.409965 C103.351111,102.875154 104.162222,102.780784 104.138889,102.301162 C104,99.3645874 103.946667,96.3525165 103.946667,93.5602724 L103.946667,82.898674 C103.946667,82.6799575 104.155556,82.5012094 104.413333,82.5012094 L108.422222,82.5012094 C108.681111,82.5012094 108.89,82.6799575 108.89,82.898674 L108.89,116.977375 C108.89,117.196091 108.681111,117.374839 108.422222,117.374839 L104.078889,117.374839 C103.864444,117.374839 103.676667,117.248272 103.625556,117.071745 L97.94,97.3717134 C97.8055556,96.9076346 96.9955556,97.0020047 97.0166667,97.4794063 C97.1577778,100.390446 97.2388889,103.422501 97.2388889,106.365737 L97.2388889,116.977375 C97.2388889,117.196091 97.0288889,117.374839 96.7688889,117.374839 L92.7611111,117.374839 C92.5033333,117.374839 92.2933333,117.196091 92.2933333,116.977375 L92.2933333,82.898674 C92.2933333,82.6799575 92.5033333,82.5012094 92.7611111,82.5012094 L97.1633333,82.5012094 C97.38,82.5012094 97.5677778,82.6277764 97.6188889,82.8054142 L103.217778,102.409965 Z" id="Fill-13" fill="#231F20"></path>
                    <path d="M123.848667,106.91164 L128.267556,106.91164 C128.526444,106.91164 128.736444,107.090388 128.736444,107.306884 L128.736444,111.645687 C128.736444,115.23175 127.027556,117.871892 121.262,117.871892 C115.317556,117.871892 113.608667,115.23175 113.608667,111.645687 L113.608667,88.2818764 C113.608667,84.6447425 115.317556,82.0046008 121.262,82.0046008 C127.027556,82.0046008 128.736444,84.6447425 128.736444,88.2818764 L128.736444,92.0711126 C128.736444,92.2876087 128.526444,92.4663567 128.267556,92.4663567 L123.848667,92.4663567 C123.590889,92.4663567 123.382,92.2876087 123.382,92.0711126 L123.382,88.2818764 C123.382,87.0850417 122.850889,86.1890811 121.262,86.1890811 C119.673111,86.1890811 119.084222,87.0850417 119.084222,88.2818764 L119.084222,111.595727 C119.084222,112.890262 119.673111,113.737372 121.262,113.737372 C122.850889,113.737372 123.382,112.890262 123.382,111.595727 L123.382,107.306884 C123.382,107.090388 123.590889,106.91164 123.848667,106.91164" id="Fill-15" fill="#231F20"></path>
                    <path d="M133.360444,82.5022087 L137.898222,82.5022087 C138.157111,82.5022087 138.366,82.6798465 138.366,82.8974528 L138.366,116.978374 C138.366,117.19598 138.157111,117.373618 137.898222,117.373618 L133.360444,117.373618 C133.102667,117.373618 132.892667,117.19598 132.892667,116.978374 L132.892667,82.8974528 C132.892667,82.6798465 133.102667,82.5022087 133.360444,82.5022087" id="Fill-17" fill="#231F20"></path>
                    <path d="M79.8703333,58.7914488 C76.6025556,58.7914488 73.4803333,58.1774882 70.6092222,57.0761339 L70.6092222,48.301937 C70.6092222,46.1225433 72.3936667,44.3383937 74.5758889,44.3383937 L90.1881111,44.3383937 C95.3981111,44.3383937 99.6603333,40.0795276 99.6603333,34.8747402 L99.6603333,30.9300709 C99.6603333,25.0680236 94.9036667,20.3139921 89.0358889,20.3139921 L64.5592222,20.3139921 C62.377,20.3139921 60.5914444,22.099252 60.5914444,24.2786457 L60.5914444,50.1105118 C56.7658889,45.7561654 54.4447778,40.1017323 54.4447778,33.924378 C54.4447778,20.2129606 65.8503333,9.05619685 79.8703333,9.05619685 C84.1181111,9.05619685 88.1225556,10.0853858 91.6458889,11.8961811 C91.6458889,11.8961811 95.7747778,13.8946063 99.6603333,18.3344409 C103.303667,22.498937 105.298111,28.0245827 105.298111,33.924378 C105.295889,47.6369055 93.8903333,58.7914488 79.8703333,58.7914488 M68.4636667,32.8463386 C68.4636667,31.7394331 68.8936667,28.8217323 72.8758889,28.8217323 L87.5736667,28.8217323 C90.727,28.8217323 91.1981111,31.7760709 91.1981111,32.8063701 C91.1981111,33.9154961 90.7692222,36.8309764 86.7858889,36.8309764 L72.0914444,36.8309764 C68.8403333,36.8309764 68.4636667,33.877748 68.4636667,32.8463386 M79.8703333,0 C60.7447778,0 45.1847778,15.2191181 45.1847778,33.924378 C45.1847778,52.630748 60.7447778,67.8498661 79.8703333,67.8498661 C98.997,67.8498661 114.558111,52.630748 114.558111,33.924378 C114.558111,15.2191181 98.997,0 79.8703333,0" id="Fill-19" fill="#231F20"></path>
                    <path d="M54.4964444,139.408809 C53.5597778,139.855124 52.482,140.120471 51.342,140.120471 C47.2908889,140.120471 44.2164444,137.027353 44.2164444,132.980542 C44.2164444,128.93151 47.2908889,125.841723 51.342,125.841723 C52.482,125.841723 53.5597778,126.107069 54.4964444,126.555605 L54.4964444,129.86855 C53.7242222,129.199077 52.6231111,128.731668 51.342,128.731668 C48.9797778,128.731668 47.1875556,130.642384 47.1875556,132.980542 C47.1875556,135.340904 48.9597778,137.232746 51.342,137.232746 C52.6231111,137.232746 53.7642222,136.765337 54.4964444,136.113628 L54.4964444,139.408809 Z" id="Fill-21" fill="#231F20"></path>
                    <mask id="mask-2" fill="white">
                        <use xlink:href="#path-1"></use>
                    </mask>
                    <g id="Clip-24"></g>
                    <polygon id="Fill-23" fill="#231F20" mask="url(#mask-2)" points="57.7411111 139.897535 60.6311111 139.897535 60.6311111 126.067323 57.7411111 126.067323"></polygon>
                    <path d="M74.5572222,129.625963 C73.6205556,129.116365 72.2783333,128.731113 70.8105556,128.731113 C68.4105556,128.731113 66.6183333,130.520813 66.6183333,132.979987 C66.6183333,135.321475 68.2872222,137.233302 70.6294444,137.233302 C72.8472222,137.233302 74.1716667,135.706727 74.1716667,134.202357 C74.1716667,134.121309 74.1494444,133.978089 74.1494444,133.897042 L70.5683333,133.897042 L70.5683333,131.272443 L77.1216667,131.272443 C77.2238889,131.802026 77.3061111,132.594735 77.3061111,133.287522 C77.3061111,136.927987 74.985,140.122136 70.5483333,140.122136 C66.5372222,140.122136 63.645,137.007924 63.645,132.979987 C63.645,128.932065 66.6605556,125.842278 70.8105556,125.842278 C72.2372222,125.842278 73.6405556,126.08653 74.5572222,126.493987 L74.5572222,129.625963 Z" id="Fill-25" fill="#231F20" mask="url(#mask-2)"></path>
                    <path d="M83.3403333,126.066435 L78.2114444,139.898868 L81.447,139.898868 L82.4847778,136.94786 L87.4314444,136.94786 L88.4692222,139.898868 L91.7047778,139.898868 L86.5758889,126.066435 L83.3403333,126.066435 Z M84.967,129.847899 L86.4947778,134.162277 L83.4414444,134.162277 L84.967,129.847899 Z" id="Fill-26" fill="#231F20" mask="url(#mask-2)"></path>
                    <path d="M93.9935556,126.066435 L98.7768889,126.066435 C101.484667,126.066435 103.356889,127.530836 103.356889,130.092151 C103.356889,132.067261 102.219111,133.205254 100.854667,133.591616 C102.584667,134.486466 103.621333,136.927876 103.949111,139.896647 L100.954667,139.896647 C100.466889,136.886797 99.2857778,134.751813 97.5968889,134.751813 L96.8857778,134.751813 L96.8857778,139.896647 L93.9935556,139.896647 L93.9935556,126.066435 Z M98.7768889,128.853128 L96.8857778,128.853128 L96.8857778,131.964009 L98.7768889,131.964009 C99.6935556,131.964009 100.385778,131.415553 100.385778,130.418561 C100.385778,129.402694 99.6935556,128.853128 98.7768889,128.853128 L98.7768889,128.853128 Z" id="Fill-27" fill="#231F20" mask="url(#mask-2)"></path>
                    <path d="M113.991889,129.544694 C113.279667,129.036206 112.058556,128.547702 111.000778,128.547702 C109.839667,128.547702 109.290778,129.075064 109.290778,129.787835 C109.290778,130.236371 109.656333,130.661591 110.328556,131.050174 L112.159667,132.148198 C113.951889,133.226237 114.663,134.425292 114.663,135.972961 C114.663,138.149024 113.219667,140.119694 110.001889,140.119694 C108.638556,140.119694 107.376333,139.77441 106.501889,139.409143 L106.501889,136.216103 C107.254111,136.805639 108.598556,137.416269 109.878556,137.416269 C110.980778,137.416269 111.589667,136.886686 111.589667,136.133946 C111.589667,135.667646 111.265222,135.240206 110.491889,134.79167 L108.598556,133.673662 C106.765222,132.615607 106.195222,131.436536 106.195222,129.868883 C106.195222,127.939292 107.438556,125.842056 111.020778,125.842056 C112.058556,125.842056 113.136333,126.087418 113.991889,126.47156 L113.991889,129.544694 Z" id="Fill-28" fill="#231F20" mask="url(#mask-2)"></path>
                </g>
            </g>
        </g>
    </g>
</svg>