<?xml version="1.0" encoding="UTF-8"?><svg id="b" xmlns="http://www.w3.org/2000/svg" width="223.49" height="47.88" xmlns:xlink="http://www.w3.org/1999/xlink" viewBox="0 0 223.49 47.88"><defs><style>.p{fill:url(#k);}.q{fill:url(#j);}.r{fill:url(#i);}.s{fill:url(#h);}.t{fill:url(#m);}.u{fill:url(#n);}.v{fill:url(#l);}.w{fill:url(#g);}.x{fill:url(#f);}.y{fill:url(#e);}.z{fill:url(#d);}.aa{fill:url(#o);}.ab{fill:#14829c;}.ac{fill:#f7d38b;}.ad{fill:#fff;}</style><linearGradient id="d" x1="121.72" y1="2.29" x2="121.72" y2="24.2" gradientUnits="userSpaceOnUse"><stop offset="0" stop-color="#f05780"/><stop offset=".08" stop-color="#e65d85"/><stop offset=".21" stop-color="#cd6d92"/><stop offset=".38" stop-color="#a389a8"/><stop offset=".58" stop-color="#6baec7"/><stop offset=".68" stop-color="#4cc3d8"/><stop offset="1" stop-color="#12829c"/></linearGradient><linearGradient id="e" x1="25.63" y1="17.36" x2="31.86" y2="38.6" xlink:href="#d"/><linearGradient id="f" x1="42.71" y1="9.25" x2="49.87" y2="31.89" xlink:href="#d"/><linearGradient id="g" x1="69.61" y1="5.13" x2="75.49" y2="29.11" xlink:href="#d"/><linearGradient id="h" x1="91.53" y1="3.25" x2="94.76" y2="27.45" xlink:href="#d"/><linearGradient id="i" x1="106.74" y1="2.15" x2="107.7" y2="24.55" xlink:href="#d"/><linearGradient id="j" x1="139.78" y1="2.88" x2="137.94" y2="25.01" xlink:href="#d"/><linearGradient id="k" x1="158.92" y1="6.47" x2="154.31" y2="27.7" xlink:href="#d"/><linearGradient id="l" x1="177.55" y1="8.82" x2="172.36" y2="30.98" xlink:href="#d"/><linearGradient id="m" x1="7.17" y1="22.93" x2="16.46" y2="42.98" xlink:href="#d"/><linearGradient id="n" x1="215.42" y1="22.05" x2="207.47" y2="42.64" xlink:href="#d"/><linearGradient id="o" x1="196.99" y1="16.21" x2="189.62" y2="36.84" xlink:href="#d"/></defs><g id="c"><path class="ac" d="M9.58,47.13c-.69,0-1.31-.41-1.59-1.04l-3.48-7.85c-.17-.39-.17-.86,0-1.33-.1-.22-.14-.47-.13-.72-1.31-.75-2.3-1.9-3.02-3.51-.5-1.1-.69-2.23-.57-3.37-.11-1,.02-1.99.39-2.94.75-1.91,2.45-3.5,4.77-4.48,1.18-.49,2.19-.71,3.29-.71.45,0,.93.04,1.46.12l.59-.96c.21-.34.52-.59.91-.73l.24-.08c.18-.06.37-.09.57-.09.72,0,1.36.44,1.62,1.11l2.74,7.06c.16.41.15.86-.02,1.27l.02.05c.04.11.07.22.09.34,2.09.82,3.55,2.22,4.26,4.09.26.69.41,1.4.44,2.11l.14-.31c-.45-4.41-.84-8.81-1.17-13.09l-1.49-.85c-.55-.31-.89-.89-.89-1.52,0-.02,0-.14,0-.16.02-.17.06-.34.13-.5-.09-.21-.13-.43-.13-.66,0-.02,0-.14,0-.16.07-.68.52-1.26,1.17-1.48l8.29-2.81c.18-.06.36-.09.55-.09.54,0,1.04.25,1.37.68.24.3.36.67.36,1.06,0,.23-.04.45-.13.66.08.2.13.43.13.66,0,.35-.1.68-.29.97l-.67,1.02c2.56,3.81,4.96,7.48,7.15,10.93.58.24,1.86.78,2.54,1.06l.98-1.58c-.82-2.89-2.8-9.88-3.3-11.64l-2.63-1.02c-.67-.26-1.12-.92-1.12-1.62,0-.25.06-.47.14-.67-.09-.21-.14-.43-.14-.66.04-.83.54-1.47,1.26-1.68l6.25-1.76c.15-.04.31-.06.47-.06.48,0,.94.2,1.27.56.26.28.52.56.78.84-.08-.2-.12-.41-.12-.62,0-.06,0-.11,0-.17.08-.76.6-1.35,1.32-1.52l7.47-1.79c.13-.03.27-.05.4-.05.56,0,1.09.28,1.42.74.21.3.32.64.32,1,0,.23-.04.45-.13.66.08.21.13.43.13.66,0,.34-.1.67-.29.96l-1.35,2.1,3.45,14.68c.03.14.05.27.05.4,0,.21-.04.41-.12.61l.07.31c.03.14.05.27.05.4,0,.81-.55,1.5-1.34,1.7l-1.94.46c-.13.03-.27.05-.41.05-.5,0-.98-.21-1.31-.59-.67-.77-1.35-1.53-2.04-2.29.2.29.32.64.32,1.01,0,.02,0,.12,0,.13-.01.19-.06.36-.13.53.09.21.13.43.13.66,0,.02,0,.12,0,.13-.06.74-.57,1.35-1.28,1.55l-6.93,1.93c-.15.04-.31.06-.47.06-.1,0-.2,0-.29-.02-.19.17-.41.3-.65.38l-7.9,2.52c-.17.06-.36.08-.54.08-.23,0-.46-.05-.67-.13-.2.36-.53.63-.92.78l-6.01,2.18c-.19.07-.39.1-.6.1-.49,0-.95-.2-1.28-.56-.1-.11-.19-.23-.26-.37-.9,1.64-2.48,3-4.55,3.85-.82.33-1.79.5-2.97.5-.55,0-1.1-.03-1.64-.08l-.81,1.54c-.2.39-.55.69-.96.84l-.25.09c-.18.07-.38.1-.58.1ZM10.53,37.15c.45.27.9.48,1.32.63.85.3,1.43.43,1.87.43.29,0,.55-.05.85-.18.28-.12.52-.32.7-.57-.37-.18-1.22-.43-2.79-.43-.56,0-1.15.03-1.76.1-.06,0-.12.01-.18.02ZM48.14,28.74c.14.07.27.15.39.25-1-1.1-2.02-2.2-3.08-3.33l.57,2.09,2.12.98ZM7.27,28.44c.16.18.35.27.63.3.04,0,.09,0,.16,0,.42,0,1.19-.06,1.86-.11.02,0,1.05-.06,1.9-.1-1-.8-1.95-1.25-2.7-1.25-.23,0-.45.04-.65.12-.48.2-.93.59-1.2,1.03ZM46.83,15.67l-.12-.49-.55-.27c.22.25.45.5.67.75ZM214.82,46.91c-.24,0-.46-.05-.67-.14-4.53-2.02-9.18-3.93-13.83-5.68-.47-.18-.83-.54-1.01-.99-.25.13-.52.2-.81.2h0c-.2,0-.39-.03-.58-.1l-7.84-2.71c-.39-.13-.72-.41-.93-.75-.21.09-.45.14-.69.14-.17,0-.35-.03-.52-.08l-6.09-1.85c-.67-.2-1.16-.79-1.24-1.48,0-.07,0-.13,0-.19,0-.23.04-.45.13-.66-.02-.05-.04-.1-.05-.15-.16.08-.33.14-.5.21-.92.35-1.89.53-2.96.53h0c-1.14,0-2.42-.19-4.04-.6l-9.07-2.1c-.7-.17-1.24-.75-1.34-1.46-.01-.09-.02-.17-.02-.25,0-.23.04-.45.13-.66-.05-.13-.09-.27-.11-.42-.01-.08-.02-.16-.02-.25,0-.63.34-1.22.89-1.52l2.16-1.2,2.68-12.02-1.36-1.83c-.22-.3-.35-.67-.35-1.05,0-.23.04-.45.13-.66-.08-.21-.13-.44-.13-.66,0-.34.1-.67.28-.95.32-.49.86-.79,1.45-.79.13,0,.26.01.38.04l7.78,1.77c3.3.81,5.1,1.63,6.65,3.05,1.46,1.33,2.3,3.12,2.3,4.92,0,.22-.02.44-.04.66.03.22.04.44.04.66,0,.49-.07.98-.2,1.44-.29,1.04-.88,1.91-1.78,2.64.54.94.81,1.95.81,3.03,0,.22-.02.45-.05.68.03.23.05.43.05.64,0,.65-.1,1.33-.29,2.01-.06.22-.14.43-.22.64,2.19-3.67,4.56-7.52,7.04-11.45l-.35-.79c-.1-.23-.15-.47-.15-.71,0-.22.05-.44.13-.65-.09-.22-.13-.45-.13-.67,0-.44.16-.85.45-1.17.33-.36.8-.57,1.29-.57.18,0,.36.03.53.08l8.31,2.71c.7.23,1.18.88,1.19,1.62,0,.24-.05.47-.14.69.09.2.13.42.14.64,0,.76-.46,1.41-1.15,1.67l-1.9.7c-.2,4.12-.46,8.36-.77,12.63l1.57,2.66c.04.08.08.16.12.24,0,0,2.33-1.2,2.33-1.2l4.49-11.64-.64-1.74c-.07-.19-.11-.4-.11-.61s.05-.44.13-.64l-.02-.07c-.07-.19-.11-.4-.11-.61,0-.47.19-.92.52-1.24.33-.32.76-.5,1.22-.5.22,0,.43.04.64.12l8.77,3.48c.66.27,1.09.9,1.09,1.62,0,.24-.05.46-.13.66.09.21.13.44.13.66-.02.77-.49,1.41-1.19,1.65l-2.98,1.02c-.37.91-4.51,11.16-4.51,11.16.38.16.77.32,1.11.46-.02-.27.02-.54.13-.79-.27-.65-.13-1.42.4-1.92l2.42-2.3c.32-.31.75-.48,1.2-.48.36,0,.71.11,1,.32,0,0,.89.62,1.58,1.45.74.88,1.4,2.78,1.17,4.11,0,.01,0,.03-.01.05.07.48.07.9.01,1.27-.22,1.24-1.06,2.14-1.74,2.86-.13.14-.26.28-.38.42-.02.09-.05.18-.08.26.18.44.17.94-.02,1.36-.22.49-.58.84-1,1.01-.23.09-.46.13-.68.13ZM173.19,26.67c.3.04.59.07.85.07,1.62,0,2.18-.8,2.52-2.01-.08-.31-.21-.58-.37-.78-.35-.46-1.03-.84-2.08-1.15l-.92,3.88ZM175.5,16.95c.27.04.51.05.73.05,1.14,0,1.42-.46,1.61-1.13-.04-.13-.1-.24-.17-.35-.28-.43-.83-.79-1.58-1.03l-.59,2.46ZM102.08,29.54c-.49,0-1-.04-1.52-.12-3.81-.55-5.85-3.71-6.38-4.66-.03-.04-.05-.09-.08-.13-.23.61-.8,1.06-1.48,1.12l-9.1.87s-.14,0-.17,0c-.65,0-1.25-.35-1.55-.92-.14-.25-.21-.54-.21-.83,0-.23.04-.45.13-.66-.09-.21-.13-.44-.13-.66,0-.4.14-.79.39-1.09l1.83-2.24c-.32-3.12-1.04-10.11-1.21-11.79l-2.11-1.34c-.5-.32-.82-.88-.82-1.48,0-.14.01-.27.04-.4.02-.09.05-.18.09-.26-.09-.21-.13-.43-.13-.66,0-.14.01-.27.04-.4.18-.73.78-1.26,1.52-1.33l8.04-.79c.84-.07,1.57-.1,2.25-.1,1.65,0,3,.19,4.39.62,2.71.85,4.61,3.16,4.61,5.62,0,.08,0,.16,0,.23,0,.16-.02.32-.04.49.03.21.05.41.05.6,0,.08,0,.15,0,.23-.07,1.37-.59,3.22-2.57,4.64.64,1.1,1.23,2.45,1.76,4.03.22.66.82,2.01,1.63,3.16.08-.16.2-.31.33-.44l1.86-1.79-.31-12.07-2.05-1.5c-.45-.33-.72-.86-.72-1.42,0-.18.03-.35.08-.52.02-.05.03-.1.05-.14-.09-.21-.13-.43-.13-.66,0-.18.03-.35.08-.52.23-.71.88-1.2,1.62-1.22l9.33-.17c.76,0,1.39.44,1.65,1.13.07.19.11.4.11.6,0,.22-.05.44-.14.65.01.02.02.05.03.07.07.19.11.39.11.6,0,.52-.23,1.01-.63,1.35l-2.01,1.68c.04,3.28.12,10.29.14,11.93l1.9,1.84c.34.32.52.76.52,1.24,0,.22-.04.45-.13.65,0,0,0,.01,0,.02.09.21.13.43.13.65s-.04.44-.13.65c-.25.65-.88,1.09-1.6,1.1l-4.33.08c.02.11.03.21.03.32,0,.23-.04.45-.13.66.09.22.13.44.13.66,0,.44-.17.86-.47,1.19-.26.28-1.69,1.62-4.58,1.62h0ZM92.59,20.67c-.19-.69-.41-1.51-.65-2.51-.14-.59-.6-1.19-1.08-1.6.11,1.23.22,2.48.28,3.13l1.45.98ZM90.29,10.17c.95-.03,1.56-.15,1.86-.35.15-.09.32-.32.42-.71-.13-.7-.39-1.24-.72-1.5-.31-.24-.5-.39-1.37-.39-.14,0-.29,0-.45.01l.26,2.94ZM156.61,29.09c-.58,0-1.17-.05-1.76-.15-4.95-.86-8.08-5.35-7.78-11.18-.04-.86,0-1.79.12-2.7.07-.51.16-1.01.27-1.5-.23.11-.48.17-.75.17h0c-.07,0-.15,0-.22-.01l-1.04-.14c-.58-.08-1.1-.45-1.35-.99l-1.27-2.66c-.32,2.94-.9,8.22-1.19,10.85l1.67,1.77c.3.31.47.74.47,1.18,0,.22-.04.45-.13.66.09.21.13.43.13.66,0,.27-.06.54-.18.78-.29.59-.91.97-1.57.97-.06,0-.13,0-.19-.01l-8.7-.89c-.72-.07-1.32-.58-1.51-1.27-.04-.14-.06-.3-.06-.47,0-.22.05-.44.14-.65-.03-.07-.05-.13-.07-.2-.04-.15-.06-.31-.06-.47,0-.55.25-1.05.68-1.38l2.03-1.52.96-10.13-.96,1.6c-.31.52-.89.85-1.5.85-.02,0-.11,0-.13,0l-1.3-.1c-.46-.03-.89-.25-1.19-.6-.3-.35-.45-.8-.42-1.27l.06-.76c-.05-.19-.07-.38-.06-.56l.43-5.78c.06-.9.83-1.61,1.74-1.61.02,0,.11,0,.13,0,5.21.38,10.49.93,15.69,1.61.46.06.87.29,1.15.66.28.37.41.83.35,1.29l-.08.58c.08.25.11.5.08.74l-.47,3.56c.81-1.56,1.87-2.85,3.16-3.79,1.51-1.1,3.28-1.69,5.13-1.69.52,0,1.06.05,1.59.14,2.42.42,4.55,1.83,6.01,3.97,1.28,1.88,1.95,4.21,1.95,6.72,0,.12,0,.23-.02.35v.19c0,.21.02.5.02.78,0,.97-.1,1.95-.31,2.93,0,.02,0,.05-.01.07-.63,3.03-2.1,5.73-4.05,7.42-1.47,1.28-3.46,1.98-5.6,1.98h0ZM157.49,11.13c-.08,0-.21.02-.4.15-.74.53-1.73,2.33-2.27,5.78-.14.89-.23,1.74-.26,2.52.08,1.57.5,2.61,1.13,2.71h0c.78,0,2.47-1.27,3.22-5.16.16-.82.26-1.66.3-2.48-.06-1.24-.33-2.27-.78-2.91-.33-.47-.63-.57-.84-.61-.04,0-.08-.01-.11-.01ZM73,28.17c-2.92,0-8.06-1.34-9.73-10.31-.23-1.24-.32-2.49-.26-3.7-.13-2.76.52-5.26,1.88-7.17,1.32-1.86,3.23-3.06,5.36-3.39.39-.06.76-.09,1.13-.09.92,0,1.82.19,2.87.59l.92-.93c.29-.3.68-.48,1.1-.51l.4-.03s.12,0,.14,0c.87,0,1.61.65,1.73,1.52l.99,7.6c.03.21.02.6,0,.8.04.44-.1.88-.37,1.23-.28.35-.69.59-1.14.65.11.03.21.07.3.12,2.92,1.55,3.43,3.49,3.54,5,.02.29,0,.59-.04.92.02.14.03.28.04.41.19,2.85-2.73,6.5-7.24,7.17-.55.08-1.09.12-1.63.12ZM72.16,9.58c-.05,0-.11,0-.16.01-.33.05-.55.19-.76.49-.44.6-.7,1.66-.77,3.06.03.83.12,1.76.27,2.62,1.03,6.13,2.6,6.14,3.13,6.14h0c.13,0,.26-.01.39-.03.97-.14,1.63-1.05,1.79-2.43,0-.12.02-.37.07-.97-.27-1.96-.38-3.28.38-3.82.06-.04.12-.08.18-.11h0c-.72,0-1.35-.43-1.62-1.09-.93-2.3-1.26-2.6-1.51-2.81-.11-.1-.21-.19-.32-.32-.61-.75-.96-.75-1.07-.75ZM122.55,25.6c-.15,0-.3,0-.45,0-1.5-.06-2.88-.73-4.28-1.52l-1.31,1.04c-.32.25-.7.38-1.09.38-.02,0-.13,0-.16,0l-.25-.02c-.9-.08-1.59-.85-1.58-1.76v-1.17c0-.05,0-.11,0-.14l.11-8.6c0-.41.15-.8.42-1.11-.65-1.13-.96-2.42-.95-3.92,0-.14.02-.28.04-.42v-.09s0-.07,0-.07c-.02-.24-.04-.48-.04-.74.01-1.83.68-3.43,1.92-4.63,1.38-1.32,3.4-2.05,5.7-2.05.12,0,.25,0,.37,0,1.72.06,3.01.47,4.47,1.43l.9-.61c.29-.2.62-.3.98-.3.06,0,.12,0,.18,0l.23.02c.94.09,1.63.9,1.57,1.84l-.05.81c.04.17.06.35.05.52l-.44,7.56c-.02.25-.08.48-.2.69,1.27,1.51,1.84,3.2,1.72,5.02,0,.07-.01.15-.02.22.04.35.05.73.02,1.11-.27,3.85-3.5,6.54-7.86,6.54h0ZM118.83,16.43c.31.47.64.88.98,1.22,1.14,1.12,1.64,1.33,2.28,1.35h0c.42,0,.8-.15,1.08-.41-.63-.58-1.87-1.3-3.62-1.9-.25-.08-.49-.17-.72-.26ZM119.76,7.62c.06.06.13.11.21.17.22.14,1.2.5,1.85.74.02,0,1.5.6,2.28.92-.65-1.37-1.53-2.49-2.56-2.52h0c-.67,0-1.3.24-1.72.63-.02.02-.04.04-.06.06Z"/><path class="ad" d="M120.64,1.5c.11,0,.23,0,.34,0,1.75.06,2.98.5,4.49,1.59.56-.38,1.32-.9,1.32-.9.16-.11.36-.17.55-.17.03,0,.07,0,.1,0l.24.02c.53.05.93.51.9,1.05l-.05.94c.04.12.06.25.05.39l-.44,7.56c-.02.32-.2.58-.44.75,1.16,1.21,2.11,2.85,1.97,4.96,0,.09-.02.17-.03.26.04.34.06.7.03,1.07-.24,3.48-3.14,5.84-7.11,5.84-.14,0-.28,0-.42,0-1.53-.06-3.03-.89-4.38-1.67-.61.49-1.71,1.36-1.71,1.36-.18.14-.4.22-.63.22-.03,0-.06,0-.09,0l-.24-.02c-.52-.05-.91-.48-.91-1v-1.24s0-.06,0-.09l.11-8.59c0-.26.11-.51.3-.7.11-.11.25-.18.4-.22-.83-1.13-1.24-2.47-1.22-4.11,0-.17.03-.34.05-.5-.02-.27-.05-.53-.05-.82.01-1.63.6-3.05,1.69-4.1,1.24-1.2,3.08-1.84,5.18-1.84M124.31,10.34c.28.13.7.35,1.18.64-.54-1.8-1.83-4.73-3.91-4.81-.03,0-.07,0-.1,0-.79,0-1.61.32-2.16.84-.15.14-.31.35-.43.59.13.34.35.61.7.82.29.18,1.2.52,1.99.81,0,0,2.74,1.1,2.74,1.1M127.73,11.91s0,0,0-.01c0-.11-.01-.21-.05-.31,0,0,0,0,0-.01.02.11.05.25.05.34M122.15,19.75c.85,0,1.62-.5,1.98-1.2-.52-.77-2.04-1.78-4.34-2.57-1.04-.35-1.93-.76-2.69-1.22.61,1.42,1.36,2.61,2.18,3.42,1.17,1.15,1.85,1.53,2.78,1.57.03,0,.06,0,.09,0M111.5,1.59c.41,0,.77.26.92.65.04.11.06.22.06.34,0,.24-.11.47-.27.66.09.09.17.2.21.33.04.11.06.22.06.34,0,.29-.13.58-.36.77,0,0-1.73,1.45-2.28,1.91.04,3.38.14,11.98.14,12.6.46.45,2.13,2.06,2.13,2.06.19.19.29.44.29.7,0,.13-.02.25-.07.37-.04.11-.11.21-.19.3.17.18.26.41.26.65,0,.12-.02.25-.07.37-.15.37-.51.62-.91.63l-6.54.12c.24.02.43.03.55.03.39.01.74.25.89.61.05.13.08.25.08.38,0,.24-.09.48-.26.66.07.08.14.18.18.28.05.12.08.25.08.38,0,.25-.09.49-.27.68-.15.16-1.39,1.38-4.03,1.38-.43,0-.9-.03-1.42-.11-3.47-.5-5.34-3.41-5.84-4.28-.65-1.16-1.12-2.17-2.16-6.42-.31-1.29-1.73-2.57-2.67-2.72.16,1.8.38,4.31.43,4.86.6.4,2.61,1.76,2.61,1.76.27.19.43.49.43.81,0,.08-.01.17-.03.25-.04.15-.13.29-.23.4.17.18.26.42.26.67,0,.08-.01.17-.03.25-.1.41-.46.7-.88.74l-9.1.87s-.06,0-.1,0c-.37,0-.71-.2-.89-.52-.08-.15-.12-.32-.12-.48,0-.22.07-.44.22-.61,0,0,.03-.03.04-.05-.05-.06-.1-.11-.14-.18-.08-.15-.12-.32-.12-.48,0-.22.07-.44.22-.61,0,0,1.48-1.81,2.04-2.49-.34-3.28-1.25-12.12-1.28-12.46-.59-.37-2.41-1.53-2.41-1.53-.29-.19-.47-.51-.47-.85,0-.07,0-.15.02-.22.04-.17.13-.31.24-.43-.17-.18-.26-.42-.26-.67,0-.07,0-.15.02-.22.1-.41.44-.72.86-.76l8.04-.79c.79-.06,1.51-.1,2.17-.1,1.59,0,2.88.19,4.17.59,2.4.75,4.08,2.79,4.08,4.9,0,.07,0,.13,0,.2,0,.17-.03.35-.05.52.03.2.06.4.06.6,0,.06,0,.13,0,.2-.07,1.42-.69,3.2-2.85,4.45.75,1.12,1.45,2.61,2.07,4.49.29.86,1.41,3.41,2.95,4.76.04-.14.11-.26.21-.37-.07-.08-.14-.17-.18-.28-.05-.13-.08-.26-.08-.39,0-.26.1-.51.3-.7,0,0,1.58-1.52,2.09-2.02-.09-3.37-.31-12.07-.33-12.77-.57-.42-2.35-1.72-2.35-1.72-.26-.19-.41-.5-.41-.81,0-.1.01-.19.04-.29.05-.14.13-.26.22-.36-.17-.19-.26-.42-.26-.67,0-.1.01-.2.04-.29.13-.4.49-.69.92-.69l9.33-.17s.01,0,.02,0M89.78,10.93c1.45,0,2.3-.15,2.8-.49.38-.25.64-.73.76-1.3-.15-.94-.5-1.71-1.03-2.12-.38-.29-.71-.54-1.82-.54-.18,0-.38,0-.61.02-.18.02-.42.06-.65.1.13,1.51.33,3.69.38,4.33.06,0,.12,0,.17,0M89.68,11.92h0s0-.01,0-.02c0,0,0,.01,0,.02M131.88,2.33s.05,0,.07,0c5.21.38,10.47.92,15.65,1.61.54.07.93.57.85,1.11l-.1.78c.08.17.13.35.1.54l-.76,5.75c-.06.5-.49.86-.98.86-.04,0-.09,0-.13,0l-1.04-.14c-.33-.04-.63-.26-.77-.57,0,0-1.75-3.66-2.13-4.46-.14-.01-.17-.02-.34-.04-.04.33-1.08,9.83-1.45,13.27.57.61,1.91,2.02,1.91,2.02.18.18.26.42.26.67,0,.15-.03.3-.11.45-.04.08-.09.15-.15.22.17.18.26.42.26.66,0,.15-.03.31-.11.45-.17.34-.52.55-.89.55-.04,0-.07,0-.11,0l-8.71-.89c-.41-.04-.76-.33-.87-.72-.03-.09-.04-.18-.04-.27,0-.25.11-.47.27-.65-.11-.11-.2-.24-.24-.4-.03-.09-.04-.18-.04-.28,0-.3.13-.59.38-.78,0,0,1.75-1.31,2.29-1.72.06-.66.91-9.57,1.25-13.19-.1,0-.15-.01-.27-.03-.49.82-2.34,3.89-2.34,3.89-.18.3-.51.49-.86.49-.02,0-.05,0-.07,0l-1.3-.1c-.55-.04-.96-.52-.92-1.06l.07-.9c-.05-.13-.08-.27-.07-.42l.43-5.78c.04-.52.47-.92.99-.92M76.81,3.38c.49,0,.92.37.98.86l.99,7.6c.02.19,0,.73,0,.73.03.27-.04.53-.21.74-.17.21-.41.34-.68.37l-1.12.12s-.07,0-.1,0c-.4,0-.77-.24-.92-.62-1.25-3.09-1.54-2.85-1.95-3.33-.68-.83-1.21-1.01-1.65-1.01-.09,0-.18,0-.27.02-.53.08-.93.33-1.26.79-.58.8-.84,2.06-.91,3.46.03.95.13,1.91.28,2.78.95,5.67,2.44,6.77,3.87,6.77.17,0,.34-.02.5-.04,1.36-.2,2.25-1.42,2.43-3.13,0-.09.08-1.02.08-1.02-.16-1.15-.39-2.87.06-3.19.17-.12.37-.18.57-.18.16,0,.32.04.47.12,2.61,1.38,3.04,3.04,3.15,4.39.02.28,0,.56-.05.85.02.16.04.32.05.47.17,2.52-2.5,5.76-6.6,6.38-.46.07-.97.12-1.52.12-3.2,0-7.49-1.62-8.99-9.7-.23-1.23-.3-2.41-.25-3.53-.12-2.63.47-4.98,1.74-6.77,1.2-1.69,2.93-2.78,4.86-3.08.35-.05.69-.08,1.02-.08,1,0,1.93.24,3.04.73.5-.51,1.27-1.29,1.27-1.29.17-.17.39-.27.63-.29l.4-.03s.05,0,.08,0M157.02,5.3c.48,0,.97.04,1.47.13,2.22.38,4.18,1.68,5.52,3.65,1.2,1.76,1.82,3.97,1.82,6.3,0,.17-.02.34-.03.51.02.27.03.54.03.81,0,.92-.1,1.86-.3,2.81h0c-.59,2.89-1.98,5.45-3.81,7.04-1.35,1.17-3.16,1.8-5.1,1.8-.54,0-1.08-.05-1.63-.14-4.61-.8-7.43-5-7.16-10.4-.04-.85,0-1.72.12-2.63.5-3.66,2.07-6.61,4.4-8.32,1.39-1.02,2.99-1.54,4.68-1.54M155.77,23.05c1.22,0,3.1-1.7,3.88-5.77.18-.91.27-1.77.31-2.59-.07-1.42-.37-2.6-.91-3.38-.36-.53-.8-.83-1.33-.92-.08-.01-.16-.02-.24-.02-.29,0-.56.1-.83.3-1.14.82-2.07,3.1-2.57,6.27-.15.95-.24,1.82-.27,2.61.1,2.05.7,3.3,1.75,3.49.07.01.13.02.21.02M168.51,7.54c.07,0,.14,0,.22.02l7.78,1.77c3.15.77,4.86,1.55,6.31,2.87,1.32,1.2,2.06,2.82,2.06,4.36,0,.22-.02.44-.05.66.03.22.05.44.05.66,0,.42-.06.83-.17,1.23-.3,1.06-.96,1.92-2.02,2.61-.02.01-.04.02-.06.03.72.97,1.08,2.05,1.08,3.22,0,.22-.02.45-.05.69.02.21.05.42.05.64,0,.58-.09,1.18-.27,1.81-.52,1.81-1.8,3.22-3.52,3.84-.83.32-1.7.48-2.7.48-1.09,0-2.33-.19-3.85-.57l-9.09-2.11c-.4-.09-.71-.42-.77-.83,0-.05,0-.1,0-.14,0-.25.09-.48.26-.66-.13-.14-.22-.32-.25-.52,0-.05,0-.1,0-.14,0-.35.18-.69.5-.86,0,0,1.87-1.04,2.46-1.36.15-.68,2.13-9.58,2.82-12.68-.54-.73-1.56-2.11-1.56-2.11-.13-.18-.2-.39-.2-.6,0-.19.05-.37.16-.53.03-.04.06-.07.1-.11-.03-.04-.05-.07-.05-.07-.13-.18-.2-.39-.2-.6,0-.19.05-.37.16-.53.19-.29.5-.45.83-.45M176.23,17.75c1.7,0,2.13-.91,2.37-1.82,0-.03,0-.06.01-.1-.07-.25-.17-.5-.31-.73-.5-.77-1.5-1.28-2.76-1.55-.24.99-.63,2.66-.63,2.66,0,0-.15.61-.32,1.32.65.14,1.19.21,1.64.21M174.03,27.48c2.22,0,2.92-1.35,3.26-2.62.01-.06.01-.12.02-.18-.1-.45-.27-.88-.54-1.21-.52-.69-1.53-1.19-3.15-1.59,0,0-.05,0-.06,0-.23.94-.86,3.61-1.28,5.38.67.16,1.26.22,1.76.22M52.26,8.21c.32,0,.62.15.8.42.12.17.18.37.18.57s-.05.38-.16.55c0,0-.03.05-.09.13.02.03.05.05.07.07.12.17.18.37.18.56s-.05.38-.16.55c0,0-1.01,1.56-1.53,2.37.82,3.49,3.52,14.99,3.52,14.99.02.08.03.15.03.22,0,.19-.06.36-.16.52.09.36.14.57.14.57.02.08.03.15.03.23,0,.45-.31.86-.77.97l-1.93.46c-.08.02-.16.03-.24.03-.28,0-.56-.12-.75-.34-2.41-2.76-4.95-5.45-7.49-8.14.71,2.58,1.34,4.9,1.46,5.33.61.28,2.43,1.13,2.43,1.13.35.16.56.52.56.9,0,.03,0,.06,0,.09-.02.22-.11.42-.26.58.16.18.26.41.26.66,0,.03,0,.06,0,.09-.03.41-.33.76-.73.87l-6.93,1.94c-.09.02-.18.04-.27.04-.2,0-.39-.06-.56-.17-.11.26-.34.47-.61.56l-7.89,2.52c-.1.03-.21.05-.31.05-.26,0-.52-.1-.71-.29-.19-.19-.29-.44-.29-.7,0-.1.01-.21.05-.3,0,0,.06-.19.15-.45-.12-.17-.2-.36-.2-.57,0-.1.01-.21.05-.3,0,0,.19-.56.38-1.13-.05-.07-.11-.14-.18-.24-.5.67-1.01,1.35-1.01,1.35-.03.05-.08.08-.12.12.06.02.09.04.09.04.37.15.61.52.61.92v.02c0,.24-.11.46-.27.63.16.18.27.41.27.67v.02c0,.41-.28.77-.66.91l-6.01,2.18c-.11.04-.23.06-.34.06-.27,0-.54-.11-.73-.32-.18-.19-.27-.43-.27-.68,0-.13.03-.27.09-.4,0,0,.06-.13.14-.31-.14-.18-.23-.39-.23-.61,0-.13.03-.27.09-.4,0,0,.78-1.73,1.1-2.44-.46-4.54-.87-9.13-1.22-13.67-.58-.33-1.84-1.04-1.84-1.04-.31-.18-.51-.51-.51-.87,0-.03,0-.06,0-.09.02-.22.12-.42.26-.57-.16-.18-.26-.41-.26-.66,0-.03,0-.06,0-.09.04-.39.29-.72.66-.84l8.29-2.81c.1-.03.21-.05.31-.05.3,0,.59.14.78.39.14.18.21.39.21.6,0,.19-.05.39-.17.56,0,0-.03.05-.08.13.01.02.03.03.04.04.14.17.21.39.21.6,0,.19-.05.39-.17.55,0,0-.5.77-.94,1.44,2.56,3.8,5.1,7.66,7.55,11.52.48.2,3.2,1.34,3.2,1.34.06.02.1.06.15.09.02-.04.03-.09.06-.13,0,0,.92-1.48,1.43-2.31-.82-2.91-3.28-11.6-3.49-12.32-.68-.27-2.98-1.16-2.98-1.16-.38-.15-.64-.52-.64-.93,0-.02,0-.03,0-.05.01-.24.11-.45.26-.62-.16-.18-.27-.4-.27-.65,0-.02,0-.03,0-.05.02-.43.3-.79.71-.91l6.24-1.76c.09-.02.17-.04.26-.04.27,0,.53.11.72.32,2.2,2.35,4.32,4.77,6.44,7.19-.46-1.89-.84-3.42-.93-3.8-.63-.31-2.98-1.46-2.98-1.46-.34-.17-.57-.52-.57-.89,0-.03,0-.07,0-.11.02-.22.12-.41.26-.56-.16-.18-.26-.41-.26-.65,0-.04,0-.07,0-.11.05-.42.34-.76.75-.86l7.46-1.79c.08-.02.15-.03.23-.03M26.06,29c.35-.12,1.19-.37,1.42-.45-.27-.39-1.25-1.74-1.65-2.32.06.67.18,2.24.23,2.77M124.31,10.34h0s0,0,0,0M192.23,13.71c.1,0,.2.02.3.05l8.31,2.71c.4.13.67.5.67.92v.02c0,.25-.11.48-.27.65.16.17.26.4.27.65v.02c0,.41-.27.79-.66.93,0,0-1.6.59-2.37.87-.21,4.43-.49,8.9-.81,13.34.4.68,1.69,2.86,1.69,2.86.09.15.13.32.13.49,0,.23-.08.45-.23.64,0,0-.01,0-.02.01.07.11.11.18.11.18.09.15.13.33.13.49,0,.23-.08.45-.23.64-.19.23-.48.36-.77.36-.11,0-.23-.02-.33-.06l-7.85-2.71c-.35-.12-.62-.43-.67-.81,0-.05-.01-.09-.01-.14,0-.25.09-.48.26-.66-.13-.14-.22-.32-.24-.52,0-.05-.01-.09-.01-.14,0-.32.15-.63.42-.81,0,0,.2-.14.48-.33-.2.06-.32.1-.32.1-.09.03-.18.04-.27.04-.25,0-.49-.1-.68-.27.03.05.04.07.04.07.09.15.14.33.14.5,0,.22-.07.44-.21.62,0,.01-.02.02-.03.03.06.11.11.18.11.18.09.15.14.33.14.5,0,.22-.07.44-.21.62-.19.24-.48.38-.78.38-.1,0-.2-.01-.29-.04l-6.09-1.85c-.38-.11-.67-.45-.71-.84,0-.03,0-.07,0-.11,0-.25.1-.48.26-.66-.14-.15-.23-.34-.25-.55,0-.03,0-.07,0-.11,0-.36.18-.68.5-.86,0,0,2.17-1.21,2.56-1.42,2.4-4.03,4.9-8.08,7.43-12.08-.25-.57-.51-1.16-.51-1.16-.06-.13-.08-.27-.08-.41,0-.22.08-.43.22-.61-.08-.18-.13-.31-.13-.31-.06-.13-.08-.27-.08-.41,0-.24.08-.48.25-.66.19-.21.46-.33.73-.33M192.52,27.21c.02-.59.02-2.06.05-2.8-.4.66-1.19,1.92-1.45,2.35.26.08,1.01.32,1.4.45M207.93,19.09c.12,0,.24.02.36.07l8.77,3.48c.38.15.61.51.61.92v.02c0,.24-.11.46-.27.63.17.18.27.41.27.67v.02c0,.42-.29.78-.68.91,0,0-2.65.91-3.31,1.14-.26.64-3.62,8.94-4.92,12.17,1.15.48,2.78,1.15,2.85,1.18.13.04.24.06.34.06.11,0,.21-.03.29-.08-.14-.26-.31-.48-.39-.57-.35-.38-.35-.96-.01-1.34-.35-.4-.35-1.01.04-1.38l2.42-2.3c.19-.18.43-.27.68-.27.2,0,.4.06.57.18.03.02.82.58,1.43,1.31.62.73,1.19,2.42,1,3.5,0,.05-.03.08-.04.13.08.43.1.84.04,1.19-.18,1.01-.9,1.79-1.54,2.47-.19.21-.39.43-.55.62,0,.1-.03.21-.07.31l-.03.06c-.03.05-.07.09-.1.14.02.11.07.21.07.21.16.28.19.62.06.91l-.03.06c-.11.24-.32.46-.56.55-.13.05-.27.08-.41.08-.12,0-.25-.02-.36-.07-4.55-2.03-9.22-3.95-13.87-5.7-.37-.14-.62-.48-.64-.87,0-.02,0-.04,0-.06,0-.25.1-.49.26-.67-.15-.17-.25-.37-.26-.6,0-.02,0-.04,0-.06,0-.37.2-.71.53-.88,0,0,2.04-1.06,2.58-1.33.21-.56,3.71-9.61,4.69-12.16-.31-.83-.74-2.01-.74-2.01-.04-.12-.06-.24-.06-.36,0-.21.08-.41.21-.58-.09-.23-.14-.39-.14-.39-.04-.11-.06-.24-.06-.36,0-.26.1-.52.29-.71.19-.18.44-.29.69-.29M165.53,19.51h0M165.53,19.51s0,0,0,0h0s0,0,0,0M13,20.21c.4,0,.77.24.92.63l2.74,7.06c.13.33.05.68-.15.95l.15.38c.08.2.07.4.02.59,1.72.56,3.51,1.67,4.32,3.83.27.71.4,1.43.4,2.13,0,.23-.03.46-.06.69.02.21.06.43.06.64,0,2.63-1.81,5.07-4.92,6.34-.83.34-1.75.44-2.69.44-.7,0-1.4-.06-2.07-.12-.36.69-1.04,1.99-1.04,1.99-.12.22-.32.4-.55.48l-.24.08c-.11.04-.22.06-.33.06-.38,0-.74-.22-.91-.59l-3.48-7.85c-.11-.24-.07-.53.02-.78.03-.07.09-.13.13-.19l-.16-.35c-.11-.24-.07-.53.02-.78,0-.01.02-.02.03-.04-1.42-.65-2.46-1.77-3.19-3.41-.46-1.01-.62-2.05-.5-3.06-.11-.9,0-1.8.33-2.66.68-1.72,2.23-3.16,4.36-4.06,1.06-.44,1.98-.65,3-.65.57,0,1.16.06,1.83.19.36-.58.85-1.39.85-1.39.12-.2.3-.34.52-.42l.24-.08c.11-.04.22-.05.32-.05M8.06,29.5c.45,0,1.23-.06,1.94-.11,0,0,3-.16,3-.16.18,0,.41,0,.68.02-1.09-1.17-2.88-2.71-4.55-2.71-.32,0-.63.06-.94.18-.79.33-1.47,1-1.77,1.76.3.61.74.94,1.4,1.01.06,0,.15,0,.25,0M9.05,36.47c-.25,0-.49,0-.73-.02,1.11.96,2.25,1.67,3.29,2.03.91.32,1.56.47,2.12.47.4,0,.76-.08,1.14-.23.65-.27,1.11-.81,1.31-1.41,0-.01,0-.02,0-.04-.22-.55-1.59-1-3.68-1-.56,0-1.18.03-1.84.1-.56.06-1.09.08-1.59.08M120.64,0h0c-2.49,0-4.7.8-6.22,2.26-.16.15-.31.31-.45.47,0-.05,0-.1,0-.15,0-.29-.05-.58-.16-.86-.37-.99-1.28-1.62-2.32-1.62-.01,0-.04,0-.05,0l-9.33.17c-1.06.02-1.99.72-2.32,1.74-.08.24-.12.49-.12.75,0,.22.03.45.09.66-.04.15-.07.31-.08.47-.9-1.03-2.12-1.85-3.55-2.3-1.45-.45-2.91-.66-4.62-.66-.7,0-1.45.03-2.29.1l-8.06.79c-.94.09-1.73.71-2.07,1.57-.38-.9-1.28-1.52-2.29-1.52h0c-.07,0-.13,0-.2,0l-.39.03c-.61.05-1.17.31-1.58.74l-.57.58c-.94-.32-1.8-.47-2.67-.47-.41,0-.82.03-1.25.1-2.34.36-4.42,1.67-5.86,3.69-1.44,2.03-2.14,4.67-2.02,7.64-.06,1.25.04,2.53.28,3.81,1.76,9.51,7.31,10.93,10.46,10.93.57,0,1.16-.04,1.74-.13,2.66-.4,4.79-1.72,6.17-3.36.05.22.13.44.24.64.43.81,1.28,1.32,2.21,1.32.08,0,.16,0,.24-.01l9.1-.87c.5-.05.97-.24,1.34-.55.98,1.41,3.06,3.73,6.41,4.22.55.08,1.1.12,1.63.12,3.2,0,4.82-1.54,5.12-1.84.45-.48.68-1.09.68-1.72,0-.22-.03-.45-.09-.66.02-.08.04-.16.05-.24l3.6-.07c.63-.01,1.22-.25,1.66-.66.41.61,1.08,1.04,1.86,1.11l.22.02c.09,0,.17.01.24.01.56,0,1.11-.19,1.55-.53l.93-.74c1.33.73,2.68,1.31,4.17,1.37.16,0,.32,0,.48,0,4.78,0,8.32-2.97,8.61-7.23.02-.37.02-.74-.02-1.15,0-.06.01-.11.02-.17.13-1.85-.43-3.63-1.61-5.2.04-.15.07-.31.09-.47.43.46,1.01.74,1.64.79l1.3.1c.06,0,.12,0,.19,0,.53,0,1.03-.17,1.45-.47l-.66,6.98v.02s-1.76,1.32-1.76,1.32c-.63.48-.99,1.2-.99,1.98,0,.23.03.46.09.68-.06.21-.09.43-.09.65,0,.24.03.47.09.68.27.97,1.14,1.7,2.16,1.8l8.7.89c.08,0,.17.01.26.01.94,0,1.82-.54,2.24-1.38.17-.35.26-.73.26-1.12,0-.23-.03-.45-.09-.66.06-.22.09-.44.09-.66,0-.64-.24-1.25-.68-1.71l-1.42-1.51c.22-1.99.57-5.21.86-7.89l.14.28c.36.76,1.1,1.3,1.93,1.41l1.04.14s.09.01.13.01c-.03.16-.05.32-.07.48-.13.93-.17,1.88-.13,2.84-.28,6.19,3.09,10.96,8.41,11.89.63.11,1.27.17,1.89.17,2.03,0,3.95-.59,5.47-1.68-.05.2-.08.41-.08.63,0,.12,0,.24.03.36.14,1.01.91,1.84,1.91,2.08l9.09,2.11c1.65.42,2.99.61,4.19.61.94,0,1.81-.12,2.64-.38.12.98.81,1.8,1.76,2.09l6.09,1.85c.23.07.48.11.73.11.14,0,.28-.01.41-.03.27.27.6.48.97.61l7.84,2.71c.26.09.54.14.82.14.16,0,.32-.02.48-.05.28.35.65.63,1.09.79,4.63,1.74,9.27,3.65,13.79,5.66.3.13.62.2.97.2.32,0,.63-.06.94-.17.63-.24,1.13-.73,1.41-1.35l.03-.08c.22-.5.26-1.06.13-1.6.07-.08.14-.15.21-.23.7-.75,1.67-1.78,1.92-3.23.07-.41.07-.88.01-1.38.24-1.55-.49-3.65-1.34-4.66-.73-.87-1.62-1.51-1.72-1.57-.42-.3-.92-.45-1.43-.45-.64,0-1.25.24-1.72.69l-1.08,1.03.6-1.48c.84-2.08,1.63-4.03,2.03-5.01,1.02-.35,2.66-.91,2.66-.91.99-.34,1.67-1.26,1.69-2.3,0-.01,0-.05,0-.06,0-.23-.03-.45-.09-.66.06-.2.09-.41.09-.61,0-1.07-.61-1.98-1.56-2.36l-8.77-3.48c-.29-.12-.6-.17-.91-.17-.65,0-1.27.25-1.74.71-.48.47-.75,1.12-.75,1.78,0,.23.03.46.09.67-.06.21-.09.43-.09.65,0,.3.05.6.16.89l.54,1.46c-1.04,2.7-3.54,9.17-4.29,11.1-.43.22-.99.51-1.43.74l-1.22-2.07c.29-4.02.54-8.03.73-11.92l1.43-.53c.98-.36,1.65-1.3,1.65-2.34,0-.23-.04-.45-.09-.66.06-.22.09-.44.09-.66-.02-1.11-.71-2.04-1.71-2.37l-8.31-2.71c-.25-.08-.51-.12-.77-.12-.7,0-1.37.3-1.84.82-.41.45-.64,1.05-.64,1.67,0,.23.03.45.09.67-.06.21-.09.43-.09.65,0,.34.07.68.2.99l.19.44c-1.71,2.71-3.37,5.39-4.96,8,.01-.15.02-.31.02-.47,0-1-.21-1.96-.62-2.85.77-.74,1.29-1.62,1.57-2.62.15-.52.22-1.07.22-1.63,0-.21-.01-.43-.04-.66.03-.23.04-.45.04-.66,0-2-.93-4-2.55-5.47-1.65-1.51-3.54-2.38-6.96-3.22l-7.8-1.78c-.18-.04-.37-.06-.55-.06-.84,0-1.62.43-2.08,1.14-.26.4-.4.87-.4,1.35,0,.22.03.44.09.66-.04.13-.06.27-.08.41-.23-.47-.5-.93-.79-1.36-1.57-2.31-3.88-3.84-6.5-4.29-.58-.1-1.16-.15-1.72-.15-2.01,0-3.93.63-5.57,1.83-.57.41-1.09.89-1.57,1.42l.06-.48c.04-.3.02-.6-.06-.9l.06-.43c.09-.66-.09-1.32-.5-1.84-.41-.53-.99-.86-1.66-.95-5.21-.69-10.5-1.23-15.73-1.61-.06,0-.12,0-.18,0-.85,0-1.61.43-2.06,1.09-.37-.74-1.1-1.27-1.99-1.36l-.24-.02c-.08,0-.16-.01-.24-.01-.5,0-.99.15-1.4.43l-.49.33c-1.41-.85-2.73-1.22-4.43-1.28C120.9,0,120.77,0,120.64,0h0ZM101.23,8.63c.02-.15.03-.3.04-.45,0-.08,0-.18,0-.27,0-.54-.08-1.06-.23-1.58l1.41,1.04v.46s.29,10.92.29,10.92c-.44.42-1.01.97-1.34,1.29-.49-.85-.86-1.69-1.01-2.14-.45-1.36-.96-2.57-1.5-3.6,1.44-1.24,2.26-2.9,2.36-4.79,0-.09,0-.18,0-.27,0-.22-.02-.43-.05-.61h0ZM111.34,7.28l.99-.83c-.04.32-.06.65-.07.98,0,.3.02.57.04.8h0c-.02.13-.04.31-.04.53-.01,1.45.26,2.73.82,3.87-.19.35-.29.74-.29,1.15l-.08,5.96-1.25-1.21c-.01-1.19-.04-3.81-.07-6.41l-.06-4.85h0ZM80.28,12.53c.01-.29.02-.65-.02-.88l-.55-4.21c.12.11.24.21.38.29l1.8,1.14c.21,2.08.83,8.07,1.15,11.12l-.45.55s0-.05,0-.07c.04-.34.06-.66.03-.97-.11-1.42-.55-3.42-3.03-5.08.06-.06.11-.12.16-.18.38-.48.57-1.1.53-1.71h0ZM90.98,9.38l-.08-.93-.04-.46c.29.02.37.09.54.22.1.08.28.34.41.86-.03.08-.06.13-.08.14-.03.02-.2.11-.75.17h0ZM71.22,13.11c.09-1.68.46-2.37.62-2.59.12-.17.17-.17.27-.19,0,0,0,0,0,0,.04,0,.21.07.53.46.16.2.31.32.41.41.16.14.45.39,1.31,2.53.21.51.57.93,1.02,1.2-.32.84-.22,2.03-.01,3.55-.04.49-.06.75-.07.9-.06.46-.29,1.61-1.15,1.74-.11.02-.2.02-.28.02-.93,0-1.8-2.01-2.39-5.52-.14-.81-.22-1.68-.26-2.53h0ZM167.3,14.57c-.05-.95-.2-1.87-.43-2.75l.8,1.09c-.11.48-.23,1.05-.37,1.66h0ZM155.31,19.55c.03-.73.12-1.53.25-2.37.54-3.45,1.49-4.94,1.96-5.28,0,0,0,0,0,0,.06.02.15.08.29.28.21.3.56,1.02.64,2.53-.04.77-.13,1.54-.28,2.3-.66,3.42-2.01,4.43-2.37,4.55-.07-.08-.41-.54-.49-2h0ZM176.44,16.25l.17-.71c.19.12.33.25.43.38-.09.23-.22.31-.59.32h0ZM165.53,21.01h0,0ZM174.12,25.98l.06-.26c.16-.67.32-1.36.47-1.95.54.23.81.44.93.61.08.1.14.22.19.35-.29.92-.71,1.24-1.65,1.25h0ZM52.26,6.71c-.19,0-.39.02-.58.07l-7.46,1.79c-.74.18-1.34.68-1.66,1.34-.42-.29-.92-.45-1.43-.45-.22,0-.45.03-.66.09l-6.25,1.76c-1.03.29-1.75,1.21-1.8,2.28h0s0,.09,0,.12c0,.22.03.44.09.66-.05.18-.08.37-.09.55h0s0,.08,0,.11c0,1.02.64,1.95,1.6,2.32l2.29.89c.6,2.12,2.29,8.09,3.11,10.96l-.47.76c-.58-.24-1.27-.53-1.74-.73-2.09-3.28-4.36-6.75-6.76-10.33l.4-.61c.27-.4.41-.88.41-1.37,0-.22-.03-.44-.09-.66.06-.21.09-.44.09-.67,0-.55-.19-1.09-.52-1.52-.48-.61-1.19-.97-1.96-.97-.27,0-.54.04-.79.13l-8.29,2.81c-.92.31-1.58,1.15-1.67,2.12,0,.06-.01.15-.01.23,0,.22.03.45.09.66-.04.14-.07.29-.08.43,0,.05-.01.14-.01.23,0,.89.49,1.72,1.27,2.17l1.15.65c.22,2.76.46,5.56.72,8.38-.77-.89-1.76-1.62-2.95-2.15.11-.47.07-.96-.11-1.42l-2.74-7.06c-.37-.97-1.29-1.59-2.32-1.59-.28,0-.55.05-.81.14l-.23.08c-.56.2-1.02.57-1.32,1.06l-.33.54c-.37-.04-.73-.06-1.07-.06-1.2,0-2.31.24-3.58.77-2.51,1.05-4.35,2.79-5.18,4.89-.41,1.03-.56,2.11-.45,3.21-.12,1.24.1,2.48.64,3.68.72,1.61,1.7,2.81,2.97,3.63.02.1.04.2.07.3-.15.57-.11,1.13.1,1.61l3.48,7.85c.4.9,1.29,1.48,2.28,1.48.28,0,.56-.05.83-.14l.23-.08c.61-.22,1.09-.64,1.39-1.2l.58-1.11c.39.03.8.04,1.2.04,1.28,0,2.35-.18,3.26-.55,1.87-.76,3.37-1.92,4.38-3.32.41.29.91.45,1.43.45.29,0,.58-.05.85-.15l6.01-2.18c.37-.13.7-.35.96-.63.12.02.25.03.37.03.26,0,.52-.04.76-.12l7.9-2.52c.24-.08.46-.19.65-.32.02,0,.04,0,.06,0,.23,0,.46-.03.67-.09l6.93-1.93c1-.27,1.74-1.16,1.82-2.2,0-.1,0-.15,0-.21h0c.13.14.27.29.4.44.48.54,1.16.85,1.88.85.2,0,.4-.02.6-.07l1.92-.46c1.13-.28,1.92-1.27,1.92-2.43,0-.18-.02-.36-.06-.55l-.03-.12c.06-.21.09-.43.09-.65,0-.19-.02-.37-.06-.56,0-.01-2.42-10.32-3.38-14.38l1.18-1.83c.26-.41.4-.88.4-1.37,0-.23-.03-.45-.09-.66.06-.21.09-.44.09-.66,0-.51-.16-1.01-.45-1.43-.47-.67-1.23-1.06-2.03-1.06h0Z"/><path class="ab" d="M220.01,29.97c-1.51,0-2.74-1.24-2.74-2.77s1.23-2.76,2.74-2.76,2.73,1.24,2.73,2.76-1.2,2.77-2.73,2.77Z"/><path class="ad" d="M220.02,25.2c1.1,0,1.97.89,1.97,2.01s-.87,2.02-1.98,2.02-1.99-.88-1.99-2.02.89-2.01,1.99-2.01h0M220.04,28.91c.88,0,1.59-.76,1.59-1.69s-.71-1.7-1.61-1.7h0c-.88,0-1.6.76-1.6,1.69s.72,1.7,1.61,1.7c0,0,.01,0,.02,0M219.91,26.08c.34,0,.56.07.7.17.13.1.21.25.21.46,0,.29-.2.47-.44.54v.02c.2.03.33.21.37.54.05.35.11.48.14.55h-.38c-.05-.07-.11-.28-.15-.57-.05-.29-.2-.39-.48-.39h-.25v.96h-.36v-2.24c.19-.03.37-.05.63-.05M219.64,27.13h.26c.29,0,.54-.11.54-.38,0-.2-.14-.39-.54-.39-.12,0-.2,0-.26.02v.76M220.02,23.7h0c-1.92,0-3.49,1.57-3.49,3.51s1.57,3.52,3.49,3.52,3.48-1.54,3.48-3.52-1.56-3.51-3.47-3.51h0Z"/><path class="z" d="M122.16,22.75c-1.43-.06-2.93-.93-4.25-1.7l-.22-.13c-.71.56-1.42,1.12-2.13,1.68-.04.03-.09.05-.14.05,0,0-.27-.02-.27-.02-.12-.01-.2-.11-.2-.22l.11-8.59c0-.12.1-.22.22-.22,0,0,.39,0,.39,0,.09,0,.18.06.21.15.71,2.1,1.72,3.87,2.86,4.99,1.14,1.12,2,1.74,3.29,1.79h.12c1.55,0,2.89-1.21,2.97-2.7.09-1.56-2.68-3.07-5.08-3.89-3.89-1.32-5.53-3.26-5.5-6.49.02-3.1,2.47-5.18,6.1-5.18.11,0,.21,0,.32,0,1.77.06,2.89.49,4.52,1.75.58-.4,1.17-.8,1.75-1.19.04-.02.08-.04.12-.04,0,0,.27.02.27.02.12.01.2.12.2.23l-.45,7.56c0,.06-.03.11-.08.15-.04.04-.09.06-.15.06,0,0-.42-.02-.42-.02-.11,0-.19-.09-.21-.19,0,0,0,0,0,0-.03-.17-1.33-6.38-4.92-6.52h-.13c-1.8,0-3.47,1.29-3.5,2.7-.02,1.02.38,1.79,1.21,2.29.35.22,1.22.54,2.13.88.9.33,1.91.71,2.67,1.08,1.22.57,5.18,2.75,4.92,6.6-.21,3.06-2.75,5.12-6.32,5.12-.14,0-.27,0-.42,0Z"/><path class="ad" d="M120.64,2.49c.1,0,.21,0,.31,0,1.68.06,2.77.42,4.52,1.8.62-.43,1.25-.86,1.89-1.29.08,0,.16.01.24.02-.15,2.52-.3,5.04-.45,7.56-.13,0-.27-.02-.41-.02,0,0-1.28-6.57-5.13-6.71-.05,0-.1,0-.14,0-1.85,0-3.69,1.31-3.72,2.92-.02,1.07.41,1.93,1.31,2.49.73.45,3.29,1.24,4.82,1.97,2.1.99,5.01,3.16,4.79,6.38-.19,2.72-2.38,4.91-6.1,4.91-.13,0-.27,0-.41,0-1.5-.06-3.09-1.07-4.5-1.88-.75.59-1.5,1.18-2.25,1.78-.08,0-.16-.01-.25-.02.04-2.86.07-5.73.11-8.59.13,0,.26,0,.39,0,.73,2.17,1.77,3.95,2.91,5.07,1.2,1.18,2.1,1.8,3.44,1.85.04,0,.08,0,.13,0,1.66,0,3.1-1.27,3.19-2.92.09-1.69-2.7-3.25-5.23-4.11-3.67-1.25-5.38-3.05-5.35-6.27.02-3.15,2.54-4.96,5.88-4.96M126.74,10.58h0M120.64,2.05c-3.76,0-6.3,2.17-6.32,5.4-.03,3.33,1.66,5.34,5.65,6.7,2.51.85,5,2.32,4.93,3.66-.08,1.38-1.31,2.5-2.75,2.5h-.11c-1.22-.05-2.04-.65-3.14-1.73-1.11-1.09-2.11-2.83-2.8-4.9-.06-.18-.23-.3-.41-.3h-.39s0,0,0,0c-.24,0-.44.2-.44.44l-.06,4.34-.05,4.25c0,.23.17.43.41.45l.24.02s.03,0,.04,0c.1,0,.2-.03.28-.1.67-.53,1.33-1.06,2.01-1.59l.09.05c1.35.79,2.87,1.68,4.36,1.74.14,0,.29,0,.43,0,3.69,0,6.32-2.14,6.54-5.33.28-3.99-3.79-6.23-5.05-6.82-.77-.37-1.79-.75-2.68-1.08-.9-.34-1.76-.66-2.09-.86-.75-.46-1.12-1.17-1.1-2.1.02-1.3,1.58-2.49,3.27-2.49h.13c3.4.13,4.67,6.13,4.71,6.33,0,0,0,0,0,.01.03.2.2.36.41.37h.21s.2.02.2.02c0,0,.02,0,.03,0,.11,0,.21-.04.29-.11.09-.08.14-.19.15-.31l.45-7.56c.01-.24-.16-.44-.4-.47l-.17-.02h-.08s-.03,0-.04,0c-.09,0-.17.03-.25.08-.54.37-1.08.73-1.62,1.1-1.6-1.22-2.74-1.64-4.52-1.7-.11,0-.22,0-.33,0h0Z"/><path class="y" d="M22.87,38.37c-.06,0-.12-.02-.16-.07-.06-.06-.08-.16-.04-.24.42-.95.85-1.9,1.29-2.85-.53-5.12-1-10.29-1.38-15.37-.73-.42-1.46-.83-2.2-1.24-.08-.04-.12-.13-.11-.21,0-.09.06-.16.15-.19,2.75-.98,5.53-1.92,8.27-2.8.02,0,.04-.01.07-.01.07,0,.13.03.18.09.06.08.06.18,0,.26-.56.84-1.11,1.69-1.65,2.54,2.84,4.19,5.66,8.5,8.39,12.79,1.15.47,2.28.94,3.41,1.43.09.04.14.12.13.22,0,.09-.07.17-.16.2-2.56.77-5.23,1.62-7.92,2.53-.02,0-.05.01-.07.01-.06,0-.11-.02-.16-.06-.06-.06-.08-.15-.05-.23.27-.81.54-1.62.82-2.43-.45-.59-.91-1.19-1.37-1.79-.54.72-1.08,1.45-1.62,2.18-.04.06-.11.09-.18.09-.02,0-.04,0-.06,0-.82-.24-1.65-.47-2.48-.71.08.71.15,1.42.23,2.12.93.38,1.86.76,2.78,1.15.08.04.14.12.14.21,0,.09-.06.17-.15.2-1.97.69-4,1.42-6.03,2.18-.03,0-.05.01-.08.01ZM25.06,22.91c.2,2.3.41,4.59.64,6.89,1.1-.39,2.2-.77,3.31-1.14-1.3-1.92-2.62-3.84-3.94-5.75Z"/><path class="ad" d="M28.75,15.61c-.58.88-1.16,1.77-1.73,2.66,2.91,4.29,5.74,8.61,8.5,12.97,1.17.48,2.32.96,3.47,1.46-2.65.8-5.29,1.64-7.92,2.53.28-.85.57-1.7.86-2.54-.54-.7-1.07-1.41-1.62-2.11-.6.8-1.2,1.61-1.79,2.41-.93-.27-1.86-.53-2.79-.8.09.86.19,1.72.28,2.58.97.39,1.94.79,2.9,1.2-2.02.7-4.03,1.43-6.04,2.18.43-.97.87-1.94,1.31-2.91-.54-5.16-1-10.34-1.39-15.54-.76-.44-1.53-.87-2.3-1.3,2.74-.98,5.5-1.91,8.26-2.8M25.5,30.11c1.28-.45,2.56-.9,3.85-1.32-1.51-2.24-3.04-4.46-4.58-6.67.23,2.67.47,5.33.74,8M28.75,15.16s-.09,0-.14.02c-2.73.88-5.51,1.82-8.27,2.8-.16.06-.28.21-.29.38-.01.17.07.34.23.42.7.39,1.4.79,2.09,1.18.38,5.03.84,10.14,1.36,15.19-.43.93-.85,1.87-1.26,2.8-.07.16-.04.35.08.48.09.09.2.14.32.14.05,0,.11,0,.16-.03,2.03-.76,4.06-1.5,6.03-2.18.17-.06.29-.22.3-.41,0-.18-.1-.35-.27-.42-.88-.37-1.77-.74-2.66-1.1-.06-.56-.12-1.11-.18-1.67.72.2,1.44.41,2.16.62.04.01.08.02.12.02.14,0,.27-.07.36-.18.48-.65.96-1.29,1.44-1.94.37.49.74.97,1.11,1.46-.26.77-.53,1.55-.78,2.32-.05.16-.01.34.11.45.08.08.2.13.31.13.05,0,.1,0,.14-.02,2.69-.91,5.35-1.76,7.91-2.53.18-.05.3-.21.32-.4.01-.19-.1-.36-.27-.43-1.05-.45-2.15-.91-3.35-1.41-2.7-4.25-5.48-8.49-8.27-12.62.52-.81,1.04-1.61,1.57-2.41.1-.16.1-.36-.02-.51-.09-.11-.22-.18-.35-.18h0ZM25.89,29.5c-.18-1.87-.36-3.8-.54-5.77,1.1,1.58,2.2,3.19,3.3,4.82-.91.31-1.83.62-2.77.95h0Z"/><path class="x" d="M40.44,32.48c-.07,0-.13-.03-.18-.09-.06-.07-.06-.17-.01-.25.61-1.01,1.24-2.01,1.87-3.01l-3.94-13.92c-1.11-.44-2.22-.87-3.35-1.29-.09-.03-.15-.12-.14-.22s.07-.18.16-.2c2.04-.6,4.13-1.19,6.23-1.76.02,0,.04,0,.06,0,.06,0,.12.02.16.07,3.05,3.26,6.04,6.6,8.92,9.94l-2.18-8.93c-1.1-.55-2.2-1.09-3.31-1.62-.08-.04-.13-.13-.12-.22,0-.09.08-.17.17-.19,2.46-.63,4.96-1.23,7.44-1.78.02,0,.03,0,.05,0,.07,0,.14.04.18.1.05.07.05.17,0,.25-.65,1-1.3,2-1.94,3l3.82,16.28c.01.06,0,.12-.03.17-.03.05-.08.09-.14.1-.65.15-1.29.31-1.94.47-.02,0-.04,0-.05,0-.06,0-.12-.03-.17-.08-3.26-3.73-6.68-7.45-10.17-11.07l2.92,10.64c.92.42,1.84.85,2.75,1.28.08.04.13.13.13.22,0,.09-.07.17-.16.19-2.35.62-4.68,1.27-6.95,1.94-.02,0-.04,0-.06,0Z"/><path class="ad" d="M52.25,9.21c-.67,1.03-1.33,2.05-1.99,3.08,1.28,5.46,2.56,10.91,3.85,16.37-.65.15-1.3.31-1.94.47-3.47-3.97-7.06-7.87-10.78-11.7,1.06,3.86,2.12,7.71,3.17,11.57.95.44,1.9.88,2.85,1.32-2.33.61-4.65,1.26-6.96,1.94.63-1.03,1.27-2.06,1.92-3.09-1.33-4.71-2.67-9.41-4-14.12-1.14-.45-2.29-.9-3.45-1.34,2.07-.61,4.14-1.2,6.22-1.76,3.27,3.49,6.44,7.04,9.51,10.63-.81-3.31-1.62-6.62-2.43-9.93-1.13-.56-2.26-1.12-3.41-1.67,2.47-.63,4.95-1.22,7.44-1.78M52.25,8.76s-.07,0-.1.01c-2.49.56-4.99,1.16-7.45,1.79-.18.05-.31.2-.33.39-.02.19.08.36.25.44,1.08.52,2.15,1.04,3.22,1.57l1.59,6.52.35,1.41c-2.69-3.1-5.48-6.21-8.32-9.24-.09-.09-.2-.14-.32-.14-.04,0-.08,0-.12.02-2.1.57-4.2,1.16-6.23,1.76-.18.05-.31.22-.32.41,0,.19.11.36.29.43,1.09.41,2.17.83,3.24,1.25l1.47,5.2,2.41,8.52c-.61.98-1.22,1.95-1.81,2.93-.1.16-.08.36.03.5.09.11.22.17.35.17.04,0,.08,0,.13-.02,2.27-.67,4.6-1.32,6.95-1.94.18-.05.31-.2.33-.39s-.08-.36-.25-.44c-.88-.42-1.77-.83-2.66-1.24l-1.3-4.74-1.36-4.96c3.28,3.41,6.49,6.92,9.56,10.43.09.1.21.15.33.15.04,0,.07,0,.11-.01.64-.16,1.29-.31,1.94-.47.11-.03.21-.1.28-.2.06-.1.08-.22.05-.34-1.27-5.4-2.54-10.79-3.8-16.19.62-.97,1.25-1.95,1.88-2.92.1-.15.1-.35,0-.5-.08-.12-.22-.19-.36-.19h0Z"/><path class="w" d="M72.96,25.33c-4.26,0-7.09-3.14-8.19-9.07-.62-3.31-.13-6.29,1.37-8.39,1.08-1.52,2.63-2.5,4.36-2.76.37-.06.7-.08,1.01-.08.96,0,1.88.25,3.14.87.54-.55,1.08-1.1,1.62-1.64.04-.04.09-.06.14-.06,0,0,.41-.03.41-.03.11,0,.21.08.22.19l.97,7.51c0,.06,0,.16-.04.21-.04.05-.09.12-.15.13,0,0-1.13.12-1.14.12-.09,0-.17-.05-.21-.14-1.29-3.2-1.6-3.57-2.07-4.13-.73-.89-1.44-1.3-2.24-1.3-.13,0-.26.01-.39.03-.72.11-1.32.48-1.77,1.1-1.6,2.22-.99,6.79-.76,8.14.86,5.13,2.28,7.41,4.62,7.41.2,0,.41-.02.63-.05,2.19-.33,3.45-2.63,3.06-5.6l-.09-.62q-.2-1.43-.12-1.52s.11-.08.17-.08c.04,0,.07,0,.1.03,2.27,1.21,2.65,2.9,2.74,4.06.15,2.19-2.37,5.03-5.95,5.56-.49.07-.98.11-1.44.11Z"/><path class="ad" d="M76.81,4.37c.33,2.53.66,5.06.99,7.6-.37.04-.75.08-1.12.12-1.3-3.21-1.62-3.61-2.1-4.19-.85-1.04-1.65-1.38-2.41-1.38-.14,0-.29.01-.43.03-3.3.5-3.33,5.8-2.71,9.5.87,5.18,2.32,7.6,4.84,7.6.21,0,.43-.02.66-.05,2.26-.34,3.66-2.68,3.25-5.84-.08-.6-.28-1.97-.26-1.97,0,0,0,0,0,0,2.08,1.1,2.52,2.59,2.62,3.88.13,1.96-2.11,4.78-5.76,5.33-.48.07-.95.11-1.41.11-4,0-6.86-2.86-7.98-8.89-1.19-6.37,1.87-10.34,5.54-10.89.34-.05.66-.08.98-.08.93,0,1.85.25,3.18.91.57-.59,1.15-1.17,1.73-1.76.13,0,.26-.02.4-.03M76.81,3.92s-.03,0-.04,0c-.13.01-.26.02-.39.03-.11,0-.21.05-.28.13-.51.51-1.01,1.02-1.51,1.53-1.22-.58-2.13-.82-3.09-.82-.32,0-.67.03-1.04.09-1.79.27-3.39,1.29-4.5,2.85-1.53,2.15-2.03,5.19-1.4,8.56,1.42,7.65,5.36,9.25,8.41,9.25.47,0,.97-.04,1.47-.12,3.81-.57,6.29-3.51,6.14-5.8-.09-1.22-.49-2.99-2.86-4.25-.07-.03-.14-.05-.21-.05-.13,0-.25.05-.33.15q-.14.16.07,1.67l.09.65c.37,2.84-.81,5.04-2.88,5.35-.21.03-.41.05-.59.05-2.21,0-3.57-2.23-4.4-7.23-.22-1.33-.83-5.83.72-7.98.42-.58.95-.91,1.62-1.01.12-.02.24-.03.36-.03.46,0,1.17.13,2.07,1.21.45.54.75.9,2.03,4.07.07.17.23.28.41.28.02,0,.03,0,.05,0l1.12-.12c.12-.01.23-.07.3-.17.07-.09.11-.21.09-.33-.33-2.53-.66-5.06-.99-7.6-.03-.22-.22-.39-.44-.39h0Z"/><path class="s" d="M102.08,26.7c-.42,0-.86-.03-1.3-.1-3.12-.45-4.83-3.1-5.28-3.9-.53-.95-.99-1.77-2.09-6.23-.38-1.56-2.13-3.24-3.47-3.33-.25-.02-.45-.02-.61-.02-.12,0-.22,0-.3,0l.66,7.42c.98.65,1.95,1.3,2.91,1.97.08.05.11.15.09.24-.02.09-.1.16-.2.16-2.99.23-6.06.52-9.13.87,0,0-.02,0-.03,0-.08,0-.16-.04-.19-.12-.04-.08-.04-.18.02-.25.78-.96,1.56-1.92,2.35-2.88l-1.47-14.33c-.91-.58-1.82-1.16-2.74-1.74-.08-.05-.12-.15-.1-.24.02-.09.1-.16.19-.17,2.63-.3,5.33-.56,8.01-.78.79-.06,1.48-.1,2.12-.1,1.49,0,2.7.17,3.93.56,2.14.67,3.63,2.48,3.54,4.32-.08,1.53-.87,3.54-4.18,4.57,1.25.91,2.44,2.96,3.44,5.97.36,1.07,1.71,4.14,3.64,5.48,1.47,1.02,2.99,1.07,3.49,1.08.09,0,.17.06.2.14.03.08.01.18-.05.24-.11.12-1.17,1.13-3.47,1.13ZM89.8,4.4c-.53.06-1.42.22-1.54.35.03.16.46,4.89.65,6.96l.31-.02c.21,0,.4,0,.58,0,1.61,0,2.57-.19,3.21-.62.79-.52,1.26-1.63,1.18-2.83-.05-.82-.31-2.33-1.4-3.17-.61-.47-1.13-.7-2.31-.7-.2,0-.42,0-.67.02Z"/><path class="ad" d="M91.53,3.42c1.52,0,2.7.18,3.87.55,2,.62,3.47,2.33,3.38,4.1-.19,3.8-4.59,4.45-4.48,4.52,1.18.62,2.53,2.42,3.75,6.11.34,1,1.71,4.19,3.73,5.6,1.5,1.04,3.03,1.11,3.61,1.12,0,0-.98,1.07-3.31,1.07-.39,0-.81-.03-1.27-.1-2.88-.42-4.56-2.8-5.11-3.79-.55-.99-1.01-1.87-2.07-6.17-.42-1.71-2.27-3.4-3.67-3.5-.25-.02-.46-.02-.63-.02-.38,0-.54.03-.54.03.23,2.58.46,5.16.68,7.74,1.01.67,2.01,1.34,3,2.02-3.05.24-6.09.53-9.13.87.79-.99,1.6-1.97,2.41-2.95-.5-4.84-1-9.68-1.5-14.52-.94-.6-1.88-1.2-2.83-1.8,2.67-.3,5.34-.56,8.01-.78.77-.06,1.47-.09,2.1-.09M89.78,4.18h0s-1.73.19-1.72.5c0,.3.64,7.26.64,7.26.17,0,.35-.02.52-.03.2,0,.38,0,.57,0,1.56,0,2.61-.16,3.33-.66.9-.59,1.35-1.81,1.27-3.02-.08-1.25-.5-2.58-1.48-3.33-.6-.46-1.17-.75-2.44-.75-.21,0-.44,0-.69.02M91.53,2.98c-.64,0-1.34.03-2.13.1-2.69.22-5.39.49-8.02.78-.19.02-.34.16-.38.34-.04.18.04.37.2.47.89.55,1.77,1.11,2.64,1.68l1.45,14.13c-.77.93-1.54,1.87-2.3,2.81-.11.14-.13.33-.04.49.08.14.23.23.39.23.02,0,.03,0,.05,0,3.07-.35,6.14-.64,9.12-.87.19-.01.35-.15.39-.33s-.02-.37-.18-.48c-.94-.64-1.88-1.28-2.83-1.91l-.21-2.34-.42-4.74s.04,0,.06,0c.16,0,.36,0,.6.02,1.14.08,2.88,1.56,3.27,3.16,1.03,4.18,1.48,5.16,2.11,6.28.46.82,2.22,3.54,5.44,4.01.46.07.91.1,1.34.1,2.32,0,3.42-.99,3.62-1.2.11-.11.16-.28.11-.44-.05-.19-.22-.32-.41-.32-.48-.01-1.95-.06-3.37-1.04-1.88-1.31-3.21-4.32-3.56-5.37-.93-2.79-2.02-4.78-3.19-5.82,3.1-1.1,3.87-3.11,3.95-4.64.1-1.94-1.46-3.85-3.69-4.55-1.26-.39-2.49-.57-4-.57h0ZM88.52,4.87c.29-.1.92-.21,1.31-.25.23-.01.44-.02.64-.02,1.22,0,1.69.29,2.17.66.74.57,1.22,1.67,1.31,3.01.07,1.12-.35,2.15-1.07,2.62-.6.41-1.53.58-3.09.58-.18,0-.36,0-.56,0h-.13c-.22-2.45-.52-5.74-.59-6.6h0Z"/><path class="r" d="M102.88,22.33c-.09,0-.17-.05-.2-.13-.04-.08-.02-.18.05-.25.78-.76,1.57-1.52,2.37-2.28l-.38-14.78c-.88-.65-1.76-1.3-2.65-1.95-.08-.06-.11-.15-.08-.24.03-.09.11-.15.2-.16,3.09-.11,6.22-.17,9.3-.17h0c.09,0,.18.06.21.15.03.09,0,.19-.07.25-.87.72-1.73,1.44-2.58,2.16l.17,14.59c.79.75,1.58,1.51,2.35,2.28.06.06.08.16.05.24-.03.08-.12.14-.21.14-2.84,0-5.71.06-8.52.16,0,0,0,0,0,0Z"/><path class="ad" d="M111.48,2.59c-.89.74-1.78,1.48-2.66,2.23.06,4.93.11,9.86.17,14.79.81.78,1.62,1.56,2.42,2.34-2.84,0-5.69.06-8.53.16.81-.79,1.62-1.57,2.44-2.35-.13-5-.26-9.99-.39-14.99-.91-.68-1.82-1.35-2.74-2.01,3.1-.11,6.2-.17,9.29-.17M111.48,2.14s0,0,0,0c-3.07,0-6.21.06-9.31.17-.19,0-.35.13-.41.31s.01.38.16.49c.86.62,1.72,1.25,2.56,1.88l.19,7.38.19,7.2c-.77.73-1.54,1.47-2.3,2.21-.13.13-.17.32-.1.49.07.16.23.27.41.27,0,0,.01,0,.02,0,2.83-.1,5.69-.15,8.51-.16.18,0,.34-.11.41-.28.07-.17.03-.36-.1-.48-.76-.74-1.52-1.48-2.29-2.21l-.17-14.39c.83-.7,1.66-1.4,2.5-2.09.14-.12.2-.32.13-.49-.06-.18-.23-.29-.42-.29h0Z"/><path class="q" d="M142.01,23.97c-2.98-.36-5.91-.66-8.73-.89-.09,0-.17-.07-.19-.16-.03-.09,0-.18.08-.24.85-.64,1.7-1.28,2.55-1.92l1.48-15.61c-.55-.05-1.1-.1-1.65-.15-.88,1.43-1.74,2.87-2.59,4.31-.04.07-.11.11-.19.11,0,0-1.32-.1-1.32-.1-.06,0-.11-.03-.15-.08-.04-.04-.06-.1-.05-.16l.43-5.78c0-.06.03-.11.08-.15.04-.04.09-.05.14-.05,0,0,.01,0,.02,0,5.21.38,10.46.92,15.6,1.6.06,0,.11.04.15.08.04.05.05.11.04.16l-.76,5.75c-.01.11-.11.19-.22.19,0,0-1.07-.14-1.07-.14-.08,0-.14-.06-.17-.13-.75-1.62-1.52-3.24-2.31-4.85-.51-.06-1.02-.12-1.53-.17l-1.71,15.58c.77.8,1.53,1.6,2.28,2.41.06.07.08.17.04.25-.04.08-.12.12-.2.12,0,0-.02,0-.03,0Z"/><path class="ad" d="M131.88,3.32c5.21.38,10.41.91,15.59,1.6-.25,1.92-.51,3.83-.76,5.75-.35-.05-.7-.09-1.05-.14-.77-1.66-1.56-3.31-2.37-4.96-.62-.07-1.25-.14-1.87-.21-.58,5.3-1.16,10.6-1.74,15.9.79.83,1.57,1.65,2.35,2.49-2.91-.35-5.82-.65-8.74-.89.87-.66,1.75-1.32,2.63-1.98.5-5.31,1-10.62,1.51-15.93-.67-.06-1.34-.12-2.01-.18-.9,1.47-1.79,2.95-2.66,4.43-.44-.03-.87-.07-1.31-.1.14-1.93.28-3.86.43-5.78M131.88,2.88c-.11,0-.21.04-.29.11-.09.08-.14.19-.15.3l-.21,2.86-.22,2.93c0,.12.03.23.11.32.08.09.19.14.3.15l.84.06.46.04s.02,0,.03,0c.16,0,.3-.08.38-.22.8-1.35,1.62-2.73,2.52-4.19.43.04.86.08,1.29.12l-.95,10.02-.5,5.26c-.83.62-1.66,1.24-2.48,1.86-.15.11-.21.3-.16.48.05.18.21.3.39.32,2.82.24,5.75.54,8.73.89.02,0,.04,0,.05,0,.17,0,.32-.09.4-.24.08-.17.06-.37-.07-.5-.73-.79-1.47-1.56-2.21-2.34l1.67-15.26c.4.04.79.09,1.19.13.78,1.6,1.54,3.19,2.26,4.74.06.14.2.23.35.25l.7.09.34.04s.04,0,.06,0c.22,0,.41-.16.44-.39.25-1.92.5-3.83.76-5.75.02-.12-.02-.23-.09-.33-.07-.09-.18-.15-.29-.17-5.15-.68-10.4-1.22-15.62-1.6-.01,0-.02,0-.03,0h0Z"/><path class="p" d="M156.61,26.25c-.5,0-1-.04-1.5-.13-4.62-.8-7.2-5.16-6.41-10.85.77-5.59,4.04-9.2,8.33-9.2.44,0,.89.04,1.34.12,2.01.35,3.79,1.53,5.01,3.32,1.55,2.29,2.07,5.39,1.41,8.52-.56,2.72-1.86,5.13-3.56,6.61-1.2,1.04-2.83,1.61-4.6,1.61ZM157.49,8.29c-1.9,0-3.46,2.7-4.17,7.22-.77,4.9,0,7.93,2.11,8.29.11.02.23.03.34.03,1.64,0,3.78-2,4.63-6.4.65-3.4.39-6.26-.72-7.87-.48-.7-1.1-1.11-1.83-1.24-.12-.02-.25-.03-.37-.03Z"/><path class="ad" d="M157.02,6.29c.42,0,.86.04,1.3.11,4.47.77,7.48,5.71,6.24,11.58-.53,2.58-1.75,4.99-3.49,6.49-1.2,1.04-2.79,1.55-4.46,1.55-.48,0-.97-.04-1.46-.13-4.27-.74-7.03-4.82-6.23-10.6.75-5.42,3.95-9.01,8.11-9.01M155.78,24.05c1.83,0,4-2.16,4.85-6.58.99-5.17-.17-8.93-2.73-9.37-.14-.02-.27-.04-.4-.04-2.07,0-3.67,2.83-4.39,7.4-.79,5.01-.02,8.14,2.3,8.55.13.02.25.03.38.03M157.02,5.85c-4.41,0-7.76,3.69-8.55,9.39-.8,5.82,1.85,10.28,6.6,11.1.51.09,1.03.13,1.54.13,1.82,0,3.51-.59,4.75-1.66,1.74-1.51,3.06-3.97,3.63-6.74.67-3.18.15-6.35-1.44-8.69-1.25-1.85-3.09-3.06-5.15-3.42-.46-.08-.92-.12-1.37-.12h0ZM155.78,23.6c-.1,0-.21,0-.31-.03-1.98-.34-2.68-3.27-1.93-8.04.69-4.4,2.17-7.03,3.95-7.03.11,0,.22,0,.33.03.67.12,1.24.5,1.69,1.15,1.08,1.56,1.33,4.37.69,7.7-.82,4.27-2.86,6.22-4.41,6.22h0Z"/><path class="v" d="M177.21,30.35c-1,0-2.16-.17-3.65-.55-3.06-.77-6.13-1.48-9.11-2.11-.09-.02-.16-.09-.17-.18-.01-.09.03-.18.11-.23.91-.52,1.83-1.03,2.76-1.53l3.2-14.38c-.66-.9-1.33-1.8-2-2.7-.06-.07-.06-.17,0-.25.04-.06.11-.1.19-.1.02,0,.03,0,.05,0,2.63.56,5.24,1.16,7.76,1.77,3.02.74,4.63,1.47,5.97,2.69,1.44,1.31,2.11,3.24,1.67,4.81-.25.89-.79,1.58-1.71,2.18-.67.45-1.29.74-2.24.78.83.53,1.46.99,1.95,1.62.96,1.27,1.21,2.76.73,4.42-.46,1.6-1.54,2.78-3.06,3.34-.75.29-1.54.43-2.43.43ZM171.94,27.97c.77.19,1.48.28,2.11.28,2.11,0,3.41-1.04,3.99-3.2.31-1.15.05-2.5-.65-3.38-.65-.85-1.75-1.43-3.59-1.88-.24-.06-.61-.09-.83-.11l-1.92,8.06.89.21ZM174.15,18.24c.78.19,1.48.29,2.08.29h0c1.69,0,2.68-.76,3.11-2.39.27-1,.13-1.96-.4-2.76-.68-1.04-1.97-1.75-3.65-2h-.34s-1.59,6.68-1.59,6.68l.79.19Z"/><path class="ad" d="M168.52,8.53c2.59.55,5.18,1.14,7.75,1.77,3.01.74,4.58,1.45,5.88,2.64,1.41,1.28,2.02,3.11,1.61,4.59-.25.9-.81,1.53-1.62,2.06-.75.5-1.38.75-2.35.75-.18,0-.38,0-.58-.03,1.24.75,2.02,1.26,2.6,2,.92,1.22,1.15,2.63.69,4.22-.43,1.51-1.47,2.66-2.92,3.19-.73.28-1.49.41-2.36.41-1.03,0-2.19-.19-3.6-.54-3.03-.76-6.07-1.47-9.12-2.12.94-.53,1.89-1.06,2.84-1.58,1.08-4.86,2.16-9.72,3.24-14.57-.68-.93-1.37-1.86-2.06-2.79M176.23,18.75c1.78,0,2.87-.81,3.33-2.56.63-2.35-.88-4.53-4.23-5.04-.18,0-.36,0-.55,0-.56,2.36-1.13,4.72-1.69,7.07.34.08.67.16,1,.24.8.19,1.5.29,2.13.29M174.05,28.48c2.4,0,3.66-1.32,4.2-3.36.32-1.21.06-2.63-.69-3.57-.77-1.01-2.11-1.56-3.71-1.95-.38-.09-1.06-.13-1.06-.13-.67,2.82-1.34,5.64-2.02,8.46.37.09.74.18,1.11.27.81.2,1.52.29,2.16.29M168.52,8.09c-.15,0-.29.08-.37.2-.1.16-.09.36.02.51.65.87,1.3,1.75,1.94,2.62-1.05,4.73-2.11,9.45-3.16,14.18-.9.49-1.79.99-2.67,1.49-.16.09-.25.27-.22.45.03.18.17.33.35.37,2.98.63,6.05,1.34,9.11,2.11,1.51.38,2.69.56,3.71.56.92,0,1.74-.14,2.52-.44,1.58-.58,2.71-1.82,3.19-3.48.49-1.73.23-3.28-.77-4.61-.41-.52-.89-.92-1.49-1.33.68-.12,1.2-.39,1.73-.75.96-.63,1.54-1.36,1.8-2.31.46-1.65-.23-3.68-1.74-5.04-1.37-1.25-3.02-2-6.07-2.74-2.53-.62-5.14-1.21-7.76-1.77-.03,0-.06,0-.09,0h0ZM173.63,17.88l.81-3.42.69-2.88h.16c1.6.25,2.83.93,3.47,1.9.49.75.62,1.65.37,2.59-.41,1.54-1.3,2.23-2.9,2.23-.58,0-1.26-.09-2.02-.28l-.13-.03-.45-.11h0ZM171.31,27.6c.61-2.55,1.22-5.11,1.82-7.66.21.02.45.05.61.09,1.78.44,2.85.99,3.46,1.79.66.83.9,2.1.61,3.19-.54,2.04-1.78,3.03-3.77,3.03-.61,0-1.3-.09-2.05-.28l-.39-.09-.28-.07h0Z"/><path class="t" d="M9.58,44.29c-.09,0-.17-.05-.2-.13l-3.48-7.85c-.05-.11,0-.24.11-.29l.37-.16s.06-.02.09-.02c.06,0,.12.02.16.07,1.53,1.61,3.22,2.78,4.73,3.31,1.03.36,1.74.52,2.37.52.49,0,.95-.09,1.43-.29,1.52-.63,2.3-2.31,1.73-3.76-.37-.95-1.97-1.49-4.38-1.49-.63,0-1.28.04-1.94.11-.61.07-1.19.1-1.72.1-3.09,0-4.97-1.13-6.09-3.65-.57-1.27-.63-2.59-.15-3.8.6-1.53,2-2.82,3.94-3.63,1.04-.43,1.83-.61,2.72-.61.63,0,1.33.09,2.19.28.37-.61.75-1.22,1.13-1.83.03-.04.07-.08.12-.09l.19-.07s.06-.01.09-.01c.1,0,.2.04.23.13l2.75,7.06c.02.06.02.12,0,.17-.02.05-.07.1-.12.12l-.39.15s-.05.02-.08.02c-.07,0-.15-.04-.19-.1t0,0c-.08-.12-3.03-4.09-6.04-4.09-.43,0-.85.08-1.24.25-.97.4-1.81,1.24-2.19,2.19-.26.65-.28,1.28-.05,1.82.4.93,1.1,1.46,2.08,1.57.1.01.22.02.36.02.49,0,1.22-.06,1.99-.12.92-.07,1.96-.15,2.8-.15h.12c1.37,0,5.94.31,7.3,3.92.95,2.51.05,5.8-4.09,7.49-.64.26-1.43.39-2.42.39-.75,0-1.51-.07-2.25-.14l-.25-.02c-.43.81-.85,1.63-1.27,2.44-.03.05-.07.09-.12.11-.08.03-.17.06-.25.09-.02,0-.05.01-.07.01Z"/><path class="ad" d="M13,21.2c.91,2.35,1.83,4.71,2.75,7.06-.13.05-.26.1-.39.15,0,0-3.03-4.19-6.23-4.19-.44,0-.89.08-1.33.26-1.78.74-3.02,2.78-2.36,4.3.43.98,1.19,1.58,2.26,1.7.1.01.23.02.38.02,1.08,0,3.27-.27,4.79-.27.04,0,.08,0,.12,0,2.36.01,5.96.76,7.09,3.77,1,2.65-.23,5.68-3.97,7.21-.69.28-1.5.37-2.34.37s-1.78-.1-2.62-.17c-.45.86-.9,1.72-1.34,2.57-.08.03-.16.06-.24.08-1.16-2.62-2.32-5.23-3.48-7.85.12-.05.24-.11.36-.16,1.59,1.66,3.29,2.84,4.82,3.37.95.33,1.72.53,2.45.53.51,0,1-.1,1.51-.31,1.61-.66,2.47-2.48,1.85-4.05-.47-1.21-2.47-1.63-4.59-1.63-.66,0-1.33.04-1.97.11-.6.06-1.16.1-1.69.1-2.92,0-4.78-1.03-5.89-3.52-1.33-2.96.39-5.76,3.68-7.14.93-.39,1.71-.59,2.64-.59.66,0,1.39.1,2.3.31.4-.66.8-1.31,1.21-1.97.08-.03.16-.05.24-.08M15.36,28.41h0,0M13,20.75s-.09,0-.14.02l-.12.04-.12.04c-.1.03-.18.1-.24.19-.35.57-.7,1.13-1.04,1.7-.81-.17-1.48-.26-2.08-.26-.93,0-1.74.18-2.81.62-2,.84-3.44,2.17-4.07,3.76-.5,1.27-.45,2.64.15,3.97,1.17,2.62,3.11,3.78,6.3,3.78.53,0,1.12-.03,1.74-.1.66-.07,1.3-.11,1.92-.11,2.29,0,3.85.5,4.18,1.35.53,1.34-.19,2.9-1.61,3.48-.46.19-.88.27-1.35.27-.6,0-1.29-.15-2.3-.5-1.49-.52-3.14-1.68-4.65-3.26-.09-.09-.2-.14-.32-.14-.06,0-.12.01-.18.04l-.37.16c-.11.05-.19.14-.23.25-.04.11-.04.23,0,.34l1.27,2.87,2.21,4.98c.07.16.23.26.41.26.05,0,.09,0,.14-.02.09-.03.17-.06.26-.09.1-.04.19-.11.24-.21.4-.77.8-1.54,1.21-2.31h.1c.74.08,1.51.15,2.27.15,1.02,0,1.84-.13,2.51-.41,4.28-1.75,5.2-5.17,4.22-7.78-1.41-3.74-6.1-4.06-7.51-4.06h-.12c-.84,0-1.89.08-2.82.15-.77.06-1.5.12-1.97.12-.13,0-.24,0-.33-.01-.89-.1-1.53-.58-1.9-1.43-.26-.6-.12-1.23.05-1.65.36-.89,1.15-1.68,2.07-2.06.37-.15.76-.23,1.16-.23,2.89,0,5.75,3.84,5.85,3.99.08.13.23.2.37.2.05,0,.11,0,.16-.03l.1-.04.28-.11c.11-.04.2-.13.25-.23.05-.11.05-.23,0-.34l-2.75-7.06c-.07-.18-.24-.28-.41-.28h0Z"/><path class="u" d="M214.82,44.07s-.03,0-.05,0c-4.55-2.03-9.23-3.95-13.92-5.71-.08-.03-.14-.11-.14-.19,0-.09.04-.17.12-.21.94-.49,1.88-.98,2.83-1.47l5.16-13.36c-.36-.98-.72-1.97-1.1-2.96-.03-.08-.01-.17.05-.24.04-.04.1-.06.16-.06.03,0,.05,0,.08.01,2.97,1.12,5.92,2.29,8.75,3.47.08.04.14.12.14.21,0,.09-.06.17-.15.2-1.22.41-2.44.83-3.65,1.25l-5.79,14.34c1.36.55,2.71,1.11,4.06,1.69.11.03.34.1.62.1.55,0,.94-.25,1.15-.75.51-1.16-.68-2.47-.72-2.52-.02-.02-.04-.05-.05-.07-.03-.08-.01-.18.05-.24.8-.77,1.61-1.54,2.41-2.3.04-.04.1-.06.15-.06.04,0,.09.01.13.04.03.02.73.52,1.29,1.18.49.58.98,2.04.83,2.87-.14.79-.78,1.47-1.35,2.08-.38.4-.73.79-.88,1.13-.25.57.1,1.13.1,1.14.04.06.05.14.01.21-.04.1-.19.23-.3.23Z"/><path class="ad" d="M207.93,20.08c2.93,1.11,5.84,2.26,8.74,3.47-1.26.42-2.5.85-3.75,1.28-1.97,4.88-3.94,9.76-5.91,14.64,1.43.58,2.85,1.17,4.27,1.77t0,0s.32.12.71.12c.47,0,1.04-.16,1.36-.88.58-1.33-.77-2.76-.77-2.76.8-.77,1.6-1.53,2.41-2.29,0,0,.7.49,1.25,1.14.44.52.92,1.92.78,2.68-.22,1.23-1.82,2.25-2.21,3.16-.29.69.12,1.34.12,1.34-.02.04-.03.08-.05.11-4.6-2.05-9.24-3.96-13.93-5.72.96-.51,1.93-1.01,2.9-1.5,1.74-4.5,3.48-9.01,5.22-13.51-.37-1.01-.74-2.02-1.12-3.04M207.93,19.64c-.12,0-.23.05-.31.13-.12.12-.16.31-.1.47.36.96.72,1.92,1.07,2.88l-3.51,9.08-1.59,4.12c-.92.47-1.84.95-2.76,1.43-.15.08-.25.25-.24.42.01.17.12.33.29.39,4.68,1.76,9.35,3.68,13.9,5.71.06.03.12.04.18.04.17,0,.33-.1.4-.26l.05-.11c.06-.14.05-.29-.03-.42,0,0-.28-.48-.09-.93.13-.3.47-.67.84-1.06.59-.63,1.25-1.34,1.41-2.19.16-.89-.35-2.42-.88-3.05-.57-.68-1.3-1.19-1.33-1.22-.08-.05-.17-.08-.25-.08-.11,0-.22.04-.3.12-.81.76-1.62,1.53-2.42,2.3-.13.13-.17.32-.1.49.02.06.06.1.1.15.05.06,1.12,1.25.68,2.27-.18.42-.48.62-.95.62-.18,0-.38-.03-.55-.09-1.28-.54-2.57-1.08-3.84-1.6l.26-.64,5.41-13.4c1.18-.41,2.36-.82,3.55-1.22.18-.06.3-.22.3-.4,0-.18-.1-.35-.27-.43-2.83-1.18-5.78-2.35-8.75-3.48-.05-.02-.1-.03-.16-.03h0Z"/><path class="aa" d="M198.51,37.46s-.05,0-.08-.01c-2.66-.97-5.31-1.88-7.87-2.72-.08-.03-.14-.1-.15-.18-.01-.08.02-.17.09-.21.7-.49,1.41-.97,2.11-1.46,0-.75-.01-1.5-.02-2.25-.87.25-1.73.51-2.6.78-.02,0-.04,0-.06,0-.07,0-.13-.03-.18-.09-.51-.69-1.03-1.37-1.55-2.05l-1.08,1.84c.52.86,1.03,1.72,1.53,2.58.05.08.04.18-.02.25-.04.05-.11.08-.17.08-.02,0-.04,0-.07-.01-2.04-.65-4.1-1.28-6.11-1.86-.09-.03-.15-.1-.16-.19,0-.09.03-.18.11-.22.9-.51,1.81-1.02,2.72-1.52,2.58-4.33,5.3-8.75,8.08-13.14-.33-.77-.67-1.54-1.01-2.31-.04-.08-.02-.17.04-.24.04-.05.1-.07.17-.07.02,0,.04,0,.07.01,2.77.86,5.56,1.77,8.29,2.71.09.03.15.11.15.21,0,.09-.06.18-.15.21-.95.34-1.9.69-2.84,1.04-.24,5.09-.55,10.22-.94,15.27.64,1.06,1.27,2.13,1.88,3.19.05.08.04.18-.02.25-.04.05-.11.08-.17.08ZM189.58,26.95c1.11.35,2.22.7,3.32,1.07.11-2.32.21-4.64.29-6.97-1.22,1.96-2.42,3.93-3.61,5.9Z"/><path class="ad" d="M192.24,14.71c2.77.86,5.53,1.76,8.28,2.7-1,.36-1.99.73-2.98,1.1-.24,5.17-.56,10.34-.95,15.48.65,1.08,1.29,2.17,1.92,3.25-2.61-.95-5.24-1.86-7.88-2.72.73-.51,1.47-1.02,2.21-1.52,0-.89-.02-1.77-.03-2.66-.96.28-1.92.57-2.88.86-.58-.77-1.16-1.54-1.75-2.31-.44.75-.88,1.49-1.32,2.24.54.9,1.07,1.8,1.6,2.7-2.03-.65-4.07-1.27-6.12-1.86.92-.52,1.84-1.03,2.78-1.54,2.65-4.46,5.38-8.89,8.17-13.28-.35-.81-.7-1.61-1.05-2.42M193.44,20.23c-1.42,2.27-2.81,4.56-4.2,6.85,1.29.4,2.58.82,3.87,1.24.13-2.69.24-5.39.33-8.09M192.24,14.26c-.12,0-.25.05-.33.15-.12.13-.14.32-.07.47.32.73.64,1.47.96,2.2-2.75,4.33-5.44,8.7-7.99,12.99-.9.49-1.79.99-2.67,1.49-.16.09-.24.26-.22.44.02.18.15.33.32.38,2.01.58,4.06,1.21,6.11,1.86.04.01.09.02.13.02.13,0,.26-.06.35-.17.11-.14.13-.34.04-.5-.48-.83-.97-1.65-1.46-2.47.28-.48.56-.96.85-1.44.45.59.9,1.19,1.35,1.78.09.11.22.18.36.18.04,0,.09,0,.13-.02.77-.24,1.54-.47,2.31-.69,0,.61.02,1.22.02,1.84-.68.46-1.35.92-2.02,1.39-.14.1-.21.26-.19.43.02.17.14.3.3.36,2.56.84,5.2,1.75,7.86,2.72.05.02.1.03.15.03.13,0,.25-.06.34-.16.12-.14.14-.35.04-.51-.61-1.04-1.22-2.09-1.85-3.13.38-4.97.69-10.03.93-15.06.9-.33,1.8-.67,2.7-.99.18-.06.29-.23.29-.42s-.12-.36-.3-.42c-2.73-.94-5.52-1.85-8.29-2.71-.04-.01-.09-.02-.13-.02h0ZM189.92,26.82c.99-1.64,2-3.3,3.02-4.94-.07,1.86-.15,3.79-.24,5.84-.92-.3-1.85-.6-2.78-.89h0Z"/></g></svg>