
<svg width="100px" height="105px" viewBox="1198 935 100 105" version="1.1" xmlns="http://www.w3.org/2000/svg" xmlns:xlink="http://www.w3.org/1999/xlink">
    <!-- Generator: Sketch 42 (36781) - http://www.bohemiancoding.com/sketch -->
    <desc>Created with Sketch.</desc>
    <defs></defs>
    <g id="stg_lion" stroke="none" stroke-width="1" fill="none" fill-rule="evenodd" transform="translate(1198.000000, 935.000000)">
        <g id="Assets" fill-rule="nonzero">
            <g>
                <g id="asset_general">
                    <g id="brand">
                        <g id="branding">
                            <g id="stg_lion">
                                <polygon id="bar" fill="#950B31" points="0 100 100 100 100 105 0 105"></polygon>
                                <polygon id="bg" fill="#FFFFFF" points="0 0 100 0 100 100 0 100"></polygon>
                                <path d="M55.9717973,32.12 C56.8777973,32.026 56.7857973,32.43 56.5377973,32.866 C57.1237973,32.964 57.4997973,33.278 57.4997973,33.278 C57.4997973,33.278 55.7057973,32.882 53.4397973,33.53 C53.6697973,33.196 54.5937973,32.262 55.9717973,32.12 L55.9717973,32.12 Z M48.5397973,23.052 C49.0477973,23.016 49.4197973,23 49.7777973,23 C50.1457973,23 50.5157973,23.016 51.0237973,23.052 C50.2277973,24.48 51.1797973,26.456 53.0377973,26.492 C54.6137973,26.52 55.4937973,25.116 55.3797973,24.006 C55.9337973,24.226 56.8137973,24.62 57.5917973,25.16 C56.2557973,25.988 55.2737973,28.824 55.0917973,29.878 C55.7397973,30.03 57.0157973,30.37 58.2937973,31.18 C59.9797973,32.244 58.6277973,32.87 58.6277973,32.87 C58.6277973,32.87 62.2757973,33.602 63.8217973,34.882 C65.0157973,35.87 63.7777973,36.232 63.4937973,36.18 C63.6497973,37.804 62.9077973,39.086 62.5057973,39.484 C62.6217973,37.624 60.7597973,36.83 59.1637973,37.636 C57.9477973,38.254 56.7857973,39.956 57.4937973,41.366 C58.2697973,42.914 60.3417973,42.554 61.3537973,41.62 C61.3657973,42.476 61.0617973,45.034 58.1897973,45.854 C58.5357973,44.964 58.0937973,44.082 56.9677973,43.144 C53.1997973,39.984 55.4877973,36.042 58.7217973,35.796 C55.2477973,34.16 52.3277973,36.422 52.1777973,38.206 C52.3017973,37.948 53.1257973,37.174 54.2337973,36.968 C52.0617973,39.656 54.2637973,42.082 55.1437973,42.544 C49.2037973,41.688 48.2277973,36.068 52.4997973,33.808 C50.3677973,33.792 48.8677973,32.082 50.9657973,31.124 C47.3197973,31.36 48.4997973,33.906 50.8997973,34.186 C49.7697973,34.742 47.8777973,36.034 48.2137973,38.812 C48.5177973,41.326 49.7957973,42.296 50.5077973,42.914 C46.7337973,42.024 46.0917973,39.918 45.6937973,38.016 C45.5197973,37.184 45.4697973,36.676 44.8117973,36.788 C44.1257973,36.908 43.3597973,38.172 43.1277973,38.836 C38.7237973,50.932 52.7597973,56.102 52.5117973,62.11 C49.8317973,54.894 34.2457973,52 39.5497973,37.702 C37.0837973,39.546 36.1417973,44.054 36.1417973,44.054 C36.1417973,44.054 34.2277973,35.258 44.4637973,29.87 C43.9417973,27.52 42.7957973,25.652 41.9677973,25.16 C42.7357973,24.656 43.2437973,24.39 44.1857973,24.006 C44.0637973,24.992 44.8697973,26.512 46.5037973,26.492 C48.3117973,26.474 49.3637973,24.55 48.5397973,23.052 Z M55.9117973,55.238 C52.9557973,50.902 48.3617973,49.642 45.8557973,44.96 C49.4257973,48.332 53.1257973,49.16 56.6657973,52.274 C61.2777973,56.34 58.7817973,64.054 55.0117973,67.702 C55.0117973,67.702 59.2277973,60.096 55.9117973,55.238 Z M49.8197973,69.684 C47.1257973,65.492 43.3777973,64.238 43.3777973,58.37 C45.0117973,63.304 47.9537973,63.494 51.0457973,67.46 C54.5937973,72.004 52.0797973,78.534 49.4417973,80.238 C49.4417973,80.238 53.1197973,74.812 49.8197973,69.684 Z" id="Shape" fill="#595E61"></path>
                            </g>
                        </g>
                    </g>
                </g>
            </g>
        </g>
    </g>
</svg>
