<svg width="283" height="44" viewBox="0 0 283 44" fill="none" xmlns="http://www.w3.org/2000/svg">
<path d="M1.31756 41.3664H46.2122C46.3152 41.6352 46.2502 41.7655 45.9601 41.7492C45.8869 41.7438 45.8138 41.7492 45.7406 41.7492C31.0919 41.7492 16.4433 41.7492 1.79464 41.7438C1.5805 41.7438 1.20371 41.8904 1.31756 41.3664Z" fill="black"/>
<path d="M55.233 41.6379L54.5906 40.1935L53.9454 41.6379H55.233ZM53.3545 42.9574L52.975 43.8126H50.7251L53.425 38.3771H55.7833L58.4831 43.8126H56.2034L55.8239 42.9574H53.3545Z" fill="black"/>
<path d="M64.8346 39.9437V40.5817H67.9844V42.0967H64.8346V43.8126H62.6633V38.3744H68.6729V39.9437H64.8346Z" fill="black"/>
<path d="M73.6875 41.6379L73.0451 40.1935L72.3999 41.6379H73.6875ZM71.809 42.9574L71.4295 43.8126H69.1796L71.8794 38.3771H74.2378L76.9376 43.8126H74.6579L74.2784 42.9574H71.809Z" fill="black"/>
<path d="M86.309 38.3744V43.8126H84.1702V40.8695L82.3866 43.0986H82.2782L80.4945 40.8695V43.8126H78.3992V38.3744H80.7737L82.3866 40.5274L84.013 38.3744H86.309Z" fill="black"/>
<path d="M90.5265 38.3744H88.3552V43.8099H90.5265V38.3744Z" fill="black"/>
<path d="M98.0405 42.1972V43.8126H92.5351V38.3744H94.7063V42.1972H98.0405Z" fill="black"/>
<path d="M100.616 38.3744L101.771 40.3645L102.917 38.3744H105.284L102.847 42.0262V43.8126H100.676V42.0262L98.2413 38.3744H100.616Z" fill="black"/>
<path d="M111.415 40.6577H106.045V42.2107H111.415V40.6577Z" fill="black"/>
<path d="M118.357 41.0948C118.357 40.3183 117.799 39.8514 116.869 39.8514C115.939 39.8514 115.381 40.3183 115.381 41.0948C115.381 41.8713 115.939 42.3383 116.869 42.3383C117.799 42.3383 118.357 41.8713 118.357 41.0948ZM113.177 41.0948C113.177 39.2242 114.665 38.1897 116.869 38.1897C119.073 38.1897 120.561 39.2215 120.561 41.0948C120.561 42.9682 119.073 43.9999 116.869 43.9999C114.665 43.9999 113.177 42.9655 113.177 41.0948Z" fill="black"/>
<path d="M131.702 38.3744L129.732 43.8126H127.623L126.647 40.5899L125.668 43.8126H123.559L121.591 38.3744H123.746L124.676 41.6216L125.709 38.3744H127.615L128.647 41.6216L129.577 38.3744H131.702Z" fill="black"/>
<path d="M140.119 38.3744V43.8126H138.211L135.389 40.8533V43.8126H133.296V38.3744H135.589L138.026 40.9917V38.3744H140.119Z" fill="black"/>
<path d="M148.273 42.3058V43.8126H142.147V38.3744H148.189V39.8813H144.272V40.3863H147.422V41.7384H144.272V42.3058H148.273Z" fill="black"/>
<path d="M154.757 41.0949C154.757 40.3971 154.214 39.9926 153.282 39.9926H152.352V42.1972H153.282C154.212 42.1972 154.757 41.7927 154.757 41.0949ZM156.974 41.0949C156.974 42.8271 155.61 43.8126 153.469 43.8126H150.181V38.3771H153.469C155.608 38.3771 156.974 39.3627 156.974 41.0949Z" fill="black"/>
<path d="M166.535 41.5999L168.28 42.523C167.8 43.3783 166.613 43.9973 165.079 43.9973C163.016 43.9973 161.544 42.9656 161.544 41.0922C161.544 39.2188 163.019 38.1871 165.158 38.1871C166.616 38.1871 167.787 38.8251 168.25 39.6478L166.505 40.5709C166.188 40.0903 165.713 39.8487 165.125 39.8487C164.304 39.8487 163.745 40.3157 163.745 41.0922C163.745 41.8687 164.304 42.3357 165.125 42.3357C165.713 42.3357 166.204 42.1103 166.537 41.5972" fill="black"/>
<path d="M174.737 41.0949C174.737 40.3184 174.179 39.8514 173.249 39.8514C172.319 39.8514 171.761 40.3184 171.761 41.0949C171.761 41.8714 172.319 42.3384 173.249 42.3384C174.179 42.3384 174.737 41.8714 174.737 41.0949ZM169.557 41.0949C169.557 39.2242 171.045 38.1898 173.249 38.1898C175.453 38.1898 176.938 39.2215 176.938 41.0949C176.938 42.9683 175.45 44 173.249 44C171.048 44 169.557 42.9656 169.557 41.0949Z" fill="black"/>
<path d="M186.659 38.3744V43.8126H184.518V40.8695L182.734 43.0986H182.626L180.842 40.8695V43.8126H178.749V38.3744H181.121L182.734 40.5274L184.363 38.3744H186.659Z" fill="black"/>
<path d="M193.154 40.4487C193.154 40.0306 192.853 39.865 192.449 39.865H190.953V41.0297H192.449C192.853 41.0297 193.154 40.8668 193.154 40.4487ZM195.341 40.3863C195.341 41.7546 194.262 42.3981 192.628 42.3981H190.953V43.8126H188.781V38.3771H192.628C194.265 38.3771 195.341 39.0206 195.341 40.389" fill="black"/>
<path d="M200.354 41.6379L199.711 40.1935L199.066 41.6379H200.354ZM200.942 42.9574H198.475L198.096 43.8126H195.846L198.546 38.3771H200.904L203.601 43.8126H201.321L200.942 42.9574Z" fill="black"/>
<path d="M211.893 38.3744V43.8126H209.985L207.163 40.8533V43.8126H205.07V38.3744H207.366L209.8 40.9917V38.3744H211.893Z" fill="black"/>
<path d="M215.767 38.3744L216.921 40.3645L218.071 38.3744H220.435L218 42.0262V43.8126H215.829V42.0262L213.395 38.3744H215.767Z" fill="black"/>
<path d="M220.789 42.9411C220.789 42.3818 221.261 41.9474 221.944 41.9474C222.627 41.9474 223.099 42.3818 223.099 42.9411C223.099 43.5004 222.627 43.9348 221.944 43.9348C221.261 43.9348 220.789 43.5004 220.789 42.9411Z" fill="black"/>
<path d="M234.004 42.3058V43.8126H227.878V38.3744H233.917V39.8813H230.003V40.3863H233.15V41.7384H230.003V42.3058H234.004Z" fill="black"/>
<path d="M242.209 42.0099C242.209 43.2208 241.147 43.9973 239.108 43.9973C237.674 43.9973 236.403 43.6308 235.503 42.9873L236.541 41.79C237.146 42.2026 238.092 42.5284 239.138 42.5284C239.775 42.5284 240.076 42.4361 240.076 42.2407C240.076 42.0452 239.867 41.9692 238.959 41.8904C237.246 41.7438 235.75 41.3474 235.75 40.0741C235.75 38.8007 237.075 38.1871 238.875 38.1871C240 38.1871 241.163 38.4423 241.984 38.9555L241 40.1582C240.371 39.7781 239.667 39.6288 238.883 39.6288C238.412 39.6288 237.883 39.6749 237.883 39.884C237.883 40.0632 238.254 40.1175 239.038 40.1799C240.892 40.3347 242.209 40.6768 242.209 42.0044" fill="black"/>
<path d="M249.819 39.9681H247.772V43.8126H245.601V39.9681H243.554V38.3744H249.819V39.9681Z" fill="black"/>
<path d="M250.493 42.9411C250.493 42.3818 250.965 41.9474 251.648 41.9474C252.331 41.9474 252.803 42.3818 252.803 42.9411C252.803 43.5004 252.331 43.9348 251.648 43.9348C250.965 43.9348 250.493 43.5004 250.493 42.9411Z" fill="black"/>
<path d="M258.85 40.465C258.409 40.6985 257.85 40.837 257.275 40.9374V39.3138C258.013 39.2134 258.872 38.8251 259.384 38.3744H261.019V43.8099H258.848V40.4623L258.85 40.465Z" fill="black"/>
<path d="M266.104 40.4269C266.571 40.4269 266.996 40.264 266.996 39.9844C266.996 39.7047 266.571 39.5418 266.104 39.5418C265.638 39.5418 265.213 39.7047 265.213 39.9844C265.213 40.264 265.638 40.4269 266.104 40.4269ZM267.129 42.1211C267.129 41.7492 266.617 41.5917 266.104 41.5917C265.592 41.5917 265.08 41.7464 265.08 42.1211C265.08 42.4958 265.592 42.6478 266.104 42.6478C266.617 42.6478 267.129 42.4931 267.129 42.1211ZM269.384 42.2922C269.384 43.3809 268.018 43.9999 266.104 43.9999C264.191 43.9999 262.824 43.3782 262.824 42.2922C262.824 41.5618 263.437 41.1491 264.267 40.9944C263.429 40.8776 263.033 40.3265 263.033 39.7509C263.033 38.6649 264.475 38.1897 266.104 38.1897C267.734 38.1897 269.176 38.6649 269.176 39.7509C269.176 40.3265 268.78 40.8776 267.942 40.9944C268.772 41.1491 269.384 41.5618 269.384 42.2922Z" fill="black"/>
<path d="M275.54 42.0099C275.54 41.6216 275.169 41.4587 274.578 41.4587C274.158 41.4587 273.702 41.551 273.328 41.7302C273.507 42.39 274.003 42.561 274.578 42.561C275.153 42.561 275.54 42.3981 275.54 42.0099ZM277.72 41.9474C277.72 43.1122 276.649 43.9973 274.581 43.9973C272.512 43.9973 271.076 42.9031 271.076 41.0922C271.076 39.2813 272.439 38.1871 274.581 38.1871C275.931 38.1871 276.961 38.5455 277.611 39.0641L276.565 40.1664C276.099 39.8324 275.456 39.6234 274.844 39.6234C274.131 39.6234 273.518 39.8107 273.323 40.5329C273.843 40.2451 274.502 40.1528 275.036 40.1528C276.099 40.1528 277.72 40.5247 277.72 41.9474Z" fill="black"/>
<path d="M280.829 40.465C280.387 40.6985 279.828 40.837 279.254 40.9374V39.3138C279.991 39.2134 280.85 38.8251 281.363 38.3744H283V43.8099H280.829V40.4623V40.465Z" fill="black"/>
<path d="M41.322 17.4387C40.1536 16.6215 36.2096 14.2893 26.6164 13.8141L21.054 13.4829C17.1913 13.2494 11.6506 13.1191 9.49288 11.2294C14.0496 10.9579 19.9833 9.06281 22.9217 4.34135C26.1691 9.51622 33.0272 11.3163 37.6815 11.262C39.7335 11.1561 41.7747 10.909 43.7887 10.5181C42.5011 7.04553 36.3993 0 22.7591 0C14.242 0 6.40539 2.48155 2.85437 7.1297C-0.49335 11.5254 1.8487 17.2514 9.34651 19.2632C12.3771 20.0126 15.4781 20.4307 18.5981 20.5149L24.8517 20.8352C27.7684 20.9873 31.7288 21.3511 33.8594 22.8878C30.9481 26.0101 27.1152 28.1115 22.919 28.8853C17.9665 27.9731 13.5481 25.2119 10.5501 21.1583L0 23.2978C2.39084 29.6917 12.2768 34.7254 22.9163 34.7254C28.3594 34.7254 35.662 33.4575 40.4789 29.6917C44.9435 26.1974 46.3395 20.9465 41.3165 17.4333L41.322 17.4387ZM67.4369 33.6692L75.2058 14.0911L82.9855 33.6584H93.6006L105.162 5.78303H95.5903L88.0653 26.2653L80.0742 5.7939H70.5515L62.3814 26.2762L54.9053 5.7939H44.6859L55.8405 33.6692H67.4369ZM143.694 16.6704L138.631 16.3663C133.475 16.0568 132.182 15.3807 132.529 13.6186C132.876 11.8566 136.137 10.7624 140.618 10.9742C144.486 11.1534 147.137 12.3562 148.294 14.5825L158.102 12.5734C155.771 8.53066 149.029 5.25632 139.87 5.25632C129.526 5.25632 121.567 9.28816 121.567 14.8594C121.567 21.1665 130.862 21.9864 136.175 22.2715L141.867 22.5756C147.029 22.8525 149.241 23.4525 148.777 25.573C147.966 29.2519 136.178 30.2917 131.54 24.8806L120.962 27.0472C123.733 31.2908 130.802 34.5896 140.667 34.5896C148.94 34.5896 159.343 31.8311 159.343 24.468C159.327 17.7156 148.21 16.9473 143.697 16.6704H143.694ZM270.661 15.0766C270.661 11.7453 266.679 11.6855 264.581 11.6855H253.204V18.7311H264.565C266.641 18.7365 270.661 18.427 270.661 15.0793V15.0766ZM282.667 33.6584H271.596C268.783 29.4691 263.979 24.4462 253.874 24.4462H253.215V33.6584H243.638V5.7939H265.516C273.561 5.7939 276.11 6.8772 277.996 8.8456C279.446 10.3687 280.159 12.5571 280.159 15.3481C280.159 18.1392 278.536 23.1186 271.875 24.115C276.166 26.0101 280.192 29.8057 282.664 33.6692V33.6584H282.667ZM205.187 33.6584H238.902V27.8156H214.869V22.5647H235.774V16.7029H214.869V11.6584H238.902V5.7939H205.187V33.6584ZM190.546 16.3174H172.46V5.7939H162.9V33.6692H172.46V22.8905H190.546V33.6692H200.107V5.7939H190.546V16.3174ZM107.802 5.7939H117.086V33.6692H107.802V5.7939Z" fill="black"/>
</svg>
