<?xml version="1.0" encoding="UTF-8"?>
<svg id="Camada_1" xmlns="http://www.w3.org/2000/svg" viewBox="0 0 128 43">
  <path fill="#000000" fill-rule="evenodd" clip-rule="evenodd" d="M29,2.9h-4.8c-.3,0-.4.3-.2.7l.2.5c.2.4.3,1,.2,1.4l-2.9,20.4c-.1.4-.2.4-.3,0l-3.4-12.7c-.1-.4,0-1,.1-1.4l.2-.4c.2-.4,0-.7-.4-.7h-4.6c-.4,0-.6.3-.4.7l.2.3c.2.4.3,1,.2,1.4l-3.8,16.1c-.1.4-.2.4-.3,0L5.1,5.6c-.1-.4,0-1,.2-1.4l.3-.6c.2-.4,0-.7-.3-.7H.1c-.2,0-.2.3,0,.6l.3.5c.2.4.4,1,.5,1.4l5.3,34.3c.1.4.1,1.1,0,1.5l-.2,1c-.1.4.2.6.5.4l4.6-2.6c.4-.2.5-.6.3-.9-.2-.3-.3-.9-.2-1.3l4.2-17.8c.1-.4.2-.4.3,0l3.7,14.9c.1.4.1,1,.1,1.5v.2c-.1.4.2.6.6.5l4.5-1.5c.4-.1.5-.5.3-.9h0c-.2-.3-.4-1-.3-1.4l3.6-27.5c.1-.4.3-1,.4-1.4.2-.4.3-.6.4-.8.2-.4.2-.7,0-.7ZM47.1,29.9c-.2-.3-.5-.9-.6-1.3l-5.7-23.3c-.1-.4,0-1,.1-1.4l.2-.3c.2-.4.1-.7-.3-.7h-6c-.3,0-.4.3-.2.7l.1.2c.2.4.2,1,.1,1.4l-5.4,26.3c-.1.4-.3,1-.4,1.4l-.1.3c-.1.4.1.6.5.5l4.3-1c.4-.1.6-.5.3-.8h0c-.2-.4-.3-1-.2-1.4l1.1-5.9c.1-.4.5-.6.9-.5l5.4,1.6c.4.1.8.5.9.9l.5,2.3c.1.4.1,1,0,1.4v.1c-.1.4.2.7.6.6l3.8-.5c.4-.1.5-.4.3-.7l-.2.1ZM40.1,21.4l-3.7-.9c-.4-.1-.7-.5-.6-.9l2-10.5c.1-.4.2-.4.3,0l2.6,11.9c0,.3-.2.5-.6.4ZM76.6,3h-5.9c-.2,0-.3.3-.1.7l.2.6c.2.4.3,1,.3,1.4v22.6c0,.4-.2,1-.4,1.4h0c-.2.4,0,.7.4.7.3,0,.8.1,1.3.1.6.1,1.4.1,2.2.2.2,0,.4.1.6.1.3,0,.5-.2.3-.6l-.1-.2c-.2-.4-.3-1-.3-1.4v-7.5c0-.4.3-.7.7-.7h1.5c10.9.1,10.4-8.2,10.4-8.2.2-10-11.1-9.2-11.1-9.2ZM76.9,16.8h-1c-.4,0-.7-.3-.7-.7V7.2c0-.4.3-.7.6-.7h.6s7.4-.1,7.4,5.2c-.1-.1.5,5.1-6.9,5.1ZM104.3,2.8c-.3.1-.9.2-1.3.2h-11.9c-.2,0-.3.3-.1.7l.2.5c.2.4.3,1,.3,1.4v25.4c0,.4-.2,1-.5,1.3l-.2.2c-.3.3-.2.6.2.7.6.2,1.5.4,1.5.4,1.1.3,6.6,1.8,10.1,3,.4.1,1,.4,1.3.6l.3.2c.4.2.7.3.7.2v-4.8c0-.4-.3-.5-.6-.3l-.2.1c-.3.2-.9.3-1.3.1-1.6-.6-4-1.3-6.6-2-.4-.1-.7-.5-.7-.9v-9.4c0-.4.3-.7.7-.7l5,.4c.4,0,1,.3,1.3.5l.3.2c.3.3.6.2.6-.1v-4.7c0-.3-.3-.3-.6-.1l-.2.1c-.3.2-1,.4-1.4.3l-5-.3c-.4,0-.7-.4-.7-.8V7.2c0-.4.3-.7.7-.7h6.2c.4,0,1,.2,1.4.4l.5.3c.3.2.6.1.6-.2V2.9c0-.2-.3-.2-.6-.1ZM75.5,33.4c-1.6.5-5.7,1.1-9.2-2.8,0,0-3.3-4-5-10.7-.1-.4.1-.8.5-.9,5.5-1.9,5.2-6.9,5.2-6.9.2-9.9-11.1-9.1-11.1-9.1h-5.9c-.2,0-.3.3-.1.7l.2.5c.2.4.3,1,.3,1.4v22.6c0,.4-.1,1-.3,1.4l-.1.3c-.1.4.1.7.5.6.9-.1,2.6-.2,4-.2.4,0,.6-.3.4-.7l-.2-.4c-.2-.4-.4-1-.4-1.4v-7.4c0-.4.3-.7.7-.7h1.7c.2,0,.4.3.5.7l.6,2.1s3.4,14.1,13.7,14.7c0,0,4.2.5,4.4-3.3.3-.4,0-.6-.4-.5ZM56.2,16.5h-1c-.4,0-.7-.3-.7-.7V7.2c0-.4.3-.7.6-.7h.6s6.7-.1,7.4,4.5c.1.4.1,1.1,0,1.5-.2,1.2-1.3,4-6.9,4ZM123.3,7.3c-.7-.9-1.4-1.5-2.2-2.1-.7-.6-1.5-1-2.3-1.4-.8-.3-1.6-.6-2.4-.7s-1.6-.1-2.5-.1h-4.8c-.3,0-.4.3-.2.6l.4.6c.2.4.4,1,.4,1.4v30.2c0,.4-.2,1-.5,1.3l-.4.4c-.3.3-.2.7.2.9l1.3.6c.8.4,2.3,1.1,3.6,1.7l2,1c.4.2,1,.4,1.4.5,5.9,1.2,7.9-5.3,7.9-5.3,4.3-10.7,2.2-25-1.9-29.6ZM121.6,35.2s-1.4,4.2-4.9,2.3l-2.1-1.2c-.4-.2-.6-.7-.6-1.1V7.8c0-.4.3-.8.7-.8,1.4,0,4.6.5,6.4,3.4.9,1.3,1.6,3.4,2,5.2.4,2,1.7,11.5-1.5,19.6Z"/>
  <path fill="#0abbb5" d="M12.6,4.4c1.2.5,2.1,1.7,2.5,3.1q.2.8.4,0c.4-1.5,1.3-2.6,2.5-3.1q.8-.3,0-.6c-1.2-.5-2.1-1.7-2.5-3.1q-.2-.8-.4,0c-.4,1.4-1.3,2.6-2.5,3.1-.8.3-.8.2,0,.6Z"/>
</svg>
